<svg width="1440" height="40" viewBox="0 0 1440 40" fill="none" xmlns="http://www.w3.org/2000/svg">
<g opacity="0.2">
<path d="M122.234 11.0631C121.898 11.3586 121.636 11.7837 121.427 12.2938C121.216 12.8081 121.047 13.4385 120.915 14.176C120.65 15.6504 120.521 17.6068 120.521 20.0332C120.521 22.4377 120.65 24.3787 120.915 25.8445C121.174 27.2787 121.582 28.3719 122.234 28.9494L122.235 28.951C122.572 29.2463 123.061 29.4694 123.649 29.6468C124.246 29.8268 124.989 29.9724 125.871 30.0873C127.634 30.3172 129.999 30.4303 132.957 30.4303C135.642 30.4303 137.837 30.3482 139.538 30.1821C141.218 30.0181 142.474 29.7676 143.241 29.3992C144.714 28.7131 145.401 27.154 145.491 24.9968H156.596C156.571 28.2057 156.299 30.7849 155.792 32.7477C155.256 34.8215 154.475 36.1364 153.519 36.816C152.325 37.6645 150.045 38.3483 146.576 38.8103C143.132 39.2689 138.595 39.5 132.957 39.5C127.325 39.5 122.826 39.2468 119.45 38.7449C116.044 38.2385 113.881 37.4913 112.822 36.579L112.82 36.5779C111.759 35.6703 110.895 33.884 110.306 31.0827C109.721 28.301 109.424 24.6043 109.424 19.9801C109.424 15.3682 109.707 11.6903 110.266 8.93364C110.83 6.155 111.655 4.40615 112.66 3.54105C113.775 2.58617 115.984 1.81024 119.412 1.28466C122.813 0.763164 127.325 0.5 132.957 0.5C138.559 0.5 143.068 0.731116 146.492 1.1897C149.941 1.65158 152.208 2.33525 153.397 3.18359L153.4 3.18513C154.399 3.88974 155.208 5.22089 155.763 7.29302C156.288 9.25588 156.57 11.8258 156.596 15.0164H145.437C145.351 12.9661 144.721 11.4641 143.363 10.7673L143.36 10.7662C142.525 10.3429 141.226 10.0502 139.518 9.85848C137.796 9.66519 135.608 9.56974 132.957 9.56974C129.999 9.56974 127.633 9.68392 125.87 9.9161C124.988 10.0322 124.245 10.1792 123.648 10.3611C123.06 10.5401 122.571 10.7653 122.234 11.0631ZM122.234 11.0631C122.235 11.0628 122.235 11.0625 122.235 11.0623L122.565 11.4381L122.234 11.0639C122.234 11.0636 122.234 11.0633 122.234 11.0631ZM-0.389303 27.3796V38.9553H-11.5V1.04467H29.5249V10.1144H0.110697H-0.389303V10.6144V17.3099V17.8099H0.110697H27.8735V26.8796H0.110697H-0.389303V27.3796ZM72.7378 10.1144H55.8505V1.04467H101.655V10.1144H84.8351H84.3351V10.6144V38.9553H73.2378V10.6144V10.1144H72.7378ZM172.594 39.0169C169.005 38.1844 166.735 36.3733 165.787 33.5835L168.096 3.05546C170.584 1.01849 178.099 0 190.639 0C203.144 0 210.64 1.00077 213.128 3.00232C215.474 4.88874 216.646 10.5657 216.646 20.0332C216.646 29.5007 215.492 35.16 213.182 37.011C210.694 39.0037 203.179 40 190.639 40C181.473 40 175.458 39.6723 172.594 39.0169ZM215.29 31.2783C214.717 34.0868 213.879 35.8115 212.869 36.6208C212.319 37.0612 211.453 37.4742 210.23 37.8396C209.014 38.2031 207.477 38.5101 205.614 38.7571C201.888 39.2511 196.899 39.5 190.639 39.5C181.463 39.5 175.507 39.1702 172.707 38.5299C169.237 37.7252 167.139 36.0065 166.26 33.4225L166.26 33.4215C165.914 32.4113 165.642 30.7976 165.459 28.548C165.277 26.3081 165.186 23.471 165.186 20.0332C165.186 15.3144 165.469 11.5699 166.028 8.78661C166.593 5.97681 167.418 4.25188 168.412 3.44321L168.413 3.44236C168.963 2.99219 169.828 2.57023 171.051 2.19689C172.267 1.82547 173.803 1.51179 175.665 1.25934C179.39 0.754416 184.379 0.5 190.639 0.5C196.882 0.5 201.857 0.749993 205.574 1.24618C207.432 1.49428 208.965 1.80256 210.179 2.16763C211.4 2.53463 212.265 2.94945 212.815 3.39193C213.845 4.22012 214.696 5.9605 215.277 8.776C215.854 11.567 216.146 15.315 216.146 20.0332C216.146 24.7518 215.858 28.4957 215.29 31.2783ZM203.139 10.8619L203.131 10.856C202.765 10.5996 202.221 10.4082 201.557 10.2551C200.88 10.099 200.026 9.97181 199.002 9.87105C196.954 9.66945 194.181 9.56974 190.693 9.56974C187.204 9.56974 184.432 9.66945 182.383 9.87105C181.359 9.97181 180.505 10.099 179.828 10.2551C179.164 10.4082 178.62 10.5996 178.255 10.856L178.252 10.8577C177.864 11.1331 177.561 11.5544 177.32 12.0695C177.077 12.5872 176.884 13.229 176.732 13.9834C176.43 15.4915 176.283 17.5129 176.283 20.0332C176.283 22.5314 176.43 24.5323 176.733 26.0213C176.884 26.766 177.078 27.399 177.321 27.9082C177.562 28.4119 177.865 28.8236 178.253 29.0899C178.619 29.3554 179.16 29.5545 179.82 29.7139C180.496 29.8772 181.347 30.0101 182.367 30.1154C184.408 30.3261 187.168 30.4303 190.639 30.4303C194.128 30.4303 196.905 30.3261 198.964 30.1155C199.993 30.0102 200.853 29.8773 201.537 29.7142C202.208 29.5543 202.758 29.3549 203.131 29.0909C203.513 28.823 203.809 28.4083 204.043 27.9028C204.279 27.3944 204.467 26.7624 204.613 26.0183C204.907 24.5307 205.049 22.531 205.049 20.0332C205.049 17.5133 204.906 15.4931 204.613 13.9862C204.467 13.2326 204.28 12.5917 204.045 12.0749C203.812 11.5611 203.517 11.139 203.139 10.8619ZM284.403 27.3611V1.16423H295.5V39.0085H276.452L255.895 10.4621C255.69 10.0455 255.48 9.59484 255.265 9.10991L255.256 9.0898L255.245 9.07055C255.102 8.81163 254.943 8.58447 254.76 8.41649C254.576 8.24698 254.334 8.10844 254.042 8.10844H253.542V8.60844C253.542 8.98802 253.561 9.36349 253.598 9.73476L253.604 9.78559L253.619 9.83434C253.928 10.8172 254.159 11.558 254.313 12.0571C254.39 12.3069 254.447 12.4949 254.485 12.622C254.502 12.6769 254.514 12.7188 254.522 12.7487V39.0085H243.425V1.16423H262.473L282.974 29.6415C283.194 30.1009 283.426 30.564 283.671 31.0312C283.794 31.2886 283.938 31.5184 284.112 31.6905C284.292 31.8688 284.533 32.0111 284.829 32.0111H285.381L285.327 31.4621C285.293 31.1152 285.275 30.7684 285.275 30.4218V30.3504L285.255 30.2819C284.975 29.321 284.691 28.3474 284.403 27.3611ZM36.9578 39.0085V1.16423H48.0551V39.0085H36.9578ZM223.431 39.0085V1.16423H234.529V39.0085H223.431Z" stroke="#330867"/>
<circle cx="334" cy="20" r="5.5" stroke="#330867"/>
<path d="M586.434 10.8564L586.442 10.8623C586.82 11.1396 587.113 11.5618 587.345 12.0755C587.579 12.5922 587.766 13.233 587.912 13.9865C588.204 15.4932 588.346 17.5134 588.346 20.0332C588.346 22.5309 588.204 24.5306 587.912 26.018C587.765 26.762 587.579 27.394 587.344 27.9023C587.11 28.4076 586.815 28.8224 586.434 29.0905M586.434 10.8564L586.146 28.6815M586.434 10.8564C586.069 10.5999 585.527 10.4083 584.865 10.2551C584.189 10.099 583.338 9.97183 582.318 9.87107C580.275 9.66945 577.512 9.56974 574.035 9.56974C570.557 9.56974 567.794 9.66945 565.752 9.87107C564.731 9.97183 563.88 10.099 563.205 10.2551C562.543 10.4083 562 10.5999 561.635 10.8564L561.633 10.8581C561.246 11.1337 560.944 11.5551 560.703 12.0701C560.461 12.5877 560.269 13.2293 560.118 13.9837C559.816 15.4917 559.67 17.5129 559.67 20.0332C559.67 22.5314 559.816 24.5322 560.118 26.021C560.269 26.7656 560.462 27.3986 560.705 27.9077C560.945 28.4112 561.247 28.823 561.634 29.0895M586.434 10.8564L561.923 28.6815M586.434 29.0905L586.146 28.6815M586.434 29.0905C586.435 29.0899 586.436 29.0893 586.436 29.0888L586.146 28.6815M586.434 29.0905C586.062 29.3547 585.514 29.5542 584.845 29.7141C584.162 29.8773 583.305 30.0102 582.279 30.1155C580.227 30.3261 577.459 30.4303 573.981 30.4303C570.521 30.4303 567.771 30.3261 565.736 30.1154C564.719 30.0101 563.87 29.8771 563.196 29.7138C562.539 29.5544 561.999 29.3552 561.634 29.0895M586.146 28.6815C584.977 29.514 580.922 29.9303 573.981 29.9303C567.076 29.9303 563.056 29.514 561.923 28.6815M561.634 29.0895C561.637 29.0912 561.639 29.0929 561.641 29.0946L561.923 28.6815M561.634 29.0895C561.632 29.0878 561.629 29.0861 561.627 29.0844L561.923 28.6815M383.571 27.3796V38.9553H372.5V1.04467H413.388V10.1144H384.071H383.571V10.6144V17.3099V17.8099H384.071H411.742V26.8796H384.071H383.571V27.3796ZM456.463 10.1144H439.632V1.04467H485.285V10.1144H468.521H468.021V10.6144V38.9553H456.963V10.6144V10.1144H456.463ZM536.859 3.18314L536.861 3.18468C537.857 3.88909 538.663 5.22019 539.216 7.29263C539.74 9.25565 540.021 11.8257 540.047 15.0164H528.927C528.842 12.9667 528.214 11.4647 526.86 10.7676L526.857 10.7665C526.024 10.3429 524.729 10.0502 523.027 9.8585C521.31 9.6652 519.128 9.56974 516.487 9.56974C513.538 9.56974 511.18 9.68392 509.422 9.91613C508.543 10.0322 507.802 10.1793 507.207 10.3612C506.621 10.5402 506.133 10.7653 505.798 11.0628C505.462 11.3584 505.201 11.7839 504.992 12.2943C504.782 12.8085 504.614 13.4388 504.482 14.1762C504.218 15.6505 504.089 17.6068 504.089 20.0332C504.089 22.4376 504.218 24.3786 504.482 25.8442C504.74 27.2781 505.146 28.3712 505.796 28.9489L505.798 28.9505C506.133 29.246 506.622 29.4692 507.208 29.6466C507.803 29.8267 508.544 29.9723 509.423 30.0873C511.18 30.3172 513.538 30.4303 516.487 30.4303C519.162 30.4303 521.351 30.3482 523.046 30.1821C524.721 30.0181 525.974 29.7675 526.738 29.3988C528.207 28.7124 528.892 27.1532 528.981 24.9968H540.047C540.022 28.2058 539.751 30.7851 539.245 32.7481C538.711 34.8222 537.933 36.137 536.98 36.8164C535.79 37.6646 533.519 38.3484 530.061 38.8103C526.628 39.2689 522.106 39.5 516.487 39.5C510.873 39.5 506.388 39.2468 503.024 38.7449C499.629 38.2386 497.473 37.4915 496.418 36.5795L496.417 36.5784C495.359 35.671 494.498 33.8846 493.911 31.083C493.327 28.3011 493.031 24.6044 493.031 19.9801C493.031 15.3682 493.314 11.6901 493.871 8.93333C494.433 6.15424 495.256 4.40526 496.257 3.54034C497.369 2.5859 499.569 1.81014 502.986 1.28462C506.376 0.763162 510.873 0.5 516.487 0.5C522.07 0.5 526.564 0.731114 529.977 1.18967C533.414 1.65153 535.674 2.33512 536.859 3.18314ZM549.683 33.423L549.683 33.422C549.338 32.4116 549.067 30.7977 548.885 28.5481C548.703 26.3082 548.612 23.471 548.612 20.0332C548.612 15.3144 548.895 11.5697 549.452 8.7863C550.015 5.97623 550.838 4.25124 551.828 3.44271L551.829 3.44186C552.377 2.99187 553.239 2.57004 554.457 2.19675C555.669 1.8254 557.2 1.51175 559.056 1.25931C562.769 0.754414 567.741 0.5 573.981 0.5C580.203 0.5 585.162 0.749992 588.867 1.24616C590.719 1.49424 592.247 1.80249 593.457 2.1675C594.673 2.53444 595.535 2.94915 596.084 3.39143C597.11 4.21948 597.958 5.95991 598.538 8.77568C599.112 11.5668 599.404 15.3149 599.404 20.0332C599.404 24.7518 599.117 28.4959 598.551 31.2786C597.979 34.0873 597.144 35.8119 596.138 36.6212C595.59 37.0614 594.727 37.4743 593.508 37.8397C592.296 38.2032 590.764 38.5101 588.907 38.7571C585.194 39.2511 580.221 39.5 573.981 39.5C564.834 39.5 558.897 39.1701 556.107 38.5297C552.65 37.7252 550.559 36.0071 549.683 33.423ZM667.442 27.3613V1.16423H678.5V39.0085H659.517L639.027 10.4627C638.822 10.0461 638.613 9.59539 638.399 9.11044L638.39 9.09037L638.379 9.07116C638.236 8.81229 638.078 8.5851 637.896 8.41704C637.712 8.2475 637.47 8.10844 637.178 8.10844H636.678V8.60844C636.678 8.98796 636.697 9.36337 636.734 9.73459L636.74 9.78528L636.755 9.8339C637.063 10.8168 637.293 11.5575 637.447 12.0567C637.523 12.3064 637.581 12.4945 637.618 12.6216C637.626 12.646 637.632 12.6678 637.638 12.6872C637.645 12.7115 637.651 12.7319 637.655 12.7485V39.0085H626.597V1.16423H645.581L666.015 29.6407C666.233 30.1001 666.465 30.5632 666.709 31.0304C666.832 31.2878 666.975 31.5177 667.148 31.69C667.328 31.8683 667.569 32.0111 667.865 32.0111H668.417L668.363 31.4622C668.329 31.1153 668.312 30.7685 668.312 30.4218V30.3507L668.292 30.2823C668.013 29.3214 667.73 28.3477 667.442 27.3613ZM420.8 39.0085V1.16423H431.858V39.0085H420.8ZM606.669 39.0085V1.16423H617.727V39.0085H606.669Z" stroke="#330867"/>
<circle cx="717" cy="20" r="5.5" stroke="#330867"/>
<path d="M889.234 11.0631C888.898 11.3586 888.636 11.7837 888.427 12.2938C888.216 12.8081 888.047 13.4385 887.915 14.176C887.65 15.6504 887.521 17.6068 887.521 20.0332C887.521 22.4377 887.65 24.3787 887.915 25.8445C888.174 27.2787 888.582 28.3719 889.234 28.9494L889.235 28.951C889.572 29.2463 890.061 29.4694 890.649 29.6468C891.246 29.8268 891.989 29.9724 892.871 30.0873C894.634 30.3172 896.999 30.4303 899.957 30.4303C902.642 30.4303 904.837 30.3482 906.538 30.1821C908.218 30.0181 909.474 29.7676 910.241 29.3992C911.714 28.7131 912.401 27.154 912.491 24.9968H923.596C923.571 28.2057 923.299 30.7849 922.792 32.7477C922.256 34.8215 921.475 36.1364 920.519 36.816C919.325 37.6645 917.045 38.3483 913.576 38.8103C910.132 39.2689 905.595 39.5 899.957 39.5C894.325 39.5 889.826 39.2468 886.45 38.7449C883.044 38.2385 880.881 37.4913 879.822 36.579L879.82 36.5779C878.759 35.6703 877.895 33.884 877.306 31.0827C876.721 28.301 876.424 24.6043 876.424 19.9801C876.424 15.3682 876.707 11.6903 877.266 8.93364C877.83 6.155 878.655 4.40615 879.66 3.54105C880.775 2.58617 882.984 1.81024 886.412 1.28466C889.813 0.763164 894.325 0.5 899.957 0.5C905.559 0.5 910.068 0.731116 913.492 1.1897C916.941 1.65158 919.208 2.33525 920.397 3.18359L920.4 3.18513C921.399 3.88974 922.208 5.22089 922.763 7.29302C923.288 9.25588 923.57 11.8258 923.596 15.0164H912.437C912.351 12.9661 911.721 11.4641 910.363 10.7673L910.36 10.7662C909.525 10.3429 908.226 10.0502 906.518 9.85848C904.796 9.66519 902.608 9.56974 899.957 9.56974C896.999 9.56974 894.633 9.68392 892.87 9.9161C891.988 10.0322 891.245 10.1792 890.648 10.3611C890.06 10.5401 889.571 10.7653 889.234 11.0631ZM889.234 11.0631C889.235 11.0628 889.235 11.0625 889.235 11.0623L889.565 11.4381L889.234 11.0639C889.234 11.0636 889.234 11.0633 889.234 11.0631ZM766.611 27.3796V38.9553H755.5V1.04467H796.525V10.1144H767.111H766.611V10.6144V17.3099V17.8099H767.111H794.873V26.8796H767.111H766.611V27.3796ZM839.738 10.1144H822.851V1.04467H868.655V10.1144H851.835H851.335V10.6144V38.9553H840.238V10.6144V10.1144H839.738ZM939.594 39.0169C936.005 38.1844 933.735 36.3733 932.787 33.5835L935.096 3.05546C937.584 1.01849 945.099 0 957.639 0C970.144 0 977.64 1.00077 980.128 3.00232C982.474 4.88874 983.646 10.5657 983.646 20.0332C983.646 29.5007 982.492 35.16 980.182 37.011C977.694 39.0037 970.179 40 957.639 40C948.473 40 942.458 39.6723 939.594 39.0169ZM982.29 31.2783C981.717 34.0868 980.879 35.8115 979.869 36.6208C979.319 37.0612 978.453 37.4742 977.23 37.8396C976.014 38.2031 974.477 38.5101 972.614 38.7571C968.888 39.2511 963.899 39.5 957.639 39.5C948.463 39.5 942.507 39.1702 939.707 38.5299C936.237 37.7252 934.139 36.0065 933.26 33.4225L933.26 33.4215C932.914 32.4113 932.642 30.7976 932.459 28.548C932.277 26.3081 932.186 23.471 932.186 20.0332C932.186 15.3144 932.469 11.5699 933.028 8.78661C933.593 5.97681 934.418 4.25188 935.412 3.44321L935.413 3.44236C935.963 2.99219 936.828 2.57023 938.051 2.19689C939.267 1.82547 940.803 1.51179 942.665 1.25934C946.39 0.754416 951.379 0.5 957.639 0.5C963.882 0.5 968.857 0.749993 972.574 1.24618C974.432 1.49428 975.965 1.80256 977.179 2.16763C978.4 2.53463 979.265 2.94945 979.815 3.39193C980.845 4.22012 981.696 5.9605 982.277 8.776C982.854 11.567 983.146 15.315 983.146 20.0332C983.146 24.7518 982.858 28.4957 982.29 31.2783ZM970.139 10.8619L970.131 10.856C969.765 10.5996 969.221 10.4082 968.557 10.2551C967.88 10.099 967.026 9.97181 966.002 9.87105C963.954 9.66945 961.181 9.56974 957.693 9.56974C954.204 9.56974 951.432 9.66945 949.383 9.87105C948.359 9.97181 947.505 10.099 946.828 10.2551C946.164 10.4082 945.62 10.5996 945.255 10.856L945.252 10.8577C944.864 11.1331 944.561 11.5544 944.32 12.0695C944.077 12.5872 943.884 13.229 943.732 13.9834C943.43 15.4915 943.283 17.5129 943.283 20.0332C943.283 22.5314 943.43 24.5323 943.733 26.0213C943.884 26.766 944.078 27.399 944.321 27.9082C944.562 28.4119 944.865 28.8236 945.253 29.0899C945.619 29.3554 946.16 29.5545 946.82 29.7139C947.496 29.8772 948.347 30.0101 949.367 30.1154C951.408 30.3261 954.168 30.4303 957.639 30.4303C961.128 30.4303 963.905 30.3261 965.964 30.1155C966.993 30.0102 967.853 29.8773 968.537 29.7142C969.208 29.5543 969.758 29.3549 970.131 29.0909C970.513 28.823 970.809 28.4083 971.043 27.9028C971.279 27.3944 971.467 26.7624 971.613 26.0183C971.907 24.5307 972.049 22.531 972.049 20.0332C972.049 17.5133 971.906 15.4931 971.613 13.9862C971.467 13.2326 971.28 12.5917 971.045 12.0749C970.812 11.5611 970.517 11.139 970.139 10.8619ZM1051.4 27.3611V1.16423H1062.5V39.0085H1043.45L1022.9 10.4621C1022.69 10.0455 1022.48 9.59484 1022.26 9.10991L1022.26 9.0898L1022.25 9.07055C1022.1 8.81163 1021.94 8.58447 1021.76 8.41649C1021.58 8.24698 1021.33 8.10844 1021.04 8.10844H1020.54V8.60844C1020.54 8.98802 1020.56 9.36349 1020.6 9.73476L1020.6 9.78559L1020.62 9.83434C1020.93 10.8172 1021.16 11.558 1021.31 12.0571C1021.39 12.3069 1021.45 12.4949 1021.49 12.622C1021.5 12.6769 1021.51 12.7188 1021.52 12.7487V39.0085H1010.43V1.16423H1029.47L1049.97 29.6415C1050.19 30.1009 1050.43 30.564 1050.67 31.0312C1050.79 31.2886 1050.94 31.5184 1051.11 31.6905C1051.29 31.8688 1051.53 32.0111 1051.83 32.0111H1052.38L1052.33 31.4621C1052.29 31.1152 1052.28 30.7684 1052.28 30.4218V30.3504L1052.26 30.2819C1051.98 29.321 1051.69 28.3474 1051.4 27.3611ZM803.958 39.0085V1.16423H815.055V39.0085H803.958ZM990.431 39.0085V1.16423H1001.53V39.0085H990.431Z" stroke="#330867"/>
<circle cx="1101" cy="20" r="5.5" stroke="#330867"/>
<path d="M1273.23 11.0631C1272.9 11.3586 1272.64 11.7837 1272.43 12.2938C1272.22 12.8081 1272.05 13.4385 1271.91 14.176C1271.65 15.6504 1271.52 17.6068 1271.52 20.0332C1271.52 22.4377 1271.65 24.3787 1271.92 25.8445C1272.17 27.2787 1272.58 28.3719 1273.23 28.9494L1273.24 28.951C1273.57 29.2463 1274.06 29.4694 1274.65 29.6468C1275.25 29.8268 1275.99 29.9724 1276.87 30.0873C1278.63 30.3172 1281 30.4303 1283.96 30.4303C1286.64 30.4303 1288.84 30.3482 1290.54 30.1821C1292.22 30.0181 1293.47 29.7676 1294.24 29.3992C1295.71 28.7131 1296.4 27.154 1296.49 24.9968H1307.6C1307.57 28.2057 1307.3 30.7849 1306.79 32.7477C1306.26 34.8215 1305.48 36.1364 1304.52 36.816C1303.32 37.6645 1301.05 38.3483 1297.58 38.8103C1294.13 39.2689 1289.59 39.5 1283.96 39.5C1278.32 39.5 1273.83 39.2468 1270.45 38.7449C1267.04 38.2385 1264.88 37.4913 1263.82 36.579L1263.82 36.5779C1262.76 35.6703 1261.9 33.884 1261.31 31.0827C1260.72 28.301 1260.42 24.6043 1260.42 19.9801C1260.42 15.3682 1260.71 11.6903 1261.27 8.93364C1261.83 6.155 1262.66 4.40615 1263.66 3.54105C1264.78 2.58617 1266.98 1.81024 1270.41 1.28466C1273.81 0.763164 1278.33 0.5 1283.96 0.5C1289.56 0.5 1294.07 0.731116 1297.49 1.1897C1300.94 1.65158 1303.21 2.33525 1304.4 3.18359L1304.4 3.18513C1305.4 3.88974 1306.21 5.22089 1306.76 7.29302C1307.29 9.25588 1307.57 11.8258 1307.6 15.0164H1296.44C1296.35 12.9661 1295.72 11.4641 1294.36 10.7673L1294.36 10.7662C1293.52 10.3429 1292.23 10.0502 1290.52 9.85848C1288.8 9.66519 1286.61 9.56974 1283.96 9.56974C1281 9.56974 1278.63 9.68392 1276.87 9.9161C1275.99 10.0322 1275.25 10.1792 1274.65 10.3611C1274.06 10.5401 1273.57 10.7653 1273.23 11.0631ZM1273.23 11.0631C1273.23 11.0628 1273.24 11.0625 1273.24 11.0623L1273.57 11.4381L1273.23 11.0639C1273.23 11.0636 1273.23 11.0633 1273.23 11.0631ZM1150.61 27.3796V38.9553H1139.5V1.04467H1180.52V10.1144H1151.11H1150.61V10.6144V17.3099V17.8099H1151.11H1178.87V26.8796H1151.11H1150.61V27.3796ZM1223.74 10.1144H1206.85V1.04467H1252.66V10.1144H1235.84H1235.34V10.6144V38.9553H1224.24V10.6144V10.1144H1223.74ZM1323.59 39.0169C1320 38.1844 1317.74 36.3733 1316.79 33.5835L1319.1 3.05546C1321.58 1.01849 1329.1 0 1341.64 0C1354.14 0 1361.64 1.00077 1364.13 3.00232C1366.47 4.88874 1367.65 10.5657 1367.65 20.0332C1367.65 29.5007 1366.49 35.16 1364.18 37.011C1361.69 39.0037 1354.18 40 1341.64 40C1332.47 40 1326.46 39.6723 1323.59 39.0169ZM1366.29 31.2783C1365.72 34.0868 1364.88 35.8115 1363.87 36.6208C1363.32 37.0612 1362.45 37.4742 1361.23 37.8396C1360.01 38.2031 1358.48 38.5101 1356.61 38.7571C1352.89 39.2511 1347.9 39.5 1341.64 39.5C1332.46 39.5 1326.51 39.1702 1323.71 38.5299C1320.24 37.7252 1318.14 36.0065 1317.26 33.4225L1317.26 33.4215C1316.91 32.4113 1316.64 30.7976 1316.46 28.548C1316.28 26.3081 1316.19 23.471 1316.19 20.0332C1316.19 15.3144 1316.47 11.5699 1317.03 8.78661C1317.59 5.97681 1318.42 4.25188 1319.41 3.44321L1319.41 3.44236C1319.96 2.99219 1320.83 2.57023 1322.05 2.19689C1323.27 1.82547 1324.8 1.51179 1326.67 1.25934C1330.39 0.754416 1335.38 0.5 1341.64 0.5C1347.88 0.5 1352.86 0.749993 1356.57 1.24618C1358.43 1.49428 1359.97 1.80256 1361.18 2.16763C1362.4 2.53463 1363.26 2.94945 1363.82 3.39193C1364.84 4.22012 1365.7 5.9605 1366.28 8.776C1366.85 11.567 1367.15 15.315 1367.15 20.0332C1367.15 24.7518 1366.86 28.4957 1366.29 31.2783ZM1354.14 10.8619L1354.13 10.856C1353.77 10.5996 1353.22 10.4082 1352.56 10.2551C1351.88 10.099 1351.03 9.97181 1350 9.87105C1347.95 9.66945 1345.18 9.56974 1341.69 9.56974C1338.2 9.56974 1335.43 9.66945 1333.38 9.87105C1332.36 9.97181 1331.51 10.099 1330.83 10.2551C1330.16 10.4082 1329.62 10.5996 1329.25 10.856L1329.25 10.8577C1328.86 11.1331 1328.56 11.5544 1328.32 12.0695C1328.08 12.5872 1327.88 13.229 1327.73 13.9834C1327.43 15.4915 1327.28 17.5129 1327.28 20.0332C1327.28 22.5314 1327.43 24.5323 1327.73 26.0213C1327.88 26.766 1328.08 27.399 1328.32 27.9082C1328.56 28.4119 1328.87 28.8236 1329.25 29.0899C1329.62 29.3554 1330.16 29.5545 1330.82 29.7139C1331.5 29.8772 1332.35 30.0101 1333.37 30.1154C1335.41 30.3261 1338.17 30.4303 1341.64 30.4303C1345.13 30.4303 1347.91 30.3261 1349.96 30.1155C1350.99 30.0102 1351.85 29.8773 1352.54 29.7142C1353.21 29.5543 1353.76 29.3549 1354.13 29.0909C1354.51 28.823 1354.81 28.4083 1355.04 27.9028C1355.28 27.3944 1355.47 26.7624 1355.61 26.0183C1355.91 24.5307 1356.05 22.531 1356.05 20.0332C1356.05 17.5133 1355.91 15.4931 1355.61 13.9862C1355.47 13.2326 1355.28 12.5917 1355.05 12.0749C1354.81 11.5611 1354.52 11.139 1354.14 10.8619ZM1435.4 27.3611V1.16423H1446.5V39.0085H1427.45L1406.9 10.4621C1406.69 10.0455 1406.48 9.59484 1406.26 9.10991L1406.26 9.0898L1406.25 9.07055C1406.1 8.81163 1405.94 8.58447 1405.76 8.41649C1405.58 8.24698 1405.33 8.10844 1405.04 8.10844H1404.54V8.60844C1404.54 8.98802 1404.56 9.36349 1404.6 9.73476L1404.6 9.78559L1404.62 9.83434C1404.93 10.8172 1405.16 11.558 1405.31 12.0571C1405.39 12.3069 1405.45 12.4949 1405.49 12.622C1405.5 12.6769 1405.51 12.7188 1405.52 12.7487V39.0085H1394.43V1.16423H1413.47L1433.97 29.6415C1434.19 30.1009 1434.43 30.564 1434.67 31.0312C1434.79 31.2886 1434.94 31.5184 1435.11 31.6905C1435.29 31.8688 1435.53 32.0111 1435.83 32.0111H1436.38L1436.33 31.4621C1436.29 31.1152 1436.28 30.7684 1436.28 30.4218V30.3504L1436.26 30.2819C1435.98 29.321 1435.69 28.3474 1435.4 27.3611ZM1187.96 39.0085V1.16423H1199.06V39.0085H1187.96ZM1374.43 39.0085V1.16423H1385.53V39.0085H1374.43Z" stroke="#330867"/>
</g>
</svg>
