<svg width="375" height="32" viewBox="0 0 375 32" fill="none" xmlns="http://www.w3.org/2000/svg">
<g opacity="0.2">
<path d="M-8.1689 2.62939L-8.17107 2.62785C-9.0977 1.96493 -10.8833 1.42016 -13.6318 1.05084C-16.3557 0.684839 -19.9461 0.5 -24.4107 0.5C-28.8991 0.5 -32.4912 0.710466 -35.1963 1.12654C-37.9278 1.54667 -39.6629 2.16438 -40.5291 2.90807C-41.3037 3.5773 -41.9567 4.94809 -42.4051 7.16647C-42.849 9.36263 -43.075 12.2977 -43.075 15.9841C-43.075 19.6802 -42.8383 22.6299 -42.3737 24.8459C-41.9049 27.0815 -41.2214 28.4831 -40.4015 29.1868L-40.4002 29.188C-39.5797 29.8971 -37.8811 30.4921 -35.1664 30.897C-32.4818 31.2975 -28.8997 31.5 -24.4107 31.5C-19.9174 31.5 -16.3046 31.3152 -13.5645 30.9491C-10.7996 30.5797 -9.0042 30.0348 -8.07408 29.3717C-7.33994 28.8482 -6.72578 27.8235 -6.30069 26.1735C-5.90419 24.6345 -5.68822 22.6134 -5.66319 20.0975H-14.3198C-14.4081 21.79 -14.9641 23.0474 -16.1666 23.6095C-16.7958 23.9126 -17.813 24.1139 -19.1533 24.2452C-20.5144 24.3785 -22.2685 24.4442 -24.4107 24.4442C-26.7716 24.4442 -28.6627 24.3537 -30.075 24.169C-30.7809 24.0766 -31.3792 23.9592 -31.8626 23.813C-32.3369 23.6695 -32.7435 23.4858 -33.0278 23.2355L-33.0296 23.2339C-33.5768 22.7474 -33.9058 21.8423 -34.1129 20.6931C-34.3257 19.5122 -34.4286 17.9528 -34.4286 16.0266C-34.4286 14.0829 -34.3257 12.5112 -34.113 11.3234C-34.0066 10.7292 -33.8704 10.2176 -33.6989 9.79767C-33.5291 9.38187 -33.3128 9.02642 -33.0287 8.77598M-8.1689 2.62939L-32.6974 9.15045M-8.1689 2.62939C-7.3997 3.17349 -6.76335 4.2121 -6.3237 5.85989C-5.91315 7.39853 -5.68938 9.41194 -5.66331 11.9132M-8.1689 2.62939L-5.16328 11.9132M-33.0287 8.77598C-33.0284 8.77571 -33.0281 8.77544 -33.0278 8.77517L-32.6974 9.15045M-33.0287 8.77598C-33.029 8.77624 -33.0293 8.77651 -33.0296 8.77678L-32.6974 9.15045M-33.0287 8.77598C-32.7445 8.52368 -32.3381 8.33825 -31.8639 8.19336C-31.3803 8.04562 -30.7816 7.92703 -30.0756 7.83376C-28.663 7.64717 -26.7717 7.5558 -24.4107 7.5558C-22.2953 7.5558 -20.5458 7.63221 -19.1675 7.78743C-17.8036 7.94104 -16.7524 8.17667 -16.0688 8.52402L-16.0665 8.5252C-14.9575 9.09601 -14.4472 10.3061 -14.3627 11.9132M-32.6974 9.15045C-31.8766 8.42068 -29.1143 8.0558 -24.4107 8.0558C-20.1996 8.0558 -17.4944 8.36046 -16.2953 8.96978C-15.3317 9.46574 -14.85 10.6135 -14.85 12.4132V11.9132H-14.3627M-14.3627 11.9132C-14.3541 12.0758 -14.35 12.2426 -14.35 12.4132H-5.66074C-5.66074 12.2444 -5.66161 12.0777 -5.66331 11.9132M-14.3627 11.9132H-5.66331M-5.66331 11.9132H-5.16328M-5.16328 11.9132C-5.21706 6.69502 -6.12268 3.46436 -7.88014 2.22119L-5.16328 11.9132ZM1.76753 26.8668C2.52411 29.0986 4.33348 30.5475 7.19563 31.2135C9.47964 31.7379 14.2761 32 21.5849 32C31.5846 32 37.5766 31.2029 39.5608 29.6088C41.4023 28.128 42.3231 23.6006 42.3231 16.0266C42.3231 8.45256 41.3881 3.91099 39.518 2.40186L1.76753 26.8668ZM1.76753 26.8668C1.18225 25.1522 0.889618 21.5388 0.889618 16.0266C0.889618 8.45256 1.79608 3.92516 3.60902 2.44437L1.76753 26.8668ZM-130.843 21.9037V31.0643H-139.5V0.935736H-106.989V7.99153H-130.343H-130.843V8.49153V13.8479V14.3479H-130.343H-108.306V21.4037H-130.343H-130.843V21.9037ZM-72.4298 7.99153H-85.7945V0.935736H-49.4723V7.99153H-62.7834H-63.2834V8.49153V31.0643H-71.9298V8.49153V7.99153H-72.4298ZM41.1425 25.003C40.6864 27.2457 40.0237 28.5948 39.2477 29.219C38.8238 29.5596 38.1472 29.8853 37.1776 30.176C36.2145 30.4647 34.9951 30.7094 33.5128 30.9066C30.5481 31.3009 26.575 31.5 21.5849 31.5C14.2652 31.5 9.52728 31.2357 7.30803 30.7263C4.56703 30.0883 2.92792 28.7324 2.24106 26.7063L2.24072 26.7053C1.96898 25.9092 1.75307 24.6283 1.60747 22.8304C1.46263 21.0421 1.38962 18.7754 1.38962 16.0266C1.38962 12.2545 1.61575 9.26618 2.05974 7.04868C2.50905 4.80453 3.16205 3.45505 3.92532 2.83161L3.92635 2.83077C4.35027 2.48263 5.02635 2.14991 5.99515 1.85301C6.95764 1.55805 8.17656 1.30805 9.65854 1.10653C12.6225 0.70349 16.5951 0.5 21.5849 0.5C26.5606 0.5 30.5229 0.699953 33.4802 1.09604C34.9588 1.29408 36.1755 1.53979 37.1367 1.82974C38.1042 2.12162 38.78 2.44876 39.204 2.79097C39.9963 3.43037 40.6693 4.79264 41.1321 7.04071C41.5898 9.26418 41.8231 12.255 41.8231 16.0266C41.8231 19.7984 41.5934 22.7861 41.1425 25.003ZM31.6131 8.60927L31.6047 8.60334C31.2966 8.38664 30.8472 8.22993 30.3142 8.10668C29.7683 7.98046 29.0828 7.87818 28.2639 7.79734C26.6253 7.63557 24.4109 7.5558 21.6278 7.5558C18.8446 7.5558 16.6302 7.63557 14.9916 7.79734C14.1727 7.87818 13.4872 7.98046 12.9413 8.10668C12.4083 8.22993 11.9589 8.38664 11.6508 8.60333L11.6485 8.60504C11.32 8.839 11.0685 9.19263 10.8719 9.61379C10.6741 10.0375 10.518 10.5591 10.3963 11.1673C10.1533 12.3831 10.036 14.0076 10.036 16.0266C10.036 18.0279 10.1532 19.6361 10.3966 20.8366C10.5184 21.4372 10.6748 21.952 10.8735 22.3692C11.0697 22.7808 11.321 23.1266 11.6495 23.3532C11.9577 23.5773 12.4048 23.74 12.9335 23.8682C13.4787 24.0003 14.1626 24.1073 14.9785 24.1918C16.6111 24.3609 18.8157 24.4442 21.5849 24.4442C24.3685 24.4442 26.5871 24.3609 28.2338 24.1918C29.0567 24.1074 29.7472 24.0005 30.299 23.8686C30.8377 23.7398 31.291 23.5768 31.6047 23.3542C31.9291 23.1259 32.1749 22.7771 32.3658 22.3638C32.5581 21.9474 32.7095 21.4335 32.8274 20.8337C33.063 19.6345 33.1767 18.0274 33.1767 16.0266C33.1767 14.008 33.063 12.3846 32.8276 11.1702C32.7099 10.5628 32.5588 10.042 32.3674 9.61913C32.1774 9.19937 31.9336 8.84492 31.6131 8.60927ZM96.4536 21.8748V1.03138H105.1V31.1068H90.0648L73.708 8.31865C73.5459 7.98878 73.38 7.63195 73.2104 7.24794L73.2015 7.22787L73.1909 7.20865C73.0741 6.99672 72.941 6.80474 72.7843 6.66015C72.6261 6.51408 72.4098 6.38675 72.1427 6.38675H71.6427V6.88675C71.6427 7.19365 71.6578 7.49732 71.6881 7.79771L71.6932 7.84839L71.7084 7.89699C71.9546 8.68325 72.139 9.27565 72.2617 9.67472C72.3232 9.87448 72.3688 10.0245 72.3988 10.1258C72.4096 10.1619 72.418 10.1907 72.4243 10.2128V31.1068H63.7779V1.03138H78.8131L95.1252 23.7637C95.2995 24.1291 95.4835 24.4974 95.6774 24.8687C95.7782 25.0795 95.8985 25.2742 96.0483 25.4229C96.2043 25.5778 96.4211 25.7089 96.6923 25.7089H97.2439L97.1899 25.16C97.163 24.8857 97.1495 24.6115 97.1495 24.3374V24.2663L97.1297 24.198C96.9077 23.4336 96.6823 22.6592 96.4536 21.8748ZM-100.86 31.1068V1.03138H-92.2132V31.1068H-100.86ZM47.8349 31.1068V1.03138H56.4813V31.1068H47.8349Z" stroke="#330867"/>
<circle cx="143.6" cy="16" r="5.5" stroke="#330867"/>
<path d="M313.431 2.62939L313.429 2.62785C312.502 1.96493 310.717 1.42016 307.968 1.05084C305.244 0.684839 301.654 0.5 297.189 0.5C292.701 0.5 289.109 0.710466 286.404 1.12654C283.672 1.54667 281.937 2.16438 281.071 2.90807C280.296 3.5773 279.643 4.94809 279.195 7.16647C278.751 9.36263 278.525 12.2977 278.525 15.9841C278.525 19.6802 278.762 22.6299 279.226 24.8459C279.695 27.0815 280.379 28.4831 281.199 29.1868L281.2 29.188C282.02 29.8971 283.719 30.4921 286.434 30.897C289.118 31.2975 292.7 31.5 297.189 31.5C301.683 31.5 305.295 31.3152 308.036 30.9491C310.801 30.5797 312.596 30.0348 313.526 29.3717C314.26 28.8482 314.874 27.8235 315.299 26.1735C315.696 24.6345 315.912 22.6134 315.937 20.0975H307.28C307.192 21.79 306.636 23.0474 305.433 23.6095C304.804 23.9126 303.787 24.1139 302.447 24.2452C301.086 24.3785 299.332 24.4442 297.189 24.4442C294.828 24.4442 292.937 24.3537 291.525 24.169C290.819 24.0766 290.221 23.9592 289.738 23.813C289.263 23.6695 288.857 23.4858 288.572 23.2355L288.57 23.2339C288.023 22.7474 287.694 21.8423 287.487 20.6931C287.274 19.5122 287.171 17.9528 287.171 16.0266C287.171 14.0829 287.274 12.5112 287.487 11.3234C287.593 10.7292 287.73 10.2176 287.901 9.79767C288.071 9.38187 288.287 9.02642 288.571 8.77598M313.431 2.62939L288.903 9.15045M313.431 2.62939C314.2 3.17349 314.837 4.2121 315.276 5.85989C315.687 7.39853 315.911 9.41194 315.937 11.9132M313.431 2.62939L316.437 11.9132M288.571 8.77598C288.572 8.77571 288.572 8.77544 288.572 8.77517L288.903 9.15045M288.571 8.77598C288.571 8.77624 288.571 8.77651 288.57 8.77678L288.903 9.15045M288.571 8.77598C288.856 8.52368 289.262 8.33825 289.736 8.19336C290.22 8.04562 290.818 7.92703 291.525 7.83376C292.937 7.64717 294.828 7.5558 297.189 7.5558C299.305 7.5558 301.054 7.63221 302.433 7.78743C303.796 7.94104 304.848 8.17667 305.531 8.52402L305.534 8.5252C306.643 9.09601 307.153 10.3061 307.237 11.9132M288.903 9.15045C289.724 8.42068 292.486 8.0558 297.189 8.0558C301.401 8.0558 304.106 8.36046 305.305 8.96978C306.268 9.46574 306.75 10.6135 306.75 12.4132V11.9132H307.237M307.237 11.9132C307.246 12.0758 307.25 12.2426 307.25 12.4132H315.939C315.939 12.2444 315.938 12.0777 315.937 11.9132M307.237 11.9132H315.937M315.937 11.9132H316.437M316.437 11.9132C316.383 6.69502 315.477 3.46436 313.72 2.22119L316.437 11.9132ZM323.368 26.8668C324.124 29.0986 325.934 30.5475 328.796 31.2135C331.08 31.7379 335.876 32 343.185 32C353.185 32 359.177 31.2029 361.161 29.6088C363.002 28.128 363.923 23.6006 363.923 16.0266C363.923 8.45256 362.988 3.91099 361.118 2.40186L323.368 26.8668ZM323.368 26.8668C322.782 25.1522 322.49 21.5388 322.49 16.0266C322.49 8.45256 323.396 3.92516 325.209 2.44437L323.368 26.8668ZM190.757 21.9037V31.0643H182.1V0.935736H214.611V7.99153H191.257H190.757V8.49153V13.8479V14.3479H191.257H213.294V21.4037H191.257H190.757V21.9037ZM249.17 7.99153H235.806V0.935736H272.128V7.99153H258.817H258.317V8.49153V31.0643H249.67V8.49153V7.99153H249.17ZM362.743 25.003C362.287 27.2457 361.624 28.5948 360.848 29.219C360.424 29.5596 359.747 29.8853 358.778 30.176C357.815 30.4647 356.595 30.7094 355.113 30.9066C352.148 31.3009 348.175 31.5 343.185 31.5C335.865 31.5 331.127 31.2357 328.908 30.7263C326.167 30.0883 324.528 28.7324 323.841 26.7063L323.841 26.7053C323.569 25.9092 323.353 24.6283 323.208 22.8304C323.063 21.0421 322.99 18.7754 322.99 16.0266C322.99 12.2545 323.216 9.26618 323.66 7.04868C324.109 4.80453 324.762 3.45505 325.525 2.83161L325.526 2.83077C325.95 2.48263 326.626 2.14991 327.595 1.85301C328.558 1.55805 329.777 1.30805 331.259 1.10653C334.223 0.70349 338.195 0.5 343.185 0.5C348.161 0.5 352.123 0.699953 355.08 1.09604C356.559 1.29408 357.776 1.53979 358.737 1.82974C359.704 2.12162 360.38 2.44876 360.804 2.79097C361.596 3.43037 362.269 4.79264 362.732 7.04071C363.19 9.26418 363.423 12.255 363.423 16.0266C363.423 19.7984 363.193 22.7861 362.743 25.003ZM353.213 8.60927L353.205 8.60334C352.897 8.38664 352.447 8.22993 351.914 8.10668C351.368 7.98046 350.683 7.87818 349.864 7.79734C348.225 7.63557 346.011 7.5558 343.228 7.5558C340.445 7.5558 338.23 7.63557 336.592 7.79734C335.773 7.87818 335.087 7.98046 334.541 8.10668C334.008 8.22993 333.559 8.38664 333.251 8.60333L333.249 8.60504C332.92 8.839 332.669 9.19263 332.472 9.61379C332.274 10.0375 332.118 10.5591 331.996 11.1673C331.753 12.3831 331.636 14.0076 331.636 16.0266C331.636 18.0279 331.753 19.6361 331.997 20.8366C332.118 21.4372 332.275 21.952 332.474 22.3692C332.67 22.7808 332.921 23.1266 333.25 23.3532C333.558 23.5773 334.005 23.74 334.534 23.8682C335.079 24.0003 335.763 24.1073 336.579 24.1918C338.211 24.3609 340.416 24.4442 343.185 24.4442C345.969 24.4442 348.187 24.3609 349.834 24.1918C350.657 24.1074 351.347 24.0005 351.899 23.8686C352.438 23.7398 352.891 23.5768 353.205 23.3542C353.529 23.1259 353.775 22.7771 353.966 22.3638C354.158 21.9474 354.31 21.4335 354.427 20.8337C354.663 19.6345 354.777 18.0274 354.777 16.0266C354.777 14.008 354.663 12.3846 354.428 11.1702C354.31 10.5628 354.159 10.042 353.967 9.61913C353.777 9.19937 353.534 8.84492 353.213 8.60927ZM418.054 21.8748V1.03138H426.7V31.1068H411.665L395.308 8.31865C395.146 7.98878 394.98 7.63195 394.81 7.24794L394.802 7.22787L394.791 7.20865C394.674 6.99672 394.541 6.80474 394.384 6.66015C394.226 6.51408 394.01 6.38675 393.743 6.38675H393.243V6.88675C393.243 7.19365 393.258 7.49732 393.288 7.79771L393.293 7.84839L393.309 7.89699C393.555 8.68325 393.739 9.27565 393.862 9.67472C393.923 9.87448 393.969 10.0245 393.999 10.1258C394.01 10.1619 394.018 10.1907 394.024 10.2128V31.1068H385.378V1.03138H400.413L416.725 23.7637C416.9 24.1291 417.084 24.4974 417.277 24.8687C417.378 25.0795 417.499 25.2742 417.648 25.4229C417.804 25.5778 418.021 25.7089 418.292 25.7089H418.844L418.79 25.16C418.763 24.8857 418.75 24.6115 418.75 24.3374V24.2663L418.73 24.198C418.508 23.4336 418.282 22.6592 418.054 21.8748ZM220.74 31.1068V1.03138H229.387V31.1068H220.74ZM369.435 31.1068V1.03138H378.081V31.1068H369.435Z" stroke="#330867"/>
</g>
</svg>
