<svg width="53" height="48" viewBox="0 0 53 48" fill="none" xmlns="http://www.w3.org/2000/svg">
<path d="M37.8818 19.6404L37.8855 19.6392C38.69 19.3929 39.3337 18.9735 39.7715 18.3588C40.2076 17.7464 40.4059 16.9871 40.4059 16.1187C40.4059 15.1128 40.2754 14.2655 39.9796 13.6108C39.6765 12.9395 39.1942 12.464 38.5251 12.2584L38.5251 12.2584L38.5198 12.2568C37.9191 12.0795 36.6512 11.9623 34.7943 11.8848C32.911 11.8061 30.3583 11.767 27.1391 11.767C23.8358 11.767 21.2177 11.8223 19.2889 11.9337C18.3249 11.9894 17.5265 12.0595 16.8976 12.1448C16.2809 12.2285 15.7874 12.3317 15.458 12.4691L15.451 12.472L15.4441 12.4752C14.7317 12.7983 14.262 13.477 13.9712 14.365C13.7152 15.1469 13.5798 16.1419 13.5509 17.3341H1.1406C1.16511 13.2355 1.49325 9.97423 2.11354 7.53524C2.76272 4.98266 3.70881 3.4214 4.86583 2.68823C5.39171 2.35596 6.24401 2.04079 7.46331 1.76185C8.67382 1.48492 10.2097 1.25154 12.0763 1.06391C15.8091 0.688707 20.8279 0.5 27.1391 0.5C32.835 0.5 37.4593 0.704773 41.0182 1.11173C44.593 1.52051 47.0306 2.12742 48.4032 2.89425C51.0484 4.4322 52.5 8.16727 52.5 14.4518C52.5 21.9202 50.5518 26.4848 46.8857 28.4636L46.8849 28.464C45.4583 29.2376 43.1142 29.844 39.798 30.2522C36.4953 30.6588 32.2776 30.8635 27.1391 30.8635C24.2579 30.8635 21.8789 30.9459 20.0061 31.1122C18.1459 31.2774 16.7431 31.5286 15.8407 31.8857L15.8388 31.8865C15.0855 32.1882 14.4995 32.672 14.1084 33.3401C13.7214 34.0013 13.545 34.8088 13.545 35.733V36.233H14.045H51.8609V47.5H0.5V33.4187C0.5 31.0186 1.03567 28.9992 2.08313 27.3374C3.13026 25.6761 4.70982 24.3389 6.852 23.3365C11.1351 21.3452 17.8977 20.3247 27.2015 20.3247C29.9763 20.3247 32.2507 20.2693 34.0216 20.1578C35.7803 20.0471 37.0797 19.8791 37.8818 19.6404Z" stroke="#330867"/>
</svg>
