<svg width="254" height="83" viewBox="0 0 254 83" fill="none" xmlns="http://www.w3.org/2000/svg">
<path d="M33.2656 32.7969C38.8177 32.7969 42.3385 32.5833 43.8281 32.1562C45.276 31.7292 46 30.75 46 29.2188C46 27.3438 45.4896 26.2552 44.4688 25.9531C43.4062 25.651 39.651 25.5 33.2031 25.5C26.5885 25.5 22.75 25.7135 21.6875 26.1406C20.6146 26.6094 20.0781 28.1875 20.0781 30.875H6.64062C6.64062 22.4688 7.96354 17.4583 10.6094 15.8438C13.0052 14.3854 20.5365 13.6562 33.2031 13.6562C44.6406 13.6562 51.8281 14.4479 54.7656 16.0312C57.6719 17.6562 59.125 21.5156 59.125 27.6094C59.125 34.8698 57.1615 39.5208 53.2344 41.5625C50.2031 43.1458 43.526 43.9375 33.2031 43.9375C27.4427 43.9375 23.7292 44.2552 22.0625 44.8906C20.7396 45.401 20.0781 46.4896 20.0781 48.1562H58.4844V60H6V45.9219C6 41.1406 8.21875 37.75 12.6562 35.75C17.0521 33.7812 23.9219 32.7969 33.2656 32.7969ZM122.658 37.2188C122.658 47.7083 121.361 54.1719 118.768 56.6094C115.778 59.3802 107.903 60.7656 95.1425 60.7656C82.3821 60.7656 74.5331 59.401 71.5956 56.6719C68.9498 54.2448 67.6269 47.7604 67.6269 37.2188C67.6269 26.7604 68.929 20.3177 71.5331 17.8906C74.5123 15.1198 82.3821 13.7344 95.1425 13.7344C107.903 13.7344 115.778 15.1198 118.768 17.8906C121.361 20.276 122.658 26.7188 122.658 37.2188ZM108.58 37.2188C108.58 32.1354 107.919 28.9792 106.596 27.75C105.064 26.2917 101.247 25.5625 95.1425 25.5625C88.9967 25.5625 85.179 26.2708 83.6894 27.6875C82.3665 28.9167 81.705 32.0938 81.705 37.2188C81.705 42.2917 82.3665 45.4688 83.6894 46.75C85.2206 48.1979 89.0383 48.9219 95.1425 48.9219C101.288 48.9219 105.064 48.2396 106.471 46.875C107.877 45.5521 108.58 42.3333 108.58 37.2188ZM185.426 37.2188C185.426 47.7083 184.129 54.1719 181.535 56.6094C178.545 59.3802 170.67 60.7656 157.91 60.7656C145.15 60.7656 137.301 59.401 134.363 56.6719C131.717 54.2448 130.394 47.7604 130.394 37.2188C130.394 26.7604 131.696 20.3177 134.301 17.8906C137.28 15.1198 145.15 13.7344 157.91 13.7344C170.67 13.7344 178.545 15.1198 181.535 17.8906C184.129 20.276 185.426 26.7188 185.426 37.2188ZM171.348 37.2188C171.348 32.1354 170.686 28.9792 169.363 27.75C167.832 26.2917 164.014 25.5625 157.91 25.5625C151.764 25.5625 147.946 26.2708 146.457 27.6875C145.134 28.9167 144.473 32.0938 144.473 37.2188C144.473 42.2917 145.134 45.4688 146.457 46.75C147.988 48.1979 151.806 48.9219 157.91 48.9219C164.056 48.9219 167.832 48.2396 169.238 46.875C170.644 45.5521 171.348 42.3333 171.348 37.2188ZM194.881 26.2031V14.375H245.318V25.5625L245.006 25.8906L219.396 60.0625H201.99L227.584 26.2031H194.881Z" fill="#30CFD0"/>
</svg>
