<svg width="53" height="48" viewBox="0 0 53 48" fill="none" xmlns="http://www.w3.org/2000/svg">
<path d="M13.0337 14.0436C12.7795 14.7743 12.6449 15.7029 12.6147 16.8125H0.5V12.0837C0.5 9.52062 1.02958 7.4456 2.05329 5.82686C3.07378 4.21321 4.61003 3.01354 6.69654 2.23836C8.23104 1.67166 10.57 1.23398 13.7432 0.940249C16.9084 0.647255 20.8723 0.5 25.6387 0.5C31.4429 0.5 36.1583 0.745456 39.7921 1.23286C43.4444 1.72275 45.9386 2.44959 47.3535 3.36851L47.3544 3.36912C48.5014 4.1104 49.4024 5.39697 50.0173 7.30698C50.6326 9.21854 50.949 11.7189 50.949 14.8256C50.949 17.3075 50.55 19.2159 49.7956 20.5912C48.9947 21.9941 47.9816 22.9846 46.7629 23.5924L45.5203 24.2121L46.8727 24.5268C48.6441 24.939 49.8237 25.7642 50.4983 26.9632L50.4998 26.9658C51.2055 28.2031 51.5888 30.1235 51.5888 32.7918C51.5888 36.1098 51.2349 38.7731 50.5464 40.8011C49.8591 42.8256 48.8502 44.1847 47.5569 44.9562L47.553 44.9586C46.2229 45.7689 43.7561 46.4147 40.0653 46.8498C36.397 47.2823 31.5903 47.5 25.6387 47.5C19.1182 47.5 14.4564 47.303 11.6321 46.9149C7.62252 46.3569 4.84773 45.2875 3.21157 43.7758C1.43532 42.1185 0.5 39.5341 0.5 35.9163V30.5498H12.613C12.6391 31.8222 12.7676 32.8758 13.011 33.6953C13.283 34.611 13.7264 35.3239 14.425 35.6516C14.7489 35.8036 15.2298 35.9163 15.8227 36.007C16.4284 36.0997 17.1954 36.1756 18.1197 36.2359C19.9691 36.3565 22.477 36.4163 25.6387 36.4163C29.0271 36.4163 31.7056 36.3844 33.6719 36.3204C35.6149 36.2571 36.9155 36.1618 37.506 36.0199L37.5094 36.019C38.1875 35.8509 38.7035 35.4393 39.0357 34.8165C39.3574 34.2135 39.4964 33.4345 39.4964 32.5208C39.4964 31.6284 39.3506 30.8619 39.0158 30.2608C38.6716 29.6431 38.1442 29.2313 37.4601 29.0419L37.4556 29.0407C36.8145 28.8696 35.4934 28.7539 33.5584 28.6774C31.6008 28.6 28.96 28.5614 25.6387 28.5614H20.6302V19.1197H25.7011C28.8765 19.1197 31.3957 19.0865 33.2561 19.0198C35.0929 18.9539 36.3399 18.8545 36.9319 18.7065C37.5875 18.5442 38.0881 18.1486 38.4106 17.5495C38.7226 16.97 38.8566 16.2236 38.8566 15.3517C38.8566 14.4821 38.7285 13.7387 38.4302 13.1614C38.1219 12.5647 37.6397 12.1636 36.9997 11.9982C36.4255 11.8488 35.1795 11.7495 33.3341 11.6836C31.4632 11.6169 28.9181 11.5837 25.7011 11.5837C22.5657 11.5837 20.072 11.6382 18.2241 11.748C17.3004 11.8028 16.5317 11.8719 15.9217 11.956C15.3222 12.0387 14.8402 12.1404 14.5114 12.2741L14.5098 12.2748C13.7997 12.5664 13.3262 13.2028 13.0337 14.0436Z" stroke="#330867"/>
</svg>
