<svg width="40" height="40" viewBox="0 0 40 40" fill="none" xmlns="http://www.w3.org/2000/svg">
<path d="M30.4001 39.0139H30.0251C29.8545 38.8719 29.6923 38.7204 29.5391 38.5599C28.1097 36.8786 26.6851 35.1939 25.2651 33.5059C25.203 33.4229 25.1215 33.3565 25.0276 33.3125C24.9338 33.2685 24.8305 33.2484 24.7271 33.2539C21.5721 33.2619 18.4181 33.2539 15.2641 33.2699C15.0636 33.282 14.8754 33.3704 14.7381 33.5169C13.3001 35.1899 11.8801 36.8799 10.4501 38.5599C10.2971 38.7206 10.1348 38.8722 9.96406 39.0139H9.58906C9.03506 38.6389 8.98906 38.3139 9.43106 37.7929C11.3551 35.5196 13.2784 33.2462 15.2011 30.9729C15.2601 30.9029 15.3071 30.8219 15.3851 30.7079H14.9251C10.5144 30.7079 6.10306 30.7099 1.69105 30.7139C1.30005 30.7139 1.01405 30.6039 0.831055 30.2559V6.22791C1.03905 5.87991 1.35105 5.78391 1.74605 5.78691C3.84105 5.79891 5.93706 5.79291 8.03306 5.79291H8.47106C8.48106 5.66491 8.48906 5.59291 8.49106 5.51791C8.52406 3.99291 9.29106 3.23991 10.8291 3.23991H18.0631C17.6631 2.93291 17.3371 2.70491 17.0361 2.45191C16.9716 2.40177 16.9179 2.33928 16.8779 2.26811C16.8379 2.19694 16.8125 2.11851 16.8032 2.03741C16.7939 1.9563 16.8008 1.87416 16.8236 1.79577C16.8465 1.71739 16.8847 1.64435 16.9361 1.58091C17.0318 1.45575 17.171 1.3711 17.3262 1.34369C17.4814 1.31628 17.6412 1.34812 17.7741 1.43291C17.9001 1.51366 18.0219 1.60077 18.1391 1.69391C18.5231 1.97791 18.9071 2.26391 19.3521 2.59391C19.3521 2.18091 19.3471 1.85791 19.3521 1.53491C19.3453 1.38586 19.3639 1.23674 19.4071 1.09391C19.4483 0.95984 19.5369 0.845337 19.6563 0.771742C19.7757 0.698148 19.9178 0.670485 20.0561 0.69391C20.2094 0.701169 20.3538 0.767892 20.4588 0.879915C20.5637 0.991939 20.6208 1.14044 20.6181 1.29391C20.6381 1.69891 20.6231 2.10591 20.6231 2.60491L21.6781 1.81591C21.7881 1.73391 21.8971 1.64991 22.0081 1.56891C22.4311 1.25491 22.8181 1.26391 23.0571 1.59291C23.2961 1.92191 23.1971 2.26591 22.7901 2.57991L21.9381 3.23791H22.4671C24.7617 3.23791 27.0571 3.23791 29.3531 3.23791C30.6211 3.23791 31.4591 4.06891 31.4921 5.33791C31.4921 5.47991 31.4921 5.62291 31.4921 5.78891H38.2501C38.9611 5.78891 39.1501 5.98891 39.1501 6.70591C39.1501 14.4032 39.1501 22.1002 39.1501 29.7969C39.1501 30.5159 38.9631 30.7039 38.2441 30.7039H24.5851C24.6851 30.8369 24.7431 30.9149 24.8051 30.9879L30.5571 37.7879C31.0001 38.3099 30.9531 38.6379 30.4001 39.0139ZM2.12305 29.3999H37.8511V7.09991H2.12305V29.3999ZM30.1801 5.76691C30.3021 4.81391 30.0421 4.51591 29.1251 4.51591H10.8001C9.95106 4.51591 9.64305 4.90691 9.82705 5.76691H30.1801ZM23.9461 31.9669C23.6001 31.5549 23.2991 31.1799 22.9751 30.8259C22.8809 30.7521 22.7635 30.7145 22.6441 30.7199C20.8761 30.7139 19.1094 30.7139 17.3441 30.7199C17.2441 30.7199 17.1001 30.7369 17.0391 30.8039C16.7091 31.1669 16.3981 31.5489 16.0441 31.9679L23.9461 31.9669Z" fill="#30CFD0"/>
<path d="M34.6789 25.6059C34.9069 25.6059 35.0909 25.6009 35.2739 25.6059C35.6969 25.6199 35.9529 25.8619 35.9509 26.2399C35.9489 26.6179 35.6899 26.8659 35.2699 26.8779C34.8209 26.8899 34.3699 26.8859 33.9219 26.8859L12.5929 26.8809C12.4808 26.8858 12.3685 26.8821 12.2569 26.8699C12.1007 26.85 11.957 26.7738 11.8528 26.6557C11.7487 26.5375 11.6911 26.3855 11.6909 26.2279C11.6938 26.0639 11.7606 25.9075 11.8772 25.792C11.9938 25.6766 12.1509 25.6112 12.3149 25.6099C12.5149 25.5979 12.7099 25.6099 12.9639 25.6099C12.9639 25.3259 12.9639 25.0689 12.9639 24.8099C12.9639 24.2479 12.9579 23.6869 12.9639 23.1259C12.9699 22.6859 13.1999 22.4129 13.6079 22.4069C14.6679 22.3929 15.7283 22.3929 16.7889 22.4069C17.2119 22.4129 17.4359 22.6899 17.4389 23.1579C17.4449 23.9579 17.4389 24.7519 17.4389 25.5769H18.7149V25.1659C18.7149 23.2459 18.7149 21.3253 18.7149 19.4039C18.7149 18.7829 18.9239 18.5759 19.5449 18.5749C20.4783 18.5749 21.4139 18.5749 22.3519 18.5749C22.9719 18.5749 23.1879 18.7859 23.1889 19.4049C23.1889 21.3129 23.1889 23.2213 23.1889 25.1299V25.5849H24.4669V25.1699C24.4669 24.0849 24.4669 22.9999 24.4669 21.9149C24.4669 21.3439 24.6879 21.1269 25.2609 21.1249C26.1943 21.1249 27.1299 21.1249 28.0679 21.1249C28.7169 21.1249 28.9249 21.3249 28.9269 21.9669C28.9269 23.0279 28.9269 24.0879 28.9269 25.1479V25.5779H30.2089V25.1159C30.2089 22.3973 30.2089 19.6783 30.2089 16.9589C30.2089 16.1809 30.3699 16.0229 31.1559 16.0229C32.0659 16.0229 32.9769 16.0229 33.8869 16.0229C34.4619 16.0229 34.6699 16.2349 34.6699 16.8179C34.6699 19.5873 34.6699 22.3566 34.6699 25.1259L34.6789 25.6059ZM33.3789 17.3239H31.5209V25.5729H33.3799L33.3789 17.3239ZM20.0049 25.5639H21.8899V19.8759H20.0059L20.0049 25.5639ZM25.7639 25.5689H27.6229V22.4249H25.7649L25.7639 25.5689ZM14.2639 23.6989V25.5649H16.1309V23.6999L14.2639 23.6989Z" fill="#30CFD0"/>
<path d="M31.4002 12.173L28.2772 15.99C27.8592 16.5007 27.4406 17.012 27.0212 17.524C26.6212 18.014 26.3672 18.052 25.8432 17.704L21.0522 14.51C20.9522 14.442 20.8452 14.375 20.7232 14.296C20.6232 14.396 20.5232 14.486 20.4232 14.581L14.2832 20.718C14.1906 20.8186 14.0903 20.9119 13.9832 20.997C13.8583 21.0937 13.7012 21.139 13.544 21.1238C13.3867 21.1086 13.2413 21.0339 13.1372 20.915C13.0326 20.8054 12.9723 20.6609 12.968 20.5094C12.9638 20.358 13.0159 20.2103 13.1142 20.095C13.1776 20.0178 13.2461 19.945 13.3192 19.877C15.5492 17.6457 17.7802 15.4143 20.0122 13.183C20.4622 12.733 20.6542 12.711 21.1802 13.06C22.8612 14.177 24.5392 15.298 26.2562 16.441L30.7822 10.911C30.3872 10.911 30.0872 10.911 29.7882 10.911C29.5132 10.911 29.2382 10.921 28.9652 10.905C28.5652 10.882 28.3112 10.637 28.3032 10.284C28.2952 9.91502 28.5522 9.64502 28.9742 9.63602C29.7472 9.62002 30.5202 9.63602 31.2932 9.62802C31.5422 9.62802 31.7932 9.61302 32.0402 9.60602C32.4752 9.59302 32.7902 9.87902 32.7892 10.306C32.7892 11.316 32.7802 12.326 32.7752 13.336C32.7752 13.628 32.6972 13.879 32.4192 14.025C32.3255 14.076 32.2202 14.1019 32.1136 14.1C32.0069 14.0982 31.9026 14.0687 31.8107 14.0145C31.7189 13.9603 31.6426 13.8833 31.5894 13.7908C31.5362 13.6983 31.5079 13.5937 31.5072 13.487C31.4842 13.056 31.5022 12.624 31.5022 12.187L31.4002 12.173Z" fill="#30CFD0"/>
<path d="M7.84721 11.545C7.03721 11.545 6.22721 11.545 5.41721 11.545C4.95621 11.545 4.65621 11.28 4.66321 10.899C4.67021 10.518 4.96321 10.274 5.39921 10.273C7.03187 10.269 8.6652 10.269 10.2992 10.273C10.7682 10.273 11.0522 10.528 11.0462 10.921C11.0402 11.314 10.7592 11.545 10.2792 11.546C9.4672 11.548 8.65721 11.545 7.84721 11.545Z" fill="#30CFD0"/>
<path d="M7.87505 23.0519C8.68505 23.0519 9.49505 23.0519 10.3051 23.0519C10.7621 23.0519 11.0331 23.2879 11.0431 23.666C11.0531 24.044 10.7711 24.324 10.3051 24.325C8.67239 24.331 7.03905 24.331 5.40505 24.325C4.94605 24.325 4.64805 24.045 4.66105 23.6649C4.67405 23.2849 4.95205 23.0549 5.40505 23.0519C6.23105 23.0479 7.05305 23.0519 7.87505 23.0519Z" fill="#30CFD0"/>
<path d="M7.84295 17.93C7.04295 17.93 6.24294 17.93 5.45094 17.93C4.95094 17.93 4.65094 17.677 4.66294 17.283C4.67494 16.889 4.96294 16.656 5.43994 16.654C7.05995 16.65 8.67961 16.65 10.2989 16.654C10.6389 16.654 10.9159 16.768 11.0159 17.126C11.0939 17.406 11.0159 17.662 10.7679 17.81C10.6136 17.8901 10.4418 17.9303 10.2679 17.927C9.46295 17.936 8.65295 17.93 7.84295 17.93Z" fill="#30CFD0"/>
<path d="M6.56021 20.492C6.17321 20.492 5.78621 20.499 5.40021 20.492C4.95121 20.48 4.67021 20.232 4.66321 19.862C4.65621 19.492 4.93721 19.223 5.38121 19.217C6.18121 19.2057 6.98121 19.2057 7.78121 19.217C8.23521 19.224 8.49421 19.476 8.48921 19.864C8.48421 20.252 8.22721 20.481 7.76221 20.493C7.35821 20.5 6.95921 20.492 6.56021 20.492Z" fill="#30CFD0"/>
<path d="M6.58209 14.1C6.17209 14.1 5.76109 14.107 5.35209 14.1C4.94309 14.093 4.66409 13.83 4.66309 13.471C4.66209 13.112 4.94209 12.836 5.34609 12.831C6.16609 12.8197 6.98609 12.8197 7.80609 12.831C8.22409 12.836 8.48409 13.095 8.48509 13.466C8.48609 13.837 8.23009 14.091 7.81209 14.1C7.39409 14.109 6.99209 14.1 6.58209 14.1Z" fill="#30CFD0"/>
<path d="M6.5999 25.6069C7.0099 25.6069 7.4199 25.5989 7.8299 25.6069C8.2399 25.6149 8.4769 25.858 8.4849 26.22C8.49074 26.3044 8.47896 26.3891 8.45029 26.4687C8.42163 26.5483 8.37671 26.6211 8.3184 26.6824C8.26009 26.7437 8.18966 26.7922 8.11159 26.8249C8.03351 26.8575 7.9495 26.8735 7.8649 26.872C7.00757 26.8886 6.15023 26.8886 5.2929 26.872C5.20844 26.8715 5.12494 26.8541 5.04733 26.8208C4.96972 26.7874 4.89957 26.7389 4.84102 26.6781C4.78248 26.6172 4.73673 26.5452 4.70648 26.4663C4.67623 26.3875 4.66209 26.3034 4.6649 26.219C4.6759 25.8729 4.9459 25.6189 5.3329 25.6079C5.7539 25.5999 6.1759 25.6069 6.5999 25.6069Z" fill="#30CFD0"/>
</svg>
