<svg width="135" height="52" viewBox="0 0 135 52" fill="none" xmlns="http://www.w3.org/2000/svg">
<path d="M35.3617 19.4706H29.3991V24.2243H34.8945V26.4412H29.3991V33.0588H26.7515V17.2426H35.3617V19.4706Z" fill="#30CFD0"/>
<path d="M40.9238 33.0588H38.1984V17.2426H40.9238V33.0588Z" fill="#30CFD0"/>
<path d="M55.0962 19.4706H50.513V33.0588H47.8654V19.4706H43.2933V17.2426H55.0962V19.4706Z" fill="#30CFD0"/>
<path d="M67.6222 32.3971C66.4208 33.0147 64.9264 33.3235 63.1391 33.3235C60.8253 33.3235 58.9712 32.5993 57.577 31.1507C56.1827 29.7022 55.4856 27.8015 55.4856 25.4485C55.4856 22.9191 56.268 20.875 57.8328 19.3162C59.4051 17.7574 61.3889 16.9779 63.7843 16.9779C65.3269 16.9779 66.6062 17.1949 67.6222 17.6287V20.2316C66.5469 19.5993 65.3603 19.2831 64.0624 19.2831C62.3345 19.2831 60.9328 19.8309 59.8574 20.9265C58.7895 22.0221 58.2555 23.4853 58.2555 25.3162C58.2555 27.0588 58.7561 28.4485 59.7573 29.4853C60.7585 30.5147 62.0749 31.0294 63.7065 31.0294C65.2119 31.0294 66.5172 30.6765 67.6222 29.9706V32.3971Z" fill="#30CFD0"/>
<path d="M76.9333 33.3235C74.6342 33.3235 72.7913 32.5846 71.4045 31.1066C70.0251 29.6287 69.3354 27.7059 69.3354 25.3382C69.3354 22.7941 70.0399 20.7647 71.449 19.25C72.8581 17.7353 74.7714 16.9779 77.1891 16.9779C79.4288 16.9779 81.231 17.7132 82.5956 19.1838C83.9676 20.6544 84.6536 22.5772 84.6536 24.9522C84.6536 27.5331 83.9527 29.5735 82.5511 31.0735C81.1494 32.5735 79.2768 33.3235 76.9333 33.3235ZM77.0556 19.2831C75.5946 19.2831 74.4043 19.8235 73.4847 20.9044C72.5725 21.9853 72.1164 23.4081 72.1164 25.1728C72.1164 26.9301 72.5614 28.3456 73.4514 29.4191C74.3413 30.4926 75.5057 31.0294 76.9444 31.0294C78.4721 31.0294 79.6773 30.5184 80.5598 29.4963C81.4423 28.4743 81.8836 27.0441 81.8836 25.2059C81.8836 23.3162 81.4535 21.8566 80.5932 20.8272C79.7403 19.7978 78.5611 19.2831 77.0556 19.2831Z" fill="#30CFD0"/>
<path d="M90.2936 33.0588H87.5681V17.2426H90.2936V33.0588Z" fill="#30CFD0"/>
<path d="M107.759 33.0588H104.866L97.2463 21.4338C97.0535 21.1397 96.894 20.8346 96.7679 20.5184H96.7012C96.7605 20.8566 96.7902 21.5809 96.7902 22.6912V33.0588H94.2316V17.2426H97.313L104.677 28.5919C104.989 29.0625 105.189 29.386 105.278 29.5625H105.323C105.248 29.1434 105.211 28.4338 105.211 27.4338V17.2426H107.759V33.0588Z" fill="#30CFD0"/>
<path d="M91.8568 50H2V2H133V50H112.428" stroke="url(#paint0_linear_411_269)" stroke-width="3"/>
<defs>
<linearGradient id="paint0_linear_411_269" x1="2" y1="26" x2="133" y2="26" gradientUnits="userSpaceOnUse">
<stop stop-color="#30CFD0"/>
<stop offset="1" stop-color="#330867"/>
</linearGradient>
</defs>
</svg>
