<svg width="248" height="164" viewBox="0 0 248 164" fill="none" xmlns="http://www.w3.org/2000/svg">
<g style="mix-blend-mode:multiply">
<g style="mix-blend-mode:multiply">
<path d="M10.2254 107.76C10.2254 108.772 9.92555 109.76 9.36376 110.601C8.80197 111.442 8.00349 112.097 7.06927 112.484C6.13504 112.871 5.10699 112.972 4.11522 112.775C3.12345 112.577 2.21248 112.091 1.49745 111.376C0.782427 110.661 0.295533 109.749 0.0982577 108.758C-0.0990172 107.766 0.00216878 106.738 0.389137 105.804C0.776106 104.87 1.43146 104.071 2.27224 103.509C3.11302 102.947 4.10148 102.648 5.11268 102.648C6.46866 102.648 7.76909 103.186 8.72791 104.145C9.68673 105.104 10.2254 106.404 10.2254 107.76Z" fill="#30CFD0"/>
</g>
<g style="mix-blend-mode:multiply">
<path d="M10.6224 158.887C10.6224 159.899 10.3225 160.887 9.76073 161.728C9.19894 162.569 8.40046 163.224 7.46624 163.611C6.53201 163.998 5.50396 164.099 4.51219 163.902C3.52043 163.704 2.60945 163.218 1.89442 162.503C1.1794 161.788 0.692505 160.876 0.49523 159.885C0.297955 158.893 0.399141 157.865 0.78611 156.931C1.17308 155.997 1.82843 155.198 2.66921 154.636C3.50999 154.074 4.49846 153.775 5.50965 153.775C6.86563 153.775 8.16607 154.313 9.12488 155.272C10.0837 156.231 10.6224 157.531 10.6224 158.887Z" fill="#30CFD0"/>
</g>
<g style="mix-blend-mode:multiply">
<path d="M61.2888 107.76C61.2888 108.772 60.9889 109.76 60.4271 110.601C59.8653 111.442 59.0668 112.097 58.1326 112.484C57.1984 112.871 56.1704 112.972 55.1786 112.775C54.1869 112.577 53.2759 112.091 52.5609 111.376C51.8458 110.661 51.3589 109.749 51.1616 108.758C50.9643 107.766 51.0656 106.738 51.4525 105.804C51.8395 104.87 52.4948 104.071 53.3356 103.509C54.1764 102.947 55.1649 102.648 56.1761 102.648C57.5321 102.648 58.8325 103.186 59.7913 104.145C60.7502 105.104 61.2888 106.404 61.2888 107.76Z" fill="#30CFD0"/>
</g>
<g style="mix-blend-mode:multiply">
<path d="M61.6857 158.887C61.6857 159.899 61.3859 160.887 60.8241 161.728C60.2623 162.569 59.4638 163.224 58.5296 163.611C57.5954 163.998 56.5674 164.099 55.5756 163.902C54.5838 163.704 53.6729 163.218 52.9578 162.503C52.2428 161.788 51.7558 160.876 51.5586 159.885C51.3613 158.893 51.4626 157.865 51.8495 156.931C52.2365 155.997 52.8918 155.198 53.7326 154.636C54.5733 154.074 55.5619 153.775 56.5731 153.775C57.9291 153.775 59.2295 154.313 60.1883 155.272C61.1471 156.231 61.6857 157.531 61.6857 158.887Z" fill="#30CFD0"/>
</g>
<g style="mix-blend-mode:multiply">
<path d="M112.351 107.76C112.351 108.772 112.051 109.76 111.489 110.601C110.927 111.442 110.129 112.097 109.195 112.484C108.26 112.871 107.233 112.972 106.241 112.775C105.249 112.577 104.338 112.091 103.623 111.376C102.908 110.661 102.421 109.749 102.224 108.758C102.026 107.766 102.128 106.738 102.515 105.804C102.902 104.87 103.557 104.071 104.398 103.509C105.239 102.947 106.227 102.648 107.238 102.648C107.91 102.648 108.574 102.78 109.195 103.037C109.815 103.294 110.379 103.67 110.853 104.145C111.328 104.62 111.705 105.183 111.962 105.804C112.219 106.424 112.351 107.089 112.351 107.76V107.76Z" fill="#30CFD0"/>
</g>
<g style="mix-blend-mode:multiply">
<path d="M112.749 158.887C112.749 159.899 112.449 160.887 111.887 161.728C111.326 162.569 110.527 163.224 109.593 163.611C108.659 163.998 107.631 164.099 106.639 163.902C105.647 163.704 104.736 163.218 104.021 162.503C103.306 161.788 102.819 160.876 102.622 159.885C102.425 158.893 102.526 157.865 102.913 156.931C103.3 155.997 103.955 155.198 104.796 154.636C105.637 154.074 106.625 153.775 107.636 153.775C108.308 153.775 108.973 153.907 109.593 154.164C110.213 154.421 110.777 154.797 111.252 155.272C111.726 155.747 112.103 156.31 112.36 156.931C112.617 157.551 112.749 158.216 112.749 158.887V158.887Z" fill="#30CFD0"/>
</g>
<g style="mix-blend-mode:multiply">
<path d="M163.414 107.76C163.414 108.772 163.114 109.76 162.553 110.601C161.991 111.442 161.192 112.097 160.258 112.484C159.324 112.871 158.296 112.972 157.304 112.775C156.312 112.577 155.401 112.091 154.686 111.376C153.971 110.661 153.484 109.749 153.287 108.758C153.09 107.766 153.191 106.738 153.578 105.804C153.965 104.87 154.62 104.071 155.461 103.509C156.302 102.947 157.29 102.648 158.302 102.648C159.658 102.648 160.958 103.186 161.917 104.145C162.876 105.104 163.414 106.404 163.414 107.76Z" fill="#30CFD0"/>
</g>
<g style="mix-blend-mode:multiply">
<path d="M163.811 158.887C163.811 159.899 163.511 160.887 162.95 161.728C162.388 162.569 161.589 163.224 160.655 163.611C159.721 163.998 158.693 164.099 157.701 163.902C156.709 163.704 155.798 163.218 155.083 162.503C154.368 161.788 153.881 160.876 153.684 159.885C153.487 158.893 153.588 157.865 153.975 156.931C154.362 155.997 155.017 155.198 155.858 154.636C156.699 154.074 157.687 153.775 158.699 153.775C160.055 153.775 161.355 154.313 162.314 155.272C163.273 156.231 163.811 157.531 163.811 158.887Z" fill="#30CFD0"/>
</g>
<g style="mix-blend-mode:multiply">
<path d="M214.478 107.76C214.478 108.772 214.178 109.76 213.616 110.601C213.054 111.442 212.256 112.097 211.321 112.484C210.387 112.871 209.359 112.972 208.367 112.775C207.376 112.577 206.465 112.091 205.75 111.376C205.035 110.661 204.548 109.749 204.35 108.758C204.153 107.766 204.254 106.738 204.641 105.804C205.028 104.87 205.684 104.071 206.524 103.509C207.365 102.947 208.354 102.648 209.365 102.648C210.721 102.648 212.021 103.186 212.98 104.145C213.939 105.104 214.478 106.404 214.478 107.76Z" fill="#30CFD0"/>
</g>
<g style="mix-blend-mode:multiply">
<path d="M214.875 158.887C214.875 159.899 214.575 160.887 214.013 161.728C213.451 162.569 212.653 163.224 211.718 163.611C210.784 163.998 209.756 164.099 208.764 163.902C207.773 163.704 206.862 163.218 206.147 162.503C205.432 161.788 204.945 160.876 204.747 159.885C204.55 158.893 204.651 157.865 205.038 156.931C205.425 155.997 206.081 155.198 206.921 154.636C207.762 154.074 208.751 153.775 209.762 153.775C211.118 153.775 212.418 154.313 213.377 155.272C214.336 156.231 214.875 157.531 214.875 158.887Z" fill="#30CFD0"/>
</g>
<g style="mix-blend-mode:multiply">
<path d="M10.6224 5.50625C10.6224 6.51744 10.3225 7.5059 9.76073 8.34668C9.19894 9.18745 8.40046 9.8428 7.46624 10.2298C6.53201 10.6167 5.50396 10.718 4.51219 10.5207C3.52043 10.3234 2.60945 9.83648 1.89442 9.12146C1.1794 8.40644 0.692505 7.49547 0.49523 6.5037C0.297955 5.51194 0.399141 4.4839 0.78611 3.54968C1.17308 2.61546 1.82843 1.81698 2.66921 1.25519C3.50999 0.693405 4.49846 0.393555 5.50965 0.393555C6.86563 0.393555 8.16607 0.932225 9.12488 1.89104C10.0837 2.84985 10.6224 4.15028 10.6224 5.50625Z" fill="#30CFD0"/>
</g>
<g style="mix-blend-mode:multiply">
<path d="M61.6857 5.50625C61.6857 6.51744 61.3859 7.5059 60.8241 8.34668C60.2623 9.18745 59.4638 9.8428 58.5296 10.2298C57.5954 10.6167 56.5674 10.718 55.5756 10.5207C54.5838 10.3234 53.6729 9.83648 52.9578 9.12146C52.2428 8.40644 51.7558 7.49547 51.5586 6.5037C51.3613 5.51194 51.4626 4.4839 51.8495 3.54968C52.2365 2.61546 52.8918 1.81698 53.7326 1.25519C54.5733 0.693405 55.5619 0.393555 56.5731 0.393555C57.9291 0.393555 59.2295 0.932225 60.1883 1.89104C61.1471 2.84985 61.6857 4.15028 61.6857 5.50625Z" fill="#30CFD0"/>
</g>
<g style="mix-blend-mode:multiply">
<path d="M112.748 5.50625C112.748 6.51744 112.448 7.5059 111.886 8.34668C111.324 9.18745 110.526 9.8428 109.592 10.2298C108.657 10.6167 107.629 10.718 106.638 10.5207C105.646 10.3234 104.735 9.83648 104.02 9.12146C103.305 8.40644 102.818 7.49547 102.621 6.5037C102.423 5.51194 102.525 4.4839 102.912 3.54968C103.299 2.61546 103.954 1.81698 104.795 1.25519C105.636 0.693405 106.624 0.393555 107.635 0.393555C108.307 0.393555 108.971 0.525793 109.592 0.78273C110.212 1.03967 110.776 1.41628 111.25 1.89104C111.725 2.36579 112.102 2.92938 112.359 3.54968C112.616 4.16997 112.748 4.83484 112.748 5.50625V5.50625Z" fill="#30CFD0"/>
</g>
<g style="mix-blend-mode:multiply">
<path d="M163.811 5.50625C163.811 6.51744 163.511 7.5059 162.95 8.34668C162.388 9.18745 161.589 9.8428 160.655 10.2298C159.721 10.6167 158.693 10.718 157.701 10.5207C156.709 10.3234 155.798 9.83648 155.083 9.12146C154.368 8.40644 153.881 7.49547 153.684 6.5037C153.487 5.51194 153.588 4.4839 153.975 3.54968C154.362 2.61546 155.017 1.81698 155.858 1.25519C156.699 0.693405 157.687 0.393555 158.699 0.393555C160.055 0.393555 161.355 0.932225 162.314 1.89104C163.273 2.84985 163.811 4.15028 163.811 5.50625Z" fill="#30CFD0"/>
</g>
<g style="mix-blend-mode:multiply">
<path d="M214.875 5.50625C214.875 6.51744 214.575 7.5059 214.013 8.34668C213.451 9.18745 212.653 9.8428 211.718 10.2298C210.784 10.6167 209.756 10.718 208.764 10.5207C207.773 10.3234 206.862 9.83648 206.147 9.12146C205.432 8.40644 204.945 7.49547 204.747 6.5037C204.55 5.51194 204.651 4.4839 205.038 3.54968C205.425 2.61546 206.081 1.81698 206.921 1.25519C207.762 0.693405 208.751 0.393555 209.762 0.393555C211.118 0.393555 212.418 0.932225 213.377 1.89104C214.336 2.84985 214.875 4.15028 214.875 5.50625Z" fill="#30CFD0"/>
</g>
<g style="mix-blend-mode:multiply">
<path d="M10.6224 56.6333C10.6224 57.6445 10.3225 58.633 9.76073 59.4737C9.19894 60.3145 8.40046 60.9699 7.46624 61.3568C6.53201 61.7438 5.50396 61.845 4.51219 61.6477C3.52043 61.4504 2.60945 60.9635 1.89442 60.2485C1.1794 59.5335 0.692505 58.6225 0.49523 57.6308C0.297955 56.639 0.399141 55.6109 0.78611 54.6767C1.17308 53.7425 1.82843 52.944 2.66921 52.3822C3.50999 51.8204 4.49846 51.5206 5.50965 51.5206C6.86563 51.5206 8.16607 52.0592 9.12488 53.0181C10.0837 53.9769 10.6224 55.2773 10.6224 56.6333Z" fill="#30CFD0"/>
</g>
<g style="mix-blend-mode:multiply">
<path d="M61.6857 56.6333C61.6857 57.6445 61.3859 58.633 60.8241 59.4737C60.2623 60.3145 59.4638 60.9699 58.5296 61.3568C57.5954 61.7438 56.5674 61.845 55.5756 61.6477C54.5838 61.4504 53.6729 60.9635 52.9578 60.2485C52.2428 59.5335 51.7558 58.6225 51.5586 57.6308C51.3613 56.639 51.4626 55.6109 51.8495 54.6767C52.2365 53.7425 52.8918 52.944 53.7326 52.3822C54.5733 51.8204 55.5619 51.5206 56.5731 51.5206C57.9291 51.5206 59.2295 52.0592 60.1883 53.0181C61.1471 53.9769 61.6857 55.2773 61.6857 56.6333Z" fill="#30CFD0"/>
</g>
<g style="mix-blend-mode:multiply">
<path d="M112.748 56.6333C112.748 57.6445 112.448 58.633 111.886 59.4737C111.324 60.3145 110.526 60.9699 109.592 61.3568C108.657 61.7438 107.629 61.845 106.638 61.6477C105.646 61.4504 104.735 60.9635 104.02 60.2485C103.305 59.5335 102.818 58.6225 102.621 57.6308C102.423 56.639 102.525 55.6109 102.912 54.6767C103.299 53.7425 103.954 52.944 104.795 52.3822C105.636 51.8204 106.624 51.5206 107.635 51.5206C108.307 51.5206 108.971 51.6528 109.592 51.9097C110.212 52.1667 110.776 52.5433 111.25 53.0181C111.725 53.4928 112.102 54.0564 112.359 54.6767C112.616 55.297 112.748 55.9619 112.748 56.6333V56.6333Z" fill="#30CFD0"/>
</g>
<g style="mix-blend-mode:multiply">
<path d="M163.811 56.6333C163.811 57.6445 163.511 58.633 162.95 59.4737C162.388 60.3145 161.589 60.9699 160.655 61.3568C159.721 61.7438 158.693 61.845 157.701 61.6477C156.709 61.4504 155.798 60.9635 155.083 60.2485C154.368 59.5335 153.881 58.6225 153.684 57.6308C153.487 56.639 153.588 55.6109 153.975 54.6767C154.362 53.7425 155.017 52.944 155.858 52.3822C156.699 51.8204 157.687 51.5206 158.699 51.5206C160.055 51.5206 161.355 52.0592 162.314 53.0181C163.273 53.9769 163.811 55.2773 163.811 56.6333Z" fill="#30CFD0"/>
</g>
<g style="mix-blend-mode:multiply">
<path d="M214.875 56.6333C214.875 57.6445 214.575 58.633 214.013 59.4737C213.451 60.3145 212.653 60.9699 211.718 61.3568C210.784 61.7438 209.756 61.845 208.764 61.6477C207.773 61.4504 206.862 60.9635 206.147 60.2485C205.432 59.5335 204.945 58.6225 204.747 57.6308C204.55 56.639 204.651 55.6109 205.038 54.6767C205.425 53.7425 206.081 52.944 206.921 52.3822C207.762 51.8204 208.751 51.5206 209.762 51.5206C211.118 51.5206 212.418 52.0592 213.377 53.0181C214.336 53.9769 214.875 55.2773 214.875 56.6333Z" fill="#30CFD0"/>
</g>
</g>
</svg>
