<svg width="1314" height="232" viewBox="0 0 1314 232" fill="none" xmlns="http://www.w3.org/2000/svg">
<path d="M1314 132L1270.48 91L377 91" stroke="#C1D1D6" stroke-width="2"/>
<path d="M1314 152H1267.5L1241 130L789.5 130" stroke="#C1D1D6" stroke-width="2"/>
<path d="M1325 104L1281.5 64L1205.5 64" stroke="#C1D1D6" stroke-width="2"/>
<circle cx="372" cy="91" r="5" stroke="#C1D1D6" stroke-width="2"/>
<circle cx="1201" cy="64" r="5" stroke="#C1D1D6" stroke-width="2"/>
<circle cx="784" cy="130" r="5" stroke="#C1D1D6" stroke-width="2"/>
<g filter="url(#filter0_d_505_1329)">
<rect x="10" y="6" width="340" height="212" rx="16" fill="white"/>
<path d="M165.531 98.5H166.031V98V52.375V51.875H165.531H144.156H143.964L143.821 52.0038L127.509 66.7225L127.159 67.0384L127.454 67.4063L134.938 76.7501L135.265 77.1581L135.658 76.8134L149.469 64.7031H150.953V98V98.5H151.453H165.531ZM184.736 79.7656V80.2656H185.236H197.971H198.471V79.7656C198.471 79.1133 198.594 78.6556 198.791 78.3469C198.979 78.0521 199.26 77.8509 199.679 77.7523L199.682 77.7515C200.16 77.6356 201.287 77.5379 203.125 77.4723C204.942 77.4075 207.405 77.375 210.518 77.375C213.753 77.375 216.31 77.4284 218.193 77.5344C219.134 77.5874 219.9 77.6532 220.496 77.7311C221.101 77.8104 221.495 77.898 221.712 77.982L221.714 77.9825C222.093 78.128 222.43 78.4726 222.677 79.1452C222.927 79.8244 223.064 80.7877 223.064 82.0625C223.064 83.3748 222.907 84.3688 222.621 85.0737C222.339 85.7668 221.947 86.153 221.471 86.3273L221.464 86.3298L221.457 86.3324C220.9 86.5546 219.728 86.7442 217.866 86.8723C216.028 86.9988 213.58 87.0625 210.518 87.0625C207.38 87.0625 204.907 87.0143 203.095 86.9187C202.188 86.8708 201.452 86.8114 200.885 86.7411C200.305 86.6694 199.937 86.5905 199.741 86.5166L199.728 86.5116L199.714 86.5073C199.35 86.3932 199.049 86.1246 198.828 85.6109C198.601 85.0821 198.471 84.3165 198.471 83.2812V82.7812H197.971H183.893H183.393V83.2812V87.8281C183.393 90.1882 183.829 92.169 184.737 93.7387C185.65 95.3164 187.021 96.4446 188.823 97.123C190.578 97.8106 193.272 98.3109 196.866 98.6424C200.473 98.9751 205.025 99.1406 210.518 99.1406C216.585 99.1406 221.525 98.9008 225.33 98.4179C229.115 97.9377 231.848 97.2097 233.444 96.1866L233.445 96.1854C235.061 95.1403 236.233 93.3977 237.001 91.0333C237.768 88.6708 238.143 85.6538 238.143 82C238.143 78.3713 237.81 75.4112 237.129 73.1378C236.449 70.8681 235.404 69.2267 233.937 68.3247C232.701 67.5565 230.476 67.0225 227.363 66.6711C224.222 66.3166 220.094 66.1406 214.986 66.1406C207.254 66.1406 201.61 66.9464 198.143 68.6241V62.9844H235.08H235.58V62.4844V52.2344V51.7344H235.08H185.236H184.736V52.2344V79.7656Z" fill="#30CFD0" stroke="#30CFD0"/>
<path d="M109.756 142L105.156 153.602C104.336 155.672 103.184 156.707 101.699 156.707C101.283 156.707 100.934 156.665 100.654 156.58V155.145C100.999 155.262 101.315 155.32 101.602 155.32C102.409 155.32 103.014 154.839 103.418 153.875L104.219 151.98L100.312 142H102.09L104.795 149.695C104.827 149.793 104.896 150.047 105 150.457H105.059C105.091 150.301 105.156 150.053 105.254 149.715L108.096 142H109.756ZM119.521 147.4H112.461C112.487 148.514 112.786 149.373 113.359 149.979C113.932 150.584 114.72 150.887 115.723 150.887C116.849 150.887 117.884 150.516 118.828 149.773V151.277C117.949 151.915 116.787 152.234 115.342 152.234C113.929 152.234 112.819 151.782 112.012 150.877C111.204 149.965 110.801 148.686 110.801 147.039C110.801 145.483 111.24 144.217 112.119 143.24C113.005 142.257 114.102 141.766 115.41 141.766C116.719 141.766 117.731 142.189 118.447 143.035C119.163 143.882 119.521 145.057 119.521 146.561V147.4ZM117.881 146.043C117.874 145.118 117.65 144.399 117.207 143.885C116.771 143.37 116.162 143.113 115.381 143.113C114.626 143.113 113.984 143.383 113.457 143.924C112.93 144.464 112.604 145.171 112.48 146.043H117.881ZM129.111 152H127.51V150.438H127.471C126.774 151.635 125.749 152.234 124.395 152.234C123.398 152.234 122.617 151.971 122.051 151.443C121.491 150.916 121.211 150.216 121.211 149.344C121.211 147.475 122.311 146.388 124.512 146.082L127.51 145.662C127.51 143.963 126.823 143.113 125.449 143.113C124.245 143.113 123.158 143.523 122.188 144.344V142.703C123.171 142.078 124.303 141.766 125.586 141.766C127.936 141.766 129.111 143.009 129.111 145.496V152ZM127.51 146.941L125.098 147.273C124.355 147.378 123.796 147.563 123.418 147.83C123.04 148.09 122.852 148.556 122.852 149.227C122.852 149.715 123.024 150.115 123.369 150.428C123.721 150.734 124.186 150.887 124.766 150.887C125.56 150.887 126.214 150.61 126.729 150.057C127.249 149.497 127.51 148.79 127.51 147.938V146.941ZM137.344 143.621C137.064 143.406 136.66 143.299 136.133 143.299C135.449 143.299 134.876 143.621 134.414 144.266C133.958 144.91 133.73 145.789 133.73 146.902V152H132.129V142H133.73V144.061H133.77C133.997 143.357 134.346 142.811 134.814 142.42C135.283 142.023 135.807 141.824 136.387 141.824C136.803 141.824 137.122 141.87 137.344 141.961V143.621ZM138.477 151.639V149.92C139.349 150.564 140.309 150.887 141.357 150.887C142.764 150.887 143.467 150.418 143.467 149.48C143.467 149.214 143.405 148.989 143.281 148.807C143.164 148.618 143.001 148.452 142.793 148.309C142.591 148.165 142.35 148.038 142.07 147.928C141.797 147.811 141.501 147.69 141.182 147.566C140.739 147.391 140.348 147.215 140.01 147.039C139.678 146.857 139.398 146.655 139.17 146.434C138.949 146.206 138.779 145.949 138.662 145.662C138.551 145.376 138.496 145.04 138.496 144.656C138.496 144.188 138.604 143.774 138.818 143.416C139.033 143.051 139.32 142.749 139.678 142.508C140.036 142.26 140.443 142.075 140.898 141.951C141.361 141.827 141.836 141.766 142.324 141.766C143.19 141.766 143.965 141.915 144.648 142.215V143.836C143.913 143.354 143.066 143.113 142.109 143.113C141.81 143.113 141.54 143.149 141.299 143.221C141.058 143.286 140.85 143.38 140.674 143.504C140.505 143.628 140.371 143.777 140.273 143.953C140.182 144.122 140.137 144.311 140.137 144.52C140.137 144.78 140.182 144.998 140.273 145.174C140.371 145.35 140.511 145.506 140.693 145.643C140.876 145.779 141.097 145.903 141.357 146.014C141.618 146.124 141.914 146.245 142.246 146.375C142.689 146.544 143.086 146.72 143.438 146.902C143.789 147.078 144.089 147.28 144.336 147.508C144.583 147.729 144.772 147.986 144.902 148.279C145.039 148.572 145.107 148.921 145.107 149.324C145.107 149.819 144.997 150.249 144.775 150.613C144.561 150.978 144.271 151.281 143.906 151.521C143.542 151.762 143.122 151.941 142.646 152.059C142.171 152.176 141.673 152.234 141.152 152.234C140.124 152.234 139.232 152.036 138.477 151.639ZM157.246 152.234C155.768 152.234 154.587 151.769 153.701 150.838C152.822 149.9 152.383 148.66 152.383 147.117C152.383 145.438 152.842 144.126 153.76 143.182C154.678 142.238 155.918 141.766 157.48 141.766C158.971 141.766 160.133 142.225 160.967 143.143C161.807 144.061 162.227 145.333 162.227 146.961C162.227 148.556 161.774 149.835 160.869 150.799C159.971 151.756 158.763 152.234 157.246 152.234ZM157.363 143.113C156.335 143.113 155.521 143.465 154.922 144.168C154.323 144.865 154.023 145.828 154.023 147.059C154.023 148.243 154.326 149.178 154.932 149.861C155.537 150.545 156.348 150.887 157.363 150.887C158.398 150.887 159.193 150.551 159.746 149.881C160.306 149.21 160.586 148.257 160.586 147.02C160.586 145.77 160.306 144.806 159.746 144.129C159.193 143.452 158.398 143.113 157.363 143.113ZM169.727 138.602C169.414 138.426 169.059 138.338 168.662 138.338C167.542 138.338 166.982 139.044 166.982 140.457V142H169.326V143.367H166.982V152H165.391V143.367H163.682V142H165.391V140.379C165.391 139.331 165.693 138.504 166.299 137.898C166.904 137.286 167.66 136.98 168.564 136.98C169.053 136.98 169.44 137.039 169.727 137.156V138.602ZM184.58 147.4H177.52C177.546 148.514 177.845 149.373 178.418 149.979C178.991 150.584 179.779 150.887 180.781 150.887C181.908 150.887 182.943 150.516 183.887 149.773V151.277C183.008 151.915 181.846 152.234 180.4 152.234C178.988 152.234 177.878 151.782 177.07 150.877C176.263 149.965 175.859 148.686 175.859 147.039C175.859 145.483 176.299 144.217 177.178 143.24C178.063 142.257 179.16 141.766 180.469 141.766C181.777 141.766 182.79 142.189 183.506 143.035C184.222 143.882 184.58 145.057 184.58 146.561V147.4ZM182.939 146.043C182.933 145.118 182.708 144.399 182.266 143.885C181.829 143.37 181.221 143.113 180.439 143.113C179.684 143.113 179.043 143.383 178.516 143.924C177.988 144.464 177.663 145.171 177.539 146.043H182.939ZM194.316 142L190.957 147.059L194.258 152H192.393L190.43 148.758C190.306 148.556 190.16 148.302 189.99 147.996H189.951C189.919 148.055 189.766 148.309 189.492 148.758L187.49 152H185.645L189.053 147.098L185.791 142H187.656L189.59 145.418C189.733 145.672 189.873 145.932 190.01 146.199H190.049L192.549 142H194.316ZM197.832 150.555H197.793V156.6H196.191V142H197.793V143.758H197.832C198.62 142.43 199.772 141.766 201.289 141.766C202.578 141.766 203.584 142.215 204.307 143.113C205.029 144.005 205.391 145.203 205.391 146.707C205.391 148.38 204.984 149.721 204.17 150.73C203.356 151.733 202.243 152.234 200.83 152.234C199.535 152.234 198.535 151.674 197.832 150.555ZM197.793 146.521V147.918C197.793 148.745 198.06 149.448 198.594 150.027C199.134 150.6 199.818 150.887 200.645 150.887C201.615 150.887 202.373 150.516 202.92 149.773C203.473 149.031 203.75 147.999 203.75 146.678C203.75 145.564 203.493 144.692 202.979 144.061C202.464 143.429 201.768 143.113 200.889 143.113C199.958 143.113 199.209 143.439 198.643 144.09C198.076 144.734 197.793 145.545 197.793 146.521ZM215.986 147.4H208.926C208.952 148.514 209.251 149.373 209.824 149.979C210.397 150.584 211.185 150.887 212.188 150.887C213.314 150.887 214.349 150.516 215.293 149.773V151.277C214.414 151.915 213.252 152.234 211.807 152.234C210.394 152.234 209.284 151.782 208.477 150.877C207.669 149.965 207.266 148.686 207.266 147.039C207.266 145.483 207.705 144.217 208.584 143.24C209.469 142.257 210.566 141.766 211.875 141.766C213.184 141.766 214.196 142.189 214.912 143.035C215.628 143.882 215.986 145.057 215.986 146.561V147.4ZM214.346 146.043C214.339 145.118 214.115 144.399 213.672 143.885C213.236 143.37 212.627 143.113 211.846 143.113C211.09 143.113 210.449 143.383 209.922 143.924C209.395 144.464 209.069 145.171 208.945 146.043H214.346ZM223.633 143.621C223.353 143.406 222.949 143.299 222.422 143.299C221.738 143.299 221.165 143.621 220.703 144.266C220.247 144.91 220.02 145.789 220.02 146.902V152H218.418V142H220.02V144.061H220.059C220.286 143.357 220.635 142.811 221.104 142.42C221.572 142.023 222.096 141.824 222.676 141.824C223.092 141.824 223.411 141.87 223.633 141.961V143.621ZM230.01 151.902C229.632 152.111 229.134 152.215 228.516 152.215C226.764 152.215 225.889 151.238 225.889 149.285V143.367H224.17V142H225.889V139.559L227.49 139.041V142H230.01V143.367H227.49V149.002C227.49 149.673 227.604 150.151 227.832 150.438C228.06 150.724 228.438 150.867 228.965 150.867C229.368 150.867 229.717 150.757 230.01 150.535V151.902ZM232.969 139.461C232.682 139.461 232.438 139.363 232.236 139.168C232.035 138.973 231.934 138.725 231.934 138.426C231.934 138.126 232.035 137.879 232.236 137.684C232.438 137.482 232.682 137.381 232.969 137.381C233.262 137.381 233.509 137.482 233.711 137.684C233.919 137.879 234.023 138.126 234.023 138.426C234.023 138.712 233.919 138.956 233.711 139.158C233.509 139.36 233.262 139.461 232.969 139.461ZM233.75 152H232.148V142H233.75V152ZM236.387 151.639V149.92C237.259 150.564 238.219 150.887 239.268 150.887C240.674 150.887 241.377 150.418 241.377 149.48C241.377 149.214 241.315 148.989 241.191 148.807C241.074 148.618 240.911 148.452 240.703 148.309C240.501 148.165 240.26 148.038 239.98 147.928C239.707 147.811 239.411 147.69 239.092 147.566C238.649 147.391 238.258 147.215 237.92 147.039C237.588 146.857 237.308 146.655 237.08 146.434C236.859 146.206 236.689 145.949 236.572 145.662C236.462 145.376 236.406 145.04 236.406 144.656C236.406 144.188 236.514 143.774 236.729 143.416C236.943 143.051 237.23 142.749 237.588 142.508C237.946 142.26 238.353 142.075 238.809 141.951C239.271 141.827 239.746 141.766 240.234 141.766C241.1 141.766 241.875 141.915 242.559 142.215V143.836C241.823 143.354 240.977 143.113 240.02 143.113C239.72 143.113 239.45 143.149 239.209 143.221C238.968 143.286 238.76 143.38 238.584 143.504C238.415 143.628 238.281 143.777 238.184 143.953C238.092 144.122 238.047 144.311 238.047 144.52C238.047 144.78 238.092 144.998 238.184 145.174C238.281 145.35 238.421 145.506 238.604 145.643C238.786 145.779 239.007 145.903 239.268 146.014C239.528 146.124 239.824 146.245 240.156 146.375C240.599 146.544 240.996 146.72 241.348 146.902C241.699 147.078 241.999 147.28 242.246 147.508C242.493 147.729 242.682 147.986 242.812 148.279C242.949 148.572 243.018 148.921 243.018 149.324C243.018 149.819 242.907 150.249 242.686 150.613C242.471 150.978 242.181 151.281 241.816 151.521C241.452 151.762 241.032 151.941 240.557 152.059C240.081 152.176 239.583 152.234 239.062 152.234C238.034 152.234 237.142 152.036 236.387 151.639ZM253.525 147.4H246.465C246.491 148.514 246.79 149.373 247.363 149.979C247.936 150.584 248.724 150.887 249.727 150.887C250.853 150.887 251.888 150.516 252.832 149.773V151.277C251.953 151.915 250.791 152.234 249.346 152.234C247.933 152.234 246.823 151.782 246.016 150.877C245.208 149.965 244.805 148.686 244.805 147.039C244.805 145.483 245.244 144.217 246.123 143.24C247.008 142.257 248.105 141.766 249.414 141.766C250.723 141.766 251.735 142.189 252.451 143.035C253.167 143.882 253.525 145.057 253.525 146.561V147.4ZM251.885 146.043C251.878 145.118 251.654 144.399 251.211 143.885C250.775 143.37 250.166 143.113 249.385 143.113C248.63 143.113 247.988 143.383 247.461 143.924C246.934 144.464 246.608 145.171 246.484 146.043H251.885ZM52.6953 165.461C52.4089 165.461 52.1647 165.363 51.9629 165.168C51.7611 164.973 51.6602 164.725 51.6602 164.426C51.6602 164.126 51.7611 163.879 51.9629 163.684C52.1647 163.482 52.4089 163.381 52.6953 163.381C52.9883 163.381 53.2357 163.482 53.4375 163.684C53.6458 163.879 53.75 164.126 53.75 164.426C53.75 164.712 53.6458 164.956 53.4375 165.158C53.2357 165.36 52.9883 165.461 52.6953 165.461ZM53.4766 178H51.875V168H53.4766V178ZM65.0195 178H63.418V172.297C63.418 170.174 62.6432 169.113 61.0938 169.113C60.293 169.113 59.6289 169.416 59.1016 170.021C58.5807 170.62 58.3203 171.379 58.3203 172.297V178H56.7188V168H58.3203V169.66H58.3594C59.1146 168.397 60.2083 167.766 61.6406 167.766C62.7344 167.766 63.571 168.12 64.1504 168.83C64.7298 169.533 65.0195 170.552 65.0195 171.887V178ZM78.1738 177.902C77.7962 178.111 77.2982 178.215 76.6797 178.215C74.9284 178.215 74.0527 177.238 74.0527 175.285V169.367H72.334V168H74.0527V165.559L75.6543 165.041V168H78.1738V169.367H75.6543V175.002C75.6543 175.673 75.7682 176.151 75.9961 176.438C76.224 176.724 76.6016 176.867 77.1289 176.867C77.5326 176.867 77.8809 176.757 78.1738 176.535V177.902ZM88.6133 178H87.0117V172.238C87.0117 170.155 86.237 169.113 84.6875 169.113C83.9062 169.113 83.2487 169.416 82.7148 170.021C82.181 170.62 81.9141 171.392 81.9141 172.336V178H80.3125V163.195H81.9141V169.66H81.9531C82.7214 168.397 83.8151 167.766 85.2344 167.766C87.487 167.766 88.6133 169.123 88.6133 171.838V178ZM99.6777 173.4H92.6172C92.6432 174.514 92.9427 175.373 93.5156 175.979C94.0885 176.584 94.8763 176.887 95.8789 176.887C97.0052 176.887 98.0404 176.516 98.9844 175.773V177.277C98.1055 177.915 96.9434 178.234 95.498 178.234C94.0853 178.234 92.9753 177.782 92.168 176.877C91.3607 175.965 90.957 174.686 90.957 173.039C90.957 171.483 91.3965 170.217 92.2754 169.24C93.1608 168.257 94.2578 167.766 95.5664 167.766C96.875 167.766 97.8874 168.189 98.6035 169.035C99.3197 169.882 99.6777 171.057 99.6777 172.561V173.4ZM98.0371 172.043C98.0306 171.118 97.806 170.399 97.3633 169.885C96.9271 169.37 96.3184 169.113 95.5371 169.113C94.7819 169.113 94.1406 169.383 93.6133 169.924C93.0859 170.464 92.7604 171.171 92.6367 172.043H98.0371ZM106.992 177.639V175.92C107.865 176.564 108.825 176.887 109.873 176.887C111.279 176.887 111.982 176.418 111.982 175.48C111.982 175.214 111.921 174.989 111.797 174.807C111.68 174.618 111.517 174.452 111.309 174.309C111.107 174.165 110.866 174.038 110.586 173.928C110.312 173.811 110.016 173.69 109.697 173.566C109.255 173.391 108.864 173.215 108.525 173.039C108.193 172.857 107.913 172.655 107.686 172.434C107.464 172.206 107.295 171.949 107.178 171.662C107.067 171.376 107.012 171.04 107.012 170.656C107.012 170.188 107.119 169.774 107.334 169.416C107.549 169.051 107.835 168.749 108.193 168.508C108.551 168.26 108.958 168.075 109.414 167.951C109.876 167.827 110.352 167.766 110.84 167.766C111.706 167.766 112.48 167.915 113.164 168.215V169.836C112.428 169.354 111.582 169.113 110.625 169.113C110.326 169.113 110.055 169.149 109.814 169.221C109.574 169.286 109.365 169.38 109.189 169.504C109.02 169.628 108.887 169.777 108.789 169.953C108.698 170.122 108.652 170.311 108.652 170.52C108.652 170.78 108.698 170.998 108.789 171.174C108.887 171.35 109.027 171.506 109.209 171.643C109.391 171.779 109.613 171.903 109.873 172.014C110.133 172.124 110.43 172.245 110.762 172.375C111.204 172.544 111.602 172.72 111.953 172.902C112.305 173.078 112.604 173.28 112.852 173.508C113.099 173.729 113.288 173.986 113.418 174.279C113.555 174.572 113.623 174.921 113.623 175.324C113.623 175.819 113.512 176.249 113.291 176.613C113.076 176.978 112.786 177.281 112.422 177.521C112.057 177.762 111.637 177.941 111.162 178.059C110.687 178.176 110.189 178.234 109.668 178.234C108.639 178.234 107.747 178.036 106.992 177.639ZM117.734 176.555H117.695V182.6H116.094V168H117.695V169.758H117.734C118.522 168.43 119.674 167.766 121.191 167.766C122.48 167.766 123.486 168.215 124.209 169.113C124.932 170.005 125.293 171.203 125.293 172.707C125.293 174.38 124.886 175.721 124.072 176.73C123.258 177.733 122.145 178.234 120.732 178.234C119.437 178.234 118.438 177.674 117.734 176.555ZM117.695 172.521V173.918C117.695 174.745 117.962 175.448 118.496 176.027C119.036 176.6 119.72 176.887 120.547 176.887C121.517 176.887 122.275 176.516 122.822 175.773C123.376 175.031 123.652 173.999 123.652 172.678C123.652 171.564 123.395 170.692 122.881 170.061C122.367 169.429 121.67 169.113 120.791 169.113C119.86 169.113 119.111 169.439 118.545 170.09C117.979 170.734 117.695 171.545 117.695 172.521ZM132.031 178.234C130.553 178.234 129.372 177.769 128.486 176.838C127.607 175.9 127.168 174.66 127.168 173.117C127.168 171.438 127.627 170.126 128.545 169.182C129.463 168.238 130.703 167.766 132.266 167.766C133.757 167.766 134.919 168.225 135.752 169.143C136.592 170.061 137.012 171.333 137.012 172.961C137.012 174.556 136.559 175.835 135.654 176.799C134.756 177.756 133.548 178.234 132.031 178.234ZM132.148 169.113C131.12 169.113 130.306 169.465 129.707 170.168C129.108 170.865 128.809 171.828 128.809 173.059C128.809 174.243 129.111 175.178 129.717 175.861C130.322 176.545 131.133 176.887 132.148 176.887C133.184 176.887 133.978 176.551 134.531 175.881C135.091 175.21 135.371 174.257 135.371 173.02C135.371 171.77 135.091 170.806 134.531 170.129C133.978 169.452 133.184 169.113 132.148 169.113ZM144.785 169.621C144.505 169.406 144.102 169.299 143.574 169.299C142.891 169.299 142.318 169.621 141.855 170.266C141.4 170.91 141.172 171.789 141.172 172.902V178H139.57V168H141.172V170.061H141.211C141.439 169.357 141.787 168.811 142.256 168.42C142.725 168.023 143.249 167.824 143.828 167.824C144.245 167.824 144.564 167.87 144.785 167.961V169.621ZM151.162 177.902C150.785 178.111 150.286 178.215 149.668 178.215C147.917 178.215 147.041 177.238 147.041 175.285V169.367H145.322V168H147.041V165.559L148.643 165.041V168H151.162V169.367H148.643V175.002C148.643 175.673 148.757 176.151 148.984 176.438C149.212 176.724 149.59 176.867 150.117 176.867C150.521 176.867 150.869 176.757 151.162 176.535V177.902ZM167.09 178H165.488V172.297C165.488 170.174 164.714 169.113 163.164 169.113C162.363 169.113 161.699 169.416 161.172 170.021C160.651 170.62 160.391 171.379 160.391 172.297V178H158.789V168H160.391V169.66H160.43C161.185 168.397 162.279 167.766 163.711 167.766C164.805 167.766 165.641 168.12 166.221 168.83C166.8 169.533 167.09 170.552 167.09 171.887V178ZM178.203 178H176.602V176.418H176.562C175.898 177.629 174.87 178.234 173.477 178.234C171.094 178.234 169.902 176.815 169.902 173.977V168H171.494V173.723C171.494 175.832 172.301 176.887 173.916 176.887C174.697 176.887 175.339 176.6 175.84 176.027C176.348 175.448 176.602 174.693 176.602 173.762V168H178.203V178ZM186.084 177.902C185.706 178.111 185.208 178.215 184.59 178.215C182.839 178.215 181.963 177.238 181.963 175.285V169.367H180.244V168H181.963V165.559L183.564 165.041V168H186.084V169.367H183.564V175.002C183.564 175.673 183.678 176.151 183.906 176.438C184.134 176.724 184.512 176.867 185.039 176.867C185.443 176.867 185.791 176.757 186.084 176.535V177.902ZM193.438 169.621C193.158 169.406 192.754 169.299 192.227 169.299C191.543 169.299 190.97 169.621 190.508 170.266C190.052 170.91 189.824 171.789 189.824 172.902V178H188.223V168H189.824V170.061H189.863C190.091 169.357 190.439 168.811 190.908 168.42C191.377 168.023 191.901 167.824 192.48 167.824C192.897 167.824 193.216 167.87 193.438 167.961V169.621ZM195.996 165.461C195.71 165.461 195.465 165.363 195.264 165.168C195.062 164.973 194.961 164.725 194.961 164.426C194.961 164.126 195.062 163.879 195.264 163.684C195.465 163.482 195.71 163.381 195.996 163.381C196.289 163.381 196.536 163.482 196.738 163.684C196.947 163.879 197.051 164.126 197.051 164.426C197.051 164.712 196.947 164.956 196.738 165.158C196.536 165.36 196.289 165.461 195.996 165.461ZM196.777 178H195.176V168H196.777V178ZM204.658 177.902C204.281 178.111 203.783 178.215 203.164 178.215C201.413 178.215 200.537 177.238 200.537 175.285V169.367H198.818V168H200.537V165.559L202.139 165.041V168H204.658V169.367H202.139V175.002C202.139 175.673 202.253 176.151 202.48 176.438C202.708 176.724 203.086 176.867 203.613 176.867C204.017 176.867 204.365 176.757 204.658 176.535V177.902ZM207.617 165.461C207.331 165.461 207.087 165.363 206.885 165.168C206.683 164.973 206.582 164.725 206.582 164.426C206.582 164.126 206.683 163.879 206.885 163.684C207.087 163.482 207.331 163.381 207.617 163.381C207.91 163.381 208.158 163.482 208.359 163.684C208.568 163.879 208.672 164.126 208.672 164.426C208.672 164.712 208.568 164.956 208.359 165.158C208.158 165.36 207.91 165.461 207.617 165.461ZM208.398 178H206.797V168H208.398V178ZM215.82 178.234C214.342 178.234 213.161 177.769 212.275 176.838C211.396 175.9 210.957 174.66 210.957 173.117C210.957 171.438 211.416 170.126 212.334 169.182C213.252 168.238 214.492 167.766 216.055 167.766C217.546 167.766 218.708 168.225 219.541 169.143C220.381 170.061 220.801 171.333 220.801 172.961C220.801 174.556 220.348 175.835 219.443 176.799C218.545 177.756 217.337 178.234 215.82 178.234ZM215.938 169.113C214.909 169.113 214.095 169.465 213.496 170.168C212.897 170.865 212.598 171.828 212.598 173.059C212.598 174.243 212.9 175.178 213.506 175.861C214.111 176.545 214.922 176.887 215.938 176.887C216.973 176.887 217.767 176.551 218.32 175.881C218.88 175.21 219.16 174.257 219.16 173.02C219.16 171.77 218.88 170.806 218.32 170.129C217.767 169.452 216.973 169.113 215.938 169.113ZM231.66 178H230.059V172.297C230.059 170.174 229.284 169.113 227.734 169.113C226.934 169.113 226.27 169.416 225.742 170.021C225.221 170.62 224.961 171.379 224.961 172.297V178H223.359V168H224.961V169.66H225C225.755 168.397 226.849 167.766 228.281 167.766C229.375 167.766 230.212 168.12 230.791 168.83C231.37 169.533 231.66 170.552 231.66 171.887V178ZM240.996 165.461C240.71 165.461 240.465 165.363 240.264 165.168C240.062 164.973 239.961 164.725 239.961 164.426C239.961 164.126 240.062 163.879 240.264 163.684C240.465 163.482 240.71 163.381 240.996 163.381C241.289 163.381 241.536 163.482 241.738 163.684C241.947 163.879 242.051 164.126 242.051 164.426C242.051 164.712 241.947 164.956 241.738 165.158C241.536 165.36 241.289 165.461 240.996 165.461ZM241.777 178H240.176V168H241.777V178ZM253.32 178H251.719V172.297C251.719 170.174 250.944 169.113 249.395 169.113C248.594 169.113 247.93 169.416 247.402 170.021C246.882 170.62 246.621 171.379 246.621 172.297V178H245.02V168H246.621V169.66H246.66C247.415 168.397 248.509 167.766 249.941 167.766C251.035 167.766 251.872 168.12 252.451 168.83C253.031 169.533 253.32 170.552 253.32 171.887V178ZM264.883 178H263.281V176.301H263.242C262.5 177.59 261.354 178.234 259.805 178.234C258.548 178.234 257.542 177.788 256.787 176.896C256.038 175.998 255.664 174.777 255.664 173.234C255.664 171.581 256.081 170.256 256.914 169.26C257.747 168.264 258.857 167.766 260.244 167.766C261.618 167.766 262.617 168.306 263.242 169.387H263.281V163.195H264.883V178ZM263.281 173.479V172.004C263.281 171.197 263.014 170.513 262.48 169.953C261.947 169.393 261.27 169.113 260.449 169.113C259.473 169.113 258.704 169.471 258.145 170.188C257.585 170.904 257.305 171.893 257.305 173.156C257.305 174.309 257.572 175.22 258.105 175.891C258.646 176.555 259.368 176.887 260.273 176.887C261.165 176.887 261.888 176.564 262.441 175.92C263.001 175.275 263.281 174.462 263.281 173.479ZM276.211 178H274.609V176.418H274.57C273.906 177.629 272.878 178.234 271.484 178.234C269.102 178.234 267.91 176.815 267.91 173.977V168H269.502V173.723C269.502 175.832 270.309 176.887 271.924 176.887C272.705 176.887 273.346 176.6 273.848 176.027C274.355 175.448 274.609 174.693 274.609 173.762V168H276.211V178ZM278.848 177.639V175.92C279.72 176.564 280.68 176.887 281.729 176.887C283.135 176.887 283.838 176.418 283.838 175.48C283.838 175.214 283.776 174.989 283.652 174.807C283.535 174.618 283.372 174.452 283.164 174.309C282.962 174.165 282.721 174.038 282.441 173.928C282.168 173.811 281.872 173.69 281.553 173.566C281.11 173.391 280.719 173.215 280.381 173.039C280.049 172.857 279.769 172.655 279.541 172.434C279.32 172.206 279.15 171.949 279.033 171.662C278.923 171.376 278.867 171.04 278.867 170.656C278.867 170.188 278.975 169.774 279.189 169.416C279.404 169.051 279.691 168.749 280.049 168.508C280.407 168.26 280.814 168.075 281.27 167.951C281.732 167.827 282.207 167.766 282.695 167.766C283.561 167.766 284.336 167.915 285.02 168.215V169.836C284.284 169.354 283.438 169.113 282.48 169.113C282.181 169.113 281.911 169.149 281.67 169.221C281.429 169.286 281.221 169.38 281.045 169.504C280.876 169.628 280.742 169.777 280.645 169.953C280.553 170.122 280.508 170.311 280.508 170.52C280.508 170.78 280.553 170.998 280.645 171.174C280.742 171.35 280.882 171.506 281.064 171.643C281.247 171.779 281.468 171.903 281.729 172.014C281.989 172.124 282.285 172.245 282.617 172.375C283.06 172.544 283.457 172.72 283.809 172.902C284.16 173.078 284.46 173.28 284.707 173.508C284.954 173.729 285.143 173.986 285.273 174.279C285.41 174.572 285.479 174.921 285.479 175.324C285.479 175.819 285.368 176.249 285.146 176.613C284.932 176.978 284.642 177.281 284.277 177.521C283.913 177.762 283.493 177.941 283.018 178.059C282.542 178.176 282.044 178.234 281.523 178.234C280.495 178.234 279.603 178.036 278.848 177.639ZM292.588 177.902C292.21 178.111 291.712 178.215 291.094 178.215C289.342 178.215 288.467 177.238 288.467 175.285V169.367H286.748V168H288.467V165.559L290.068 165.041V168H292.588V169.367H290.068V175.002C290.068 175.673 290.182 176.151 290.41 176.438C290.638 176.724 291.016 176.867 291.543 176.867C291.947 176.867 292.295 176.757 292.588 176.535V177.902ZM299.941 169.621C299.661 169.406 299.258 169.299 298.73 169.299C298.047 169.299 297.474 169.621 297.012 170.266C296.556 170.91 296.328 171.789 296.328 172.902V178H294.727V168H296.328V170.061H296.367C296.595 169.357 296.943 168.811 297.412 168.42C297.881 168.023 298.405 167.824 298.984 167.824C299.401 167.824 299.72 167.87 299.941 167.961V169.621ZM309.639 168L305.039 179.602C304.219 181.672 303.066 182.707 301.582 182.707C301.165 182.707 300.817 182.665 300.537 182.58V181.145C300.882 181.262 301.198 181.32 301.484 181.32C302.292 181.32 302.897 180.839 303.301 179.875L304.102 177.98L300.195 168H301.973L304.678 175.695C304.71 175.793 304.779 176.047 304.883 176.457H304.941C304.974 176.301 305.039 176.053 305.137 175.715L307.979 168H309.639Z" fill="#819297"/>
</g>
<g filter="url(#filter1_d_505_1329)">
<rect x="414" y="6" width="340" height="212" rx="16" fill="white"/>
<path d="M492.938 103.656V94.4375L514.812 87.1562V87.0312L492.938 79.7188V70.5L523.906 83.25V90.7188L492.938 103.656ZM580.781 105H566.703V71.2031H564.531L550.578 83.4375L543.094 74.0938L559.406 59.375H580.781V105ZM599.064 59.375V105.062H613.158V73C613.158 72.6146 613.09 72.125 612.955 71.5312C612.663 70.1667 612.518 69.4635 612.518 69.4219C612.518 69.1198 612.643 68.9688 612.893 68.9688C613.07 68.9688 613.262 69.1823 613.471 69.6094C613.689 70.0365 613.924 70.526 614.174 71.0781L631.705 105.062H643.236L659.486 71.2031C659.653 70.776 659.866 70.3073 660.127 69.7969C660.387 69.3281 660.601 69.0938 660.768 69.0938C661.028 69.0938 661.158 69.2656 661.158 69.6094C661.158 69.776 661.049 70.2656 660.83 71.0781C660.622 71.8906 660.518 72.5729 660.518 73.125V105.062H674.596V59.375H650.596L638.564 85.0312C638.304 86.6979 638.111 88.0208 637.986 89C637.809 90.0208 637.637 90.5312 637.471 90.5312C637.262 90.5312 637.07 89.6771 636.893 87.9688C636.684 86.3125 636.512 85.3333 636.377 85.0312L624.346 59.375H599.064Z" fill="#30CFD0"/>
<path d="M542.066 151.541C541.298 152.003 540.387 152.234 539.332 152.234C537.906 152.234 536.754 151.772 535.875 150.848C535.003 149.917 534.566 148.712 534.566 147.234C534.566 145.587 535.038 144.266 535.982 143.27C536.926 142.267 538.186 141.766 539.762 141.766C540.641 141.766 541.415 141.928 542.086 142.254V143.895C541.344 143.374 540.549 143.113 539.703 143.113C538.681 143.113 537.841 143.481 537.184 144.217C536.533 144.946 536.207 145.906 536.207 147.098C536.207 148.27 536.513 149.194 537.125 149.871C537.743 150.548 538.57 150.887 539.605 150.887C540.478 150.887 541.298 150.597 542.066 150.018V151.541ZM548.668 152.234C547.19 152.234 546.008 151.769 545.123 150.838C544.244 149.9 543.805 148.66 543.805 147.117C543.805 145.438 544.264 144.126 545.182 143.182C546.1 142.238 547.34 141.766 548.902 141.766C550.393 141.766 551.555 142.225 552.389 143.143C553.229 144.061 553.648 145.333 553.648 146.961C553.648 148.556 553.196 149.835 552.291 150.799C551.393 151.756 550.185 152.234 548.668 152.234ZM548.785 143.113C547.757 143.113 546.943 143.465 546.344 144.168C545.745 144.865 545.445 145.828 545.445 147.059C545.445 148.243 545.748 149.178 546.354 149.861C546.959 150.545 547.77 150.887 548.785 150.887C549.82 150.887 550.615 150.551 551.168 149.881C551.728 149.21 552.008 148.257 552.008 147.02C552.008 145.77 551.728 144.806 551.168 144.129C550.615 143.452 549.82 143.113 548.785 143.113ZM564.508 152H562.906V146.297C562.906 144.174 562.132 143.113 560.582 143.113C559.781 143.113 559.117 143.416 558.59 144.021C558.069 144.62 557.809 145.379 557.809 146.297V152H556.207V142H557.809V143.66H557.848C558.603 142.397 559.697 141.766 561.129 141.766C562.223 141.766 563.059 142.12 563.639 142.83C564.218 143.533 564.508 144.552 564.508 145.887V152ZM566.93 151.639V149.92C567.802 150.564 568.762 150.887 569.811 150.887C571.217 150.887 571.92 150.418 571.92 149.48C571.92 149.214 571.858 148.989 571.734 148.807C571.617 148.618 571.454 148.452 571.246 148.309C571.044 148.165 570.803 148.038 570.523 147.928C570.25 147.811 569.954 147.69 569.635 147.566C569.192 147.391 568.801 147.215 568.463 147.039C568.131 146.857 567.851 146.655 567.623 146.434C567.402 146.206 567.232 145.949 567.115 145.662C567.005 145.376 566.949 145.04 566.949 144.656C566.949 144.188 567.057 143.774 567.271 143.416C567.486 143.051 567.773 142.749 568.131 142.508C568.489 142.26 568.896 142.075 569.352 141.951C569.814 141.827 570.289 141.766 570.777 141.766C571.643 141.766 572.418 141.915 573.102 142.215V143.836C572.366 143.354 571.52 143.113 570.562 143.113C570.263 143.113 569.993 143.149 569.752 143.221C569.511 143.286 569.303 143.38 569.127 143.504C568.958 143.628 568.824 143.777 568.727 143.953C568.635 144.122 568.59 144.311 568.59 144.52C568.59 144.78 568.635 144.998 568.727 145.174C568.824 145.35 568.964 145.506 569.146 145.643C569.329 145.779 569.55 145.903 569.811 146.014C570.071 146.124 570.367 146.245 570.699 146.375C571.142 146.544 571.539 146.72 571.891 146.902C572.242 147.078 572.542 147.28 572.789 147.508C573.036 147.729 573.225 147.986 573.355 148.279C573.492 148.572 573.561 148.921 573.561 149.324C573.561 149.819 573.45 150.249 573.229 150.613C573.014 150.978 572.724 151.281 572.359 151.521C571.995 151.762 571.575 151.941 571.1 152.059C570.624 152.176 570.126 152.234 569.605 152.234C568.577 152.234 567.685 152.036 566.93 151.639ZM584.117 152H582.516V150.418H582.477C581.812 151.629 580.784 152.234 579.391 152.234C577.008 152.234 575.816 150.815 575.816 147.977V142H577.408V147.723C577.408 149.832 578.215 150.887 579.83 150.887C580.611 150.887 581.253 150.6 581.754 150.027C582.262 149.448 582.516 148.693 582.516 147.762V142H584.117V152ZM601.559 152H599.957V146.258C599.957 145.151 599.785 144.35 599.439 143.855C599.101 143.361 598.528 143.113 597.721 143.113C597.037 143.113 596.454 143.426 595.973 144.051C595.497 144.676 595.26 145.424 595.26 146.297V152H593.658V146.062C593.658 144.096 592.9 143.113 591.383 143.113C590.68 143.113 590.1 143.41 589.645 144.002C589.189 144.588 588.961 145.353 588.961 146.297V152H587.359V142H588.961V143.582H589C589.71 142.371 590.745 141.766 592.105 141.766C592.789 141.766 593.385 141.958 593.893 142.342C594.4 142.719 594.749 143.217 594.938 143.836C595.68 142.456 596.786 141.766 598.258 141.766C600.458 141.766 601.559 143.123 601.559 145.838V152ZM612.623 147.4H605.562C605.589 148.514 605.888 149.373 606.461 149.979C607.034 150.584 607.822 150.887 608.824 150.887C609.951 150.887 610.986 150.516 611.93 149.773V151.277C611.051 151.915 609.889 152.234 608.443 152.234C607.031 152.234 605.921 151.782 605.113 150.877C604.306 149.965 603.902 148.686 603.902 147.039C603.902 145.483 604.342 144.217 605.221 143.24C606.106 142.257 607.203 141.766 608.512 141.766C609.82 141.766 610.833 142.189 611.549 143.035C612.265 143.882 612.623 145.057 612.623 146.561V147.4ZM610.982 146.043C610.976 145.118 610.751 144.399 610.309 143.885C609.872 143.37 609.264 143.113 608.482 143.113C607.727 143.113 607.086 143.383 606.559 143.924C606.031 144.464 605.706 145.171 605.582 146.043H610.982ZM620.27 143.621C619.99 143.406 619.586 143.299 619.059 143.299C618.375 143.299 617.802 143.621 617.34 144.266C616.884 144.91 616.656 145.789 616.656 146.902V152H615.055V142H616.656V144.061H616.695C616.923 143.357 617.271 142.811 617.74 142.42C618.209 142.023 618.733 141.824 619.312 141.824C619.729 141.824 620.048 141.87 620.27 141.961V143.621ZM621.402 151.639V149.92C622.275 150.564 623.235 150.887 624.283 150.887C625.689 150.887 626.393 150.418 626.393 149.48C626.393 149.214 626.331 148.989 626.207 148.807C626.09 148.618 625.927 148.452 625.719 148.309C625.517 148.165 625.276 148.038 624.996 147.928C624.723 147.811 624.426 147.69 624.107 147.566C623.665 147.391 623.274 147.215 622.936 147.039C622.604 146.857 622.324 146.655 622.096 146.434C621.874 146.206 621.705 145.949 621.588 145.662C621.477 145.376 621.422 145.04 621.422 144.656C621.422 144.188 621.529 143.774 621.744 143.416C621.959 143.051 622.245 142.749 622.604 142.508C622.962 142.26 623.368 142.075 623.824 141.951C624.286 141.827 624.762 141.766 625.25 141.766C626.116 141.766 626.891 141.915 627.574 142.215V143.836C626.839 143.354 625.992 143.113 625.035 143.113C624.736 143.113 624.465 143.149 624.225 143.221C623.984 143.286 623.775 143.38 623.6 143.504C623.43 143.628 623.297 143.777 623.199 143.953C623.108 144.122 623.062 144.311 623.062 144.52C623.062 144.78 623.108 144.998 623.199 145.174C623.297 145.35 623.437 145.506 623.619 145.643C623.801 145.779 624.023 145.903 624.283 146.014C624.544 146.124 624.84 146.245 625.172 146.375C625.615 146.544 626.012 146.72 626.363 146.902C626.715 147.078 627.014 147.28 627.262 147.508C627.509 147.729 627.698 147.986 627.828 148.279C627.965 148.572 628.033 148.921 628.033 149.324C628.033 149.819 627.923 150.249 627.701 150.613C627.486 150.978 627.197 151.281 626.832 151.521C626.467 151.762 626.048 151.941 625.572 152.059C625.097 152.176 624.599 152.234 624.078 152.234C623.049 152.234 622.158 152.036 621.402 151.639ZM511.09 165.461C510.803 165.461 510.559 165.363 510.357 165.168C510.156 164.973 510.055 164.725 510.055 164.426C510.055 164.126 510.156 163.879 510.357 163.684C510.559 163.482 510.803 163.381 511.09 163.381C511.383 163.381 511.63 163.482 511.832 163.684C512.04 163.879 512.145 164.126 512.145 164.426C512.145 164.712 512.04 164.956 511.832 165.158C511.63 165.36 511.383 165.461 511.09 165.461ZM511.871 178H510.27V168H511.871V178ZM523.414 178H521.812V172.297C521.812 170.174 521.038 169.113 519.488 169.113C518.688 169.113 518.023 169.416 517.496 170.021C516.975 170.62 516.715 171.379 516.715 172.297V178H515.113V168H516.715V169.66H516.754C517.509 168.397 518.603 167.766 520.035 167.766C521.129 167.766 521.965 168.12 522.545 168.83C523.124 169.533 523.414 170.552 523.414 171.887V178ZM543.434 178H541.422L534.215 166.838C534.033 166.558 533.883 166.265 533.766 165.959H533.707C533.759 166.258 533.785 166.9 533.785 167.883V178H532.145V163.996H534.273L541.285 174.982C541.578 175.438 541.767 175.751 541.852 175.92H541.891C541.826 175.516 541.793 174.829 541.793 173.859V163.996H543.434V178ZM551.07 178.234C549.592 178.234 548.411 177.769 547.525 176.838C546.646 175.9 546.207 174.66 546.207 173.117C546.207 171.438 546.666 170.126 547.584 169.182C548.502 168.238 549.742 167.766 551.305 167.766C552.796 167.766 553.958 168.225 554.791 169.143C555.631 170.061 556.051 171.333 556.051 172.961C556.051 174.556 555.598 175.835 554.693 176.799C553.795 177.756 552.587 178.234 551.07 178.234ZM551.188 169.113C550.159 169.113 549.345 169.465 548.746 170.168C548.147 170.865 547.848 171.828 547.848 173.059C547.848 174.243 548.15 175.178 548.756 175.861C549.361 176.545 550.172 176.887 551.188 176.887C552.223 176.887 553.017 176.551 553.57 175.881C554.13 175.21 554.41 174.257 554.41 173.02C554.41 171.77 554.13 170.806 553.57 170.129C553.017 169.452 552.223 169.113 551.188 169.113ZM563.824 169.621C563.544 169.406 563.141 169.299 562.613 169.299C561.93 169.299 561.357 169.621 560.895 170.266C560.439 170.91 560.211 171.789 560.211 172.902V178H558.609V168H560.211V170.061H560.25C560.478 169.357 560.826 168.811 561.295 168.42C561.764 168.023 562.288 167.824 562.867 167.824C563.284 167.824 563.603 167.87 563.824 167.961V169.621ZM570.201 177.902C569.824 178.111 569.326 178.215 568.707 178.215C566.956 178.215 566.08 177.238 566.08 175.285V169.367H564.361V168H566.08V165.559L567.682 165.041V168H570.201V169.367H567.682V175.002C567.682 175.673 567.796 176.151 568.023 176.438C568.251 176.724 568.629 176.867 569.156 176.867C569.56 176.867 569.908 176.757 570.201 176.535V177.902ZM580.641 178H579.039V172.238C579.039 170.155 578.264 169.113 576.715 169.113C575.934 169.113 575.276 169.416 574.742 170.021C574.208 170.62 573.941 171.392 573.941 172.336V178H572.34V163.195H573.941V169.66H573.98C574.749 168.397 575.842 167.766 577.262 167.766C579.514 167.766 580.641 169.123 580.641 171.838V178ZM600.211 178H598.395L596.91 174.074H590.973L589.576 178H587.75L593.121 163.996H594.82L600.211 178ZM596.373 172.6L594.176 166.633C594.104 166.438 594.033 166.125 593.961 165.695H593.922C593.857 166.092 593.782 166.405 593.697 166.633L591.52 172.6H596.373ZM616.266 178H614.664V172.258C614.664 171.151 614.492 170.35 614.146 169.855C613.808 169.361 613.235 169.113 612.428 169.113C611.744 169.113 611.161 169.426 610.68 170.051C610.204 170.676 609.967 171.424 609.967 172.297V178H608.365V172.062C608.365 170.096 607.607 169.113 606.09 169.113C605.387 169.113 604.807 169.41 604.352 170.002C603.896 170.588 603.668 171.353 603.668 172.297V178H602.066V168H603.668V169.582H603.707C604.417 168.371 605.452 167.766 606.812 167.766C607.496 167.766 608.092 167.958 608.6 168.342C609.107 168.719 609.456 169.217 609.645 169.836C610.387 168.456 611.493 167.766 612.965 167.766C615.165 167.766 616.266 169.123 616.266 171.838V178ZM627.33 173.4H620.27C620.296 174.514 620.595 175.373 621.168 175.979C621.741 176.584 622.529 176.887 623.531 176.887C624.658 176.887 625.693 176.516 626.637 175.773V177.277C625.758 177.915 624.596 178.234 623.15 178.234C621.738 178.234 620.628 177.782 619.82 176.877C619.013 175.965 618.609 174.686 618.609 173.039C618.609 171.483 619.049 170.217 619.928 169.24C620.813 168.257 621.91 167.766 623.219 167.766C624.527 167.766 625.54 168.189 626.256 169.035C626.972 169.882 627.33 171.057 627.33 172.561V173.4ZM625.689 172.043C625.683 171.118 625.458 170.399 625.016 169.885C624.579 169.37 623.971 169.113 623.189 169.113C622.434 169.113 621.793 169.383 621.266 169.924C620.738 170.464 620.413 171.171 620.289 172.043H625.689ZM634.977 169.621C634.697 169.406 634.293 169.299 633.766 169.299C633.082 169.299 632.509 169.621 632.047 170.266C631.591 170.91 631.363 171.789 631.363 172.902V178H629.762V168H631.363V170.061H631.402C631.63 169.357 631.979 168.811 632.447 168.42C632.916 168.023 633.44 167.824 634.02 167.824C634.436 167.824 634.755 167.87 634.977 167.961V169.621ZM637.535 165.461C637.249 165.461 637.005 165.363 636.803 165.168C636.601 164.973 636.5 164.725 636.5 164.426C636.5 164.126 636.601 163.879 636.803 163.684C637.005 163.482 637.249 163.381 637.535 163.381C637.828 163.381 638.076 163.482 638.277 163.684C638.486 163.879 638.59 164.126 638.59 164.426C638.59 164.712 638.486 164.956 638.277 165.158C638.076 165.36 637.828 165.461 637.535 165.461ZM638.316 178H636.715V168H638.316V178ZM648.375 177.541C647.607 178.003 646.695 178.234 645.641 178.234C644.215 178.234 643.062 177.772 642.184 176.848C641.311 175.917 640.875 174.712 640.875 173.234C640.875 171.587 641.347 170.266 642.291 169.27C643.235 168.267 644.495 167.766 646.07 167.766C646.949 167.766 647.724 167.928 648.395 168.254V169.895C647.652 169.374 646.858 169.113 646.012 169.113C644.99 169.113 644.15 169.481 643.492 170.217C642.841 170.946 642.516 171.906 642.516 173.098C642.516 174.27 642.822 175.194 643.434 175.871C644.052 176.548 644.879 176.887 645.914 176.887C646.786 176.887 647.607 176.597 648.375 176.018V177.541ZM657.955 178H656.354V176.438H656.314C655.618 177.635 654.592 178.234 653.238 178.234C652.242 178.234 651.461 177.971 650.895 177.443C650.335 176.916 650.055 176.216 650.055 175.344C650.055 173.475 651.155 172.388 653.355 172.082L656.354 171.662C656.354 169.963 655.667 169.113 654.293 169.113C653.089 169.113 652.001 169.523 651.031 170.344V168.703C652.014 168.078 653.147 167.766 654.43 167.766C656.78 167.766 657.955 169.009 657.955 171.496V178ZM656.354 172.941L653.941 173.273C653.199 173.378 652.639 173.563 652.262 173.83C651.884 174.09 651.695 174.556 651.695 175.227C651.695 175.715 651.868 176.115 652.213 176.428C652.564 176.734 653.03 176.887 653.609 176.887C654.404 176.887 655.058 176.61 655.572 176.057C656.093 175.497 656.354 174.79 656.354 173.938V172.941Z" fill="#819297"/>
</g>
<g filter="url(#filter2_d_505_1329)">
<rect x="818" y="6" width="340" height="212" rx="16" fill="white"/>
<path d="M894.266 70.7969C899.818 70.7969 903.339 70.5833 904.828 70.1562C906.276 69.7292 907 68.75 907 67.2188C907 65.3438 906.49 64.2552 905.469 63.9531C904.406 63.651 900.651 63.5 894.203 63.5C887.589 63.5 883.75 63.7135 882.688 64.1406C881.615 64.6094 881.078 66.1875 881.078 68.875H867.641C867.641 60.4688 868.964 55.4583 871.609 53.8438C874.005 52.3854 881.536 51.6562 894.203 51.6562C905.641 51.6562 912.828 52.4479 915.766 54.0312C918.672 55.6562 920.125 59.5156 920.125 65.6094C920.125 72.8698 918.161 77.5208 914.234 79.5625C911.203 81.1458 904.526 81.9375 894.203 81.9375C888.443 81.9375 884.729 82.2552 883.062 82.8906C881.74 83.401 881.078 84.4896 881.078 86.1562H919.484V98H867V83.9219C867 79.1406 869.219 75.75 873.656 73.75C878.052 71.7812 884.922 70.7969 894.266 70.7969ZM983.658 75.2188C983.658 85.7083 982.361 92.1719 979.768 94.6094C976.778 97.3802 968.903 98.7656 956.143 98.7656C943.382 98.7656 935.533 97.401 932.596 94.6719C929.95 92.2448 928.627 85.7604 928.627 75.2188C928.627 64.7604 929.929 58.3177 932.533 55.8906C935.512 53.1198 943.382 51.7344 956.143 51.7344C968.903 51.7344 976.778 53.1198 979.768 55.8906C982.361 58.276 983.658 64.7188 983.658 75.2188ZM969.58 75.2188C969.58 70.1354 968.919 66.9792 967.596 65.75C966.064 64.2917 962.247 63.5625 956.143 63.5625C949.997 63.5625 946.179 64.2708 944.689 65.6875C943.366 66.9167 942.705 70.0938 942.705 75.2188C942.705 80.2917 943.366 83.4688 944.689 84.75C946.221 86.1979 950.038 86.9219 956.143 86.9219C962.288 86.9219 966.064 86.2396 967.471 84.875C968.877 83.5521 969.58 80.3333 969.58 75.2188ZM1046.43 75.2188C1046.43 85.7083 1045.13 92.1719 1042.54 94.6094C1039.55 97.3802 1031.67 98.7656 1018.91 98.7656C1006.15 98.7656 998.301 97.401 995.363 94.6719C992.717 92.2448 991.394 85.7604 991.394 75.2188C991.394 64.7604 992.696 58.3177 995.301 55.8906C998.28 53.1198 1006.15 51.7344 1018.91 51.7344C1031.67 51.7344 1039.55 53.1198 1042.54 55.8906C1045.13 58.276 1046.43 64.7188 1046.43 75.2188ZM1032.35 75.2188C1032.35 70.1354 1031.69 66.9792 1030.36 65.75C1028.83 64.2917 1025.01 63.5625 1018.91 63.5625C1012.76 63.5625 1008.95 64.2708 1007.46 65.6875C1006.13 66.9167 1005.47 70.0938 1005.47 75.2188C1005.47 80.2917 1006.13 83.4688 1007.46 84.75C1008.99 86.1979 1012.81 86.9219 1018.91 86.9219C1025.06 86.9219 1028.83 86.2396 1030.24 84.875C1031.64 83.5521 1032.35 80.3333 1032.35 75.2188ZM1055.88 64.2031V52.375H1106.32V63.5625L1106.01 63.8906L1080.4 98.0625H1062.99L1088.58 64.2031H1055.88Z" fill="#30CFD0"/>
<path d="M955.842 151.902C955.464 152.111 954.966 152.215 954.348 152.215C952.596 152.215 951.721 151.238 951.721 149.285V143.367H950.002V142H951.721V139.559L953.322 139.041V142H955.842V143.367H953.322V149.002C953.322 149.673 953.436 150.151 953.664 150.438C953.892 150.724 954.27 150.867 954.797 150.867C955.201 150.867 955.549 150.757 955.842 150.535V151.902ZM966.281 152H964.68V146.238C964.68 144.155 963.905 143.113 962.355 143.113C961.574 143.113 960.917 143.416 960.383 144.021C959.849 144.62 959.582 145.392 959.582 146.336V152H957.98V137.195H959.582V143.66H959.621C960.389 142.397 961.483 141.766 962.902 141.766C965.155 141.766 966.281 143.123 966.281 145.838V152ZM977.346 147.4H970.285C970.311 148.514 970.611 149.373 971.184 149.979C971.757 150.584 972.544 150.887 973.547 150.887C974.673 150.887 975.708 150.516 976.652 149.773V151.277C975.773 151.915 974.611 152.234 973.166 152.234C971.753 152.234 970.643 151.782 969.836 150.877C969.029 149.965 968.625 148.686 968.625 147.039C968.625 145.483 969.064 144.217 969.943 143.24C970.829 142.257 971.926 141.766 973.234 141.766C974.543 141.766 975.555 142.189 976.271 143.035C976.988 143.882 977.346 145.057 977.346 146.561V147.4ZM975.705 146.043C975.699 145.118 975.474 144.399 975.031 143.885C974.595 143.37 973.986 143.113 973.205 143.113C972.45 143.113 971.809 143.383 971.281 143.924C970.754 144.464 970.428 145.171 970.305 146.043H975.705ZM993.225 142L988.625 153.602C987.805 155.672 986.652 156.707 985.168 156.707C984.751 156.707 984.403 156.665 984.123 156.58V155.145C984.468 155.262 984.784 155.32 985.07 155.32C985.878 155.32 986.483 154.839 986.887 153.875L987.688 151.98L983.781 142H985.559L988.264 149.695C988.296 149.793 988.365 150.047 988.469 150.457H988.527C988.56 150.301 988.625 150.053 988.723 149.715L991.564 142H993.225ZM1002.99 147.4H995.93C995.956 148.514 996.255 149.373 996.828 149.979C997.401 150.584 998.189 150.887 999.191 150.887C1000.32 150.887 1001.35 150.516 1002.3 149.773V151.277C1001.42 151.915 1000.26 152.234 998.811 152.234C997.398 152.234 996.288 151.782 995.48 150.877C994.673 149.965 994.27 148.686 994.27 147.039C994.27 145.483 994.709 144.217 995.588 143.24C996.473 142.257 997.57 141.766 998.879 141.766C1000.19 141.766 1001.2 142.189 1001.92 143.035C1002.63 143.882 1002.99 145.057 1002.99 146.561V147.4ZM1001.35 146.043C1001.34 145.118 1001.12 144.399 1000.68 143.885C1000.24 143.37 999.631 143.113 998.85 143.113C998.094 143.113 997.453 143.383 996.926 143.924C996.398 144.464 996.073 145.171 995.949 146.043H1001.35ZM1012.58 152H1010.98V150.438H1010.94C1010.24 151.635 1009.22 152.234 1007.86 152.234C1006.87 152.234 1006.09 151.971 1005.52 151.443C1004.96 150.916 1004.68 150.216 1004.68 149.344C1004.68 147.475 1005.78 146.388 1007.98 146.082L1010.98 145.662C1010.98 143.963 1010.29 143.113 1008.92 143.113C1007.71 143.113 1006.63 143.523 1005.66 144.344V142.703C1006.64 142.078 1007.77 141.766 1009.05 141.766C1011.4 141.766 1012.58 143.009 1012.58 145.496V152ZM1010.98 146.941L1008.57 147.273C1007.82 147.378 1007.26 147.563 1006.89 147.83C1006.51 148.09 1006.32 148.556 1006.32 149.227C1006.32 149.715 1006.49 150.115 1006.84 150.428C1007.19 150.734 1007.65 150.887 1008.23 150.887C1009.03 150.887 1009.68 150.61 1010.2 150.057C1010.72 149.497 1010.98 148.79 1010.98 147.938V146.941ZM1020.81 143.621C1020.53 143.406 1020.13 143.299 1019.6 143.299C1018.92 143.299 1018.35 143.621 1017.88 144.266C1017.43 144.91 1017.2 145.789 1017.2 146.902V152H1015.6V142H1017.2V144.061H1017.24C1017.47 143.357 1017.81 142.811 1018.28 142.42C1018.75 142.023 1019.28 141.824 1019.86 141.824C1020.27 141.824 1020.59 141.87 1020.81 141.961V143.621ZM874.533 177.902C874.156 178.111 873.658 178.215 873.039 178.215C871.288 178.215 870.412 177.238 870.412 175.285V169.367H868.693V168H870.412V165.559L872.014 165.041V168H874.533V169.367H872.014V175.002C872.014 175.673 872.128 176.151 872.355 176.438C872.583 176.724 872.961 176.867 873.488 176.867C873.892 176.867 874.24 176.757 874.533 176.535V177.902ZM884.973 178H883.371V172.238C883.371 170.155 882.596 169.113 881.047 169.113C880.266 169.113 879.608 169.416 879.074 170.021C878.54 170.62 878.273 171.392 878.273 172.336V178H876.672V163.195H878.273V169.66H878.312C879.081 168.397 880.174 167.766 881.594 167.766C883.846 167.766 884.973 169.123 884.973 171.838V178ZM896.037 173.4H888.977C889.003 174.514 889.302 175.373 889.875 175.979C890.448 176.584 891.236 176.887 892.238 176.887C893.365 176.887 894.4 176.516 895.344 175.773V177.277C894.465 177.915 893.303 178.234 891.857 178.234C890.445 178.234 889.335 177.782 888.527 176.877C887.72 175.965 887.316 174.686 887.316 173.039C887.316 171.483 887.756 170.217 888.635 169.24C889.52 168.257 890.617 167.766 891.926 167.766C893.234 167.766 894.247 168.189 894.963 169.035C895.679 169.882 896.037 171.057 896.037 172.561V173.4ZM894.396 172.043C894.39 171.118 894.165 170.399 893.723 169.885C893.286 169.37 892.678 169.113 891.896 169.113C891.141 169.113 890.5 169.383 889.973 169.924C889.445 170.464 889.12 171.171 888.996 172.043H894.396ZM910.773 177.541C910.005 178.003 909.094 178.234 908.039 178.234C906.613 178.234 905.461 177.772 904.582 176.848C903.71 175.917 903.273 174.712 903.273 173.234C903.273 171.587 903.745 170.266 904.689 169.27C905.633 168.267 906.893 167.766 908.469 167.766C909.348 167.766 910.122 167.928 910.793 168.254V169.895C910.051 169.374 909.257 169.113 908.41 169.113C907.388 169.113 906.548 169.481 905.891 170.217C905.24 170.946 904.914 171.906 904.914 173.098C904.914 174.27 905.22 175.194 905.832 175.871C906.451 176.548 907.277 176.887 908.312 176.887C909.185 176.887 910.005 176.597 910.773 176.018V177.541ZM917.375 178.234C915.897 178.234 914.715 177.769 913.83 176.838C912.951 175.9 912.512 174.66 912.512 173.117C912.512 171.438 912.971 170.126 913.889 169.182C914.807 168.238 916.047 167.766 917.609 167.766C919.1 167.766 920.262 168.225 921.096 169.143C921.936 170.061 922.355 171.333 922.355 172.961C922.355 174.556 921.903 175.835 920.998 176.799C920.1 177.756 918.892 178.234 917.375 178.234ZM917.492 169.113C916.464 169.113 915.65 169.465 915.051 170.168C914.452 170.865 914.152 171.828 914.152 173.059C914.152 174.243 914.455 175.178 915.061 175.861C915.666 176.545 916.477 176.887 917.492 176.887C918.527 176.887 919.322 176.551 919.875 175.881C920.435 175.21 920.715 174.257 920.715 173.02C920.715 171.77 920.435 170.806 919.875 170.129C919.322 169.452 918.527 169.113 917.492 169.113ZM939.113 178H937.512V172.258C937.512 171.151 937.339 170.35 936.994 169.855C936.656 169.361 936.083 169.113 935.275 169.113C934.592 169.113 934.009 169.426 933.527 170.051C933.052 170.676 932.814 171.424 932.814 172.297V178H931.213V172.062C931.213 170.096 930.454 169.113 928.938 169.113C928.234 169.113 927.655 169.41 927.199 170.002C926.743 170.588 926.516 171.353 926.516 172.297V178H924.914V168H926.516V169.582H926.555C927.264 168.371 928.299 167.766 929.66 167.766C930.344 167.766 930.939 167.958 931.447 168.342C931.955 168.719 932.303 169.217 932.492 169.836C933.234 168.456 934.341 167.766 935.812 167.766C938.013 167.766 939.113 169.123 939.113 171.838V178ZM943.781 176.555H943.742V182.6H942.141V168H943.742V169.758H943.781C944.569 168.43 945.721 167.766 947.238 167.766C948.527 167.766 949.533 168.215 950.256 169.113C950.979 170.005 951.34 171.203 951.34 172.707C951.34 174.38 950.933 175.721 950.119 176.73C949.305 177.733 948.192 178.234 946.779 178.234C945.484 178.234 944.484 177.674 943.781 176.555ZM943.742 172.521V173.918C943.742 174.745 944.009 175.448 944.543 176.027C945.083 176.6 945.767 176.887 946.594 176.887C947.564 176.887 948.322 176.516 948.869 175.773C949.423 175.031 949.699 173.999 949.699 172.678C949.699 171.564 949.442 170.692 948.928 170.061C948.413 169.429 947.717 169.113 946.838 169.113C945.907 169.113 945.158 169.439 944.592 170.09C944.025 170.734 943.742 171.545 943.742 172.521ZM961.057 178H959.455V176.438H959.416C958.719 177.635 957.694 178.234 956.34 178.234C955.344 178.234 954.562 177.971 953.996 177.443C953.436 176.916 953.156 176.216 953.156 175.344C953.156 173.475 954.257 172.388 956.457 172.082L959.455 171.662C959.455 169.963 958.768 169.113 957.395 169.113C956.19 169.113 955.103 169.523 954.133 170.344V168.703C955.116 168.078 956.249 167.766 957.531 167.766C959.882 167.766 961.057 169.009 961.057 171.496V178ZM959.455 172.941L957.043 173.273C956.301 173.378 955.741 173.563 955.363 173.83C954.986 174.09 954.797 174.556 954.797 175.227C954.797 175.715 954.969 176.115 955.314 176.428C955.666 176.734 956.132 176.887 956.711 176.887C957.505 176.887 958.16 176.61 958.674 176.057C959.195 175.497 959.455 174.79 959.455 173.938V172.941ZM972.375 178H970.773V172.297C970.773 170.174 969.999 169.113 968.449 169.113C967.648 169.113 966.984 169.416 966.457 170.021C965.936 170.62 965.676 171.379 965.676 172.297V178H964.074V168H965.676V169.66H965.715C966.47 168.397 967.564 167.766 968.996 167.766C970.09 167.766 970.926 168.12 971.506 168.83C972.085 169.533 972.375 170.552 972.375 171.887V178ZM983.361 168L978.762 179.602C977.941 181.672 976.789 182.707 975.305 182.707C974.888 182.707 974.54 182.665 974.26 182.58V181.145C974.605 181.262 974.921 181.32 975.207 181.32C976.014 181.32 976.62 180.839 977.023 179.875L977.824 177.98L973.918 168H975.695L978.4 175.695C978.433 175.793 978.501 176.047 978.605 176.457H978.664C978.697 176.301 978.762 176.053 978.859 175.715L981.701 168H983.361ZM1008.66 168L1005.67 178H1004.01L1001.95 170.842C1001.87 170.568 1001.82 170.259 1001.79 169.914H1001.75C1001.73 170.148 1001.66 170.451 1001.54 170.822L999.309 178H997.707L994.68 168H996.359L998.43 175.52C998.495 175.747 998.54 176.047 998.566 176.418H998.645C998.664 176.132 998.723 175.826 998.82 175.5L1001.12 168H1002.59L1004.66 175.539C1004.73 175.78 1004.77 176.079 1004.81 176.438H1004.88C1004.9 176.184 1004.95 175.884 1005.05 175.539L1007.08 168H1008.66ZM1017.68 178H1016.08V176.438H1016.04C1015.34 177.635 1014.32 178.234 1012.96 178.234C1011.96 178.234 1011.18 177.971 1010.62 177.443C1010.06 176.916 1009.78 176.216 1009.78 175.344C1009.78 173.475 1010.88 172.388 1013.08 172.082L1016.08 171.662C1016.08 169.963 1015.39 169.113 1014.02 169.113C1012.81 169.113 1011.72 169.523 1010.75 170.344V168.703C1011.74 168.078 1012.87 167.766 1014.15 167.766C1016.5 167.766 1017.68 169.009 1017.68 171.496V178ZM1016.08 172.941L1013.66 173.273C1012.92 173.378 1012.36 173.563 1011.98 173.83C1011.61 174.09 1011.42 174.556 1011.42 175.227C1011.42 175.715 1011.59 176.115 1011.94 176.428C1012.29 176.734 1012.75 176.887 1013.33 176.887C1014.13 176.887 1014.78 176.61 1015.29 176.057C1015.82 175.497 1016.08 174.79 1016.08 173.938V172.941ZM1020.09 177.639V175.92C1020.96 176.564 1021.92 176.887 1022.97 176.887C1024.38 176.887 1025.08 176.418 1025.08 175.48C1025.08 175.214 1025.02 174.989 1024.89 174.807C1024.78 174.618 1024.61 174.452 1024.41 174.309C1024.2 174.165 1023.96 174.038 1023.68 173.928C1023.41 173.811 1023.11 173.69 1022.79 173.566C1022.35 173.391 1021.96 173.215 1021.62 173.039C1021.29 172.857 1021.01 172.655 1020.78 172.434C1020.56 172.206 1020.39 171.949 1020.28 171.662C1020.16 171.376 1020.11 171.04 1020.11 170.656C1020.11 170.188 1020.22 169.774 1020.43 169.416C1020.65 169.051 1020.93 168.749 1021.29 168.508C1021.65 168.26 1022.06 168.075 1022.51 167.951C1022.97 167.827 1023.45 167.766 1023.94 167.766C1024.8 167.766 1025.58 167.915 1026.26 168.215V169.836C1025.53 169.354 1024.68 169.113 1023.72 169.113C1023.42 169.113 1023.15 169.149 1022.91 169.221C1022.67 169.286 1022.46 169.38 1022.29 169.504C1022.12 169.628 1021.98 169.777 1021.89 169.953C1021.8 170.122 1021.75 170.311 1021.75 170.52C1021.75 170.78 1021.8 170.998 1021.89 171.174C1021.98 171.35 1022.12 171.506 1022.31 171.643C1022.49 171.779 1022.71 171.903 1022.97 172.014C1023.23 172.124 1023.53 172.245 1023.86 172.375C1024.3 172.544 1024.7 172.72 1025.05 172.902C1025.4 173.078 1025.7 173.28 1025.95 173.508C1026.2 173.729 1026.39 173.986 1026.52 174.279C1026.65 174.572 1026.72 174.921 1026.72 175.324C1026.72 175.819 1026.61 176.249 1026.39 176.613C1026.17 176.978 1025.88 177.281 1025.52 177.521C1025.15 177.762 1024.74 177.941 1024.26 178.059C1023.78 178.176 1023.29 178.234 1022.77 178.234C1021.74 178.234 1020.85 178.036 1020.09 177.639ZM1039.62 164.602C1039.31 164.426 1038.95 164.338 1038.56 164.338C1037.44 164.338 1036.88 165.044 1036.88 166.457V168H1039.22V169.367H1036.88V178H1035.29V169.367H1033.58V168H1035.29V166.379C1035.29 165.331 1035.59 164.504 1036.19 163.898C1036.8 163.286 1037.55 162.98 1038.46 162.98C1038.95 162.98 1039.33 163.039 1039.62 163.156V164.602ZM1045.13 178.234C1043.65 178.234 1042.47 177.769 1041.58 176.838C1040.71 175.9 1040.27 174.66 1040.27 173.117C1040.27 171.438 1040.72 170.126 1041.64 169.182C1042.56 168.238 1043.8 167.766 1045.36 167.766C1046.85 167.766 1048.02 168.225 1048.85 169.143C1049.69 170.061 1050.11 171.333 1050.11 172.961C1050.11 174.556 1049.66 175.835 1048.75 176.799C1047.85 177.756 1046.65 178.234 1045.13 178.234ZM1045.25 169.113C1044.22 169.113 1043.4 169.465 1042.8 170.168C1042.21 170.865 1041.91 171.828 1041.91 173.059C1041.91 174.243 1042.21 175.178 1042.81 175.861C1043.42 176.545 1044.23 176.887 1045.25 176.887C1046.28 176.887 1047.08 176.551 1047.63 175.881C1048.19 175.21 1048.47 174.257 1048.47 173.02C1048.47 171.77 1048.19 170.806 1047.63 170.129C1047.08 169.452 1046.28 169.113 1045.25 169.113ZM1060.75 178H1059.15V176.418H1059.11C1058.45 177.629 1057.42 178.234 1056.03 178.234C1053.64 178.234 1052.45 176.815 1052.45 173.977V168H1054.04V173.723C1054.04 175.832 1054.85 176.887 1056.47 176.887C1057.25 176.887 1057.89 176.6 1058.39 176.027C1058.9 175.448 1059.15 174.693 1059.15 173.762V168H1060.75V178ZM1072.3 178H1070.7V172.297C1070.7 170.174 1069.92 169.113 1068.37 169.113C1067.57 169.113 1066.91 169.416 1066.38 170.021C1065.86 170.62 1065.6 171.379 1065.6 172.297V178H1064V168H1065.6V169.66H1065.64C1066.39 168.397 1067.49 167.766 1068.92 167.766C1070.01 167.766 1070.85 168.12 1071.43 168.83C1072.01 169.533 1072.3 170.552 1072.3 171.887V178ZM1083.86 178H1082.26V176.301H1082.22C1081.48 177.59 1080.33 178.234 1078.78 178.234C1077.52 178.234 1076.52 177.788 1075.76 176.896C1075.01 175.998 1074.64 174.777 1074.64 173.234C1074.64 171.581 1075.06 170.256 1075.89 169.26C1076.72 168.264 1077.83 167.766 1079.22 167.766C1080.59 167.766 1081.59 168.306 1082.22 169.387H1082.26V163.195H1083.86V178ZM1082.26 173.479V172.004C1082.26 171.197 1081.99 170.513 1081.46 169.953C1080.92 169.393 1080.25 169.113 1079.43 169.113C1078.45 169.113 1077.68 169.471 1077.12 170.188C1076.56 170.904 1076.28 171.893 1076.28 173.156C1076.28 174.309 1076.55 175.22 1077.08 175.891C1077.62 176.555 1078.35 176.887 1079.25 176.887C1080.14 176.887 1080.86 176.564 1081.42 175.92C1081.98 175.275 1082.26 174.462 1082.26 173.479ZM1095.14 173.4H1088.08C1088.1 174.514 1088.4 175.373 1088.98 175.979C1089.55 176.584 1090.34 176.887 1091.34 176.887C1092.47 176.887 1093.5 176.516 1094.45 175.773V177.277C1093.57 177.915 1092.4 178.234 1090.96 178.234C1089.55 178.234 1088.44 177.782 1087.63 176.877C1086.82 175.965 1086.42 174.686 1086.42 173.039C1086.42 171.483 1086.86 170.217 1087.74 169.24C1088.62 168.257 1089.72 167.766 1091.03 167.766C1092.34 167.766 1093.35 168.189 1094.06 169.035C1094.78 169.882 1095.14 171.057 1095.14 172.561V173.4ZM1093.5 172.043C1093.49 171.118 1093.27 170.399 1092.82 169.885C1092.39 169.37 1091.78 169.113 1091 169.113C1090.24 169.113 1089.6 169.383 1089.07 169.924C1088.55 170.464 1088.22 171.171 1088.1 172.043H1093.5ZM1106.11 178H1104.5V176.301H1104.46C1103.72 177.59 1102.58 178.234 1101.03 178.234C1099.77 178.234 1098.76 177.788 1098.01 176.896C1097.26 175.998 1096.89 174.777 1096.89 173.234C1096.89 171.581 1097.3 170.256 1098.14 169.26C1098.97 168.264 1100.08 167.766 1101.47 167.766C1102.84 167.766 1103.84 168.306 1104.46 169.387H1104.5V163.195H1106.11V178ZM1104.5 173.479V172.004C1104.5 171.197 1104.24 170.513 1103.7 169.953C1103.17 169.393 1102.49 169.113 1101.67 169.113C1100.7 169.113 1099.93 169.471 1099.37 170.188C1098.81 170.904 1098.53 171.893 1098.53 173.156C1098.53 174.309 1098.79 175.22 1099.33 175.891C1099.87 176.555 1100.59 176.887 1101.5 176.887C1102.39 176.887 1103.11 176.564 1103.66 175.92C1104.22 175.275 1104.5 174.462 1104.5 173.479Z" fill="#819297"/>
</g>
<defs>
<filter id="filter0_d_505_1329" x="0" y="0" width="360" height="232" filterUnits="userSpaceOnUse" color-interpolation-filters="sRGB">
<feFlood flood-opacity="0" result="BackgroundImageFix"/>
<feColorMatrix in="SourceAlpha" type="matrix" values="0 0 0 0 0 0 0 0 0 0 0 0 0 0 0 0 0 0 127 0" result="hardAlpha"/>
<feMorphology radius="6" operator="erode" in="SourceAlpha" result="effect1_dropShadow_505_1329"/>
<feOffset dy="4"/>
<feGaussianBlur stdDeviation="8"/>
<feComposite in2="hardAlpha" operator="out"/>
<feColorMatrix type="matrix" values="0 0 0 0 0 0 0 0 0 0 0 0 0 0 0 0 0 0 0.1 0"/>
<feBlend mode="normal" in2="BackgroundImageFix" result="effect1_dropShadow_505_1329"/>
<feBlend mode="normal" in="SourceGraphic" in2="effect1_dropShadow_505_1329" result="shape"/>
</filter>
<filter id="filter1_d_505_1329" x="404" y="0" width="360" height="232" filterUnits="userSpaceOnUse" color-interpolation-filters="sRGB">
<feFlood flood-opacity="0" result="BackgroundImageFix"/>
<feColorMatrix in="SourceAlpha" type="matrix" values="0 0 0 0 0 0 0 0 0 0 0 0 0 0 0 0 0 0 127 0" result="hardAlpha"/>
<feMorphology radius="6" operator="erode" in="SourceAlpha" result="effect1_dropShadow_505_1329"/>
<feOffset dy="4"/>
<feGaussianBlur stdDeviation="8"/>
<feComposite in2="hardAlpha" operator="out"/>
<feColorMatrix type="matrix" values="0 0 0 0 0 0 0 0 0 0 0 0 0 0 0 0 0 0 0.1 0"/>
<feBlend mode="normal" in2="BackgroundImageFix" result="effect1_dropShadow_505_1329"/>
<feBlend mode="normal" in="SourceGraphic" in2="effect1_dropShadow_505_1329" result="shape"/>
</filter>
<filter id="filter2_d_505_1329" x="808" y="0" width="360" height="232" filterUnits="userSpaceOnUse" color-interpolation-filters="sRGB">
<feFlood flood-opacity="0" result="BackgroundImageFix"/>
<feColorMatrix in="SourceAlpha" type="matrix" values="0 0 0 0 0 0 0 0 0 0 0 0 0 0 0 0 0 0 127 0" result="hardAlpha"/>
<feMorphology radius="6" operator="erode" in="SourceAlpha" result="effect1_dropShadow_505_1329"/>
<feOffset dy="4"/>
<feGaussianBlur stdDeviation="8"/>
<feComposite in2="hardAlpha" operator="out"/>
<feColorMatrix type="matrix" values="0 0 0 0 0 0 0 0 0 0 0 0 0 0 0 0 0 0 0.1 0"/>
<feBlend mode="normal" in2="BackgroundImageFix" result="effect1_dropShadow_505_1329"/>
<feBlend mode="normal" in="SourceGraphic" in2="effect1_dropShadow_505_1329" result="shape"/>
</filter>
</defs>
</svg>
