<svg width="45" height="44" viewBox="0 0 45 44" fill="none" xmlns="http://www.w3.org/2000/svg">
<circle cx="22.5" cy="22" r="22" fill="white" fill-opacity="0.1"/>
<g clip-path="url(#clip0_329_2614)">
<path d="M19.1609 35.1998V22.1103H15.9V18.0232H19.1609V17.7235C19.1609 16.47 19.1545 15.2171 19.1609 13.9643C19.1743 11.8013 20.4451 10.0021 22.4819 9.28854C22.8654 9.1462 23.2685 9.06367 23.6771 9.04387C24.8858 9.01184 26.0957 9.03234 27.3236 9.03234V13.1066C26.8067 13.1066 26.2898 13.1028 25.7729 13.1066C25.0837 13.1137 24.5521 13.4045 24.2465 14.0309C24.1427 14.2453 24.0855 14.4794 24.0787 14.7175C24.0608 15.7827 24.0704 16.8485 24.0704 17.9137C24.0742 17.9451 24.0804 17.9761 24.089 18.0066H28.9729C28.9287 18.1295 28.8973 18.2231 28.8614 18.314C28.3881 19.4996 27.9103 20.6839 27.4433 21.8708C27.3754 22.0437 27.2935 22.1142 27.0962 22.1116C26.0995 22.1001 25.1035 22.1065 24.0704 22.1065V35.1986L19.1609 35.1998Z" fill="white" fill-opacity="0.3"/>
</g>
<defs>
<clipPath id="clip0_329_2614">
<rect width="13.0729" height="26.4" fill="white" transform="translate(15.9 8.7998)"/>
</clipPath>
</defs>
</svg>
