<svg width="45" height="44" viewBox="0 0 45 44" fill="none" xmlns="http://www.w3.org/2000/svg">
<circle cx="22.5" cy="22" r="22" fill="white" fill-opacity="0.1"/>
<g clip-path="url(#clip0_329_2618)">
<path d="M35.5135 21.363C35.397 21.9048 35.2741 22.4542 34.9017 22.8814C34.6108 23.1992 34.2951 23.4934 33.9576 23.7612C33.8373 23.8618 33.7621 23.9325 33.7666 24.1044C33.8067 25.6629 33.2745 27.0278 32.3195 28.2342C31.0832 29.7953 29.4604 30.8082 27.6192 31.4938C25.5464 32.2661 23.399 32.5328 21.2 32.3647C18.7503 32.1769 16.4552 31.4957 14.4231 30.0728C12.9754 29.06 11.8428 27.781 11.2844 26.062C11.0701 25.4143 10.9782 24.7323 11.0132 24.0509C11.0228 23.8841 10.9699 23.7924 10.8299 23.702C10.2746 23.3371 9.84581 22.8094 9.60224 22.1912C9.35867 21.5729 9.31227 20.8945 9.4694 20.2489C9.80936 18.8942 10.9394 17.8966 12.2922 17.7724C13.0256 17.7088 13.7145 17.8437 14.3365 18.248C14.4765 18.339 14.5746 18.3486 14.7185 18.2537C16.7436 16.9531 18.9839 16.3374 21.3649 16.2006C21.7055 16.1808 21.8806 16.079 22.0137 15.7511C22.5332 14.4651 23.0889 13.1944 23.632 11.9186C23.893 11.3061 24.212 11.145 24.862 11.2972C26.2677 11.6282 27.6731 11.9601 29.0784 12.2929C29.2312 12.3292 29.3222 12.2993 29.4222 12.1713C30.027 11.3978 31.0386 11.0565 31.9299 11.3125C32.9536 11.6072 33.6195 12.3706 33.7405 13.3892C33.815 13.9996 33.6557 14.6157 33.2947 15.1136C32.9337 15.6114 32.3977 15.9543 31.7943 16.0732C30.579 16.3132 29.3184 15.555 29.0173 14.3454C28.9294 13.9953 28.7836 13.8762 28.4564 13.8062C27.3519 13.5693 26.2543 13.2969 25.1548 13.0422C25.0275 13.0129 24.9396 13.004 24.8747 13.16C24.466 14.1417 24.0471 15.1183 23.6294 16.0974C23.6209 16.1299 23.6158 16.1632 23.6142 16.1967C24.0095 16.2477 24.4036 16.2916 24.7951 16.3502C26.7088 16.6367 28.5112 17.2325 30.1371 18.3072C30.2479 18.3798 30.3281 18.4033 30.4554 18.3199C32.5207 16.9372 35.1583 18.2563 35.4772 20.536C35.4772 20.5583 35.5027 20.5774 35.5161 20.5997L35.5135 21.363ZM22.3906 30.0849C22.6955 30.0588 23.0017 30.0461 23.3041 30.0035C24.3367 29.8613 25.3168 29.4611 26.1537 28.8397C26.3002 28.7333 26.4058 28.5799 26.453 28.4051C26.5001 28.2303 26.4859 28.0446 26.4128 27.879C26.3459 27.711 26.2225 27.5717 26.0639 27.4849C25.9053 27.3981 25.7214 27.3693 25.5438 27.4034C25.3605 27.4416 25.1841 27.548 25.0224 27.6517C24.1643 28.2191 23.1457 28.4936 22.1187 28.4341C21.1835 28.3839 20.3501 28.0598 19.5792 27.5384C19.1749 27.2646 18.6879 27.3678 18.4332 27.7479C18.1786 28.1279 18.2843 28.6073 18.6847 28.8887C19.7666 29.6614 21.0611 30.0803 22.3906 30.0881V30.0849ZM28.0725 23.4601C28.0724 23.1404 27.9776 22.8278 27.8001 22.5619C27.6225 22.296 27.3702 22.0886 27.075 21.9658C26.7798 21.8431 26.4548 21.8105 26.1411 21.8723C25.8273 21.934 25.5389 22.0872 25.3121 22.3126C25.0854 22.5381 24.9305 22.8256 24.8669 23.1389C24.8033 23.4523 24.834 23.7775 24.955 24.0734C25.076 24.3694 25.2819 24.6229 25.5468 24.802C25.8117 24.9811 26.1236 25.0777 26.4434 25.0797C27.3257 25.0956 28.0662 24.3597 28.0725 23.4633V23.4601ZM19.9433 23.4601C19.9459 23.0296 19.7772 22.6156 19.4746 22.3094C19.1719 22.0031 18.76 21.8297 18.3295 21.8271C17.8989 21.8246 17.485 21.9932 17.1787 22.2959C16.8725 22.5985 16.699 23.0105 16.6965 23.441C16.685 24.3247 17.4203 25.0695 18.311 25.0829C19.1895 25.0937 19.9376 24.3514 19.9433 23.4627V23.4601ZM31.334 12.8671C31.1192 12.8668 30.913 12.9514 30.7603 13.1025C30.6077 13.2536 30.521 13.459 30.5191 13.6738C30.5191 13.8892 30.6047 14.0958 30.757 14.2482C30.9094 14.4005 31.116 14.4861 31.3315 14.4861C31.5469 14.4861 31.7535 14.4005 31.9059 14.2482C32.0582 14.0958 32.1438 13.8892 32.1438 13.6738C32.1436 13.5676 32.1226 13.4625 32.0818 13.3645C32.041 13.2665 31.9813 13.1775 31.9061 13.1026C31.8309 13.0277 31.7416 12.9684 31.6435 12.928C31.5453 12.8876 31.4402 12.8669 31.334 12.8671Z" fill="white" fill-opacity="0.3"/>
</g>
<defs>
<clipPath id="clip0_329_2618">
<rect width="26.4" height="21.5539" fill="white" transform="translate(9.30005 11)"/>
</clipPath>
</defs>
</svg>
