<svg width="248" height="164" viewBox="0 0 248 164" fill="none" xmlns="http://www.w3.org/2000/svg">
<g style="mix-blend-mode:multiply">
<g style="mix-blend-mode:multiply">
<path d="M10.2254 107.76C10.2254 108.772 9.92555 109.76 9.36376 110.601C8.80197 111.442 8.00349 112.097 7.06927 112.484C6.13504 112.871 5.10699 112.972 4.11522 112.775C3.12345 112.577 2.21248 112.091 1.49745 111.376C0.782427 110.661 0.295533 109.749 0.0982577 108.758C-0.0990172 107.766 0.00216878 106.738 0.389137 105.804C0.776106 104.869 1.43146 104.071 2.27224 103.509C3.11302 102.947 4.10148 102.648 5.11268 102.648C6.46866 102.648 7.76909 103.186 8.72791 104.145C9.68673 105.104 10.2254 106.404 10.2254 107.76Z" fill="#30CFD0"/>
</g>
<g style="mix-blend-mode:multiply">
<path d="M10.6219 158.887C10.6219 159.899 10.322 160.887 9.76025 161.728C9.19845 162.569 8.39998 163.224 7.46575 163.611C6.53153 163.998 5.50347 164.099 4.51171 163.902C3.51994 163.705 2.60896 163.218 1.89394 162.503C1.17891 161.788 0.692017 160.877 0.494742 159.885C0.297467 158.893 0.398653 157.865 0.785622 156.931C1.17259 155.997 1.82794 155.198 2.66872 154.636C3.5095 154.075 4.49797 153.775 5.50917 153.775C6.86514 153.775 8.16558 154.313 9.1244 155.272C10.0832 156.231 10.6219 157.531 10.6219 158.887Z" fill="#30CFD0"/>
</g>
<g style="mix-blend-mode:multiply">
<path d="M61.2889 107.76C61.2889 108.772 60.989 109.76 60.4272 110.601C59.8654 111.442 59.067 112.097 58.1327 112.484C57.1985 112.871 56.1705 112.972 55.1788 112.775C54.187 112.577 53.276 112.091 52.561 111.376C51.846 110.661 51.359 109.749 51.1617 108.758C50.9644 107.766 51.0657 106.738 51.4527 105.804C51.8396 104.869 52.4949 104.071 53.3357 103.509C54.1765 102.947 55.165 102.648 56.1762 102.648C57.5322 102.648 58.8326 103.186 59.7915 104.145C60.7503 105.104 61.2889 106.404 61.2889 107.76Z" fill="#30CFD0"/>
</g>
<g style="mix-blend-mode:multiply">
<path d="M61.6863 158.887C61.6863 159.899 61.3865 160.887 60.8247 161.728C60.2629 162.569 59.4644 163.224 58.5302 163.611C57.596 163.998 56.568 164.099 55.5762 163.902C54.5845 163.705 53.6735 163.218 52.9584 162.503C52.2434 161.788 51.7565 160.877 51.5592 159.885C51.3619 158.893 51.4632 157.865 51.8501 156.931C52.2371 155.997 52.8924 155.198 53.7332 154.636C54.5739 154.075 55.5625 153.775 56.5737 153.775C57.9297 153.775 59.2301 154.313 60.1889 155.272C61.1477 156.231 61.6863 157.531 61.6863 158.887Z" fill="#30CFD0"/>
</g>
<g style="mix-blend-mode:multiply">
<path d="M112.35 107.76C112.35 108.772 112.051 109.76 111.489 110.601C110.927 111.442 110.128 112.097 109.194 112.484C108.26 112.871 107.232 112.972 106.24 112.775C105.248 112.577 104.338 112.091 103.622 111.376C102.907 110.661 102.421 109.749 102.223 108.758C102.026 107.766 102.127 106.738 102.514 105.804C102.901 104.869 103.557 104.071 104.397 103.509C105.238 102.947 106.227 102.648 107.238 102.648C107.909 102.648 108.574 102.78 109.194 103.037C109.815 103.294 110.378 103.67 110.853 104.145C111.328 104.62 111.704 105.183 111.961 105.804C112.218 106.424 112.35 107.089 112.35 107.76Z" fill="#30CFD0"/>
</g>
<g style="mix-blend-mode:multiply">
<path d="M112.749 158.887C112.749 159.899 112.449 160.887 111.887 161.728C111.325 162.569 110.527 163.224 109.593 163.611C108.658 163.998 107.63 164.099 106.639 163.902C105.647 163.705 104.736 163.218 104.021 162.503C103.306 161.788 102.819 160.877 102.622 159.885C102.424 158.893 102.526 157.865 102.913 156.931C103.3 155.997 103.955 155.198 104.796 154.636C105.636 154.075 106.625 153.775 107.636 153.775C108.308 153.775 108.972 153.907 109.593 154.164C110.213 154.421 110.777 154.797 111.251 155.272C111.726 155.747 112.103 156.31 112.36 156.931C112.617 157.551 112.749 158.216 112.749 158.887Z" fill="#30CFD0"/>
</g>
<g style="mix-blend-mode:multiply">
<path d="M163.415 107.76C163.415 108.772 163.115 109.76 162.553 110.601C161.991 111.442 161.193 112.097 160.259 112.484C159.324 112.871 158.297 112.972 157.305 112.775C156.313 112.577 155.402 112.091 154.687 111.376C153.972 110.661 153.485 109.749 153.288 108.758C153.09 107.766 153.192 106.738 153.579 105.804C153.966 104.869 154.621 104.071 155.462 103.509C156.302 102.947 157.291 102.648 158.302 102.648C159.658 102.648 160.959 103.186 161.917 104.145C162.876 105.104 163.415 106.404 163.415 107.76Z" fill="#30CFD0"/>
</g>
<g style="mix-blend-mode:multiply">
<path d="M163.811 158.887C163.811 159.899 163.511 160.887 162.95 161.728C162.388 162.569 161.589 163.224 160.655 163.611C159.721 163.998 158.693 164.099 157.701 163.902C156.709 163.705 155.798 163.218 155.083 162.503C154.368 161.788 153.881 160.877 153.684 159.885C153.487 158.893 153.588 157.865 153.975 156.931C154.362 155.997 155.017 155.198 155.858 154.636C156.699 154.075 157.687 153.775 158.699 153.775C160.055 153.775 161.355 154.313 162.314 155.272C163.273 156.231 163.811 157.531 163.811 158.887Z" fill="#30CFD0"/>
</g>
<g style="mix-blend-mode:multiply">
<path d="M214.477 107.76C214.477 108.772 214.178 109.76 213.616 110.601C213.054 111.442 212.255 112.097 211.321 112.484C210.387 112.871 209.359 112.972 208.367 112.775C207.375 112.577 206.464 112.091 205.749 111.376C205.034 110.661 204.547 109.749 204.35 108.758C204.153 107.766 204.254 106.738 204.641 105.804C205.028 104.869 205.683 104.071 206.524 103.509C207.365 102.947 208.353 102.648 209.365 102.648C210.721 102.648 212.021 103.186 212.98 104.145C213.939 105.104 214.477 106.404 214.477 107.76Z" fill="#30CFD0"/>
</g>
<g style="mix-blend-mode:multiply">
<path d="M214.874 158.887C214.874 159.899 214.574 160.887 214.012 161.728C213.45 162.569 212.652 163.224 211.718 163.611C210.783 163.998 209.755 164.099 208.764 163.902C207.772 163.705 206.861 163.218 206.146 162.503C205.431 161.788 204.944 160.877 204.747 159.885C204.549 158.893 204.651 157.865 205.038 156.931C205.425 155.997 206.08 155.198 206.921 154.636C207.761 154.075 208.75 153.775 209.761 153.775C211.117 153.775 212.418 154.313 213.376 155.272C214.335 156.231 214.874 157.531 214.874 158.887Z" fill="#30CFD0"/>
</g>
<g style="mix-blend-mode:multiply">
<path d="M10.6219 5.50625C10.6219 6.51744 10.322 7.5059 9.76025 8.34668C9.19845 9.18745 8.39998 9.8428 7.46575 10.2298C6.53153 10.6167 5.50347 10.718 4.51171 10.5207C3.51994 10.3234 2.60896 9.83648 1.89394 9.12146C1.17891 8.40644 0.692017 7.49547 0.494742 6.50371C0.297467 5.51194 0.398653 4.4839 0.785622 3.54968C1.17259 2.61546 1.82794 1.81698 2.66872 1.25519C3.5095 0.693405 4.49797 0.393555 5.50917 0.393555C6.86514 0.393555 8.16558 0.932225 9.1244 1.89104C10.0832 2.84985 10.6219 4.15028 10.6219 5.50625Z" fill="#30CFD0"/>
</g>
<g style="mix-blend-mode:multiply">
<path d="M61.6863 5.50625C61.6863 6.51744 61.3865 7.5059 60.8247 8.34668C60.2629 9.18745 59.4644 9.8428 58.5302 10.2298C57.596 10.6167 56.568 10.718 55.5762 10.5207C54.5845 10.3234 53.6735 9.83648 52.9584 9.12146C52.2434 8.40644 51.7565 7.49547 51.5592 6.5037C51.3619 5.51194 51.4632 4.4839 51.8501 3.54968C52.2371 2.61546 52.8924 1.81698 53.7332 1.25519C54.5739 0.693405 55.5625 0.393555 56.5737 0.393555C57.9297 0.393555 59.2301 0.932225 60.1889 1.89104C61.1477 2.84985 61.6863 4.15028 61.6863 5.50625Z" fill="#30CFD0"/>
</g>
<g style="mix-blend-mode:multiply">
<path d="M112.748 5.50625C112.748 6.51744 112.448 7.5059 111.886 8.34668C111.324 9.18745 110.526 9.8428 109.592 10.2298C108.657 10.6167 107.629 10.718 106.638 10.5207C105.646 10.3234 104.735 9.83648 104.02 9.12146C103.305 8.40644 102.818 7.49547 102.621 6.5037C102.423 5.51194 102.525 4.4839 102.912 3.54968C103.299 2.61546 103.954 1.81698 104.795 1.25519C105.636 0.693405 106.624 0.393555 107.635 0.393555C108.307 0.393555 108.971 0.525793 109.592 0.78273C110.212 1.03967 110.776 1.41628 111.25 1.89104C111.725 2.36579 112.102 2.92938 112.359 3.54968C112.616 4.16997 112.748 4.83484 112.748 5.50625Z" fill="#30CFD0"/>
</g>
<g style="mix-blend-mode:multiply">
<path d="M163.811 5.50625C163.811 6.51744 163.511 7.5059 162.95 8.34668C162.388 9.18745 161.589 9.8428 160.655 10.2298C159.721 10.6167 158.693 10.718 157.701 10.5207C156.709 10.3234 155.798 9.83648 155.083 9.12146C154.368 8.40644 153.881 7.49547 153.684 6.5037C153.487 5.51194 153.588 4.4839 153.975 3.54968C154.362 2.61546 155.017 1.81698 155.858 1.25519C156.699 0.693405 157.687 0.393555 158.699 0.393555C160.055 0.393555 161.355 0.932225 162.314 1.89104C163.273 2.84985 163.811 4.15028 163.811 5.50625Z" fill="#30CFD0"/>
</g>
<g style="mix-blend-mode:multiply">
<path d="M214.874 5.50625C214.874 6.51744 214.574 7.5059 214.012 8.34668C213.45 9.18745 212.652 9.8428 211.718 10.2298C210.783 10.6167 209.755 10.718 208.764 10.5207C207.772 10.3234 206.861 9.83648 206.146 9.12146C205.431 8.40644 204.944 7.49547 204.747 6.5037C204.549 5.51194 204.651 4.4839 205.038 3.54968C205.425 2.61546 206.08 1.81698 206.921 1.25519C207.761 0.693405 208.75 0.393555 209.761 0.393555C211.117 0.393555 212.418 0.932225 213.376 1.89104C214.335 2.84985 214.874 4.15028 214.874 5.50625Z" fill="#30CFD0"/>
</g>
<g style="mix-blend-mode:multiply">
<path d="M10.6219 56.6332C10.6219 57.6444 10.322 58.6329 9.76025 59.4737C9.19845 60.3145 8.39998 60.9698 7.46575 61.3568C6.53153 61.7437 5.50347 61.8449 4.51171 61.6477C3.51994 61.4504 2.60896 60.9635 1.89394 60.2485C1.17891 59.5334 0.692017 58.6225 0.494742 57.6307C0.297467 56.6389 0.398653 55.6109 0.785622 54.6766C1.17259 53.7424 1.82794 52.9439 2.66872 52.3822C3.5095 51.8204 4.49797 51.5205 5.50917 51.5205C6.86514 51.5205 8.16558 52.0592 9.1244 53.018C10.0832 53.9768 10.6219 55.2773 10.6219 56.6332Z" fill="#30CFD0"/>
</g>
<g style="mix-blend-mode:multiply">
<path d="M61.6863 56.6332C61.6863 57.6444 61.3865 58.6329 60.8247 59.4737C60.2629 60.3145 59.4644 60.9698 58.5302 61.3568C57.596 61.7437 56.568 61.8449 55.5762 61.6477C54.5845 61.4504 53.6735 60.9635 52.9584 60.2485C52.2434 59.5334 51.7565 58.6225 51.5592 57.6307C51.3619 56.6389 51.4632 55.6109 51.8501 54.6766C52.2371 53.7424 52.8924 52.9439 53.7332 52.3822C54.5739 51.8204 55.5625 51.5205 56.5737 51.5205C57.9297 51.5205 59.2301 52.0592 60.1889 53.018C61.1477 53.9768 61.6863 55.2773 61.6863 56.6332Z" fill="#30CFD0"/>
</g>
<g style="mix-blend-mode:multiply">
<path d="M112.748 56.6332C112.748 57.6444 112.448 58.6329 111.886 59.4737C111.324 60.3145 110.526 60.9698 109.592 61.3568C108.657 61.7437 107.629 61.8449 106.638 61.6477C105.646 61.4504 104.735 60.9635 104.02 60.2485C103.305 59.5334 102.818 58.6225 102.621 57.6307C102.423 56.6389 102.525 55.6109 102.912 54.6766C103.299 53.7424 103.954 52.9439 104.795 52.3822C105.636 51.8204 106.624 51.5205 107.635 51.5205C108.307 51.5205 108.971 51.6527 109.592 51.9097C110.212 52.1666 110.776 52.5432 111.25 53.018C111.725 53.4928 112.102 54.0563 112.359 54.6766C112.616 55.2969 112.748 55.9618 112.748 56.6332Z" fill="#30CFD0"/>
</g>
<g style="mix-blend-mode:multiply">
<path d="M163.811 56.6332C163.811 57.6444 163.511 58.6329 162.95 59.4737C162.388 60.3145 161.589 60.9698 160.655 61.3568C159.721 61.7437 158.693 61.8449 157.701 61.6477C156.709 61.4504 155.798 60.9635 155.083 60.2485C154.368 59.5334 153.881 58.6225 153.684 57.6307C153.487 56.6389 153.588 55.6109 153.975 54.6766C154.362 53.7424 155.017 52.9439 155.858 52.3822C156.699 51.8204 157.687 51.5205 158.699 51.5205C160.055 51.5205 161.355 52.0592 162.314 53.018C163.273 53.9768 163.811 55.2773 163.811 56.6332Z" fill="#30CFD0"/>
</g>
<g style="mix-blend-mode:multiply">
<path d="M214.874 56.6332C214.874 57.6444 214.574 58.6329 214.012 59.4737C213.45 60.3145 212.652 60.9698 211.718 61.3568C210.783 61.7437 209.755 61.8449 208.764 61.6477C207.772 61.4504 206.861 60.9635 206.146 60.2485C205.431 59.5334 204.944 58.6225 204.747 57.6307C204.549 56.6389 204.651 55.6109 205.038 54.6766C205.425 53.7424 206.08 52.9439 206.921 52.3822C207.761 51.8204 208.75 51.5205 209.761 51.5205C211.117 51.5205 212.418 52.0592 213.376 53.018C214.335 53.9768 214.874 55.2773 214.874 56.6332Z" fill="#30CFD0"/>
</g>
</g>
</svg>
