<svg width="102" height="169" viewBox="0 0 102 169" fill="none" xmlns="http://www.w3.org/2000/svg">
<g style="mix-blend-mode:multiply">
<g style="mix-blend-mode:multiply">
<path d="M44 8C43.2088 8 42.4355 7.76541 41.7777 7.32588C41.1199 6.88635 40.6072 6.26165 40.3045 5.53075C40.0017 4.79984 39.9225 3.99553 40.0769 3.21961C40.2312 2.44368 40.6121 1.73096 41.1715 1.17155C41.731 0.612144 42.4437 0.231214 43.2197 0.0768732C43.9956 -0.0774678 44.7998 0.00169664 45.5307 0.304447C46.2616 0.607198 46.8864 1.11992 47.3259 1.77772C47.7654 2.43552 48 3.20886 48 3.99998C48 5.06085 47.5786 6.07827 46.8284 6.82841C46.0783 7.57856 45.0608 8 44 8Z" fill="#C1D1D6"/>
</g>
<g style="mix-blend-mode:multiply">
<path d="M3.99998 8.31055C3.20885 8.31055 2.43551 8.07595 1.77771 7.63643C1.11991 7.1969 0.607242 6.5722 0.304491 5.84129C0.00173929 5.11039 -0.0774834 4.30608 0.0768579 3.53015C0.2312 2.75423 0.61213 2.04151 1.17154 1.4821C1.73095 0.922691 2.44373 0.541761 3.21965 0.38742C3.99558 0.233079 4.79984 0.312244 5.53074 0.614994C6.26165 0.917745 6.88635 1.43047 7.32588 2.08827C7.76541 2.74607 8 3.51941 8 4.31053C8 5.3714 7.57856 6.38881 6.82841 7.13896C6.07826 7.88911 5.06085 8.31055 3.99998 8.31055Z" fill="#C1D1D6"/>
</g>
<g style="mix-blend-mode:multiply">
<path d="M44 47.9492C43.2088 47.9492 42.4355 47.7146 41.7777 47.2751C41.1199 46.8356 40.6072 46.2109 40.3045 45.48C40.0017 44.7491 39.9225 43.9448 40.0769 43.1689C40.2312 42.3929 40.6121 41.6802 41.1715 41.1208C41.731 40.5614 42.4437 40.1804 43.2197 40.0261C43.9956 39.8717 44.7998 39.951 45.5307 40.2537C46.2616 40.5565 46.8864 41.0691 47.3259 41.7269C47.7654 42.3847 48 43.1581 48 43.9493C48 45.0101 47.5786 46.0275 46.8284 46.7777C46.0783 47.5278 45.0608 47.9492 44 47.9492Z" fill="#C1D1D6"/>
</g>
<g style="mix-blend-mode:multiply">
<path d="M3.99998 48.2598C3.20885 48.2598 2.43551 48.0252 1.77771 47.5856C1.11991 47.1461 0.607242 46.5214 0.304491 45.7905C0.00173929 45.0596 -0.0774834 44.2553 0.0768579 43.4794C0.2312 42.7035 0.61213 41.9908 1.17154 41.4314C1.73095 40.872 2.44373 40.491 3.21965 40.3366C3.99558 40.1823 4.79984 40.2615 5.53074 40.5643C6.26165 40.867 6.88635 41.3797 7.32588 42.0375C7.76541 42.6953 8 43.4687 8 44.2598C8 45.3207 7.57856 46.3381 6.82841 47.0882C6.07826 47.8384 5.06085 48.2598 3.99998 48.2598Z" fill="#C1D1D6"/>
</g>
<g style="mix-blend-mode:multiply">
<path d="M44 87.9004C43.2088 87.9004 42.4355 87.6658 41.7777 87.2263C41.1199 86.7868 40.6072 86.162 40.3045 85.4311C40.0017 84.7002 39.9225 83.8959 40.0769 83.12C40.2312 82.3441 40.6121 81.6314 41.1715 81.072C41.731 80.5126 42.4437 80.1316 43.2197 79.9772C43.9956 79.8229 44.7998 79.9021 45.5307 80.2049C46.2616 80.5076 46.8864 81.0204 47.3259 81.6781C47.7654 82.3359 48 83.1093 48 83.9004C48 84.4257 47.8965 84.9458 47.6955 85.4311C47.4945 85.9164 47.1998 86.3574 46.8284 86.7288C46.457 87.1002 46.016 87.3949 45.5307 87.5959C45.0454 87.7969 44.5253 87.9004 44 87.9004Z" fill="#C1D1D6"/>
</g>
<g style="mix-blend-mode:multiply">
<path d="M3.99998 88.2109C3.20885 88.2109 2.43551 87.9763 1.77771 87.5368C1.11991 87.0973 0.607242 86.4725 0.304491 85.7416C0.00173929 85.0107 -0.0774834 84.2065 0.0768579 83.4306C0.2312 82.6546 0.61213 81.9419 1.17154 81.3825C1.73095 80.8231 2.44373 80.4421 3.21965 80.2878C3.99558 80.1335 4.79984 80.2127 5.53074 80.5154C6.26165 80.8182 6.88635 81.3309 7.32588 81.9887C7.76541 82.6465 8 83.4198 8 84.2109C8 84.7362 7.89654 85.2563 7.69552 85.7416C7.4945 86.2269 7.19985 86.6679 6.82841 87.0394C6.45698 87.4108 6.01605 87.7054 5.53074 87.9065C5.04544 88.1075 4.52527 88.2109 3.99998 88.2109Z" fill="#C1D1D6"/>
</g>
<g style="mix-blend-mode:multiply">
<path d="M44 127.85C43.2088 127.85 42.4355 127.615 41.7777 127.175C41.1199 126.736 40.6072 126.111 40.3045 125.38C40.0017 124.649 39.9225 123.845 40.0769 123.069C40.2312 122.293 40.6121 121.581 41.1715 121.021C41.731 120.462 42.4437 120.081 43.2197 119.926C43.9956 119.772 44.7998 119.851 45.5307 120.154C46.2616 120.457 46.8864 120.97 47.3259 121.627C47.7654 122.285 48 123.059 48 123.85C48 124.911 47.5786 125.928 46.8284 126.678C46.0783 127.428 45.0608 127.85 44 127.85Z" fill="#C1D1D6"/>
</g>
<g style="mix-blend-mode:multiply">
<path d="M3.99998 128.16C3.20885 128.16 2.43551 127.926 1.77771 127.486C1.11991 127.047 0.607242 126.422 0.304491 125.691C0.00173929 124.96 -0.0774834 124.156 0.0768579 123.38C0.2312 122.604 0.61213 121.891 1.17154 121.332C1.73095 120.772 2.44373 120.391 3.21965 120.237C3.99558 120.083 4.79984 120.162 5.53074 120.465C6.26165 120.767 6.88635 121.28 7.32588 121.938C7.76541 122.596 8 123.369 8 124.16C8 125.221 7.57856 126.238 6.82841 126.989C6.07826 127.739 5.06085 128.16 3.99998 128.16Z" fill="#C1D1D6"/>
</g>
<g style="mix-blend-mode:multiply">
<path d="M44 167.8C43.2088 167.8 42.4355 167.565 41.7777 167.126C41.1199 166.686 40.6072 166.061 40.3045 165.331C40.0017 164.6 39.9225 163.795 40.0769 163.019C40.2312 162.244 40.6121 161.531 41.1715 160.971C41.731 160.412 42.4437 160.031 43.2197 159.877C43.9956 159.722 44.7998 159.802 45.5307 160.104C46.2616 160.407 46.8864 160.92 47.3259 161.578C47.7654 162.235 48 163.009 48 163.8C48 164.861 47.5786 165.878 46.8284 166.628C46.0783 167.378 45.0608 167.8 44 167.8Z" fill="#C1D1D6"/>
</g>
<g style="mix-blend-mode:multiply">
<path d="M3.99998 168.11C3.20885 168.11 2.43551 167.876 1.77771 167.436C1.11991 166.997 0.607242 166.372 0.304491 165.641C0.00173929 164.91 -0.0774834 164.106 0.0768579 163.33C0.2312 162.554 0.61213 161.841 1.17154 161.282C1.73095 160.723 2.44373 160.342 3.21965 160.187C3.99558 160.033 4.79984 160.112 5.53074 160.415C6.26165 160.718 6.88635 161.23 7.32588 161.888C7.76541 162.546 8 163.319 8 164.11C8 165.171 7.57856 166.189 6.82841 166.939C6.07826 167.689 5.06085 168.11 3.99998 168.11Z" fill="#C1D1D6"/>
</g>
<g style="mix-blend-mode:multiply">
<path d="M84 8.31055C83.2089 8.31055 82.4355 8.07595 81.7777 7.63643C81.1199 7.1969 80.6072 6.5722 80.3044 5.84129C80.0017 5.11039 79.9225 4.30608 80.0769 3.53015C80.2312 2.75423 80.6121 2.04151 81.1716 1.4821C81.731 0.922691 82.4437 0.541761 83.2196 0.38742C83.9955 0.233079 84.7998 0.312244 85.5307 0.614994C86.2617 0.917745 86.8864 1.43047 87.3259 2.08827C87.7654 2.74607 88 3.51941 88 4.31053C88 5.3714 87.5786 6.38881 86.8284 7.13896C86.0783 7.88911 85.0609 8.31055 84 8.31055Z" fill="#C1D1D6"/>
</g>
<g style="mix-blend-mode:multiply">
<path d="M84 48.2598C83.2089 48.2598 82.4355 48.0252 81.7777 47.5856C81.1199 47.1461 80.6072 46.5214 80.3044 45.7905C80.0017 45.0596 79.9225 44.2553 80.0769 43.4794C80.2312 42.7035 80.6121 41.9908 81.1716 41.4314C81.731 40.872 82.4437 40.491 83.2196 40.3366C83.9955 40.1823 84.7998 40.2615 85.5307 40.5643C86.2617 40.867 86.8864 41.3797 87.3259 42.0375C87.7654 42.6953 88 43.4687 88 44.2598C88 45.3207 87.5786 46.3381 86.8284 47.0882C86.0783 47.8384 85.0609 48.2598 84 48.2598Z" fill="#C1D1D6"/>
</g>
<g style="mix-blend-mode:multiply">
<path d="M84 88.2109C83.2089 88.2109 82.4355 87.9763 81.7777 87.5368C81.1199 87.0973 80.6072 86.4725 80.3044 85.7416C80.0017 85.0107 79.9225 84.2065 80.0769 83.4306C80.2312 82.6546 80.6121 81.9419 81.1716 81.3825C81.731 80.8231 82.4437 80.4421 83.2196 80.2878C83.9955 80.1335 84.7998 80.2127 85.5307 80.5154C86.2617 80.8182 86.8864 81.3309 87.3259 81.9887C87.7654 82.6465 88 83.4198 88 84.2109C88 84.7362 87.8965 85.2563 87.6955 85.7416C87.4945 86.2269 87.1998 86.6679 86.8284 87.0394C86.457 87.4108 86.0161 87.7054 85.5307 87.9065C85.0454 88.1075 84.5253 88.2109 84 88.2109Z" fill="#C1D1D6"/>
</g>
<g style="mix-blend-mode:multiply">
<path d="M84 128.16C83.2089 128.16 82.4355 127.926 81.7777 127.486C81.1199 127.047 80.6072 126.422 80.3044 125.691C80.0017 124.96 79.9225 124.156 80.0769 123.38C80.2312 122.604 80.6121 121.891 81.1716 121.332C81.731 120.772 82.4437 120.391 83.2196 120.237C83.9955 120.083 84.7998 120.162 85.5307 120.465C86.2617 120.767 86.8864 121.28 87.3259 121.938C87.7654 122.596 88 123.369 88 124.16C88 125.221 87.5786 126.238 86.8284 126.989C86.0783 127.739 85.0609 128.16 84 128.16Z" fill="#C1D1D6"/>
</g>
<g style="mix-blend-mode:multiply">
<path d="M84 168.11C83.2089 168.11 82.4355 167.876 81.7777 167.436C81.1199 166.997 80.6072 166.372 80.3044 165.641C80.0017 164.91 79.9225 164.106 80.0769 163.33C80.2312 162.554 80.6121 161.841 81.1716 161.282C81.731 160.723 82.4437 160.342 83.2196 160.187C83.9955 160.033 84.7998 160.112 85.5307 160.415C86.2617 160.718 86.8864 161.23 87.3259 161.888C87.7654 162.546 88 163.319 88 164.11C88 165.171 87.5786 166.189 86.8284 166.939C86.0783 167.689 85.0609 168.11 84 168.11Z" fill="#C1D1D6"/>
</g>
</g>
</svg>
