<svg width="128" height="83" viewBox="0 0 128 83" fill="none" xmlns="http://www.w3.org/2000/svg">
<path d="M49.5312 60.5H50.0312V60V14.375V13.875H49.5312H28.1562H27.964L27.8213 14.0038L11.5088 28.7225L11.1588 29.0384L11.4535 29.4063L18.9379 38.7501L19.2647 39.1581L19.6578 38.8134L33.4694 26.7031H34.9531V60V60.5H35.4531H49.5312ZM68.7363 41.7656V42.2656H69.2363H81.9706H82.4706V41.7656C82.4706 41.1133 82.5939 40.6556 82.7907 40.3469C82.9786 40.0521 83.26 39.8509 83.6789 39.7523L83.6823 39.7515C84.16 39.6356 85.2873 39.5379 87.1252 39.4723C88.9421 39.4075 91.4054 39.375 94.5175 39.375C97.7532 39.375 100.31 39.4284 102.193 39.5344C103.134 39.5874 103.9 39.6532 104.496 39.7311C105.101 39.8104 105.495 39.898 105.712 39.982L105.714 39.9825C106.093 40.128 106.43 40.4726 106.677 41.1452C106.927 41.8244 107.064 42.7877 107.064 44.0625C107.064 45.3748 106.907 46.3688 106.621 47.0737C106.339 47.7668 105.947 48.153 105.471 48.3273L105.464 48.3298L105.457 48.3324C104.9 48.5546 103.728 48.7442 101.866 48.8723C100.028 48.9988 97.5801 49.0625 94.5175 49.0625C91.3804 49.0625 88.9074 49.0143 87.0946 48.9187C86.188 48.8708 85.4524 48.8114 84.8846 48.7411C84.3055 48.6694 83.9366 48.5905 83.741 48.5166L83.7276 48.5116L83.714 48.5073C83.3504 48.3932 83.0494 48.1246 82.8283 47.6109C82.6007 47.0821 82.4706 46.3165 82.4706 45.2812V44.7812H81.9706H67.8925H67.3925V45.2812V49.8281C67.3925 52.1882 67.8286 54.169 68.7371 55.7387C69.6502 57.3164 71.0211 58.4446 72.8225 59.123C74.5784 59.8106 77.272 60.3109 80.8661 60.6424C84.473 60.9751 89.0248 61.1406 94.5175 61.1406C100.585 61.1406 105.525 60.9008 109.33 60.4179C113.115 59.9377 115.848 59.2097 117.444 58.1866L117.445 58.1854C119.061 57.1403 120.233 55.3977 121.001 53.0333C121.768 50.6708 122.143 47.6538 122.143 44C122.143 40.3713 121.81 37.4112 121.129 35.1378C120.449 32.8681 119.404 31.2267 117.937 30.3247C116.701 29.5565 114.476 29.0225 111.363 28.6711C108.222 28.3166 104.094 28.1406 98.9863 28.1406C91.2539 28.1406 85.6099 28.9464 82.1425 30.6241V24.9844H119.08H119.58V24.4844V14.2344V13.7344H119.08H69.2363H68.7363V14.2344V41.7656Z" fill="#30CFD0" stroke="#30CFD0"/>
</svg>
