<svg width="64" height="65" viewBox="0 0 64 65" fill="none" xmlns="http://www.w3.org/2000/svg">
<circle cx="32" cy="32.5" r="32" fill="#F0B90B"/>
<path d="M36.589 48.0287V53.2993L31.9935 56L27.5287 53.2993V48.0287L31.9935 50.7294L36.589 48.0287ZM12 29.7994L16.4648 32.5V41.5385L24.1529 46.1339V51.4045L12 44.2391V29.7994ZM51.987 29.7994V44.2609L39.7034 51.4263V46.1557L47.3916 41.5602V32.5218L51.987 29.7994ZM39.6816 22.6339L44.2771 25.3346V30.6052L36.589 35.2006V44.3698L32.1242 47.0704L27.6812 44.3698V35.1789L19.7099 30.5834V25.3128L24.3054 22.6121L31.9935 27.2076L39.6816 22.6339ZM19.7099 34.373L24.1747 37.0737V42.3443L19.7099 39.6436V34.373ZM44.2771 34.373V39.6436L39.8123 42.3443V37.0737L44.2771 34.373ZM16.4648 18.0385L21.0602 20.7391L16.4648 23.4398V28.7104L12 26.0097V20.7391L16.4648 18.0385ZM47.5222 18.0385L52.1177 20.7391V26.0097L47.5222 28.7104V23.4398L43.0575 20.7391L47.5222 18.0385ZM31.9935 18.0385L36.589 20.7391L31.9935 23.4398L27.5287 20.7391L31.9935 18.0385ZM31.9935 9L44.2771 16.1654L39.8123 18.8661L32.1242 14.2706L24.2836 18.8661L19.8188 16.1654L31.9935 9Z" fill="white"/>
</svg>
