<svg width="40" height="40" viewBox="0 0 40 40" fill="none" xmlns="http://www.w3.org/2000/svg">
<path d="M9.72208 39.364C8.94908 39.147 8.14008 39.01 7.40808 38.697C5.93675 38.0676 4.71129 36.9748 3.91813 35.5849C3.12497 34.1949 2.80752 32.584 3.01408 30.997C3.46708 27.497 6.05208 24.884 9.44508 24.462C10.2831 24.362 11.1531 24.493 12.0051 24.555C12.2501 24.573 12.4241 24.574 12.6051 24.381C13.1361 23.825 13.6911 23.292 14.3211 22.667C14.187 22.5921 14.0598 22.5055 13.9411 22.408C12.2744 20.7494 10.6121 19.0874 8.95408 17.422C6.35408 14.797 5.97108 10.831 8.03908 7.84502C8.28991 7.49083 8.45804 7.08485 8.53108 6.65702C9.17708 3.10002 12.3261 0.509023 15.9591 0.531023C17.7041 0.544781 19.3896 1.16717 20.7247 2.2908C22.0599 3.41444 22.961 4.96885 23.2726 6.68587C23.5842 8.40288 23.2867 10.1748 22.4315 11.6959C21.5763 13.2171 20.217 14.392 18.5881 15.018C18.4951 15.053 18.4021 15.09 18.3591 15.107L20.1141 16.851C20.1411 16.825 20.2491 16.726 20.3521 16.623L30.0051 6.97202C30.5421 6.43402 30.8491 6.44202 31.3611 7.00002C32.6595 8.40224 33.3711 10.2487 33.3495 12.1596C33.3279 14.0705 32.5748 15.9005 31.2451 17.273C29.5661 19.007 27.8381 20.694 26.1301 22.399C26.0168 22.4988 25.8976 22.5917 25.7731 22.677C26.4141 23.319 26.9951 23.913 27.5951 24.487C27.6701 24.558 27.8531 24.558 27.9741 24.533C29.9153 24.1279 31.938 24.5069 33.601 25.5873C35.2639 26.6676 36.4322 28.3617 36.8511 30.3C37.7861 34.522 34.8081 38.757 30.5251 39.3C30.4408 39.3171 30.3578 39.3405 30.2771 39.37H28.7601C28.7048 39.343 28.6468 39.3219 28.5871 39.307C24.4591 38.712 21.7051 35.244 22.0871 31.087C22.1211 30.713 22.0411 30.475 21.7661 30.221C21.1751 29.676 20.6241 29.087 19.9661 28.428L17.8461 30.728C17.8461 30.676 17.8461 30.714 17.8461 30.751C18.3411 34.31 16.4321 37.6 13.0931 38.875C12.4751 39.111 11.8051 39.21 11.1591 39.375L9.72208 39.364ZM17.6221 28.953C17.7221 28.87 17.7731 28.835 17.8221 28.791C21.9771 24.636 26.1471 20.491 30.2791 16.318C32.3311 14.242 32.5541 10.971 30.8911 8.58302C30.8171 8.47603 30.7291 8.38302 30.6811 8.31802L13.8541 25.141C13.9861 25.231 14.1351 25.341 14.2941 25.441C15.3543 26.0897 16.2454 26.9808 16.8941 28.041C17.1001 28.365 17.3711 28.642 17.6231 28.953H17.6221ZM9.77108 8.00002C9.76602 9.62474 10.4052 11.1852 11.5486 12.3395C12.692 13.4938 14.2464 14.1477 15.8711 14.158C19.2331 14.186 22.0101 11.436 22.0251 8.05802C22.0411 4.66902 19.3161 1.90102 15.9511 1.88902C15.1432 1.88137 14.3418 2.0337 13.593 2.33724C12.8443 2.64078 12.163 3.08953 11.5885 3.65761C11.014 4.22569 10.5577 4.90186 10.2457 5.64715C9.93382 6.39243 9.77249 7.19209 9.77108 8.00002ZM29.4931 38C30.7065 38.0052 31.8941 37.6503 32.9058 36.9802C33.9174 36.3101 34.7075 35.355 35.1762 34.2358C35.6448 33.1165 35.7709 31.8834 35.5385 30.6924C35.3061 29.5015 34.7256 28.4062 33.8706 27.5453C33.0155 26.6843 31.9243 26.0964 30.7349 25.8558C29.5456 25.6153 28.3116 25.7329 27.1892 26.1939C26.0667 26.6548 25.1063 27.4384 24.4293 28.4454C23.7523 29.4524 23.3893 30.6376 23.3861 31.851C23.3845 33.4751 24.026 35.0337 25.1705 36.186C26.3149 37.3383 27.8691 37.9905 29.4931 38ZM16.5701 31.86C16.5669 30.6487 16.2046 29.4656 15.529 28.4602C14.8533 27.4549 13.8947 26.6724 12.7744 26.2119C11.654 25.7514 10.4223 25.6335 9.23493 25.873C8.04756 26.1126 6.95791 26.6989 6.10377 27.5578C5.24964 28.4167 4.6694 29.5096 4.43643 30.6982C4.20347 31.8869 4.32824 33.118 4.79498 34.2358C5.26172 35.3535 6.04945 36.3078 7.05855 36.9778C8.06765 37.6478 9.25279 38.0036 10.4641 38C12.0868 37.9916 13.6401 37.3409 14.7843 36.1903C15.9286 35.0397 16.5706 33.4827 16.5701 31.86ZM19.0701 17.849C18.2921 17.087 17.5211 16.324 16.7361 15.575C16.6365 15.511 16.5174 15.4845 16.4001 15.5C14.7028 15.6131 13.0176 15.1453 11.6215 14.1735C10.2254 13.2018 9.20149 11.7839 8.71808 10.153C8.67908 10.024 8.63308 9.89703 8.56408 9.68802C8.47708 9.93003 8.40908 10.088 8.36408 10.253C7.71908 12.573 8.18508 14.644 9.85608 16.379C11.5471 18.136 13.2971 19.835 15.0221 21.559C15.0841 21.62 15.1521 21.676 15.2021 21.721L19.0701 17.849ZM22.4201 28.949C22.9801 28.195 23.4541 27.411 24.0731 26.766C24.6921 26.121 25.4701 25.6 26.1201 25.073L24.8591 23.805L21.0591 27.61L22.1821 28.72C22.2401 28.781 22.3051 28.839 22.4221 28.949H22.4201Z" fill="#30CFD0"/>
<path d="M21.3378 22.7C21.337 22.9218 21.2923 23.1411 21.2062 23.3455C21.1202 23.5498 20.9945 23.7351 20.8364 23.8905C20.6783 24.046 20.491 24.1686 20.2853 24.2513C20.0795 24.3339 19.8595 24.375 19.6378 24.3721C19.3003 24.372 18.9706 24.2716 18.6904 24.0835C18.4103 23.8954 18.1925 23.6282 18.0647 23.316C17.9369 23.0037 17.9049 22.6605 17.9728 22.33C18.0407 21.9995 18.2054 21.6966 18.4459 21.46C18.6865 21.2234 18.992 21.0638 19.3236 21.0014C19.6552 20.939 19.9979 20.9767 20.308 21.1096C20.6181 21.2426 20.8816 21.4648 21.065 21.7481C21.2484 22.0313 21.3433 22.3627 21.3378 22.7ZM20.1228 22.673C19.8928 22.517 19.7548 22.351 19.6418 22.367C19.5288 22.383 19.4168 22.567 19.3058 22.68C19.4188 22.788 19.5228 22.969 19.6468 22.98C19.7708 22.991 19.8998 22.826 20.1228 22.668V22.673Z" fill="#30CFD0"/>
<path d="M29.5319 36.6361C28.5888 36.6378 27.6664 36.36 26.8812 35.8377C26.0959 35.3154 25.4831 34.5721 25.1202 33.7016C24.7573 32.8312 24.6606 31.8727 24.8423 30.9472C25.0239 30.0218 25.4758 29.171 26.1409 28.5024C26.8059 27.8337 27.6542 27.3772 28.5786 27.1905C29.503 27.0038 30.4621 27.0953 31.3345 27.4534C32.2069 27.8116 32.9536 28.4203 33.4801 29.2027C34.0067 29.9851 34.2895 30.906 34.2929 31.8491C34.2927 33.1141 33.7918 34.3276 32.8997 35.2245C32.0077 36.1215 30.7969 36.6289 29.5319 36.6361ZM29.5319 35.2711C30.206 35.2693 30.8644 35.0675 31.4238 34.6913C31.9831 34.315 32.4183 33.7813 32.6741 33.1576C32.9299 32.5339 32.9949 31.8483 32.8608 31.1877C32.7267 30.5271 32.3997 29.9211 31.921 29.4464C31.4423 28.9718 30.8335 28.6499 30.1717 28.5215C29.51 28.393 28.825 28.4639 28.2035 28.725C27.582 28.9861 27.052 29.4258 26.6806 29.9883C26.3091 30.5509 26.1129 31.211 26.1169 31.8851C26.1235 32.7854 26.4858 33.6466 27.1248 34.2809C27.7637 34.9151 28.6276 35.2711 29.5279 35.2711H29.5319Z" fill="#30CFD0"/>
<path d="M15.2081 31.861C15.2083 32.8021 14.9296 33.7222 14.4073 34.505C13.8849 35.2879 13.1423 35.8984 12.2732 36.2595C11.4042 36.6206 10.4476 36.7161 9.52428 36.5339C8.60097 36.3517 7.75234 35.9 7.08555 35.2359C6.41877 34.5718 5.96372 33.7249 5.77786 32.8024C5.59201 31.8798 5.68369 30.9228 6.04133 30.0523C6.39897 29.1818 7.00652 28.4368 7.78728 27.9113C8.56803 27.3859 9.48698 27.1036 10.4281 27.1C11.0547 27.0982 11.6756 27.2199 12.2551 27.4583C12.8346 27.6967 13.3615 28.047 13.8054 28.4892C14.2494 28.9314 14.6018 29.4568 14.8425 30.0354C15.0832 30.614 15.2074 31.2344 15.2081 31.861ZM13.8451 31.881C13.847 31.2098 13.6502 30.553 13.2795 29.9935C12.9088 29.4339 12.3808 28.9966 11.762 28.7366C11.1432 28.4766 10.4612 28.4056 9.80215 28.5326C9.14304 28.6595 8.53626 28.9787 8.05825 29.4499C7.58024 29.9211 7.25239 30.5232 7.11601 31.1804C6.97964 31.8376 7.04084 32.5205 7.29191 33.143C7.54298 33.7655 7.97268 34.2997 8.52686 34.6784C9.08104 35.0571 9.73492 35.2633 10.4061 35.271C10.8545 35.2744 11.2993 35.1894 11.7149 35.0209C12.1305 34.8523 12.5088 34.6035 12.8281 34.2887C13.1475 33.9739 13.4017 33.5992 13.5762 33.1861C13.7507 32.7729 13.8421 32.3295 13.8451 31.881Z" fill="#30CFD0"/>
<path d="M11.2998 9.63394V6.41895H14.7338V7.25095H12.2838V7.79995H14.5938V8.63195H12.2838V9.63195L11.2998 9.63394Z" fill="#30CFD0"/>
<path d="M15.3901 9.63795V6.42896H16.3791V9.63795H15.3901Z" fill="#30CFD0"/>
<path d="M17.0698 7.25095V6.41895H20.8998V7.25095H19.4798V9.63394H18.4918V7.25095H17.0698Z" fill="#30CFD0"/>
</svg>
