<svg width="37" height="37" viewBox="0 0 37 37" fill="none" xmlns="http://www.w3.org/2000/svg">
<path d="M9.66422 9.30599C9.80722 9.24499 9.91022 9.20599 10.0072 9.15899C10.9992 8.66499 11.9872 8.15899 12.9842 7.67699C13.0753 7.64326 13.1522 7.57978 13.2027 7.49683C13.2531 7.41389 13.2741 7.31634 13.2622 7.21999C13.2512 5.91999 13.2622 4.62499 13.2512 3.32799C13.2512 2.92799 13.3872 2.68199 13.7362 2.48699C15.0316 1.76232 16.3196 1.02665 17.6002 0.279988C17.7345 0.190046 17.8926 0.142029 18.0542 0.142029C18.2159 0.142029 18.3739 0.190046 18.5082 0.279988C19.7996 1.02665 21.0969 1.76832 22.4002 2.50499C22.7202 2.68599 22.8482 2.92999 22.8452 3.29499C22.8332 4.59499 22.8452 5.89499 22.8342 7.18699C22.8342 7.44999 22.9152 7.57899 23.1522 7.69299C24.1392 8.16899 25.1142 8.66899 26.0942 9.15799C26.1942 9.20599 26.2942 9.24399 26.4332 9.30399C26.4332 8.84399 26.4402 8.42299 26.4332 8.00399C26.4249 7.86642 26.4574 7.72945 26.5266 7.61026C26.5958 7.49108 26.6986 7.39497 26.8222 7.33399C28.1656 6.57132 29.5069 5.80465 30.8462 5.03399C30.9613 4.95931 31.0955 4.91957 31.2327 4.91957C31.3699 4.91957 31.5041 4.95931 31.6192 5.03399C32.9586 5.80532 34.2999 6.57199 35.6432 7.33399C35.765 7.39802 35.8654 7.49618 35.9322 7.61643C35.9989 7.73668 36.0292 7.8738 36.0192 8.01099C36.0132 9.53299 36.0132 11.0547 36.0192 12.576C36.0192 12.919 35.8632 13.13 35.5762 13.292C34.4262 13.941 33.2842 14.603 32.1322 15.249C31.9162 15.37 31.8132 15.497 31.8162 15.765C31.8322 17.311 31.8322 18.8577 31.8162 20.405C31.8162 20.655 31.9022 20.779 32.1102 20.895C33.2192 21.515 34.3102 22.166 35.4282 22.771C35.8712 23.011 36.0352 23.317 36.0282 23.817C35.9992 25.226 36.0082 26.636 36.0232 28.045C36.0282 28.445 35.8792 28.694 35.5342 28.887C34.2622 29.5977 32.9956 30.3207 31.7342 31.056C31.3832 31.262 31.0882 31.276 30.7342 31.064C29.6082 30.398 28.4632 29.764 27.3342 29.108C27.2558 29.0503 27.1608 29.0196 27.0634 29.0205C26.966 29.0214 26.8716 29.0538 26.7942 29.113C25.5642 29.895 24.3282 30.6677 23.0862 31.431C23.0043 31.471 22.9369 31.5356 22.8934 31.6157C22.8498 31.6958 22.8323 31.7875 22.8432 31.878C22.8592 32.239 22.8432 32.601 22.8432 32.963C22.8514 33.0945 22.8208 33.2256 22.7552 33.3399C22.6896 33.4542 22.5919 33.5467 22.4742 33.606C21.1209 34.378 19.7686 35.1507 18.4172 35.924C18.3068 35.9947 18.1784 36.0323 18.0472 36.0323C17.9161 36.0323 17.7877 35.9947 17.6772 35.924C16.3372 35.154 14.9959 34.3873 13.6532 33.624C13.3892 33.474 13.2462 33.266 13.2612 32.958C13.2612 32.933 13.2612 32.908 13.2612 32.883C13.2512 32.449 13.3762 31.941 13.1922 31.601C13.0082 31.261 12.5192 31.121 12.1602 30.901C11.2192 30.312 10.2732 29.734 9.34022 29.135C9.25982 29.0699 9.16018 29.0331 9.05676 29.0304C8.95334 29.0277 8.85192 29.0592 8.76822 29.12C7.63822 29.779 6.49422 30.415 5.36822 31.076C5.02822 31.276 4.73822 31.281 4.39422 31.076C3.11555 30.326 1.82888 29.5893 0.534216 28.866C0.388568 28.7958 0.267607 28.6831 0.187275 28.5428C0.106944 28.4025 0.071012 28.2411 0.0842156 28.08C0.0948823 26.596 0.0948823 25.112 0.0842156 23.628C0.0730443 23.4727 0.108597 23.3176 0.186298 23.1827C0.263999 23.0478 0.380294 22.9392 0.520216 22.871C1.69322 22.211 2.85622 21.534 4.02922 20.876C4.11247 20.8397 4.18208 20.7779 4.22807 20.6996C4.27406 20.6213 4.29406 20.5304 4.28522 20.44C4.27655 18.8693 4.27655 17.2977 4.28522 15.725C4.28522 15.488 4.19522 15.377 4.00122 15.268C2.85022 14.621 1.71122 13.952 0.557216 13.309C0.222216 13.123 0.0792156 12.883 0.0832156 12.5C0.0952156 11.028 0.0952156 9.55632 0.0832156 8.08499C0.0832156 7.69899 0.232216 7.46499 0.564216 7.27899C1.85488 6.55632 3.13988 5.82099 4.41922 5.07299C4.55265 4.98197 4.71014 4.9327 4.87165 4.93145C5.03316 4.9302 5.1914 4.97704 5.32622 5.06599C6.61888 5.81599 7.91655 6.55832 9.21922 7.29299C9.53922 7.47299 9.68422 7.71399 9.66822 8.08099C9.65022 8.47499 9.66422 8.87099 9.66422 9.30599ZM13.2572 30.175C13.2572 29.57 13.2802 29.045 13.2502 28.523C13.2242 28.074 13.4092 27.812 13.7932 27.6C14.9282 26.975 16.0452 26.318 17.1752 25.684C17.3702 25.575 17.4622 25.458 17.4552 25.222C17.4362 24.649 17.4382 24.075 17.4552 23.501C17.4622 23.281 17.3772 23.172 17.1932 23.069C16.0432 22.421 14.9032 21.752 13.7492 21.11C13.4052 20.918 13.2492 20.677 13.2492 20.275C13.2646 18.8163 13.2646 17.357 13.2492 15.897C13.2492 15.497 13.3902 15.252 13.7382 15.058C14.8922 14.417 16.0302 13.747 17.1832 13.101C17.2724 13.0628 17.3468 12.9967 17.3953 12.9127C17.4437 12.8287 17.4637 12.7313 17.4522 12.635C17.4362 12.061 17.4622 11.487 17.4362 10.914C17.4286 10.8347 17.404 10.7579 17.3641 10.6889C17.3243 10.6199 17.2701 10.5603 17.2052 10.514C16.1652 9.89865 15.1159 9.29865 14.0572 8.71399C13.9842 8.68208 13.9054 8.6656 13.8257 8.6656C13.746 8.6656 13.6672 8.68208 13.5942 8.71399C12.3732 9.30599 11.1652 9.92499 9.94422 10.514C9.71622 10.625 9.64422 10.759 9.65622 11.002C9.67622 11.488 9.64322 11.976 9.66822 12.461C9.68922 12.876 9.51922 13.132 9.16222 13.33C8.02922 13.959 6.91222 14.617 5.77822 15.245C5.53722 15.379 5.46122 15.529 5.46322 15.799C5.47722 17.3323 5.47722 18.8657 5.46322 20.399C5.46322 20.649 5.54622 20.773 5.75622 20.891C6.91022 21.544 8.05022 22.21 9.20022 22.854C9.53422 23.041 9.67022 23.29 9.66522 23.67C9.65122 24.793 9.70722 25.918 9.64222 27.037C9.60322 27.708 9.80522 28.09 10.4002 28.413C11.3622 28.933 12.2662 29.555 13.2572 30.175ZM22.8382 30.175C23.9922 29.455 25.0742 28.775 26.1672 28.104C26.3802 27.974 26.4382 27.829 26.4362 27.594C26.4262 26.284 26.4362 24.974 26.4262 23.664C26.4126 23.497 26.4503 23.3299 26.5343 23.1849C26.6183 23.04 26.7446 22.9242 26.8962 22.853C28.0602 22.204 29.2102 21.528 30.3722 20.875C30.4554 20.8385 30.5249 20.7768 30.5709 20.6985C30.6168 20.6202 30.6369 20.5294 30.6282 20.439C30.6196 18.867 30.6196 17.2953 30.6282 15.724C30.6282 15.486 30.5362 15.376 30.3422 15.267C29.1802 14.614 28.0272 13.944 26.8652 13.29C26.5592 13.118 26.4172 12.89 26.4262 12.536C26.4412 12 26.4442 11.462 26.4202 10.927C26.4133 10.8541 26.3904 10.7837 26.3533 10.7206C26.3161 10.6575 26.2656 10.6034 26.2052 10.562C24.9652 9.92399 23.7179 9.29932 22.4632 8.68799C22.3992 8.66249 22.3307 8.65048 22.2619 8.65272C22.193 8.65496 22.1254 8.67139 22.0632 8.70099C20.9852 9.30099 19.9139 9.91265 18.8492 10.536C18.7944 10.5763 18.7487 10.6279 18.7153 10.6872C18.6818 10.7465 18.6614 10.8122 18.6552 10.88C18.6352 11.465 18.6552 12.052 18.6402 12.638C18.6322 12.871 18.7172 12.991 18.9152 13.102C20.0672 13.747 21.2072 14.415 22.3612 15.057C22.7092 15.251 22.8472 15.506 22.8432 15.902C22.8279 17.348 22.8279 18.7947 22.8432 20.242C22.8482 20.655 22.7012 20.915 22.3432 21.115C21.1892 21.756 20.0492 22.424 18.8972 23.07C18.8136 23.1058 18.7436 23.1674 18.6975 23.2459C18.6515 23.3244 18.6317 23.4155 18.6412 23.506C18.6572 24.067 18.6602 24.629 18.6412 25.19C18.6332 25.436 18.7142 25.564 18.9292 25.684C20.0932 26.333 21.2452 27.004 22.4072 27.659C22.5481 27.726 22.6653 27.8344 22.7431 27.9696C22.821 28.1048 22.8559 28.2605 22.8432 28.416C22.8272 28.977 22.8382 29.538 22.8382 30.177V30.175ZM4.27422 14.054C4.27422 12.921 4.28022 11.854 4.26322 10.784C4.26322 10.684 4.12522 10.565 4.02122 10.504C3.20522 10.027 2.38122 9.56099 1.55922 9.09399C1.47922 9.04899 1.39222 9.01699 1.28122 8.96699C1.28122 10.057 1.27622 11.103 1.28822 12.149C1.29376 12.2059 1.31144 12.261 1.34008 12.3105C1.36872 12.36 1.40764 12.4028 1.45422 12.436C2.36622 12.97 3.28622 13.49 4.27422 14.054ZM30.6232 14.054C30.6232 12.941 30.6312 11.907 30.6122 10.873C30.601 10.8003 30.5747 10.7308 30.5349 10.6689C30.4951 10.6071 30.4427 10.5543 30.3812 10.514C29.8612 10.2 29.3252 9.89999 28.8002 9.59999L27.6332 8.93299C27.6332 10.057 27.6332 11.114 27.6392 12.17C27.6414 12.216 27.6535 12.2611 27.6747 12.302C27.696 12.3429 27.7258 12.3787 27.7622 12.407C28.6902 12.952 29.6282 13.486 30.6232 14.055V14.054ZM17.4492 21.84C17.4492 20.76 17.4412 19.74 17.4552 18.726C17.4552 18.491 17.3712 18.373 17.1752 18.265C16.4342 17.856 15.7022 17.43 14.9672 17.011L14.4552 16.722C14.4552 17.847 14.4552 18.906 14.4612 19.964C14.464 20.0104 14.4771 20.0556 14.4994 20.0964C14.5217 20.1372 14.5527 20.1726 14.5902 20.2C15.5222 20.74 16.4592 21.273 17.4492 21.84ZM4.27422 29.624C4.27422 28.49 4.28022 27.424 4.26322 26.356C4.26322 26.256 4.12622 26.136 4.02322 26.075C3.33722 25.675 2.64322 25.28 1.95122 24.885C1.74222 24.766 1.53122 24.648 1.28122 24.507C1.28122 25.623 1.27622 26.669 1.28822 27.714C1.29316 27.7706 1.31028 27.8255 1.33842 27.8748C1.36655 27.9242 1.40503 27.9669 1.45122 28C2.36222 28.538 3.28322 29.058 4.27422 29.624ZM27.6292 24.5C27.6292 25.582 27.6372 26.6 27.6232 27.616C27.6232 27.852 27.7092 27.967 27.9042 28.075C28.6882 28.509 29.4632 28.959 30.2412 29.402C30.3552 29.467 30.4702 29.527 30.6232 29.61C30.6232 28.502 30.6292 27.456 30.6142 26.41C30.6064 26.3476 30.585 26.2876 30.5517 26.2343C30.5184 26.1809 30.4739 26.1354 30.4212 26.101C29.5202 25.576 28.6102 25.063 27.6292 24.5ZM17.4482 34.414C17.4482 33.28 17.4542 32.214 17.4372 31.146C17.4372 31.046 17.3002 30.926 17.1972 30.866C16.5112 30.466 15.8172 30.072 15.1252 29.677L14.4552 29.298C14.4552 30.413 14.4502 31.459 14.4622 32.505C14.4671 32.562 14.4842 32.6173 14.5123 32.6672C14.5405 32.717 14.579 32.7603 14.6252 32.794C15.5372 33.328 16.4572 33.848 17.4482 34.414ZM18.6482 9.26799C19.6372 8.70099 20.5652 8.17399 21.4872 7.63699C21.5266 7.61265 21.5602 7.57998 21.5855 7.54128C21.6109 7.50258 21.6276 7.45879 21.6342 7.41299C21.6442 6.34599 21.6412 5.27899 21.6412 4.14699C20.6412 4.71699 19.6942 5.25499 18.7532 5.80499C18.7201 5.83744 18.6941 5.87642 18.6769 5.91946C18.6597 5.9625 18.6516 6.00866 18.6532 6.05499C18.6442 7.09999 18.6472 8.14699 18.6472 9.26799H18.6482ZM5.47322 14.058C6.47322 13.485 7.42122 12.947 8.36122 12.394C8.42922 12.354 8.46122 12.206 8.46122 12.107C8.47022 11.507 8.46122 10.912 8.46122 10.314V8.93599C7.46922 9.50299 6.54122 10.03 5.61822 10.567C5.57947 10.592 5.54655 10.625 5.5217 10.6638C5.49685 10.7026 5.48066 10.7463 5.47422 10.792C5.47022 11.859 5.47322 12.925 5.47322 14.058ZM18.6472 21.843C19.6472 21.272 20.5832 20.743 21.5112 20.191C21.5932 20.142 21.6342 19.963 21.6352 19.844C21.6452 18.923 21.6412 18.001 21.6352 17.079C21.6352 16.979 21.6202 16.879 21.6092 16.738C20.6482 17.286 19.7282 17.805 18.8162 18.338C18.7696 18.3712 18.7307 18.414 18.7021 18.4635C18.6734 18.513 18.6558 18.5681 18.6502 18.625C18.6422 19.671 18.6472 20.717 18.6472 21.843V21.843ZM17.4472 9.26399C17.4472 8.32999 17.4072 7.46399 17.4612 6.61299C17.4972 6.04099 17.3262 5.71899 16.7992 5.46499C16.0102 5.08499 15.2672 4.60899 14.4532 4.14399C14.4532 5.27599 14.4532 6.34399 14.4602 7.40999C14.4671 7.4556 14.4837 7.49921 14.5089 7.53786C14.5341 7.5765 14.5673 7.60929 14.6062 7.63399C15.5312 8.16999 16.4592 8.69999 17.4492 9.26399H17.4472ZM21.6382 29.294C20.6382 29.864 19.7032 30.394 18.7752 30.945C18.6922 30.994 18.6512 31.172 18.6502 31.29C18.6402 32.138 18.6442 32.99 18.6442 33.832V34.416C19.6312 33.853 20.5512 33.334 21.4632 32.8C21.5102 32.767 21.5495 32.7243 21.5785 32.6748C21.6074 32.6253 21.6254 32.5701 21.6312 32.513C21.6452 31.467 21.6402 30.42 21.6402 29.294H21.6382ZM31.8212 14.057C32.8212 13.485 33.7602 12.957 34.6882 12.403C34.7702 12.354 34.8082 12.174 34.8092 12.055C34.8192 11.108 34.8162 10.161 34.8092 9.21399C34.8031 9.12705 34.7917 9.04056 34.7752 8.95499C33.8222 9.49899 32.9012 10.019 31.9892 10.555C31.9428 10.5883 31.9041 10.6311 31.8756 10.6806C31.8472 10.7301 31.8296 10.7851 31.8242 10.842C31.8162 11.886 31.8212 12.932 31.8212 14.057ZM5.47222 29.624C6.32922 29.136 7.10322 28.659 7.91122 28.249C8.34622 28.028 8.51122 27.767 8.48022 27.274C8.43222 26.374 8.46622 25.468 8.46622 24.503C7.46622 25.073 6.53322 25.603 5.60122 26.151C5.56463 26.1789 5.53464 26.2145 5.51338 26.2553C5.49213 26.2961 5.48012 26.341 5.47822 26.387C5.47022 27.444 5.47222 28.5 5.47222 29.624ZM34.8142 24.5C34.0242 24.952 33.3222 25.409 32.5722 25.764C31.9782 26.046 31.7482 26.408 31.8042 27.075C31.8732 27.898 31.8212 28.731 31.8212 29.622C32.8152 29.053 33.7532 28.522 34.6852 27.976C34.7216 27.9476 34.7514 27.9118 34.7728 27.8709C34.7942 27.83 34.8066 27.785 34.8092 27.739C34.8172 26.686 34.8142 25.629 34.8142 24.5ZM21.0142 28.269C20.9222 28.203 20.8772 28.164 20.8272 28.135C19.9842 27.652 19.1462 27.162 18.2912 26.7C18.2117 26.6667 18.1261 26.6506 18.0399 26.6527C17.9538 26.6547 17.869 26.675 17.7912 26.712C17.0252 27.126 16.2742 27.569 15.5182 28.002C15.3842 28.079 15.2522 28.158 15.0742 28.262C15.7742 28.662 16.4592 28.962 17.0372 29.406C17.7652 29.963 18.3732 29.906 19.0852 29.393C19.6712 28.971 20.3392 28.658 21.0092 28.273L21.0142 28.269ZM21.0372 3.10599C20.0552 2.54499 19.1512 2.01899 18.2372 1.51799C18.1302 1.45899 17.9252 1.48999 17.8062 1.55399C17.1492 1.90899 16.5062 2.28699 15.8572 2.65399C15.6142 2.79299 15.3732 2.93499 15.0822 3.10499C16.0682 3.66999 16.9922 4.20499 17.9232 4.72599C17.9662 4.74574 18.0129 4.75597 18.0602 4.75597C18.1075 4.75597 18.1542 4.74574 18.1972 4.72599C19.1192 4.20999 20.0432 3.67699 21.0322 3.10999L21.0372 3.10599ZM15.0692 15.686C16.0612 16.254 16.9852 16.786 17.9192 17.307C18.0072 17.355 18.1842 17.307 18.2882 17.25C19.1252 16.784 19.9562 16.305 20.7882 15.828C20.8587 15.7767 20.9255 15.7206 20.9882 15.66C20.0452 15.123 19.1392 14.602 18.2252 14.095C18.1737 14.0686 18.1172 14.0535 18.0594 14.0508C18.0017 14.048 17.944 14.0576 17.8902 14.079C16.9702 14.592 16.0552 15.121 15.0692 15.686ZM1.89322 23.47C2.82822 24.005 3.70022 24.5 4.56722 25.007C4.65536 25.072 4.76174 25.1075 4.87125 25.1086C4.98075 25.1097 5.08781 25.0762 5.17722 25.013C5.95722 24.548 6.75122 24.106 7.53922 23.654C7.62922 23.602 7.71222 23.538 7.83222 23.454C6.86922 22.904 5.95422 22.376 5.03222 21.863C4.97863 21.8414 4.92107 21.8313 4.86332 21.8336C4.80558 21.8358 4.74897 21.8503 4.69722 21.876C3.78222 22.386 2.87722 22.908 1.89322 23.47ZM34.2062 23.47C33.4552 23.041 32.7402 22.703 32.1062 22.251C31.4722 21.799 30.9772 21.796 30.3502 22.246C29.7232 22.696 28.9872 23.046 28.2432 23.47C29.2432 24.041 30.1762 24.578 31.1162 25.106C31.1549 25.1217 31.1966 25.1289 31.2383 25.1272C31.28 25.1254 31.3209 25.1148 31.3582 25.096C32.2872 24.572 33.2132 24.04 34.2062 23.471V23.47ZM1.89222 7.89999C2.87822 8.46499 3.78122 8.98999 4.70022 9.48999C4.77055 9.51463 4.84529 9.52415 4.91956 9.51795C4.99382 9.51175 5.06594 9.48995 5.13122 9.45399C5.87222 9.04799 6.60022 8.62099 7.33722 8.19999L7.85422 7.89999C6.86322 7.33199 5.93822 6.79999 5.00922 6.27499C4.97192 6.25617 4.93104 6.24554 4.8893 6.24381C4.84756 6.24209 4.80594 6.24931 4.76722 6.26499C3.82722 6.79399 2.89222 7.33099 1.89222 7.89999ZM28.2442 7.89999C29.2382 8.46799 30.1702 9.00899 31.1142 9.52899C31.1992 9.57499 31.3752 9.51199 31.4822 9.45299C32.1822 9.06699 32.8692 8.66799 33.5592 8.27199C33.7592 8.15699 33.9592 8.03699 34.1952 7.89399C33.4042 7.44099 32.6482 7.05699 31.9472 6.59399C31.4382 6.25599 31.0372 6.23099 30.5172 6.58299C29.8122 7.05999 29.0442 7.44399 28.2442 7.89999Z" fill="#30CFD0"/>
</svg>
