<svg width="40" height="41" viewBox="0 0 40 41" fill="none" xmlns="http://www.w3.org/2000/svg">
<path d="M9.52679 38.5751C8.63779 37.7001 7.69979 36.8691 6.87479 35.9321C6.2258 35.1921 5.5278 34.8691 4.5428 34.9691C3.7008 35.0561 2.8428 34.9871 1.9698 34.9871V33.8051C2.0748 33.8001 2.1698 33.7911 2.2568 33.7911C3.4968 33.7911 4.7358 33.7911 5.97579 33.7861C6.10943 33.7814 6.24247 33.8058 6.36574 33.8576C6.48901 33.9094 6.59958 33.9874 6.6898 34.0861C7.70846 35.1181 8.73513 36.1421 9.76979 37.1581C9.90866 37.2874 10.0883 37.3642 10.2778 37.3751C15.3298 37.3864 20.3821 37.3891 25.4348 37.3831C26.2038 37.3831 26.6658 36.8431 26.4498 36.2061C26.408 36.0587 26.326 35.9259 26.213 35.8226C26.0999 35.7192 25.9603 35.6495 25.8098 35.6211C25.6372 35.5907 25.462 35.5773 25.2868 35.5811C22.0238 35.5811 18.7608 35.5701 15.4978 35.5811C14.6618 35.5861 13.9818 35.3231 13.3978 34.7141C12.6578 33.9381 11.8808 33.1951 11.1148 32.4341L11.9848 31.5901C12.7848 32.3901 13.6018 33.2141 14.4198 34.0331C14.5592 34.1803 14.7367 34.2862 14.9325 34.3389C15.1283 34.3917 15.3349 34.3892 15.5295 34.3319C15.724 34.2746 15.8989 34.1646 16.0349 34.0141C16.1708 33.8636 16.2625 33.6784 16.2998 33.4791C16.337 33.3065 16.3289 33.1272 16.2763 32.9586C16.2237 32.79 16.1285 32.6379 15.9998 32.5171C14.6731 31.1837 13.3398 29.8537 11.9998 28.5271C11.8998 28.4321 11.7088 28.4021 11.5588 28.4021C8.50546 28.3947 5.45246 28.3941 2.3998 28.4001H1.9668V27.2001H2.3288C5.5208 27.2001 8.71379 27.2001 11.9068 27.1951C12.0573 27.1878 12.2077 27.2136 12.3471 27.2708C12.4865 27.328 12.6117 27.4151 12.7138 27.5261C13.3138 28.1481 13.9398 28.7481 14.5418 29.3691C14.6111 29.4452 14.6963 29.505 14.7913 29.5444C14.8864 29.5839 14.989 29.6018 15.0918 29.5971C18.0751 29.5897 21.0575 29.5897 24.0388 29.5971C25.1998 29.5971 26.0148 30.4971 25.8768 31.6251C25.8333 31.8471 25.7738 32.0656 25.6988 32.2791C26.4318 32.8521 26.6848 33.5921 26.3608 34.5101C26.4408 34.5571 26.5078 34.5981 26.5768 34.6371C27.3538 35.0691 27.7898 35.8771 27.6908 36.7011C27.6424 37.1211 27.4693 37.517 27.1937 37.8377C26.9181 38.1584 26.5528 38.3891 26.1448 38.5001C26.0788 38.5191 26.0148 38.5471 25.9508 38.5711L9.52679 38.5751ZM16.0678 30.7881L16.0048 30.8931C16.3048 31.1711 16.6238 31.4291 16.8918 31.7341C16.9637 31.8219 17.0559 31.8909 17.1604 31.9351C17.265 31.9794 17.3787 31.9975 17.4918 31.9881C18.9648 31.9791 20.4388 31.9881 21.9128 31.9831C22.6378 31.9831 23.3628 31.9901 24.0888 31.9831C24.4568 31.9781 24.6888 31.7341 24.6938 31.3951C24.6988 31.0561 24.4588 30.8201 24.0938 30.7951C24.0348 30.7951 23.9768 30.7951 23.9178 30.7951H16.0678V30.7881ZM17.2938 34.3591C17.3498 34.3641 17.4158 34.3761 17.4828 34.3761H24.5998C24.6582 34.3774 24.7167 34.3748 24.7748 34.3681C24.9113 34.3594 25.0399 34.3008 25.136 34.2034C25.232 34.106 25.2889 33.9767 25.2958 33.8401C25.3176 33.7049 25.2877 33.5665 25.2121 33.4524C25.1365 33.3382 25.0207 33.2567 24.8878 33.2241C24.7644 33.1907 24.6366 33.1762 24.5088 33.1811C22.2875 33.1811 20.0671 33.1811 17.8478 33.1811C17.7478 33.1811 17.6478 33.1921 17.5788 33.1961C17.4788 33.6001 17.3878 33.9731 17.2938 34.3591Z" fill="#30CFD0"/>
<path d="M37.8818 7.41403C36.4898 7.41403 35.0988 7.43203 33.7078 7.41403C33.5168 7.41403 33.2908 7.26703 33.1438 7.12403C32.1078 6.11103 31.0918 5.07503 30.0558 4.06103C29.9168 3.93191 29.7364 3.85642 29.5468 3.84803C24.4948 3.83736 19.4428 3.8347 14.3908 3.84003C13.6248 3.84003 13.1618 4.38303 13.3798 5.01903C13.4228 5.16569 13.5055 5.29759 13.6188 5.40014C13.7321 5.50268 13.8716 5.57187 14.0218 5.60003C14.1941 5.63039 14.3689 5.64378 14.5438 5.64003C17.8068 5.64003 21.0688 5.65103 24.3318 5.64003C25.1678 5.64003 25.8478 5.89803 26.4318 6.50703C27.1708 7.28503 27.9468 8.02803 28.7128 8.79103L27.8388 9.63503C27.0488 8.83503 26.2388 8.02803 25.4388 7.21303C25.0928 6.86303 24.6848 6.74403 24.2238 6.91303C23.4488 7.20503 23.2788 8.13503 23.8858 8.74903C24.8398 9.71303 25.8028 10.668 26.7618 11.627C27.1008 11.966 27.4308 12.315 27.7848 12.638C27.9011 12.7427 28.0496 12.8044 28.2058 12.813C31.4338 12.8224 34.6615 12.824 37.8888 12.818V14.011C34.5198 14.011 31.1518 14.019 27.7828 14.005C27.5667 13.9882 27.3629 13.8974 27.2058 13.748C26.5848 13.162 25.9778 12.561 25.3948 11.938C25.1628 11.69 24.9238 11.618 24.5998 11.619C21.6665 11.629 18.7305 11.629 15.7918 11.619C14.6448 11.619 13.8388 10.738 13.9568 9.61903C13.9976 9.38962 14.0558 9.16363 14.1308 8.94303C13.3418 8.19203 13.2308 7.81803 13.4578 6.68803C12.8118 6.37703 12.3468 5.90103 12.1878 5.17103C12.125 4.87712 12.1262 4.57312 12.1915 4.27973C12.2567 3.98634 12.3844 3.71045 12.5658 3.47085C12.7472 3.23124 12.9782 3.03354 13.2429 2.89121C13.5076 2.74887 13.7999 2.66525 14.0998 2.64603C14.2168 2.63903 14.3338 2.64103 14.4508 2.64103C19.5741 2.64103 24.6971 2.63903 29.8198 2.63503C29.988 2.62761 30.1557 2.65717 30.3112 2.72161C30.4667 2.78606 30.6062 2.88383 30.7198 3.00803C31.7098 4.01936 32.7115 5.01936 33.7248 6.00803C33.8645 6.1362 34.0445 6.21154 34.2338 6.22103C35.4498 6.23603 36.6668 6.22103 37.8828 6.22103L37.8818 7.41403ZM23.7678 10.414L23.8318 10.326C23.5128 10.026 23.2028 9.71503 22.8698 9.43203C22.7481 9.32189 22.5942 9.25386 22.4308 9.23803C21.3798 9.22103 20.3308 9.22903 19.2788 9.22903C18.1228 9.22903 16.9668 9.22903 15.8108 9.22903C15.3368 9.22903 15.0578 9.54203 15.1438 9.95403C15.2078 10.254 15.4538 10.422 15.8668 10.422C18.4241 10.422 20.9811 10.422 23.5378 10.422C23.6148 10.429 23.6908 10.422 23.7678 10.418V10.414ZM22.5348 6.84903C22.4668 6.84903 22.4098 6.84003 22.3518 6.84003H15.2348C15.1764 6.83887 15.118 6.84121 15.0598 6.84703C14.9233 6.85416 14.7942 6.91133 14.6972 7.00763C14.6001 7.10392 14.542 7.23258 14.5338 7.36903C14.5104 7.50361 14.5386 7.64206 14.6127 7.75678C14.6869 7.87151 14.8015 7.95408 14.9338 7.98803C15.0686 8.02484 15.2082 8.04069 15.3478 8.03503C17.5478 8.03503 19.7448 8.03503 21.9388 8.03503H22.2458C22.3488 7.62003 22.4378 7.24903 22.5348 6.84903Z" fill="#30CFD0"/>
<path d="M27.7 20.6229C27.6969 21.6455 27.4923 22.6575 27.0981 23.6011C26.7038 24.5446 26.1276 25.4013 25.4023 26.1221C24.677 26.843 23.8168 27.4139 22.8708 27.8024C21.9248 28.1908 20.9116 28.3891 19.889 28.3859C18.8664 28.3828 17.8544 28.1782 16.9109 27.784C15.9673 27.3897 15.1107 26.8135 14.3898 26.0882C13.6689 25.3629 13.098 24.5027 12.7096 23.5567C12.3212 22.6107 12.1229 21.5975 12.126 20.5749C12.14 16.3039 15.644 12.8179 19.919 12.8209C21.9843 12.8275 23.9627 13.6523 25.4211 15.1147C26.8795 16.577 27.699 18.5577 27.7 20.6229ZM19.92 14.0169C18.6158 14.0153 17.3404 14.4007 16.2552 15.1242C15.17 15.8477 14.3239 16.8769 13.8238 18.0814C13.3237 19.286 13.1922 20.6118 13.4459 21.8912C13.6996 23.1705 14.3271 24.3458 15.249 25.2684C16.1709 26.191 17.3457 26.8194 18.6249 27.074C19.904 27.3287 21.23 27.1982 22.4349 26.699C23.6398 26.1999 24.6696 25.3545 25.394 24.2699C26.1183 23.1853 26.5046 21.9102 26.504 20.6059C26.498 18.8615 25.8028 17.1901 24.5699 15.956C23.3371 14.7218 21.6664 14.0248 19.922 14.0169H19.92Z" fill="#30CFD0"/>
<path d="M2.85205 23.519C3.03305 23.202 3.20105 22.908 3.37005 22.619C3.39885 22.5778 3.4306 22.5387 3.46505 22.502L4.32005 22.992L5.21105 23.5C4.70005 20.582 4.92505 17.8 6.00005 15.1C7.0523 12.4353 8.84653 10.1281 11.1701 8.45203C11.2471 8.55203 11.3121 8.63303 11.3701 8.71603C11.5341 8.94203 11.6961 9.16903 11.8641 9.40203C11.5041 9.70203 11.1461 9.96303 10.8241 10.266C6.71538 14.124 5.32038 18.7947 6.63905 24.278C6.65605 24.346 6.67705 24.413 6.69505 24.478C6.76805 24.759 6.74505 25.019 6.49505 25.202C6.26005 25.372 6.01605 25.343 5.77205 25.202C4.92272 24.71 4.07272 24.22 3.22205 23.732C3.10705 23.671 3.00005 23.606 2.85205 23.519Z" fill="#30CFD0"/>
<path d="M28.6719 32.8001L27.9609 31.8141C28.2549 31.5751 28.5459 31.3611 28.8119 31.1201C32.9373 27.3894 34.4333 22.8011 33.2999 17.3551C33.2339 17.0371 33.1999 16.7491 33.4919 16.5341C33.7839 16.3191 34.0609 16.4441 34.3309 16.6161C35.1869 17.1631 36.0479 17.7031 36.9059 18.2471C36.9249 18.2581 36.9369 18.2811 36.9839 18.3341C36.7899 18.6421 36.5889 18.9621 36.3679 19.3111L34.7439 18.3001C35.4099 24.2781 33.3849 29.0751 28.6719 32.8001Z" fill="#30CFD0"/>
<path d="M15.2002 22.4V19.183H18.6352V20.015H16.1892V20.568H18.5002V21.4H16.1892V22.4H15.2002Z" fill="#30CFD0"/>
<path d="M19.2998 22.4V19.193H20.2888V22.4H19.2998Z" fill="#30CFD0"/>
<path d="M20.9761 20.015V19.183H24.8001V20.015H23.3861V22.4H22.4001V20.015H20.9761Z" fill="#30CFD0"/>
</svg>
