<svg width="40" height="40" viewBox="0 0 40 40" fill="none" xmlns="http://www.w3.org/2000/svg">
<path d="M0.650879 32.257C0.825879 31.912 1.11188 31.799 1.48988 31.808C2.21788 31.825 2.94688 31.813 3.72588 31.813V11.889C3.72588 11.089 3.86688 10.945 4.66888 10.945H12.3259C12.2089 8.36896 13.0809 6.23196 15.0629 4.60196C16.4402 3.44806 18.206 2.86328 19.9999 2.96696C20.992 3.01106 21.9651 3.2546 22.8611 3.68305C23.757 4.1115 24.5575 4.71607 25.2147 5.46068C25.8718 6.2053 26.3722 7.07468 26.686 8.01694C26.9997 8.9592 27.1204 9.95503 27.0409 10.945H27.4789C30.1229 10.945 32.7669 10.945 35.4109 10.945C36.0799 10.945 36.2559 11.122 36.2559 11.797C36.2559 18.2943 36.2559 24.7913 36.2559 31.288V31.813H38.4399C39.1679 31.813 39.3879 32.056 39.3229 32.781C39.2351 33.8531 38.7478 34.8531 37.9575 35.5828C37.1672 36.3126 36.1316 36.7188 35.0559 36.721C25.0092 36.727 14.9619 36.727 4.91388 36.721C3.91615 36.7172 2.95114 36.3647 2.18594 35.7244C1.42074 35.0841 0.90354 34.1964 0.723879 33.215C0.705055 33.1464 0.68064 33.0795 0.650879 33.015V32.257ZM4.97288 31.779H35.0119V12.179C34.9219 12.172 34.8489 12.163 34.7769 12.163C32.2209 12.163 29.6649 12.163 27.1099 12.154C26.8329 12.154 26.7839 12.291 26.7199 12.495C26.2567 13.9972 25.3247 15.3116 24.0604 16.2457C22.796 17.1798 21.2658 17.6845 19.6938 17.6858C18.1218 17.6872 16.5907 17.1851 15.3248 16.2531C14.0588 15.3212 13.1246 14.0084 12.6589 12.507C12.5699 12.223 12.4419 12.154 12.1589 12.155C9.89188 12.168 7.62588 12.162 5.35888 12.162H4.97288V31.779ZM38.0249 33.069H1.95488C1.99488 33.218 2.01888 33.337 2.05488 33.451C2.49988 34.713 3.64988 35.5 5.05688 35.5H34.9299C35.0059 35.5 35.0809 35.5 35.1569 35.5C35.8368 35.47 36.4874 35.2149 37.0065 34.7748C37.5257 34.3348 37.8839 33.7347 38.0249 33.069ZM19.7059 4.18996C18.0814 4.18411 16.521 4.82322 15.3673 5.96694C14.2137 7.11066 13.5611 8.66548 13.5529 10.29C13.5319 13.674 16.2629 16.451 19.6259 16.468C20.4319 16.4732 21.2311 16.3197 21.9778 16.016C22.7245 15.7124 23.4041 15.2647 23.9778 14.6985C24.5515 14.1322 25.008 13.4585 25.3214 12.7158C25.6347 11.9731 25.7986 11.176 25.8039 10.37C25.8091 9.56391 25.6556 8.76471 25.352 8.01801C25.0484 7.2713 24.6006 6.59171 24.0344 6.01803C23.4681 5.44435 22.7944 4.98781 22.0518 4.6745C21.3091 4.36118 20.5119 4.19722 19.7059 4.19196V4.18996Z" fill="#30CFD0"/>
<path d="M30.12 24.4561C30.91 24.4561 31.65 24.4561 32.39 24.4561C32.69 24.4561 32.974 24.4871 33.125 24.7971C33.285 25.1241 33.133 25.3721 32.925 25.6131C31.563 27.1631 30.203 28.7147 28.845 30.2681C28.454 30.7141 28.11 30.7091 27.712 30.2561C26.344 28.6947 24.9773 27.1327 23.612 25.5701C23.412 25.34 23.312 25.1001 23.437 24.8131C23.562 24.5261 23.825 24.4531 24.125 24.4561C24.877 24.4631 25.63 24.4561 26.439 24.4561V23.9851C26.439 21.9724 26.439 19.9594 26.439 17.9461C26.439 17.2681 26.639 17.077 27.322 17.076H29.28C29.92 17.076 30.12 17.2761 30.12 17.9051C30.12 19.9311 30.12 21.9567 30.12 23.9821V24.4561ZM28.283 29.0441C29.268 27.9171 30.218 26.829 31.199 25.708H25.365L28.283 29.0441ZM28.873 24.4051V18.3361H27.7V24.4051H28.873Z" fill="#30CFD0"/>
<path d="M14.1652 23.215V23.661C14.1652 25.687 14.1652 27.7126 14.1652 29.738C14.1652 30.396 13.9652 30.591 13.3092 30.591C12.6172 30.591 11.9252 30.591 11.2332 30.591C10.6982 30.591 10.4762 30.368 10.4762 29.834C10.4762 27.7833 10.4762 25.7326 10.4762 23.682V23.215H8.65321C8.45321 23.215 8.23721 23.259 8.05321 23.202C7.84321 23.138 7.56221 23.025 7.49421 22.859C7.46063 22.7453 7.45272 22.6256 7.47106 22.5085C7.48939 22.3915 7.5335 22.2799 7.60021 22.182C8.17521 21.466 8.80021 20.788 9.40021 20.1C10.1782 19.21 10.9575 18.3206 11.7382 17.432C12.1382 16.976 12.4982 16.976 12.9002 17.432C14.2602 18.983 15.6142 20.539 16.9772 22.088C17.1872 22.327 17.2972 22.577 17.1582 22.877C17.0192 23.177 16.7582 23.221 16.4582 23.219C15.7102 23.21 14.9592 23.215 14.1652 23.215ZM9.40021 21.964H15.2352L12.3172 18.63L9.40021 21.964ZM11.7232 23.264V29.34H12.9002V23.263L11.7232 23.264Z" fill="#30CFD0"/>
<path d="M15.4849 11.7749V8.87488H18.5849V9.62488H16.3759V10.1249H18.4589V10.8749H16.3759V11.7749H15.4849Z" fill="#30CFD0"/>
<path d="M19.1758 11.779V8.88599H20.0668V11.779H19.1758Z" fill="#30CFD0"/>
<path d="M20.6909 9.62708V8.87708H24.1389V9.62708H22.8629V11.7751H21.9719V9.62708H20.6909Z" fill="#30CFD0"/>
</svg>
