<svg width="40" height="40" viewBox="0 0 40 40" fill="none" xmlns="http://www.w3.org/2000/svg">
<path d="M16.4352 0.774043C17.2222 0.850043 18.0102 0.912043 18.7952 1.00404C20.7732 1.23404 22.7262 1.59004 24.5472 2.43504C25.1581 2.72634 25.7338 3.08633 26.2632 3.50804C26.9202 4.02404 27.1852 4.73604 27.1802 5.59704C27.1582 9.34504 27.1802 13.097 27.1802 16.841V18.783C27.7882 18.817 28.3862 18.828 28.9802 18.883C33.3552 19.309 37.1462 22.812 37.9382 27.148C38.9452 32.656 35.5912 37.832 30.1632 39.148C25.4632 40.287 20.4782 37.848 18.4632 33.425C18.1882 32.825 18.1882 32.825 17.5412 32.875C14.3752 33.117 11.2332 32.952 8.13221 32.246C6.73221 31.927 5.37021 31.492 4.15521 30.686C3.17421 30.036 2.67521 29.192 2.68021 27.953C2.71521 20.482 2.70321 13.01 2.69021 5.53804C2.68035 5.14187 2.76118 4.74869 2.92652 4.38854C3.09186 4.02839 3.33735 3.7108 3.64421 3.46004C4.65821 2.58204 5.88221 2.12604 7.14421 1.76004C9.06021 1.20804 11.0252 0.939043 13.0142 0.832043C13.1485 0.817726 13.282 0.7967 13.4142 0.769043L16.4352 0.774043ZM14.9242 8.52104C15.8242 8.48004 16.7342 8.46204 17.6362 8.39204C19.6472 8.23704 21.6282 7.91704 23.5212 7.18604C24.2502 6.90504 24.9612 6.58604 25.5212 6.00904C26.0022 5.51504 26.0082 5.05304 25.5212 4.56104C25.3258 4.34757 25.0959 4.16841 24.8412 4.03104C24.1662 3.70204 23.4882 3.36004 22.7782 3.12504C20.7852 2.46304 18.7172 2.21304 16.6252 2.11104C13.6712 1.96804 10.7452 2.14304 7.87221 2.89004C6.76321 3.17704 5.67221 3.54004 4.73521 4.22304C3.74521 4.94004 3.71121 5.67304 4.73521 6.32304C5.51272 6.80742 6.34702 7.19401 7.21921 7.47404C9.71821 8.28504 12.3102 8.49004 14.9242 8.52104ZM3.98321 11.292C3.98321 11.736 4.01921 12.141 3.97521 12.536C3.89121 13.276 4.24521 13.761 4.82121 14.136C5.09313 14.3161 5.37639 14.4785 5.66921 14.622C6.92721 15.222 8.26921 15.558 9.62821 15.797C12.109 16.2183 14.6312 16.3418 17.1412 16.165C19.1142 16.038 21.0642 15.765 22.9482 15.127C23.7952 14.842 24.6352 14.527 25.3142 13.921C25.5472 13.714 25.8042 13.421 25.8432 13.136C25.9242 12.548 25.8672 11.936 25.8672 11.308C25.813 11.3277 25.7602 11.3511 25.7092 11.378C24.5902 12.11 23.3462 12.539 22.0592 12.85C18.8592 13.624 15.6042 13.816 12.3262 13.55C9.43421 13.3 6.58921 12.862 3.98321 11.292ZM25.8632 15.169C25.5082 15.369 25.1902 15.562 24.8552 15.726C23.1192 16.576 21.2552 16.966 19.3552 17.226C16.6363 17.6001 13.8808 17.6263 11.1552 17.304C9.20421 17.073 7.28021 16.72 5.46321 15.936C4.96321 15.72 4.49121 15.436 3.98021 15.176C3.98021 15.541 4.02021 15.886 3.97221 16.217C3.83421 17.164 4.31221 17.741 5.07221 18.168C5.28021 18.285 5.48621 18.407 5.70321 18.507C7.23621 19.207 8.86221 19.569 10.5222 19.802C12.7283 20.1053 14.9598 20.1797 17.1812 20.024C19.1552 19.892 21.1132 19.641 22.9812 18.963C23.7632 18.68 24.5082 18.271 25.2262 17.845C25.5012 17.682 25.7852 17.332 25.8332 17.031C25.9302 16.434 25.8632 15.812 25.8632 15.169ZM3.98321 7.40004C3.98321 7.96004 3.99221 8.45904 3.98321 8.95704C3.97142 9.12712 3.99903 9.29762 4.0639 9.45528C4.12877 9.61295 4.22914 9.75351 4.35721 9.86604C4.62121 10.095 4.88721 10.353 5.19921 10.491C6.02221 10.857 6.85021 11.236 7.71321 11.481C10.5212 12.281 13.4032 12.435 16.3052 12.33C18.5492 12.249 20.7702 11.995 22.9052 11.258C23.6705 10.9801 24.4072 10.6291 25.1052 10.21C25.4172 10.028 25.7662 9.67304 25.8282 9.34604C25.9442 8.73704 25.8622 8.09004 25.8622 7.41804C24.7312 8.16604 23.5242 8.61804 22.2622 8.92804C18.2162 9.92804 14.1302 10.021 10.0232 9.41104C7.92021 9.10004 5.87121 8.61904 3.98321 7.40004ZM3.98321 19.088C3.98321 19.432 4.02321 19.809 3.97421 20.174C3.86221 21.029 4.29821 21.551 4.96421 21.963C5.85021 22.509 6.81621 22.863 7.81621 23.118C11.4432 24.053 15.1162 24.139 18.8212 23.718C18.9824 23.679 19.1226 23.5799 19.2132 23.441C19.8681 22.4698 20.6767 21.6116 21.6072 20.9C21.7012 20.828 21.7922 20.752 21.8582 20.7C20.6162 20.877 19.3672 21.092 18.1092 21.228C16.0314 21.4445 13.9369 21.4486 11.8582 21.24C9.96521 21.06 8.09021 20.773 6.29721 20.117C5.51621 19.828 4.77021 19.443 3.98321 19.092V19.088ZM18.2642 25.1C17.8222 25.131 17.3642 25.172 16.8972 25.195C13.6802 25.354 10.4972 25.161 7.36721 24.327C6.18921 24.013 5.06021 23.578 3.98321 22.857C3.98321 23.294 4.02321 23.67 3.97421 24.035C3.86221 24.887 4.26021 25.471 4.96321 25.813C5.86321 26.249 6.78221 26.674 7.73721 26.953C10.1552 27.659 12.6492 27.839 15.1582 27.818C15.9702 27.812 16.7822 27.77 17.5362 27.747C17.7922 26.814 18.0272 25.96 18.2642 25.1ZM36.8292 29.109C36.8283 27.9245 36.594 26.7518 36.1397 25.6579C35.6853 24.564 35.0199 23.5703 34.1814 22.7337C33.3429 21.8971 32.3478 21.2338 31.2529 20.7819C30.1579 20.33 28.9847 20.0983 27.8002 20.1C22.8482 20.107 18.8062 24.151 18.8002 29.107C18.7942 34.063 22.8562 38.137 27.8212 38.138C30.2128 38.1338 32.5049 37.1804 34.1939 35.4872C35.883 33.794 36.8308 31.4996 36.8292 29.108V29.109ZM3.98321 26.722C3.98321 27.273 4.00221 27.739 3.97721 28.203C3.95815 28.4113 3.99196 28.6211 4.07552 28.8128C4.15908 29.0046 4.28967 29.1722 4.45521 29.3C4.71455 29.5179 4.99225 29.713 5.28521 29.883C6.31521 30.457 7.43521 30.788 8.57721 31.046C11.3352 31.668 14.1312 31.774 16.9422 31.64C17.2242 31.626 17.5052 31.59 17.7562 31.567C17.6562 30.695 17.5562 29.867 17.4622 29.105C16.8472 29.105 16.2572 29.096 15.6622 29.105C12.8322 29.153 10.0342 28.918 7.29421 28.174C6.14621 27.859 5.04021 27.428 3.98321 26.722Z" fill="#30CFD0"/>
<path d="M27.8488 20.747C32.4908 20.786 36.2288 24.552 36.1968 29.157C36.1638 33.781 32.3728 37.527 27.7678 37.484C26.6618 37.4781 25.568 37.2528 24.5497 36.8213C23.5313 36.3897 22.6087 35.7605 21.8352 34.97C21.0617 34.1794 20.4526 33.2433 20.0434 32.2158C19.6341 31.1883 19.4327 30.0899 19.4508 28.984C19.4998 24.431 23.2928 20.709 27.8488 20.747ZM27.8318 22.038C23.9428 22.026 20.7528 25.18 20.7318 29.056C20.7182 30.46 21.1218 31.8364 21.8916 33.0106C22.6614 34.1848 23.7627 35.1039 25.0556 35.6512C26.3486 36.1986 27.775 36.3496 29.1539 36.085C30.5328 35.8205 31.802 35.1523 32.8006 34.1653C33.7991 33.1782 34.482 31.9169 34.7626 30.5411C35.0431 29.1654 34.9087 27.7373 34.3764 26.4381C33.8441 25.1389 32.9379 24.027 31.7727 23.2437C30.6075 22.4603 29.2359 22.0406 27.8318 22.038Z" fill="#30CFD0"/>
<path d="M23.373 30.6299V27.5859H26.6251V28.3739H24.3101V28.8999H26.5001V29.6869H24.3101V30.6319L23.373 30.6299Z" fill="#30CFD0"/>
<path d="M27.25 30.634V27.6H28.186V30.638L27.25 30.634Z" fill="#30CFD0"/>
<path d="M28.8408 28.3739V27.5859H32.4628V28.3739H31.1228V30.6299H30.1868V28.3739H28.8408Z" fill="#30CFD0"/>
</svg>
