<svg width="40" height="40" viewBox="0 0 40 40" fill="none" xmlns="http://www.w3.org/2000/svg">
<path d="M5.64899 33.93V31.1222C5.3901 31.1222 5.15788 31.1289 4.92566 31.1222C4.4001 31.1055 4.15677 30.8733 4.15455 30.3555C4.14788 29.0385 4.14788 27.7218 4.15455 26.4055C4.15455 25.9078 4.40233 25.6767 4.90122 25.6622C5.13455 25.6622 5.36788 25.6622 5.63899 25.6622V22.8467C5.40788 22.8467 5.16455 22.8467 4.92122 22.8467C4.42677 22.8322 4.15899 22.5911 4.15566 22.1111C4.14603 20.7778 4.14603 19.447 4.15566 18.1189C4.15566 17.6078 4.43233 17.3733 4.99233 17.3722C7.09899 17.3722 9.20566 17.3722 11.3123 17.3722H11.8268C6.75899 14.2133 6.28233 7.16666 10.389 3.2611C14.0823 -0.256677 20.0623 0.0388783 23.369 3.91777C26.8334 7.98332 26.0668 14.2511 21.2679 17.3767H27.7379C28.8679 17.3767 28.9546 17.4655 28.9546 18.6133C28.9546 19.4722 28.9657 20.3322 28.9479 21.1911C28.9479 21.4789 29.0479 21.5644 29.319 21.6C33.4679 22.1389 36.5512 25.1844 37.1434 29.3144C37.8368 34.1567 34.2212 38.8067 29.3457 39.3355C28.9191 39.3818 28.4903 39.4059 28.0612 39.4078C20.4242 39.4122 12.7871 39.4122 5.1501 39.4078C4.33566 39.4078 4.1501 39.2244 4.1501 38.4078C4.1501 37.2152 4.1501 36.0233 4.1501 34.8322C4.1501 34.1589 4.37233 33.9433 5.05122 33.9367L5.64899 33.93ZM27.5923 18.7367H5.51566V21.4944H27.5923V18.7367ZM8.94899 9.78443C8.94899 13.9411 12.3512 17.3589 16.5045 17.3678C20.7268 17.3778 24.1712 13.9889 24.179 9.81221C24.1849 8.80527 23.9912 7.80714 23.6091 6.87548C23.227 5.94382 22.6641 5.09711 21.9529 4.38426C21.2417 3.6714 20.3963 3.10653 19.4655 2.72228C18.5347 2.33802 17.5371 2.14201 16.5301 2.14555C12.3479 2.1311 8.95122 5.55555 8.94899 9.78443ZM20.6812 30.4289C20.6768 31.4287 20.8695 32.4196 21.2483 33.3449C21.627 34.2703 22.1844 35.1119 22.8885 35.8217C23.5927 36.5315 24.4298 37.0956 25.352 37.4818C26.2743 37.8679 27.2636 38.0686 28.2634 38.0722C32.4134 38.1011 35.8679 34.71 35.9101 30.5644C35.9523 26.3489 32.5612 22.8633 28.399 22.8433C24.1112 22.8233 20.7112 26.1622 20.6812 30.4289ZM5.50122 38.0355H23.5557C22.5046 37.3333 21.6579 36.54 21.0001 35.56C20.8368 35.3155 20.6568 35.2555 20.3857 35.2555C15.5768 35.2622 10.7683 35.2622 5.9601 35.2555H5.50122V38.0355ZM23.5757 22.8767H7.0401V25.66H11.6801C14.589 25.66 17.4975 25.6578 20.4057 25.6533C20.5646 25.6533 20.7923 25.6011 20.869 25.4911C21.5949 24.4539 22.5139 23.5662 23.5757 22.8767ZM19.9312 27.0267H5.50677V29.7644H19.2912C19.5101 28.8311 19.7201 27.9333 19.9312 27.0267ZM19.9379 33.9155C19.7157 32.9767 19.5068 32.0678 19.2934 31.1567H7.04233V33.9155H19.9379Z" fill="#30CFD0"/>
<path d="M23.0602 9.75561C23.0612 10.6168 22.8915 11.4697 22.5607 12.2648C22.23 13.06 21.7448 13.7816 21.1332 14.388C20.5217 14.9944 19.7959 15.4735 18.998 15.7975C18.2001 16.1215 17.3458 16.284 16.4846 16.2756C12.8924 16.2534 10.0179 13.3012 10.0402 9.66338C10.0657 6.12005 13.0202 3.22449 16.5957 3.24227C20.1524 3.26005 23.0802 6.21005 23.0602 9.75561ZM21.7268 9.78449C21.7346 6.91783 19.4235 4.57449 16.5791 4.56227C15.2032 4.55962 13.8826 5.10364 12.9078 6.07466C11.933 7.04569 11.3839 8.36416 11.3813 9.74005C11.3786 11.1159 11.9227 12.4365 12.8937 13.4113C13.8647 14.3861 15.1832 14.9352 16.5591 14.9378C19.3791 14.9478 21.7213 12.6089 21.7291 9.78449H21.7268Z" fill="#30CFD0"/>
<path d="M21.7779 30.4378C21.7779 26.8911 24.7179 23.9434 28.2635 23.9434C31.8768 23.9434 34.819 26.8778 34.8079 30.4634C34.8174 31.326 34.6554 32.182 34.3314 32.9815C34.0074 33.7811 33.5279 34.5084 32.9206 35.1211C32.3133 35.7339 31.5904 36.22 30.7938 36.5511C29.9972 36.8823 29.1427 37.0519 28.28 37.0502C27.4173 37.0485 26.5635 36.8755 25.7682 36.5413C24.9729 36.207 24.2518 35.7181 23.647 35.103C23.0421 34.4878 22.5654 33.7587 22.2446 32.9578C21.9237 32.157 21.7651 31.3004 21.7779 30.4378ZM28.299 25.2745C27.2714 25.2716 26.266 25.5741 25.4106 26.1436C24.5551 26.7131 23.8881 27.5238 23.4942 28.473C23.1003 29.4221 22.9972 30.4669 23.198 31.4748C23.3989 32.4826 23.8946 33.4081 24.6223 34.1338C25.35 34.8594 26.2768 35.3525 27.2852 35.5506C28.2936 35.7486 29.3381 35.6426 30.2862 35.246C31.2343 34.8495 32.0432 34.1802 32.6102 33.3231C33.1773 32.4661 33.477 31.4599 33.4713 30.4322C33.4735 27.6189 31.1113 25.2678 28.3024 25.2745H28.299Z" fill="#30CFD0"/>
<path d="M12.9569 11.2056V8.66309H15.6739V9.32107H13.7399V9.75857H15.5672V10.4166H13.7399V11.2056H12.9569Z" fill="#30CFD0"/>
<path d="M16.1965 11.2091V8.6709H16.9786V11.2091H16.1965Z" fill="#30CFD0"/>
<path d="M17.5246 9.32107V8.66309H20.5507V9.32107H19.4309V11.2056H18.6488V9.32107H17.5246Z" fill="#30CFD0"/>
<path d="M24.639 31.7166V29.1741H27.356V29.8321H25.422V30.2696H27.2493V30.9275H25.422V31.7166H24.639Z" fill="#30CFD0"/>
<path d="M27.8786 31.7201V29.1819H28.6607V31.7201H27.8786Z" fill="#30CFD0"/>
<path d="M29.2067 29.8321V29.1741H32.2328V29.8321H31.113V31.7166H30.3309V29.8321H29.2067Z" fill="#30CFD0"/>
</svg>
