<svg width="40" height="40" viewBox="0 0 40 40" fill="none" xmlns="http://www.w3.org/2000/svg">
<g clip-path="url(#clip0_323_5962)">
<path d="M19.3668 28.0623H17.3191C15.9191 28.0623 14.5191 28.0534 13.1191 28.0734C12.907 28.085 12.7051 28.1685 12.5468 28.3101C11.9913 28.8301 11.4635 29.3812 10.9913 29.8657C11.1024 30.4668 11.2902 31.0134 11.2968 31.5623C11.318 33.1779 9.96907 34.4701 8.3424 34.4668C7.95353 34.4687 7.56812 34.3936 7.20843 34.2458C6.84873 34.098 6.52186 33.8804 6.24668 33.6056C5.9715 33.3309 5.75344 33.0043 5.6051 32.6448C5.45676 32.2854 5.38107 31.9001 5.3824 31.5112C5.3824 29.879 6.66462 28.5334 8.28129 28.5534C8.7624 28.5601 9.25129 28.7279 9.71684 28.8812C9.9224 28.949 10.0313 28.9523 10.178 28.7979C10.4924 28.4645 10.8257 28.1568 11.1957 27.7979C10.1957 27.1723 10.1402 26.2179 10.1813 25.2212C10.1991 24.7923 10.1813 24.3623 10.1813 23.9323C10.1891 23.3045 10.4113 23.0823 11.0313 23.0734C11.1691 23.0734 11.3068 23.0734 11.4757 23.0734V20.5956C11.3535 20.5879 11.2346 20.5734 11.1146 20.5734C9.71462 20.5734 8.31462 20.5801 6.91462 20.5656C6.6424 20.5656 6.51018 20.6279 6.41129 20.899C6.17608 21.5476 5.71978 22.0925 5.12259 22.438C4.5254 22.7835 3.82553 22.9075 3.14601 22.7881C2.46649 22.6686 1.8508 22.3135 1.40716 21.7852C0.963528 21.2568 0.720337 20.5889 0.720337 19.899C0.720337 19.2091 0.963528 18.5412 1.40716 18.0128C1.8508 17.4844 2.46649 17.1293 3.14601 17.0099C3.82553 16.8905 4.5254 17.0145 5.12259 17.3599C5.71978 17.7054 6.17608 18.2504 6.41129 18.899C6.50907 19.1679 6.63351 19.2501 6.91018 19.2468C8.30907 19.2301 9.70907 19.239 11.1091 19.239H11.4846V18.5134C11.4846 17.1279 11.4924 15.7357 11.4846 14.3557C11.4846 13.7823 11.5891 13.2545 11.9902 12.7734C11.3713 12.1545 10.768 11.5323 10.1302 10.9368C10.0568 10.8668 9.82684 10.8968 9.70462 10.9545C7.89462 11.8057 5.84129 10.7323 5.54795 8.75565C5.37462 7.57899 5.79906 6.61677 6.77018 5.94343C7.75573 5.25788 8.82573 5.21232 9.86907 5.80454C10.9124 6.39677 11.3946 7.31676 11.3268 8.5001C11.3046 8.87788 11.1313 9.24343 11.058 9.62121C11.0324 9.75232 11.0491 9.95454 11.1313 10.0345C11.7868 10.7123 12.4646 11.3679 13.1313 12.0345C13.2195 12.1164 13.3334 12.1652 13.4535 12.1723C15.4068 12.1801 17.3591 12.1723 19.3424 12.1723C19.3546 12.0479 19.3724 11.9423 19.3724 11.839C19.3724 10.1479 19.3724 8.45676 19.3802 6.76565C19.3802 6.50899 19.3213 6.38677 19.058 6.29232C18.4035 6.06467 17.8516 5.61121 17.5013 5.01333C17.1511 4.41545 17.0254 3.7123 17.1468 3.0301C17.2664 2.35849 17.6161 1.74947 18.1358 1.30768C18.6556 0.865891 19.313 0.618915 19.9951 0.609186C20.6772 0.599456 21.3414 0.827582 21.8736 1.25437C22.4057 1.68115 22.7727 2.27995 22.9113 2.94788C23.058 3.63252 22.9511 4.34715 22.6104 4.95886C22.2697 5.57056 21.7184 6.03771 21.0591 6.27343C20.7624 6.38454 20.698 6.52121 20.6991 6.80565C20.7102 8.58343 20.7046 10.3512 20.7046 12.1679C20.8557 12.1768 20.9868 12.1912 21.118 12.1912C22.8957 12.1912 24.6668 12.2012 26.4402 12.1812C26.6651 12.1714 26.8798 12.0843 27.048 11.9345C27.7413 11.2779 28.4068 10.5901 29.1057 9.89121C28.6435 9.05788 28.5213 8.17788 28.8624 7.26788C29.0941 6.63666 29.5411 6.10744 30.1246 5.77343C30.7127 5.42934 31.4019 5.29968 32.0748 5.40652C32.7477 5.51335 33.3628 5.85008 33.8154 6.35939C34.268 6.8687 34.5301 7.51911 34.5571 8.19993C34.5841 8.88074 34.3743 9.54987 33.9635 10.0934C33.2213 11.0723 31.728 11.7357 30.118 10.8712L28.0513 12.9101C28.448 13.3668 28.4957 13.9512 28.488 14.5568C28.4791 16.0534 28.488 17.5501 28.488 19.0468C28.4931 19.1024 28.5012 19.1576 28.5124 19.2123C28.6235 19.2201 28.7402 19.2379 28.8568 19.2379C30.3013 19.2379 31.7457 19.2379 33.1813 19.2445C33.4413 19.2445 33.5591 19.1823 33.6535 18.9212C33.8793 18.2738 34.3262 17.7267 34.9156 17.3764C35.505 17.026 36.1991 16.8947 36.8757 17.0057C37.5522 17.117 38.1683 17.4615 38.6173 17.9795C39.0664 18.4976 39.3199 19.1564 39.334 19.8418C39.3481 20.5272 39.1219 21.1959 38.6946 21.732C38.2673 22.2681 37.6659 22.6377 36.9946 22.7768C36.3085 22.9236 35.5925 22.8156 34.9801 22.4732C34.3677 22.1307 33.9009 21.5771 33.6669 20.9157C33.5557 20.6168 33.418 20.5545 33.1346 20.5568C31.7346 20.569 30.3346 20.5623 28.9346 20.5623H28.5046V23.0656C28.7202 23.0656 28.9368 23.0545 29.1524 23.0656C29.5968 23.0912 29.8446 23.3379 29.8502 23.7779C29.8591 24.5556 29.8657 25.3334 29.8502 26.1112C29.8313 26.8112 29.4813 27.3445 28.9491 27.7223L30.1657 28.9068C30.5347 28.6995 30.9437 28.5736 31.3653 28.5376C31.787 28.5015 32.2114 28.5562 32.6102 28.6979C33.2611 28.9152 33.8129 29.3582 34.1657 29.9468C34.5222 30.528 34.6674 31.2144 34.5769 31.8903C34.4863 32.5661 34.1656 33.1901 33.6686 33.657C33.1717 34.1239 32.529 34.4053 31.8488 34.4536C31.1686 34.5019 30.4926 34.3143 29.9346 33.9223C28.6668 33.0334 28.3613 31.589 29.0957 29.9123C28.5246 29.3379 27.9535 28.7545 27.3691 28.1845C27.2742 28.1099 27.1564 28.0707 27.0357 28.0734C24.9846 28.0668 22.9324 28.0734 20.8813 28.0734C20.8309 28.0794 20.7811 28.0894 20.7324 28.1034C20.7235 28.2145 20.7068 28.339 20.7068 28.4579C20.7068 29.9823 20.7068 31.5079 20.7002 33.0323C20.7002 33.289 20.7613 33.4079 21.0246 33.5023C21.6714 33.7289 22.2177 34.1761 22.5675 34.7653C22.9174 35.3546 23.0486 36.0482 22.938 36.7245C22.8281 37.402 22.4842 38.0195 21.9661 38.4697C21.448 38.9198 20.7886 39.1742 20.1024 39.1884C19.4162 39.2027 18.7467 38.976 18.2104 38.5478C17.6741 38.1195 17.3048 37.5168 17.1668 36.8445C16.8602 35.439 17.6646 34.0145 19.0557 33.4823C19.1824 33.4334 19.3646 33.2934 19.3657 33.1934C19.3724 31.5001 19.3668 29.8101 19.3668 28.0623ZM27.1446 20.739V20.2868C27.1446 18.3186 27.1446 16.3508 27.1446 14.3834C27.1446 13.6679 26.9724 13.4945 26.2668 13.4945H13.7113C13.0113 13.4945 12.8402 13.6679 12.8402 14.3834C12.8402 16.3508 12.8402 18.3186 12.8402 20.2868C12.8402 20.4323 12.8546 20.5779 12.8635 20.7312L27.1446 20.739ZM11.5457 24.4123V25.6812C11.5457 26.5456 11.7302 26.7312 12.5891 26.7312H27.478C27.6302 26.7312 27.8168 26.7768 27.9224 26.7057C28.138 26.5668 28.4491 26.3723 28.478 26.1768C28.5524 25.5979 28.5046 25.0034 28.5046 24.4279H23.9557C23.9224 24.6501 23.9102 24.8468 23.8646 25.0334C23.7224 25.6134 23.2435 26.0501 22.6513 26.0568C20.8224 26.0745 18.9928 26.0745 17.1624 26.0568C16.8753 26.0463 16.6 25.9397 16.3806 25.7542C16.1612 25.5686 16.0104 25.3148 15.9524 25.0334C15.9046 24.8345 15.8891 24.629 15.8568 24.4123H11.5457ZM12.8568 23.0312H27.1224V22.0934H12.8568V23.0312ZM31.598 9.92565C31.9129 9.9252 32.2206 9.83158 32.4824 9.65657C32.7442 9.48157 32.9484 9.23301 33.0692 8.94219C33.19 8.65138 33.222 8.33132 33.1613 8.02233C33.1005 7.71334 32.9497 7.42923 32.7278 7.20579C32.5059 6.98235 32.2229 6.82956 31.9143 6.76668C31.6057 6.7038 31.2855 6.73363 30.9938 6.85242C30.7022 6.9712 30.4522 7.17363 30.2754 7.43421C30.0986 7.69479 30.0028 8.00187 30.0002 8.31676C29.9961 8.52822 30.0346 8.73833 30.1134 8.93462C30.1921 9.13091 30.3095 9.30938 30.4585 9.45945C30.6075 9.60951 30.7852 9.72811 30.9809 9.80819C31.1766 9.88828 31.3865 9.92822 31.598 9.92565ZM31.6491 29.8668C31.3342 29.8575 31.0236 29.9418 30.7565 30.1088C30.4894 30.2758 30.2777 30.5181 30.1481 30.8052C30.0185 31.0924 29.9768 31.4114 30.0283 31.7222C30.0797 32.033 30.222 32.3216 30.4372 32.5517C30.6525 32.7817 30.931 32.9429 31.2376 33.0149C31.5443 33.087 31.8654 33.0666 32.1606 32.9564C32.4557 32.8462 32.7116 32.6511 32.896 32.3957C33.0804 32.1403 33.1851 31.836 33.1968 31.5212C33.2064 31.3103 33.1736 31.0997 33.1006 30.9016C33.0275 30.7036 32.9156 30.5222 32.7714 30.368C32.6272 30.2139 32.4536 30.0901 32.2608 30.004C32.0681 29.918 31.8601 29.8713 31.6491 29.8668ZM8.42684 33.0457C8.74078 33.0403 9.04607 32.942 9.30408 32.763C9.56209 32.5841 9.7612 32.3326 9.87623 32.0405C9.99126 31.7483 10.017 31.4286 9.95026 31.1218C9.88349 30.815 9.72721 30.5349 9.50118 30.317C9.27515 30.0991 8.98955 29.9531 8.68052 29.8976C8.37149 29.842 8.05293 29.8794 7.76517 30.005C7.4774 30.1306 7.23337 30.3388 7.06397 30.6031C6.89456 30.8675 6.8074 31.1762 6.81351 31.4901C6.82111 31.9094 6.9946 32.3085 7.29597 32.6001C7.59734 32.8917 8.002 33.0519 8.42129 33.0457H8.42684ZM21.6246 3.52121C21.6205 3.2073 21.5237 2.90161 21.3464 2.64252C21.1691 2.38343 20.9192 2.1825 20.6281 2.06493C20.337 1.94737 20.0176 1.91843 19.7101 1.98173C19.4027 2.04504 19.1207 2.19777 18.8997 2.42075C18.6787 2.64374 18.5285 2.92704 18.468 3.23509C18.4075 3.54314 18.4393 3.86221 18.5594 4.15224C18.6796 4.44227 18.8828 4.69034 19.1435 4.8653C19.4041 5.04026 19.7107 5.13431 20.0246 5.13565C20.2363 5.13686 20.4461 5.09582 20.6417 5.01493C20.8373 4.93404 21.0148 4.81494 21.1638 4.66459C21.3128 4.51424 21.4303 4.33567 21.5094 4.13934C21.5886 3.94301 21.6277 3.73286 21.6246 3.52121ZM3.69795 21.4901C4.01177 21.4833 4.31658 21.384 4.57415 21.2046C4.83172 21.0252 5.03056 20.7737 5.14572 20.4817C5.26088 20.1897 5.28723 19.8702 5.22147 19.5633C5.1557 19.2564 5.00075 18.9757 4.77606 18.7566C4.55136 18.5374 4.26694 18.3895 3.95848 18.3313C3.65002 18.2732 3.33127 18.3075 3.04223 18.4299C2.75319 18.5523 2.50673 18.7573 2.3338 19.0193C2.16087 19.2812 2.06915 19.5884 2.07018 19.9023C2.07011 20.1142 2.11246 20.324 2.19475 20.5193C2.27703 20.7146 2.39757 20.8915 2.54928 21.0394C2.70098 21.1874 2.88077 21.3035 3.07805 21.3809C3.27532 21.4583 3.4861 21.4954 3.69795 21.4901ZM36.3913 21.4901C36.7052 21.4892 37.0118 21.3956 37.2727 21.221C37.5336 21.0465 37.7371 20.7987 37.8577 20.5089C37.9783 20.2191 38.0106 19.9002 37.9506 19.5921C37.8906 19.284 37.7409 19.0005 37.5203 18.7771C37.2997 18.5538 37.0181 18.4006 36.7108 18.3368C36.4035 18.2729 36.0841 18.3012 35.7928 18.4182C35.5016 18.5352 35.2513 18.7356 35.0735 18.9943C34.8957 19.253 34.7983 19.5585 34.7935 19.8723C34.7901 20.084 34.829 20.2943 34.9078 20.4908C34.9867 20.6873 35.1039 20.8661 35.2527 21.0167C35.4015 21.1674 35.5788 21.2868 35.7743 21.3681C35.9698 21.4494 36.1796 21.4909 36.3913 21.4901ZM21.6257 36.2679C21.6263 35.954 21.5342 35.6469 21.3609 35.3852C21.1876 35.1235 20.9409 34.9188 20.6517 34.7968C20.3624 34.6748 20.0436 34.6409 19.7353 34.6995C19.4269 34.758 19.1427 34.9063 18.9183 35.1258C18.6939 35.3453 18.5393 35.6262 18.474 35.9332C18.4086 36.2402 18.4354 36.5597 18.551 36.8515C18.6666 37.1433 18.8658 37.3945 19.1236 37.5736C19.3814 37.7526 19.6864 37.8515 20.0002 37.8579C20.2125 37.8634 20.4238 37.8261 20.6215 37.7484C20.8192 37.6706 20.9992 37.5539 21.1508 37.4051C21.3025 37.2564 21.4227 37.0786 21.5042 36.8825C21.5858 36.6864 21.6271 36.4758 21.6257 36.2634V36.2679ZM8.44462 9.92565C8.75778 9.92275 9.06303 9.82691 9.32165 9.6503C9.58027 9.47368 9.78062 9.22424 9.89728 8.9336C10.0139 8.64297 10.0417 8.32423 9.97694 8.01782C9.91221 7.7114 9.75795 7.43112 9.5337 7.2125C9.30946 6.99388 9.02535 6.84677 8.71739 6.78984C8.40943 6.73291 8.0915 6.76872 7.80392 6.89272C7.51634 7.01673 7.27207 7.22334 7.10207 7.48636C6.93207 7.74938 6.84402 8.05696 6.84906 8.3701C6.84698 8.57836 6.88713 8.78487 6.96709 8.97718C7.04705 9.16949 7.16516 9.34359 7.31429 9.48898C7.46341 9.63437 7.64046 9.74802 7.83474 9.82307C8.02901 9.89813 8.23648 9.93302 8.44462 9.92565ZM19.9068 24.3945C19.1291 24.3945 18.358 24.3879 17.5835 24.4023C17.4657 24.4023 17.348 24.5045 17.2313 24.559C17.3424 24.6201 17.4535 24.7323 17.5646 24.7334C19.1268 24.7445 20.6894 24.7445 22.2524 24.7334C22.3635 24.7334 22.4746 24.6157 22.5857 24.5523C22.4657 24.5001 22.3468 24.4034 22.2268 24.4012C21.4557 24.3879 20.6813 24.3945 19.9068 24.3945Z" fill="#30CFD0"/>
</g>
<defs>
<clipPath id="clip0_323_5962">
<rect width="40" height="40" fill="white"/>
</clipPath>
</defs>
</svg>
