<svg width="40" height="40" viewBox="0 0 40 40" fill="none" xmlns="http://www.w3.org/2000/svg">
<g clip-path="url(#clip0_323_5946)">
<g clip-path="url(#clip1_323_5946)">
<path d="M39.2501 20C39.2501 30.6315 30.6316 39.25 20.0001 39.25C9.36864 39.25 0.750122 30.6315 0.750122 20C0.750122 9.36852 9.36864 0.75 20.0001 0.75C30.6316 0.75 39.2501 9.36852 39.2501 20Z" stroke="#30CFD0" stroke-width="1.5"/>
<path d="M14.6594 17.8058L19.9999 12.4654L25.3431 17.8085L28.4506 14.701L19.9999 6.25L11.552 14.6983L14.6594 17.8058ZM6.25012 19.9996L9.35771 16.892L12.4651 19.9994L9.35753 23.107L6.25012 19.9996ZM14.6594 22.1942L19.9999 27.5346L25.343 22.1916L28.4521 25.2975L28.4506 25.2991L19.9999 33.75L11.5517 25.302L11.5473 25.2976L14.6594 22.1942ZM27.5352 20.0013L30.6427 16.8937L33.7501 20.0011L30.6426 23.1087L27.5352 20.0013Z" stroke="#30CFD0" stroke-width="1.5"/>
<path d="M17.6918 19.1832L20.0001 16.875L23.1236 20.0016L20.0001 23.125L16.8795 20.0044L16.8751 19.9999L16.8795 19.9956L17.4265 19.4485L17.6918 19.1832Z" stroke="#30CFD0" stroke-width="1.5"/>
</g>
</g>
<defs>
<clipPath id="clip0_323_5946">
<rect width="40" height="40" fill="white"/>
</clipPath>
<clipPath id="clip1_323_5946">
<rect width="40" height="40" fill="white"/>
</clipPath>
</defs>
</svg>
