<svg width="40" height="40" viewBox="0 0 40 40" fill="none" xmlns="http://www.w3.org/2000/svg">
<g clip-path="url(#clip0_323_5939)">
<path d="M16.2614 12.4722V9.92969H18.9784V10.5877H17.0443V11.0252H18.8716V11.6832H17.0443V12.4722H16.2614Z" fill="#30CFD0"/>
<path d="M19.5009 12.4757V9.9375H20.2831V12.4757H19.5009Z" fill="#30CFD0"/>
<path d="M20.8291 10.5877V9.92969H23.8551V10.5877H22.7353V12.4722H21.9532V10.5877H20.8291Z" fill="#30CFD0"/>
<path d="M36.5001 29.1277C37.1901 29.1277 37.8234 29.1277 38.4578 29.1277C39.0923 29.1277 39.3067 29.35 39.3078 29.9744C39.3078 31.1388 39.3145 32.3077 39.3078 33.4677C39.2956 35.4411 37.8934 36.9122 35.9234 37.0177C35.8401 37.0177 35.7567 37.0177 35.6734 37.0177C25.2378 37.0177 14.8023 37.0177 4.36673 37.0177C2.63562 37.0177 1.27673 36.0255 0.850065 34.4622C0.776183 34.2092 0.735106 33.9478 0.727843 33.6844C0.714509 32.41 0.714509 31.1355 0.721176 29.86C0.721176 29.3655 0.967843 29.1322 1.47229 29.1255C2.09229 29.1188 2.71229 29.1255 3.38006 29.1255V10.4744C3.38006 8.27884 4.72895 6.93773 6.93562 6.93662C8.50229 6.93662 10.0678 6.93662 11.6334 6.93662C11.733 6.94724 11.8335 6.92704 11.9214 6.87877C12.0092 6.83049 12.0801 6.75645 12.1245 6.66662C15.7045 0.618843 24.1845 0.617732 27.7656 6.66662C27.8087 6.75761 27.8787 6.83317 27.9661 6.88305C28.0536 6.93293 28.1543 6.95474 28.2545 6.94551C29.8623 6.93551 31.4701 6.93773 33.0778 6.94551C35.1212 6.94551 36.4967 8.31107 36.4978 10.3577C36.5045 16.4148 36.5045 22.4711 36.4978 28.5266L36.5001 29.1277ZM20.6245 20.2555C20.5567 20.6888 20.5578 21.0333 21.0334 21.3555C21.8745 21.92 21.9223 23.1777 21.2167 23.9211C21.0485 24.1019 20.844 24.2451 20.6167 24.3414C20.3893 24.4377 20.1442 24.485 19.8973 24.4801C19.6504 24.4751 19.4073 24.4181 19.184 24.3128C18.9606 24.2075 18.762 24.0562 18.6012 23.8688C17.9345 23.1277 18.0156 21.8811 18.8534 21.3377C19.3512 21.0155 19.2801 20.6555 19.2378 20.2077C17.0156 19.9855 15.1056 19.1366 13.5378 17.5655C11.9701 15.9944 11.1245 14.0855 10.909 11.8888H10.3012C10.2945 12 10.2845 12.0777 10.2845 12.1588C10.2845 15.0277 10.2845 17.8966 10.2756 20.7655C10.2756 21.0277 10.4023 21.1188 10.5834 21.2355C10.8218 21.3908 11.0192 21.6012 11.159 21.849C11.2987 22.0967 11.3767 22.3745 11.3863 22.6588C11.396 22.9432 11.3369 23.2256 11.2142 23.4822C11.0915 23.7389 10.9087 23.9622 10.6813 24.1332C10.454 24.3042 10.1888 24.4178 9.90819 24.4646C9.62759 24.5113 9.33985 24.4897 9.06936 24.4017C8.79886 24.3136 8.55358 24.1616 8.35429 23.9586C8.155 23.7556 8.00758 23.5076 7.92451 23.2355C7.80623 22.8693 7.8142 22.4739 7.94715 22.1128C8.0801 21.7516 8.33034 21.4454 8.65784 21.2433C8.75802 21.1916 8.84033 21.111 8.89404 21.0119C8.94775 20.9128 8.97037 20.7999 8.95895 20.6877C8.95006 17.5966 8.95006 14.5059 8.95895 11.4155C8.95895 10.7688 9.18117 10.5422 9.83562 10.5366C10.189 10.5366 10.5423 10.5366 10.8612 10.5366L11.3134 8.27662H6.85006C5.48229 8.27662 4.71006 9.04551 4.71006 10.41C4.71006 15.1781 4.71006 19.9459 4.71006 24.7133V25.15H35.1545C35.1623 25.0388 35.1723 24.9588 35.1723 24.8777C35.1723 19.9985 35.1723 15.12 35.1723 10.2422C35.1723 9.0644 34.3512 8.28107 33.1623 8.27773C31.7178 8.27773 30.279 8.27773 28.8378 8.27773C28.7345 8.27773 28.6323 8.29107 28.5467 8.29773C28.7012 9.05218 28.8501 9.77884 29.0056 10.5366H29.8267C30.7334 10.5366 30.9045 10.7055 30.9045 11.5944C30.9045 14.6166 30.9045 17.6381 30.9045 20.6588C30.9045 20.93 30.9578 21.1033 31.2134 21.2588C31.5389 21.4642 31.7856 21.7733 31.9137 22.1363C32.0417 22.4992 32.0436 22.8947 31.919 23.2588C31.8032 23.6178 31.5764 23.9306 31.2712 24.1521C30.966 24.3736 30.5983 24.4923 30.2212 24.4911C29.8416 24.4855 29.4736 24.3597 29.1701 24.1317C28.8666 23.9037 28.6433 23.5852 28.5323 23.2222C28.4167 22.8551 28.4275 22.4598 28.5628 22.0995C28.6982 21.7392 28.9503 21.4347 29.279 21.2344C29.5212 21.0877 29.5723 20.9255 29.5723 20.67C29.5645 17.8844 29.5723 15.0988 29.5723 12.3133C29.5723 12.1777 29.5601 12.0422 29.5534 11.89H29.0001C28.2145 16.72 25.4445 19.5011 20.6245 20.2555ZM12.2601 30.4911H2.04784V31.3511C2.04784 32.03 2.04784 32.7089 2.04784 33.3877C2.04784 34.7855 2.93673 35.69 4.3234 35.6911C14.7878 35.6911 25.2523 35.6911 35.7167 35.6911C35.7723 35.6911 35.8278 35.6911 35.8834 35.6911C37.1056 35.6189 37.9645 34.7266 37.9756 33.4966C37.9823 32.5955 37.9756 31.6944 37.9756 30.7933C37.9712 30.6892 37.9616 30.5853 37.9467 30.4822H27.1878C27.1878 30.7777 27.199 31.0522 27.1878 31.3244C27.1323 32.5033 26.2434 33.3789 25.059 33.3822C21.5115 33.3911 17.9634 33.3911 14.4145 33.3822C13.9169 33.3862 13.4343 33.2116 13.0544 32.8901C12.6746 32.5686 12.4227 32.1214 12.3445 31.63C12.2963 31.2521 12.2681 30.8719 12.2601 30.4911ZM35.149 26.5366H4.73451V29.1022H35.149V26.5366ZM19.9112 18.9066C20.9289 18.9078 21.9368 18.7081 22.8772 18.3189C23.8175 17.9298 24.6719 17.3588 25.3911 16.6388C26.1104 15.9189 26.6805 15.064 27.0687 14.1232C27.4569 13.1825 27.6556 12.1743 27.6534 11.1566C27.659 6.92662 24.1634 3.46329 19.8912 3.46551C15.7001 3.46551 12.209 6.96329 12.209 11.1555C12.2101 15.4244 15.6734 18.91 19.9112 18.9066ZM13.6312 30.4822C13.6312 30.6333 13.6312 30.73 13.6312 30.8266C13.6656 31.8677 13.8534 32.0544 14.8945 32.0544H23.7412C24.1856 32.0544 24.6301 32.0633 25.0745 32.0544C25.519 32.0455 25.8256 31.7866 25.8801 31.3666C25.9011 31.0737 25.9037 30.7798 25.8878 30.4866L13.6312 30.4822ZM30.1256 23.2044H30.3067C30.4178 23.0333 30.6334 22.8577 30.6267 22.6911C30.6201 22.5444 30.3878 22.32 30.2245 22.2877C30.1662 22.2754 30.1057 22.2779 30.0486 22.2951C29.9916 22.3123 29.9398 22.3436 29.898 22.3861C29.8562 22.4287 29.8259 22.4811 29.8097 22.5384C29.7936 22.5958 29.7922 22.6563 29.8056 22.7144C29.8356 22.8888 30.0134 23.0433 30.1256 23.2044ZM9.12562 22.6033L9.13229 22.8011C9.30673 22.9122 9.48895 23.1144 9.65229 23.1011C9.79895 23.0877 10.0078 22.8533 10.0423 22.6855C10.0565 22.6277 10.0557 22.5672 10.0399 22.5098C10.0241 22.4524 9.99389 22.4 9.95212 22.3575C9.91036 22.3151 9.85843 22.2841 9.80128 22.2674C9.74413 22.2507 9.68366 22.2489 9.62562 22.2622C9.44451 22.2933 9.28784 22.4833 9.12229 22.6033H9.12562ZM20.4312 22.7977V22.5988C20.2578 22.4877 20.0767 22.2855 19.9145 22.2988C19.7523 22.3122 19.5567 22.5411 19.5201 22.7077C19.5052 22.7654 19.5054 22.8259 19.5206 22.8835C19.5357 22.9411 19.5654 22.9938 19.6067 23.0367C19.6481 23.0796 19.6997 23.1112 19.7567 23.1285C19.8136 23.1458 19.8741 23.1482 19.9323 23.1355C20.1112 23.1111 20.2612 22.9155 20.4278 22.7977H20.4312Z" fill="#30CFD0"/>
<path d="M19.9312 28.4789C19.5979 28.4789 19.2646 28.4911 18.9312 28.4789C18.7562 28.4789 18.5883 28.4094 18.4645 28.2856C18.3408 28.1618 18.2712 27.9939 18.2712 27.8189C18.2712 27.6438 18.3408 27.476 18.4645 27.3522C18.5883 27.2284 18.7562 27.1589 18.9312 27.1589C19.5979 27.1433 20.2627 27.1433 20.9257 27.1589C21.0129 27.1572 21.0996 27.1732 21.1805 27.2058C21.2614 27.2385 21.3348 27.2871 21.3965 27.3489C21.4581 27.4106 21.5066 27.4842 21.5392 27.5651C21.5717 27.6461 21.5875 27.7328 21.5857 27.82C21.5857 28.1833 21.3201 28.4489 20.919 28.4867C20.8912 28.4867 20.8635 28.4867 20.8357 28.4867H19.9212L19.9312 28.4789Z" fill="#30CFD0"/>
<path d="M19.9512 17.76C16.3412 17.7767 13.3679 14.8311 13.3601 11.23C13.3523 7.59891 16.2757 4.62335 19.8646 4.60891C20.7281 4.60322 21.5843 4.76766 22.3842 5.09286C23.1842 5.41805 23.9123 5.89763 24.5269 6.5042C25.1415 7.11078 25.6306 7.83247 25.9663 8.62807C26.3021 9.42368 26.4778 10.2776 26.4835 11.1411C26.4892 12.0046 26.3247 12.8608 25.9995 13.6608C25.6743 14.4607 25.1947 15.1888 24.5882 15.8034C23.9816 16.4181 23.2599 16.9072 22.4643 17.2429C21.6687 17.5786 20.8148 17.7543 19.9512 17.76ZM25.179 11.2134C25.1843 10.5225 25.0528 9.83744 24.792 9.19768C24.5312 8.55791 24.1464 7.97608 23.6597 7.48576C23.173 6.99544 22.594 6.60632 21.9562 6.34083C21.3184 6.07534 20.6343 5.93874 19.9435 5.93891C17.0757 5.92891 14.6912 8.30002 14.6901 11.1611C14.6868 11.8498 14.8192 12.5325 15.0798 13.17C15.3403 13.8075 15.7238 14.3875 16.2085 14.8768C17.1873 15.8651 18.5187 16.4239 19.9096 16.4306C21.3005 16.4372 22.6371 15.891 23.6253 14.9122C24.6135 13.9334 25.1724 12.602 25.179 11.2111V11.2134Z" fill="#30CFD0"/>
</g>
<defs>
<clipPath id="clip0_323_5939">
<rect width="40" height="40" fill="white"/>
</clipPath>
</defs>
</svg>
