<svg width="375" height="541" viewBox="0 0 375 541" fill="none" xmlns="http://www.w3.org/2000/svg">
<line x1="276.646" y1="164.151" x2="297.151" y2="143.647" stroke="#C1D1D6"/>
<line x1="276.75" y1="199.215" x2="319.442" y2="174.567" stroke="#C1D1D6"/>
<line x1="289.25" y1="322.567" x2="326.292" y2="343.953" stroke="#C1D1D6"/>
<line x1="310.039" y1="274.502" x2="344.732" y2="277.201" stroke="#C1D1D6"/>
<line x1="61.3536" y1="137.646" x2="81.8583" y2="158.151" stroke="#C1D1D6"/>
<line x1="290.871" y1="233.651" x2="339.888" y2="220.517" stroke="#C1D1D6"/>
<path d="M56.6562 138H55.375V128.32C55.276 128.419 55.1302 128.534 54.9375 128.664C54.75 128.789 54.5365 128.914 54.2969 129.039C54.0625 129.164 53.8125 129.281 53.5469 129.391C53.2865 129.5 53.0312 129.586 52.7812 129.648V128.352C53.0625 128.273 53.3594 128.169 53.6719 128.039C53.9896 127.904 54.2995 127.755 54.6016 127.594C54.9089 127.427 55.1979 127.255 55.4688 127.078C55.7396 126.896 55.974 126.719 56.1719 126.547H56.6562V138Z" fill="black"/>
<path d="M306.031 135.734C306.031 135.391 305.977 135.091 305.867 134.836C305.763 134.581 305.617 134.37 305.43 134.203C305.247 134.031 305.031 133.904 304.781 133.82C304.531 133.737 304.26 133.695 303.969 133.695C303.719 133.695 303.474 133.729 303.234 133.797C302.995 133.865 302.76 133.958 302.531 134.078C302.307 134.198 302.089 134.341 301.875 134.508C301.667 134.674 301.471 134.859 301.289 135.062V133.688C301.648 133.339 302.049 133.073 302.492 132.891C302.94 132.703 303.484 132.609 304.125 132.609C304.583 132.609 305.008 132.677 305.398 132.812C305.789 132.943 306.128 133.135 306.414 133.391C306.701 133.646 306.924 133.961 307.086 134.336C307.253 134.711 307.336 135.141 307.336 135.625C307.336 136.068 307.284 136.469 307.18 136.828C307.081 137.188 306.927 137.526 306.719 137.844C306.516 138.161 306.258 138.466 305.945 138.758C305.633 139.049 305.266 139.346 304.844 139.648C304.318 140.023 303.883 140.344 303.539 140.609C303.201 140.875 302.93 141.125 302.727 141.359C302.529 141.589 302.388 141.82 302.305 142.055C302.227 142.284 302.188 142.549 302.188 142.852H307.766V144H300.852V143.445C300.852 142.966 300.904 142.544 301.008 142.18C301.112 141.815 301.284 141.469 301.523 141.141C301.763 140.812 302.076 140.484 302.461 140.156C302.852 139.828 303.328 139.458 303.891 139.047C304.297 138.755 304.635 138.477 304.906 138.211C305.182 137.945 305.404 137.68 305.57 137.414C305.737 137.148 305.854 136.88 305.922 136.609C305.995 136.333 306.031 136.042 306.031 135.734Z" fill="black"/>
<path d="M331.445 173.828C331.445 174.333 331.349 174.794 331.156 175.211C330.969 175.622 330.701 175.977 330.352 176.273C330.008 176.565 329.594 176.792 329.109 176.953C328.625 177.115 328.091 177.195 327.508 177.195C326.44 177.195 325.591 176.992 324.961 176.586V175.211C325.716 175.805 326.581 176.102 327.555 176.102C327.945 176.102 328.297 176.052 328.609 175.953C328.927 175.854 329.198 175.711 329.422 175.523C329.651 175.336 329.826 175.109 329.945 174.844C330.07 174.578 330.133 174.279 330.133 173.945C330.133 172.482 329.091 171.75 327.008 171.75H326.078V170.664H326.961C328.805 170.664 329.727 169.977 329.727 168.602C329.727 167.331 329.023 166.695 327.617 166.695C326.826 166.695 326.083 166.961 325.391 167.492V166.25C326.104 165.823 326.953 165.609 327.938 165.609C328.406 165.609 328.831 165.674 329.211 165.805C329.591 165.935 329.917 166.117 330.188 166.352C330.458 166.586 330.667 166.867 330.812 167.195C330.964 167.523 331.039 167.885 331.039 168.281C331.039 169.755 330.294 170.703 328.805 171.125V171.156C329.185 171.198 329.536 171.292 329.859 171.438C330.182 171.578 330.461 171.763 330.695 171.992C330.93 172.221 331.112 172.492 331.242 172.805C331.378 173.112 331.445 173.453 331.445 173.828Z" fill="black"/>
<path d="M350.641 211.797V219.195H352.078V220.367H350.641V223H349.375V220.367H344.109V219.258C344.599 218.706 345.094 218.117 345.594 217.492C346.094 216.862 346.57 216.224 347.023 215.578C347.482 214.932 347.904 214.289 348.289 213.648C348.68 213.003 349.008 212.385 349.273 211.797H350.641ZM345.555 219.195H349.375V213.711C348.984 214.393 348.615 215.003 348.266 215.539C347.917 216.076 347.583 216.562 347.266 217C346.953 217.438 346.654 217.833 346.367 218.188C346.081 218.542 345.81 218.878 345.555 219.195Z" fill="black"/>
<path d="M355.57 278.578C355.57 279.125 355.477 279.62 355.289 280.062C355.102 280.505 354.833 280.885 354.484 281.203C354.141 281.521 353.724 281.766 353.234 281.938C352.745 282.109 352.201 282.195 351.602 282.195C350.56 282.195 349.786 282.039 349.281 281.727V280.367C350.042 280.857 350.82 281.102 351.617 281.102C352.023 281.102 352.388 281.042 352.711 280.922C353.039 280.802 353.318 280.635 353.547 280.422C353.776 280.208 353.951 279.951 354.07 279.648C354.195 279.346 354.258 279.016 354.258 278.656C354.258 277.927 354.013 277.357 353.523 276.945C353.034 276.529 352.323 276.32 351.391 276.32C351.24 276.32 351.081 276.323 350.914 276.328C350.747 276.333 350.581 276.341 350.414 276.352C350.247 276.357 350.083 276.365 349.922 276.375C349.766 276.385 349.622 276.398 349.492 276.414L349.875 270.797H355.055V271.953H350.984L350.758 275.242C350.924 275.232 351.102 275.224 351.289 275.219C351.477 275.208 351.643 275.203 351.789 275.203C352.383 275.203 352.914 275.281 353.383 275.438C353.852 275.594 354.247 275.818 354.57 276.109C354.898 276.396 355.146 276.75 355.312 277.172C355.484 277.589 355.57 278.057 355.57 278.578Z" fill="black"/>
<path d="M337.984 347.445C337.984 347.992 337.896 348.495 337.719 348.953C337.542 349.411 337.297 349.807 336.984 350.141C336.672 350.474 336.299 350.734 335.867 350.922C335.435 351.104 334.966 351.195 334.461 351.195C333.898 351.195 333.393 351.078 332.945 350.844C332.503 350.609 332.125 350.273 331.812 349.836C331.505 349.393 331.271 348.854 331.109 348.219C330.948 347.583 330.867 346.867 330.867 346.07C330.867 345.096 330.974 344.214 331.188 343.422C331.406 342.625 331.714 341.945 332.109 341.383C332.51 340.815 332.992 340.378 333.555 340.07C334.117 339.763 334.745 339.609 335.438 339.609C336.208 339.609 336.828 339.716 337.297 339.93V341.141C336.719 340.844 336.109 340.695 335.469 340.695C334.969 340.695 334.518 340.807 334.117 341.031C333.716 341.255 333.372 341.573 333.086 341.984C332.799 342.391 332.578 342.883 332.422 343.461C332.271 344.039 332.195 344.682 332.195 345.391H332.227C332.742 344.458 333.594 343.992 334.781 343.992C335.271 343.992 335.711 344.076 336.102 344.242C336.497 344.409 336.833 344.646 337.109 344.953C337.391 345.255 337.607 345.617 337.758 346.039C337.909 346.461 337.984 346.93 337.984 347.445ZM336.672 347.609C336.672 347.219 336.622 346.867 336.523 346.555C336.424 346.242 336.281 345.977 336.094 345.758C335.911 345.539 335.685 345.372 335.414 345.258C335.143 345.138 334.836 345.078 334.492 345.078C334.174 345.078 333.88 345.138 333.609 345.258C333.339 345.378 333.104 345.542 332.906 345.75C332.708 345.953 332.552 346.193 332.438 346.469C332.328 346.74 332.273 347.029 332.273 347.336C332.273 347.721 332.328 348.083 332.438 348.422C332.547 348.755 332.701 349.047 332.898 349.297C333.096 349.547 333.331 349.745 333.602 349.891C333.878 350.031 334.182 350.102 334.516 350.102C334.839 350.102 335.133 350.042 335.398 349.922C335.664 349.797 335.891 349.625 336.078 349.406C336.266 349.188 336.411 348.927 336.516 348.625C336.62 348.318 336.672 347.979 336.672 347.609Z" fill="black"/>
<mask id="path-13-inside-1_523_1319" fill="white">
<path fill-rule="evenodd" clip-rule="evenodd" d="M276.796 147.028C340.277 202.16 347.045 298.315 291.913 361.796C236.782 425.278 140.627 432.046 77.1453 376.914C13.6641 321.782 6.89567 225.627 62.0276 162.146L138.656 228.696C138.656 228.696 138.656 228.696 138.656 228.696C120.279 249.857 122.535 281.908 143.695 300.285C164.856 318.663 196.907 316.407 215.285 295.246C233.662 274.086 231.406 242.034 210.245 223.657L276.796 147.028Z"/>
</mask>
<path fill-rule="evenodd" clip-rule="evenodd" d="M276.796 147.028C340.277 202.16 347.045 298.315 291.913 361.796C236.782 425.278 140.627 432.046 77.1453 376.914C13.6641 321.782 6.89567 225.627 62.0276 162.146L138.656 228.696C138.656 228.696 138.656 228.696 138.656 228.696C120.279 249.857 122.535 281.908 143.695 300.285C164.856 318.663 196.907 316.407 215.285 295.246C233.662 274.086 231.406 242.034 210.245 223.657L276.796 147.028Z" fill="#30CFD0"/>
<path d="M276.796 147.028L277.451 146.273L276.696 145.617L276.041 146.373L276.796 147.028ZM62.0276 162.146L62.6833 161.391L61.9283 160.735L61.2726 161.49L62.0276 162.146ZM138.656 228.696L139.411 229.352L140.067 228.597L139.312 227.941L138.656 228.696ZM210.245 223.657L209.49 223.001L208.835 223.756L209.59 224.412L210.245 223.657ZM292.669 362.452C348.163 298.554 341.35 201.767 277.451 146.273L276.14 147.783C339.204 202.553 345.928 298.076 291.158 361.141L292.669 362.452ZM76.4896 377.669C140.388 433.163 237.174 426.35 292.669 362.452L291.158 361.141C236.389 424.205 140.865 430.929 77.801 376.159L76.4896 377.669ZM61.2726 161.49C5.77852 225.388 12.5914 322.175 76.4896 377.669L77.801 376.159C14.7368 321.389 8.01282 225.866 62.7826 162.802L61.2726 161.49ZM139.312 227.941L62.6833 161.391L61.3719 162.901L138 229.451L139.312 227.941ZM139.411 229.352C139.411 229.352 139.411 229.352 139.411 229.352C139.411 229.352 139.411 229.352 139.411 229.352L139.411 229.352C139.411 229.352 139.411 229.352 139.411 229.352C139.411 229.352 139.411 229.352 139.411 229.352L139.411 229.352C139.411 229.352 139.411 229.352 139.411 229.352C139.411 229.352 139.411 229.352 139.411 229.352L137.901 228.04C137.901 228.04 137.901 228.04 137.901 228.04C137.901 228.04 137.901 228.04 137.901 228.04L137.901 228.04C137.901 228.04 137.901 228.04 137.901 228.04C137.901 228.04 137.901 228.04 137.901 228.04L137.901 228.04C137.901 228.04 137.901 228.04 137.901 228.04C137.901 228.04 137.901 228.04 137.901 228.04L139.411 229.352ZM144.351 299.53C123.608 281.515 121.396 250.095 139.411 229.352L137.901 228.04C119.162 249.618 121.462 282.301 143.04 301.041L144.351 299.53ZM214.53 294.591C196.515 315.334 165.094 317.546 144.351 299.53L143.04 301.041C164.617 319.78 197.3 317.479 216.04 295.902L214.53 294.591ZM209.59 224.412C230.333 242.427 232.545 273.847 214.53 294.591L216.04 295.902C234.779 274.325 232.479 241.641 210.901 222.902L209.59 224.412ZM276.041 146.373L209.49 223.001L211 224.313L277.551 147.684L276.041 146.373Z" fill="white" mask="url(#path-13-inside-1_523_1319)"/>
<mask id="path-15-inside-2_523_1319" fill="white">
<path fill-rule="evenodd" clip-rule="evenodd" d="M291.43 161.592C346.868 224.807 340.564 320.993 277.35 376.431C214.136 431.869 117.949 425.565 62.5112 362.351C7.07337 299.136 13.3773 202.95 76.5916 147.512L143.511 223.818C122.44 242.298 120.339 274.36 138.818 295.431C157.297 316.502 189.359 318.604 210.431 300.124C231.502 281.645 233.603 249.583 215.124 228.511L291.43 161.592Z"/>
</mask>
<path fill-rule="evenodd" clip-rule="evenodd" d="M291.43 161.592C346.868 224.807 340.564 320.993 277.35 376.431C214.136 431.869 117.949 425.565 62.5112 362.351C7.07337 299.136 13.3773 202.95 76.5916 147.512L143.511 223.818C122.44 242.298 120.339 274.36 138.818 295.431C157.297 316.502 189.359 318.604 210.431 300.124C231.502 281.645 233.603 249.583 215.124 228.511L291.43 161.592Z" fill="#31A6BB"/>
<path d="M291.43 161.592L292.182 160.933L291.523 160.181L290.771 160.84L291.43 161.592ZM76.5916 147.512L77.3434 146.853L76.6841 146.101L75.9322 146.76L76.5916 147.512ZM143.511 223.818L144.17 224.57L144.922 223.911L144.263 223.159L143.511 223.818ZM215.124 228.511L214.465 227.76L213.713 228.419L214.372 229.171L215.124 228.511ZM278.009 377.183C341.639 321.381 347.984 224.562 292.182 160.933L290.678 162.252C345.752 225.051 339.49 320.605 276.691 375.679L278.009 377.183ZM61.7594 363.01C117.561 426.639 214.38 432.985 278.009 377.183L276.691 375.679C213.892 430.753 118.337 424.49 63.2631 361.691L61.7594 363.01ZM75.9322 146.76C12.3028 202.562 5.95738 299.381 61.7594 363.01L63.2631 361.691C8.18935 298.892 14.4519 203.338 77.2509 148.264L75.9322 146.76ZM144.263 223.159L77.3434 146.853L75.8397 148.171L142.759 224.478L144.263 223.159ZM139.57 294.772C121.454 274.115 123.514 242.685 144.17 224.57L142.852 223.066C121.365 241.91 119.223 274.604 138.066 296.09L139.57 294.772ZM209.771 299.373C189.115 317.488 157.685 315.428 139.57 294.772L138.066 296.09C156.909 317.577 189.603 319.72 211.09 300.876L209.771 299.373ZM214.372 229.171C232.487 249.827 230.427 281.257 209.771 299.373L211.09 300.876C232.577 282.033 234.719 249.339 215.876 227.852L214.372 229.171ZM290.771 160.84L214.465 227.76L215.783 229.263L292.09 162.344L290.771 160.84Z" fill="white" mask="url(#path-15-inside-2_523_1319)"/>
<mask id="path-17-inside-3_523_1319" fill="white">
<path fill-rule="evenodd" clip-rule="evenodd" d="M316.626 201.363C350.099 278.493 314.708 368.154 237.578 401.627C160.448 435.099 70.7876 399.708 37.315 322.578C3.84243 245.449 39.2335 155.788 116.363 122.315L156.768 215.419C131.058 226.576 119.261 256.463 130.419 282.173C141.576 307.883 171.463 319.68 197.173 308.522C222.883 297.365 234.68 267.478 223.523 241.768L316.626 201.363Z"/>
</mask>
<path fill-rule="evenodd" clip-rule="evenodd" d="M316.626 201.363C350.099 278.493 314.708 368.154 237.578 401.627C160.448 435.099 70.7876 399.708 37.315 322.578C3.84243 245.449 39.2335 155.788 116.363 122.315L156.768 215.419C131.058 226.576 119.261 256.463 130.419 282.173C141.576 307.883 171.463 319.68 197.173 308.522C222.883 297.365 234.68 267.478 223.523 241.768L316.626 201.363Z" fill="#327BA4"/>
<path d="M316.626 201.363L317.544 200.965L317.145 200.048L316.228 200.446L316.626 201.363ZM116.363 122.315L117.28 121.917L116.882 121L115.965 121.398L116.363 122.315ZM156.768 215.419L157.166 216.336L158.083 215.938L157.685 215.021L156.768 215.419ZM223.523 241.768L223.125 240.851L222.207 241.249L222.605 242.166L223.523 241.768ZM237.976 402.544C315.613 368.851 351.236 278.602 317.544 200.965L315.709 201.762C348.962 278.385 313.803 367.456 237.18 400.709L237.976 402.544ZM36.3977 322.977C70.0902 400.613 160.34 436.236 237.976 402.544L237.18 400.709C160.557 433.962 71.4851 398.803 38.2324 322.18L36.3977 322.977ZM115.965 121.398C38.3287 155.09 2.70522 245.34 36.3977 322.977L38.2324 322.18C4.97964 245.557 40.1382 156.485 116.761 123.233L115.965 121.398ZM157.685 215.021L117.28 121.917L115.446 122.713L155.851 215.817L157.685 215.021ZM131.336 281.775C120.399 256.572 131.963 227.274 157.166 216.336L156.37 214.501C130.154 225.879 118.124 256.355 129.502 282.571L131.336 281.775ZM196.775 307.605C171.572 318.543 142.274 306.978 131.336 281.775L129.502 282.571C140.879 308.788 171.355 320.817 197.571 309.44L196.775 307.605ZM222.605 242.166C233.543 267.37 221.978 296.667 196.775 307.605L197.571 309.44C223.788 298.062 235.817 267.587 224.44 241.37L222.605 242.166ZM316.228 200.446L223.125 240.851L223.921 242.686L317.024 202.281L316.228 200.446Z" fill="white" mask="url(#path-17-inside-3_523_1319)"/>
<mask id="path-19-inside-4_523_1319" fill="white">
<path fill-rule="evenodd" clip-rule="evenodd" d="M328.749 250.121C335.294 333.946 272.646 407.205 188.821 413.749C104.997 420.294 31.7379 357.646 25.1931 273.822C18.6484 189.997 81.296 116.738 165.121 110.194L173.021 211.379C145.079 213.56 124.197 237.98 126.378 265.922C128.56 293.863 152.98 314.746 180.921 312.564C208.863 310.383 229.745 285.963 227.564 258.021L328.749 250.121Z"/>
</mask>
<path fill-rule="evenodd" clip-rule="evenodd" d="M328.749 250.121C335.294 333.946 272.646 407.205 188.821 413.749C104.997 420.294 31.7379 357.646 25.1931 273.822C18.6484 189.997 81.296 116.738 165.121 110.194L173.021 211.379C145.079 213.56 124.197 237.98 126.378 265.922C128.56 293.863 152.98 314.746 180.921 312.564C208.863 310.383 229.745 285.963 227.564 258.021L328.749 250.121Z" fill="#334F8D"/>
<path d="M328.749 250.121L329.746 250.043L329.668 249.046L328.671 249.124L328.749 250.121ZM165.121 110.194L166.118 110.116L166.04 109.119L165.043 109.197L165.121 110.194ZM173.021 211.379L173.099 212.376L174.096 212.298L174.018 211.301L173.021 211.379ZM227.564 258.021L227.486 257.024L226.489 257.102L226.567 258.099L227.564 258.021ZM188.899 414.746C273.274 408.159 336.334 334.419 329.746 250.043L327.752 250.199C334.254 333.473 272.018 406.251 188.744 412.752L188.899 414.746ZM24.1962 273.9C30.7839 358.275 104.524 421.334 188.899 414.746L188.744 412.752C105.47 419.254 32.6919 357.018 26.1901 273.744L24.1962 273.9ZM165.043 109.197C80.6676 115.784 17.6084 189.524 24.1962 273.9L26.1901 273.744C19.6883 190.47 81.9245 117.692 165.198 111.191L165.043 109.197ZM174.018 211.301L166.118 110.116L164.124 110.271L172.024 211.457L174.018 211.301ZM127.375 265.844C125.237 238.453 145.708 214.514 173.099 212.376L172.943 210.382C144.451 212.606 123.157 237.507 125.381 265.999L127.375 265.844ZM180.843 311.567C153.452 313.706 129.514 293.235 127.375 265.844L125.381 265.999C127.606 294.492 152.507 315.786 180.999 313.561L180.843 311.567ZM226.567 258.099C228.705 285.49 208.234 309.429 180.843 311.567L180.999 313.561C209.491 311.336 230.785 286.436 228.561 257.944L226.567 258.099ZM328.671 249.124L227.486 257.024L227.641 259.018L328.827 251.118L328.671 249.124Z" fill="white" mask="url(#path-19-inside-4_523_1319)"/>
<mask id="path-21-inside-5_523_1319" fill="white">
<path fill-rule="evenodd" clip-rule="evenodd" d="M324.377 300.029C303.358 381.439 220.323 430.396 138.913 409.377C57.5026 388.359 8.54565 305.324 29.5644 223.913C50.583 142.503 133.618 93.5463 215.028 114.565L189.656 212.836C162.52 205.83 134.841 222.149 127.835 249.285C120.829 276.422 137.148 304.1 164.285 311.107C191.421 318.113 219.1 301.794 226.106 274.657L324.377 300.029Z"/>
</mask>
<path fill-rule="evenodd" clip-rule="evenodd" d="M324.377 300.029C303.358 381.439 220.323 430.396 138.913 409.377C57.5026 388.359 8.54565 305.324 29.5644 223.913C50.583 142.503 133.618 93.5463 215.028 114.565L189.656 212.836C162.52 205.83 134.841 222.149 127.835 249.285C120.829 276.422 137.148 304.1 164.285 311.107C191.421 318.113 219.1 301.794 226.106 274.657L324.377 300.029Z" fill="#333680"/>
<path d="M324.377 300.029L325.345 300.279L325.595 299.311L324.627 299.061L324.377 300.029ZM215.028 114.565L215.996 114.815L216.246 113.847L215.278 113.597L215.028 114.565ZM189.656 212.836L189.406 213.804L190.375 214.054L190.625 213.086L189.656 212.836ZM226.106 274.657L226.356 273.689L225.388 273.439L225.138 274.407L226.106 274.657ZM138.663 410.346C220.608 431.502 304.188 382.224 325.345 300.279L323.408 299.779C302.528 380.654 220.038 429.29 139.163 408.409L138.663 410.346ZM28.5961 223.663C7.43934 305.608 56.7179 389.189 138.663 410.346L139.163 408.409C58.2873 387.528 9.65197 305.039 30.5326 224.163L28.5961 223.663ZM215.278 113.597C133.333 92.44 49.7529 141.719 28.5961 223.663L30.5326 224.163C51.4132 143.288 133.903 94.6527 214.778 115.533L215.278 113.597ZM190.625 213.086L215.996 114.815L214.06 114.315L188.688 212.586L190.625 213.086ZM128.803 249.535C135.672 222.933 162.804 206.936 189.406 213.804L189.906 211.868C162.235 204.723 134.011 221.364 126.867 249.035L128.803 249.535ZM164.535 310.138C137.933 303.27 121.935 276.137 128.803 249.535L126.867 249.035C119.723 276.707 136.363 304.931 164.035 312.075L164.535 310.138ZM225.138 274.407C218.269 301.009 191.136 317.007 164.535 310.138L164.035 312.075C191.706 319.219 219.93 302.579 227.074 274.907L225.138 274.407ZM324.627 299.061L226.356 273.689L225.856 275.625L324.127 300.997L324.627 299.061Z" fill="white" mask="url(#path-21-inside-5_523_1319)"/>
<mask id="path-23-inside-6_523_1319" fill="white">
<path fill-rule="evenodd" clip-rule="evenodd" d="M289.53 364.476C232.919 426.641 136.631 431.143 74.4658 374.531C12.3005 317.92 7.79855 221.632 64.4103 159.467C121.022 97.3017 217.31 92.7997 279.475 149.411L211.14 224.45C191.224 206.286 160.343 206.832 141.087 226.088C121.27 245.906 121.27 278.037 141.087 297.854C160.905 317.672 193.036 317.672 212.854 297.854C213.416 297.293 213.961 296.721 214.491 296.14L289.53 364.476Z"/>
</mask>
<path fill-rule="evenodd" clip-rule="evenodd" d="M289.53 364.476C232.919 426.641 136.631 431.143 74.4658 374.531C12.3005 317.92 7.79855 221.632 64.4103 159.467C121.022 97.3017 217.31 92.7997 279.475 149.411L211.14 224.45C191.224 206.286 160.343 206.832 141.087 226.088C121.27 245.906 121.27 278.037 141.087 297.854C160.905 317.672 193.036 317.672 212.854 297.854C213.416 297.293 213.961 296.721 214.491 296.14L289.53 364.476Z" fill="#330867"/>
<path d="M74.4657 374.531L75.139 373.792L74.4657 374.531ZM289.53 364.476L290.27 365.149L290.943 364.41L290.204 363.737L289.53 364.476ZM64.4102 159.467L63.6708 158.794L64.4102 159.467ZM279.475 149.411L280.214 150.085L280.887 149.345L280.148 148.672L279.475 149.411ZM211.139 224.45L210.466 225.189L211.205 225.863L211.879 225.124L211.139 224.45ZM214.491 296.14L215.164 295.401L214.426 294.728L213.752 295.466L214.491 296.14ZM73.7924 375.271C136.366 432.254 233.286 427.723 290.27 365.149L288.791 363.803C232.551 425.56 136.896 430.032 75.139 373.792L73.7924 375.271ZM63.6708 158.794C6.68724 221.367 11.2188 318.287 73.7924 375.271L75.139 373.792C13.3821 317.552 8.90968 221.897 65.1495 160.14L63.6708 158.794ZM280.148 148.672C217.575 91.6884 120.654 96.22 63.6708 158.794L65.1495 160.14C121.389 98.3833 217.045 93.9108 278.801 150.151L280.148 148.672ZM211.879 225.124L280.214 150.085L278.735 148.738L210.4 223.777L211.879 225.124ZM141.794 226.795C160.671 207.918 190.944 207.383 210.466 225.189L211.813 223.711C191.505 205.189 160.016 205.745 140.38 225.381L141.794 226.795ZM141.794 297.147C122.367 277.72 122.367 246.222 141.794 226.795L140.38 225.381C120.172 245.589 120.172 278.353 140.38 298.561L141.794 297.147ZM212.147 297.147C192.719 316.574 161.222 316.574 141.794 297.147L140.38 298.561C160.589 318.77 193.353 318.77 213.561 298.561L212.147 297.147ZM213.752 295.466C213.233 296.036 212.698 296.596 212.147 297.147L213.561 298.561C214.133 297.989 214.69 297.406 215.23 296.814L213.752 295.466ZM290.204 363.737L215.164 295.401L213.818 296.88L288.857 365.215L290.204 363.737Z" fill="white" mask="url(#path-23-inside-6_523_1319)"/>
<path d="M73.543 265L79.3525 258.197V257.896H71.9111V256.791H80.5771V258.484L75.1279 265H73.543ZM91.6133 257.896H84.2334V259.996C84.3369 259.756 84.6533 259.588 85.1826 259.492C85.71 259.404 86.458 259.36 87.4268 259.36C89.251 259.36 90.4424 259.521 91.001 259.841C91.6494 260.208 91.9736 261.008 91.9736 262.24C91.9736 263.473 91.6494 264.272 91.001 264.64C90.4424 264.96 89.2549 265.12 87.4385 265.12C85.4854 265.12 84.249 264.972 83.7295 264.675C83.1689 264.356 82.8887 263.613 82.8887 262.445H84.1133C84.1133 263.156 84.293 263.596 84.6523 263.764C85.0137 263.932 85.9424 264.016 87.4385 264.016C88.9014 264.016 89.8213 263.912 90.1982 263.705C90.5654 263.504 90.749 263.008 90.749 262.217C90.749 261.424 90.5771 260.932 90.2334 260.74C89.8896 260.557 88.9541 260.465 87.4268 260.465C86.1221 260.465 85.29 260.509 84.9307 260.597C84.5615 260.685 84.3291 260.893 84.2334 261.221H83.0088V256.791H91.6133V257.896ZM93.2539 263.775L102.389 257.679V258.953L93.2539 265V263.775ZM93.3887 259.589C93.3887 258.86 93.5 258.396 93.7227 258.197C93.9473 257.996 94.4756 257.896 95.3076 257.896C96.1318 257.896 96.6602 257.996 96.8926 258.197C97.1152 258.404 97.2266 258.868 97.2266 259.589C97.2266 260.308 97.1152 260.768 96.8926 260.969C96.6602 261.176 96.1318 261.279 95.3076 261.279C94.4756 261.279 93.9473 261.18 93.7227 260.98C93.5 260.779 93.3887 260.315 93.3887 259.589ZM95.3076 260.333C95.5947 260.333 95.7988 260.293 95.9199 260.213C96.0879 260.1 96.1719 259.892 96.1719 259.589C96.1719 259.276 96.0879 259.064 95.9199 258.953C95.7988 258.873 95.5947 258.833 95.3076 258.833C95.0186 258.833 94.8027 258.881 94.6602 258.977C94.5078 259.08 94.4316 259.284 94.4316 259.589C94.4316 259.892 94.5156 260.1 94.6836 260.213C94.8105 260.293 95.0186 260.333 95.3076 260.333ZM98.3779 263.14C98.3779 262.411 98.4902 261.947 98.7148 261.748C98.9395 261.549 99.4678 261.449 100.3 261.449C101.124 261.449 101.652 261.549 101.885 261.748C102.107 261.955 102.219 262.419 102.219 263.14C102.219 263.86 102.107 264.32 101.885 264.52C101.652 264.721 101.124 264.821 100.3 264.821C99.4678 264.821 98.9395 264.722 98.7148 264.522C98.4902 264.321 98.3779 263.86 98.3779 263.14ZM100.3 263.884C100.587 263.884 100.791 263.844 100.912 263.764C101.08 263.652 101.164 263.444 101.164 263.14C101.164 262.827 101.08 262.615 100.912 262.504C100.791 262.424 100.587 262.384 100.3 262.384C100.011 262.384 99.7949 262.432 99.6523 262.527C99.5 262.631 99.4238 262.835 99.4238 263.14C99.4238 263.444 99.5078 263.652 99.6758 263.764C99.8027 263.844 100.011 263.884 100.3 263.884Z" fill="white"/>
<path d="M266.844 307.193L266.641 307.088L263.195 308.187L262.909 307.119L266.742 305.897L268.437 306.773L264.669 314.066L263.584 313.505L266.844 307.193ZM278.839 316.779C277.942 318.514 277.188 319.462 276.575 319.623C275.957 319.789 274.717 319.392 272.855 318.43C270.993 317.468 269.953 316.701 269.734 316.128C269.495 315.51 269.825 314.33 270.725 312.588C271.624 310.847 272.386 309.896 273.011 309.733C273.637 309.568 274.878 309.965 276.733 310.923C278.574 311.874 279.612 312.654 279.847 313.264C280.07 313.874 279.734 315.045 278.839 316.779ZM277.764 316.224C278.468 314.86 278.754 313.991 278.622 313.617C278.493 313.242 277.692 312.675 276.22 311.915C274.749 311.154 273.824 310.825 273.446 310.927C273.069 311.031 272.525 311.772 271.813 313.15C271.094 314.543 270.797 315.412 270.925 315.757C271.041 316.106 271.854 316.669 273.362 317.448C274.826 318.205 275.752 318.53 276.139 318.424C276.516 318.323 277.058 317.589 277.764 316.224ZM278.649 319.909L289.563 318.685L288.978 319.817L278.087 320.997L278.649 319.909ZM280.69 316.252C281.025 315.604 281.337 315.243 281.626 315.169C281.918 315.093 282.433 315.246 283.173 315.628C283.905 316.006 284.328 316.338 284.442 316.623C284.545 316.91 284.431 317.373 284.1 318.013C283.77 318.652 283.46 319.009 283.17 319.086C282.869 319.163 282.352 319.013 281.62 318.634C280.88 318.252 280.457 317.921 280.348 317.641C280.243 317.36 280.357 316.897 280.69 316.252ZM282.054 317.794C282.309 317.925 282.509 317.983 282.653 317.968C282.854 317.944 283.024 317.798 283.163 317.529C283.307 317.251 283.329 317.025 283.231 316.849C283.16 316.722 282.997 316.593 282.742 316.461C282.485 316.328 282.272 316.272 282.101 316.291C281.918 316.313 281.757 316.46 281.617 316.73C281.478 316.999 281.457 317.223 281.555 317.4C281.631 317.53 281.797 317.661 282.054 317.794ZM283.494 321.696C283.828 321.049 284.141 320.688 284.432 320.615C284.723 320.541 285.238 320.695 285.977 321.076C286.709 321.455 287.133 321.786 287.248 322.069C287.351 322.355 287.237 322.819 286.906 323.459C286.575 324.099 286.265 324.457 285.976 324.532C285.677 324.604 285.162 324.451 284.429 324.072C283.69 323.691 283.266 323.36 283.158 323.079C283.051 322.798 283.163 322.337 283.494 321.696ZM284.86 323.239C285.115 323.371 285.314 323.429 285.459 323.414C285.659 323.392 285.829 323.246 285.969 322.975C286.112 322.697 286.135 322.471 286.037 322.295C285.966 322.168 285.803 322.039 285.548 321.907C285.291 321.774 285.077 321.718 284.907 321.737C284.724 321.759 284.563 321.906 284.423 322.176C284.283 322.447 284.262 322.67 284.36 322.846C284.436 322.976 284.603 323.107 284.86 323.239Z" fill="white"/>
<path d="M284.864 268.786L277.51 268.169L277.334 270.262C277.457 270.032 277.787 269.891 278.322 269.84C278.855 269.796 279.604 269.815 280.57 269.896C282.387 270.048 283.561 270.307 284.091 270.673C284.707 271.093 284.963 271.918 284.86 273.146C284.757 274.374 284.367 275.144 283.69 275.455C283.107 275.728 281.91 275.788 280.1 275.636C278.154 275.473 276.934 275.222 276.441 274.883C275.909 274.519 275.692 273.755 275.789 272.591L277.01 272.693C276.95 273.402 277.093 273.854 277.437 274.052C277.783 274.249 278.701 274.411 280.192 274.536C281.65 274.658 282.575 274.632 282.968 274.457C283.351 274.287 283.575 273.808 283.641 273.02C283.708 272.23 283.578 271.725 283.251 271.505C282.924 271.294 281.999 271.124 280.477 270.996C279.177 270.887 278.344 270.862 277.979 270.919C277.604 270.976 277.355 271.164 277.232 271.483L276.012 271.38L276.382 266.966L284.956 267.685L284.864 268.786ZM286.007 274.782L295.62 269.471L295.513 270.74L285.905 276.003L286.007 274.782ZM286.491 270.622C286.552 269.896 286.702 269.443 286.941 269.263C287.181 269.081 287.716 269.025 288.545 269.095C289.367 269.164 289.885 269.308 290.099 269.528C290.304 269.753 290.376 270.224 290.316 270.943C290.256 271.659 290.106 272.108 289.868 272.29C289.619 272.477 289.084 272.536 288.262 272.467C287.433 272.397 286.915 272.254 286.708 272.036C286.503 271.817 286.431 271.346 286.491 270.622ZM288.342 271.524C288.628 271.548 288.834 271.525 288.962 271.455C289.139 271.356 289.24 271.156 289.265 270.854C289.291 270.543 289.225 270.325 289.067 270.2C288.953 270.11 288.753 270.053 288.467 270.029C288.179 270.005 287.96 270.034 287.81 270.118C287.649 270.208 287.556 270.405 287.531 270.709C287.505 271.011 287.572 271.225 287.73 271.352C287.85 271.442 288.053 271.5 288.342 271.524ZM291.167 274.577C291.227 273.851 291.378 273.398 291.619 273.219C291.859 273.039 292.394 272.984 293.223 273.053C294.044 273.122 294.562 273.266 294.777 273.484C294.982 273.708 295.054 274.18 294.994 274.898C294.934 275.616 294.784 276.065 294.546 276.245C294.297 276.426 293.762 276.482 292.941 276.414C292.112 276.344 291.594 276.201 291.387 275.983C291.18 275.764 291.106 275.295 291.167 274.577ZM293.019 275.479C293.306 275.503 293.512 275.48 293.64 275.411C293.816 275.314 293.917 275.114 293.943 274.81C293.969 274.499 293.903 274.28 293.745 274.155C293.631 274.066 293.431 274.009 293.145 273.985C292.857 273.96 292.638 273.99 292.488 274.074C292.327 274.164 292.234 274.361 292.209 274.665C292.183 274.968 292.25 275.183 292.408 275.307C292.527 275.398 292.731 275.455 293.019 275.479Z" fill="white"/>
<path d="M281.483 233.434L274.366 235.385L274.921 237.411C274.957 237.152 275.218 236.906 275.703 236.674C276.189 236.45 276.899 236.21 277.833 235.953C279.592 235.471 280.784 235.311 281.407 235.472C282.129 235.655 282.653 236.34 282.979 237.529C283.305 238.718 283.204 239.575 282.675 240.1C282.221 240.557 281.118 241.025 279.367 241.505C277.483 242.022 276.251 242.205 275.672 242.056C275.047 241.897 274.58 241.255 274.272 240.128L275.453 239.805C275.641 240.49 275.93 240.867 276.321 240.934C276.714 241 277.632 240.836 279.075 240.44C280.486 240.053 281.345 239.71 281.654 239.411C281.955 239.12 282.001 238.593 281.792 237.83C281.582 237.065 281.286 236.636 280.904 236.542C280.524 236.456 279.598 236.615 278.125 237.019C276.866 237.364 276.076 237.626 275.752 237.806C275.42 237.988 275.25 238.25 275.245 238.592L274.064 238.915L272.893 234.643L281.191 232.369L281.483 233.434ZM284.62 238.671L291.818 230.377L292.155 231.606L284.943 239.852L284.62 238.671ZM283.643 234.598C283.451 233.895 283.435 233.419 283.597 233.168C283.761 232.914 284.244 232.677 285.046 232.458C285.841 232.24 286.377 232.197 286.655 232.33C286.924 232.47 287.154 232.888 287.344 233.583C287.534 234.277 287.549 234.75 287.387 235.003C287.218 235.264 286.736 235.503 285.941 235.721C285.138 235.941 284.602 235.985 284.333 235.852C284.065 235.717 283.835 235.299 283.643 234.598ZM285.69 234.808C285.967 234.732 286.154 234.64 286.249 234.531C286.381 234.377 286.407 234.154 286.327 233.862C286.245 233.561 286.108 233.379 285.916 233.316C285.778 233.27 285.571 233.286 285.294 233.362C285.015 233.438 284.82 233.541 284.708 233.671C284.588 233.811 284.568 234.028 284.649 234.322C284.729 234.614 284.865 234.793 285.057 234.857C285.201 234.901 285.412 234.885 285.69 234.808ZM289.393 236.704C289.201 236.001 289.187 235.524 289.351 235.272C289.515 235.021 289.998 234.785 290.8 234.565C291.595 234.347 292.131 234.304 292.408 234.435C292.677 234.575 292.907 234.993 293.098 235.688C293.288 236.383 293.302 236.856 293.14 237.107C292.969 237.363 292.486 237.6 291.691 237.817C290.889 238.037 290.353 238.081 290.084 237.948C289.814 237.814 289.584 237.399 289.393 236.704ZM291.444 236.913C291.721 236.837 291.907 236.745 292.002 236.636C292.135 236.484 292.161 236.261 292.081 235.967C291.998 235.666 291.861 235.484 291.669 235.421C291.532 235.375 291.324 235.391 291.047 235.467C290.768 235.543 290.573 235.646 290.461 235.776C290.341 235.916 290.322 236.133 290.402 236.427C290.483 236.721 290.619 236.899 290.81 236.962C290.954 237.006 291.165 236.99 291.444 236.913Z" fill="white"/>
<path d="M262.931 202.805L265.52 207.697L266.74 207.051L267.255 208.025L266.036 208.67L266.772 210.061L265.69 210.633L264.954 209.243L259.089 212.348L258.151 210.577L261.235 203.703L262.931 202.805ZM264.438 208.27L262.366 204.355L262.112 204.489L259.464 210.439L259.656 210.801L264.438 208.27ZM268.785 207.433L269.964 206.81L271.014 208.793C271.107 208.969 271.113 209.169 271.033 209.393C270.952 209.617 270.816 209.779 270.625 209.881C270.506 209.944 270.394 209.998 270.29 210.044C270.185 210.1 270.089 210.123 270.002 210.114L269.632 209.415C270.014 209.213 270.156 209.02 270.059 208.837C269.992 208.71 269.916 208.636 269.833 208.616C269.752 208.597 269.629 208.631 269.465 208.718L268.785 207.433ZM276.153 197.056L269.631 200.508L270.614 202.365C270.593 202.104 270.794 201.808 271.217 201.475C271.642 201.151 272.283 200.762 273.139 200.309C274.751 199.455 275.879 199.04 276.522 199.061C277.267 199.082 277.928 199.638 278.505 200.727C279.081 201.816 279.169 202.675 278.768 203.302C278.424 203.847 277.449 204.544 275.844 205.394C274.118 206.308 272.956 206.755 272.358 206.736C271.713 206.717 271.118 206.191 270.571 205.159L271.654 204.586C271.986 205.214 272.351 205.518 272.747 205.499C273.145 205.478 274.005 205.118 275.327 204.418C276.62 203.733 277.385 203.211 277.621 202.852C277.851 202.502 277.781 201.978 277.411 201.279C277.04 200.578 276.658 200.224 276.265 200.215C275.875 200.214 275.005 200.57 273.655 201.285C272.502 201.895 271.788 202.324 271.511 202.569C271.226 202.82 271.118 203.112 271.187 203.447L270.105 204.02L268.032 200.105L275.637 196.079L276.153 197.056ZM280.354 201.485L285.575 191.822L286.171 192.949L280.927 202.567L280.354 201.485ZM278.515 197.721C278.174 197.078 278.055 196.616 278.159 196.335C278.263 196.052 278.683 195.716 279.418 195.327C280.147 194.941 280.661 194.783 280.96 194.852C281.254 194.931 281.569 195.289 281.907 195.926C282.243 196.561 282.36 197.02 282.257 197.302C282.149 197.593 281.73 197.932 281.002 198.318C280.266 198.707 279.753 198.866 279.461 198.795C279.17 198.721 278.855 198.364 278.515 197.721ZM280.559 197.481C280.813 197.347 280.974 197.216 281.044 197.089C281.139 196.91 281.116 196.687 280.975 196.419C280.828 196.143 280.655 195.995 280.454 195.975C280.31 195.961 280.111 196.021 279.857 196.156C279.602 196.291 279.433 196.434 279.352 196.585C279.266 196.748 279.294 196.964 279.437 197.233C279.578 197.501 279.75 197.646 279.951 197.667C280.101 197.679 280.303 197.617 280.559 197.481ZM284.586 198.525C284.245 197.881 284.127 197.419 284.232 197.138C284.338 196.857 284.758 196.521 285.493 196.132C286.222 195.747 286.735 195.587 287.034 195.655C287.327 195.733 287.643 196.091 287.98 196.728C288.317 197.365 288.434 197.824 288.33 198.104C288.219 198.391 287.799 198.727 287.071 199.112C286.336 199.502 285.822 199.661 285.53 199.59C285.238 199.517 284.923 199.162 284.586 198.525ZM286.632 198.284C286.886 198.149 287.048 198.019 287.117 197.891C287.214 197.714 287.19 197.491 287.048 197.222C286.902 196.946 286.728 196.798 286.528 196.778C286.383 196.764 286.184 196.824 285.93 196.958C285.675 197.093 285.507 197.237 285.425 197.388C285.339 197.551 285.367 197.767 285.51 198.036C285.652 198.305 285.824 198.45 286.025 198.47C286.174 198.481 286.377 198.419 286.632 198.284Z" fill="white"/>
<path d="M252.011 187.78C253.404 189.15 254.086 190.151 254.058 190.784C254.034 191.424 253.287 192.49 251.817 193.984C250.348 195.478 249.307 196.245 248.696 196.284C248.034 196.33 247.005 195.665 245.607 194.29C244.211 192.916 243.527 191.906 243.556 191.261C243.584 190.614 244.33 189.547 245.795 188.059C247.248 186.581 248.3 185.821 248.952 185.777C249.601 185.744 250.621 186.412 252.011 187.78ZM251.163 188.643C250.069 187.566 249.323 187.035 248.927 187.051C248.531 187.064 247.752 187.661 246.59 188.841C245.429 190.022 244.84 190.808 244.826 191.199C244.814 191.59 245.36 192.329 246.466 193.417C247.584 194.517 248.326 195.057 248.694 195.037C249.061 195.029 249.84 194.42 251.03 193.21C252.186 192.035 252.771 191.247 252.784 190.846C252.799 190.455 252.259 189.721 251.163 188.643ZM255.172 188.436L256.107 187.486L257.706 189.06C257.848 189.199 257.915 189.388 257.906 189.626C257.897 189.863 257.816 190.059 257.664 190.214C257.57 190.31 257.48 190.396 257.395 190.471C257.311 190.556 257.227 190.607 257.141 190.624L256.577 190.069C256.88 189.762 256.958 189.535 256.81 189.39C256.707 189.289 256.613 189.241 256.527 189.247C256.444 189.254 256.338 189.323 256.208 189.455L255.172 188.436ZM259.063 176.318L253.888 181.579L255.385 183.052C255.286 182.81 255.388 182.466 255.691 182.022C255.999 181.584 256.492 181.02 257.171 180.33C258.451 179.029 259.4 178.292 260.021 178.119C260.737 177.914 261.535 178.244 262.413 179.108C263.292 179.973 263.634 180.765 263.441 181.484C263.278 182.107 262.559 183.066 261.285 184.361C259.916 185.753 258.943 186.53 258.367 186.693C257.747 186.869 257.02 186.547 256.188 185.728L257.047 184.855C257.553 185.354 257.993 185.534 258.364 185.396C258.738 185.256 259.449 184.653 260.498 183.586C261.524 182.544 262.095 181.815 262.212 181.401C262.326 180.998 262.101 180.52 261.538 179.965C260.972 179.409 260.501 179.186 260.123 179.297C259.751 179.413 259.03 180.016 257.959 181.104C257.044 182.034 256.491 182.658 256.302 182.976C256.106 183.301 256.091 183.613 256.258 183.911L255.399 184.784L252.241 181.677L258.276 175.544L259.063 176.318ZM264.405 179.272L266.466 168.485L267.374 169.379L265.278 180.131L264.405 179.272ZM261.515 176.24C260.996 175.729 260.744 175.325 260.758 175.026C260.772 174.725 261.071 174.278 261.654 173.685C262.232 173.097 262.674 172.791 262.981 172.766C263.285 172.753 263.693 172.999 264.207 173.504C264.719 174.008 264.969 174.41 264.957 174.71C264.941 175.021 264.644 175.47 264.066 176.058C263.483 176.651 263.041 176.958 262.742 176.978C262.442 176.996 262.033 176.75 261.515 176.24ZM263.392 175.394C263.593 175.19 263.708 175.016 263.736 174.873C263.773 174.674 263.683 174.469 263.467 174.256C263.245 174.037 263.035 173.948 262.838 173.99C262.696 174.02 262.524 174.138 262.322 174.342C262.12 174.548 262.003 174.736 261.971 174.904C261.938 175.086 262.03 175.283 262.247 175.497C262.463 175.709 262.67 175.795 262.868 175.755C263.015 175.72 263.189 175.6 263.392 175.394ZM267.546 175.174C267.026 174.663 266.775 174.258 266.79 173.958C266.806 173.658 267.105 173.211 267.689 172.618C268.267 172.031 268.708 171.724 269.013 171.698C269.317 171.685 269.726 171.931 270.239 172.436C270.753 172.941 271.003 173.343 270.989 173.642C270.969 173.949 270.67 174.396 270.092 174.983C269.509 175.576 269.067 175.883 268.768 175.904C268.467 175.923 268.059 175.679 267.546 175.174ZM269.424 174.326C269.625 174.121 269.74 173.948 269.768 173.805C269.806 173.607 269.717 173.402 269.5 173.188C269.277 172.969 269.067 172.88 268.87 172.922C268.728 172.952 268.556 173.069 268.355 173.274C268.152 173.48 268.035 173.667 268.003 173.836C267.97 174.017 268.062 174.215 268.279 174.428C268.496 174.642 268.704 174.728 268.901 174.686C269.047 174.652 269.221 174.532 269.424 174.326Z" fill="white"/>
<path d="M32.6562 463H31.375V453.32C31.276 453.419 31.1302 453.534 30.9375 453.664C30.75 453.789 30.5365 453.914 30.2969 454.039C30.0625 454.164 29.8125 454.281 29.5469 454.391C29.2865 454.5 29.0312 454.586 28.7812 454.648V453.352C29.0625 453.273 29.3594 453.169 29.6719 453.039C29.9896 452.904 30.2995 452.755 30.6016 452.594C30.9089 452.427 31.1979 452.255 31.4688 452.078C31.7396 451.896 31.974 451.719 32.1719 451.547H32.6562V463ZM45.4062 459.047H41.1406V458.039H45.4062V459.047ZM60.3125 463H58.75L56.875 459.859C56.7031 459.568 56.5365 459.32 56.375 459.117C56.2135 458.909 56.0469 458.74 55.875 458.609C55.7083 458.479 55.526 458.385 55.3281 458.328C55.1354 458.266 54.9167 458.234 54.6719 458.234H53.5938V463H52.2812V451.797H55.625C56.1146 451.797 56.5651 451.859 56.9766 451.984C57.3932 452.104 57.7526 452.289 58.0547 452.539C58.362 452.789 58.6016 453.102 58.7734 453.477C58.9453 453.846 59.0312 454.281 59.0312 454.781C59.0312 455.172 58.9714 455.531 58.8516 455.859C58.737 456.182 58.5703 456.471 58.3516 456.727C58.138 456.982 57.8776 457.201 57.5703 457.383C57.2682 457.56 56.9271 457.698 56.5469 457.797V457.828C56.7344 457.911 56.8958 458.008 57.0312 458.117C57.1719 458.221 57.3047 458.346 57.4297 458.492C57.5547 458.638 57.6771 458.805 57.7969 458.992C57.9219 459.174 58.0599 459.388 58.2109 459.633L60.3125 463ZM53.5938 452.984V457.047H55.375C55.7031 457.047 56.0052 456.997 56.2812 456.898C56.5625 456.799 56.8047 456.659 57.0078 456.477C57.2109 456.289 57.3698 456.062 57.4844 455.797C57.599 455.526 57.6562 455.224 57.6562 454.891C57.6562 454.292 57.4609 453.826 57.0703 453.492C56.6849 453.154 56.125 452.984 55.3906 452.984H53.5938ZM67.6484 459.32H62C62.0208 460.211 62.2604 460.898 62.7188 461.383C63.1771 461.867 63.8073 462.109 64.6094 462.109C65.5104 462.109 66.3385 461.812 67.0938 461.219V462.422C66.3906 462.932 65.4609 463.188 64.3047 463.188C63.1745 463.188 62.2865 462.826 61.6406 462.102C60.9948 461.372 60.6719 460.349 60.6719 459.031C60.6719 457.786 61.0234 456.773 61.7266 455.992C62.4349 455.206 63.3125 454.812 64.3594 454.812C65.4062 454.812 66.2161 455.151 66.7891 455.828C67.362 456.505 67.6484 457.445 67.6484 458.648V459.32ZM66.3359 458.234C66.3307 457.495 66.151 456.919 65.7969 456.508C65.4479 456.096 64.9609 455.891 64.3359 455.891C63.7318 455.891 63.2188 456.107 62.7969 456.539C62.375 456.971 62.1146 457.536 62.0156 458.234H66.3359ZM79.6719 455L77.2734 463H75.9453L74.2969 457.273C74.2344 457.055 74.1927 456.807 74.1719 456.531H74.1406C74.125 456.719 74.0703 456.961 73.9766 457.258L72.1875 463H70.9062L68.4844 455H69.8281L71.4844 461.016C71.5365 461.198 71.5729 461.438 71.5938 461.734H71.6562C71.6719 461.505 71.7188 461.26 71.7969 461L73.6406 455H74.8125L76.4688 461.031C76.5208 461.224 76.5599 461.464 76.5859 461.75H76.6484C76.6589 461.547 76.7031 461.307 76.7812 461.031L78.4062 455H79.6719ZM86.8828 463H85.6016V461.75H85.5703C85.013 462.708 84.1927 463.188 83.1094 463.188C82.3125 463.188 81.6875 462.977 81.2344 462.555C80.7865 462.133 80.5625 461.573 80.5625 460.875C80.5625 459.38 81.4427 458.51 83.2031 458.266L85.6016 457.93C85.6016 456.57 85.0521 455.891 83.9531 455.891C82.9896 455.891 82.1198 456.219 81.3438 456.875V455.562C82.1302 455.062 83.0365 454.812 84.0625 454.812C85.9427 454.812 86.8828 455.807 86.8828 457.797V463ZM85.6016 458.953L83.6719 459.219C83.0781 459.302 82.6302 459.451 82.3281 459.664C82.026 459.872 81.875 460.245 81.875 460.781C81.875 461.172 82.013 461.492 82.2891 461.742C82.5703 461.987 82.9427 462.109 83.4062 462.109C84.0417 462.109 84.5651 461.888 84.9766 461.445C85.3932 460.997 85.6016 460.432 85.6016 459.75V458.953ZM93.4688 456.297C93.2448 456.125 92.9219 456.039 92.5 456.039C91.9531 456.039 91.4948 456.297 91.125 456.812C90.7604 457.328 90.5781 458.031 90.5781 458.922V463H89.2969V455H90.5781V456.648H90.6094C90.7917 456.086 91.0703 455.648 91.4453 455.336C91.8203 455.018 92.2396 454.859 92.7031 454.859C93.0365 454.859 93.2917 454.896 93.4688 454.969V456.297ZM101.688 463H100.406V461.641H100.375C99.7812 462.672 98.8646 463.188 97.625 463.188C96.6198 463.188 95.8151 462.831 95.2109 462.117C94.612 461.398 94.3125 460.422 94.3125 459.188C94.3125 457.865 94.6458 456.805 95.3125 456.008C95.9792 455.211 96.8672 454.812 97.9766 454.812C99.0755 454.812 99.875 455.245 100.375 456.109H100.406V451.156H101.688V463ZM100.406 459.383V458.203C100.406 457.557 100.193 457.01 99.7656 456.562C99.3385 456.115 98.7969 455.891 98.1406 455.891C97.3594 455.891 96.7448 456.177 96.2969 456.75C95.849 457.323 95.625 458.115 95.625 459.125C95.625 460.047 95.8385 460.776 96.2656 461.312C96.6979 461.844 97.276 462.109 98 462.109C98.7135 462.109 99.2917 461.852 99.7344 461.336C100.182 460.82 100.406 460.169 100.406 459.383ZM103.797 462.711V461.336C104.495 461.852 105.263 462.109 106.102 462.109C107.227 462.109 107.789 461.734 107.789 460.984C107.789 460.771 107.74 460.591 107.641 460.445C107.547 460.294 107.417 460.161 107.25 460.047C107.089 459.932 106.896 459.831 106.672 459.742C106.453 459.648 106.216 459.552 105.961 459.453C105.607 459.312 105.294 459.172 105.023 459.031C104.758 458.885 104.534 458.724 104.352 458.547C104.174 458.365 104.039 458.159 103.945 457.93C103.857 457.701 103.812 457.432 103.812 457.125C103.812 456.75 103.898 456.419 104.07 456.133C104.242 455.841 104.471 455.599 104.758 455.406C105.044 455.208 105.37 455.06 105.734 454.961C106.104 454.862 106.484 454.812 106.875 454.812C107.568 454.812 108.188 454.932 108.734 455.172V456.469C108.146 456.083 107.469 455.891 106.703 455.891C106.464 455.891 106.247 455.919 106.055 455.977C105.862 456.029 105.695 456.104 105.555 456.203C105.419 456.302 105.312 456.422 105.234 456.562C105.161 456.698 105.125 456.849 105.125 457.016C105.125 457.224 105.161 457.398 105.234 457.539C105.312 457.68 105.424 457.805 105.57 457.914C105.716 458.023 105.893 458.122 106.102 458.211C106.31 458.299 106.547 458.396 106.812 458.5C107.167 458.635 107.484 458.776 107.766 458.922C108.047 459.062 108.286 459.224 108.484 459.406C108.682 459.583 108.833 459.789 108.938 460.023C109.047 460.258 109.102 460.536 109.102 460.859C109.102 461.255 109.013 461.599 108.836 461.891C108.664 462.182 108.432 462.424 108.141 462.617C107.849 462.81 107.513 462.953 107.133 463.047C106.753 463.141 106.354 463.188 105.938 463.188C105.115 463.188 104.401 463.029 103.797 462.711ZM122.062 452.539C121.891 452.836 121.682 453.206 121.438 453.648C121.198 454.091 120.943 454.589 120.672 455.141C120.401 455.693 120.125 456.286 119.844 456.922C119.562 457.557 119.299 458.214 119.055 458.891C118.81 459.568 118.594 460.255 118.406 460.953C118.224 461.646 118.091 462.328 118.008 463H116.633C116.727 462.333 116.87 461.654 117.062 460.961C117.26 460.263 117.482 459.581 117.727 458.914C117.977 458.242 118.24 457.596 118.516 456.977C118.792 456.357 119.06 455.786 119.32 455.266C119.581 454.745 119.818 454.286 120.031 453.891C120.25 453.49 120.424 453.177 120.555 452.953H114.938V451.797H122.062V452.539ZM130.367 459.578C130.367 460.125 130.273 460.62 130.086 461.062C129.898 461.505 129.63 461.885 129.281 462.203C128.938 462.521 128.521 462.766 128.031 462.938C127.542 463.109 126.997 463.195 126.398 463.195C125.357 463.195 124.583 463.039 124.078 462.727V461.367C124.839 461.857 125.617 462.102 126.414 462.102C126.82 462.102 127.185 462.042 127.508 461.922C127.836 461.802 128.115 461.635 128.344 461.422C128.573 461.208 128.747 460.951 128.867 460.648C128.992 460.346 129.055 460.016 129.055 459.656C129.055 458.927 128.81 458.357 128.32 457.945C127.831 457.529 127.12 457.32 126.188 457.32C126.036 457.32 125.878 457.323 125.711 457.328C125.544 457.333 125.378 457.341 125.211 457.352C125.044 457.357 124.88 457.365 124.719 457.375C124.562 457.385 124.419 457.398 124.289 457.414L124.672 451.797H129.852V452.953H125.781L125.555 456.242C125.721 456.232 125.898 456.224 126.086 456.219C126.273 456.208 126.44 456.203 126.586 456.203C127.18 456.203 127.711 456.281 128.18 456.438C128.648 456.594 129.044 456.818 129.367 457.109C129.695 457.396 129.943 457.75 130.109 458.172C130.281 458.589 130.367 459.057 130.367 459.578ZM134.578 457.414C133.807 457.414 133.193 457.161 132.734 456.656C132.276 456.146 132.047 455.466 132.047 454.617C132.047 453.69 132.289 452.961 132.773 452.43C133.258 451.893 133.911 451.625 134.734 451.625C135.531 451.625 136.148 451.872 136.586 452.367C137.029 452.862 137.25 453.557 137.25 454.453C137.25 455.349 137.003 456.068 136.508 456.609C136.018 457.146 135.375 457.414 134.578 457.414ZM134.688 452.484C134.193 452.484 133.802 452.669 133.516 453.039C133.229 453.404 133.086 453.906 133.086 454.547C133.086 455.177 133.227 455.669 133.508 456.023C133.789 456.372 134.172 456.547 134.656 456.547C135.146 456.547 135.529 456.365 135.805 456C136.081 455.635 136.219 455.13 136.219 454.484C136.219 453.854 136.081 453.365 135.805 453.016C135.534 452.661 135.161 452.484 134.688 452.484ZM142.078 451.797L134.891 463.078H133.773L140.953 451.797H142.078ZM141.25 463.172C140.479 463.172 139.865 462.917 139.406 462.406C138.948 461.896 138.719 461.219 138.719 460.375C138.719 459.448 138.964 458.716 139.453 458.18C139.943 457.638 140.594 457.367 141.406 457.367C142.198 457.367 142.815 457.617 143.258 458.117C143.701 458.617 143.922 459.318 143.922 460.219C143.922 461.109 143.674 461.826 143.18 462.367C142.69 462.904 142.047 463.172 141.25 463.172ZM141.359 458.25C140.859 458.25 140.466 458.432 140.18 458.797C139.898 459.161 139.758 459.667 139.758 460.312C139.758 460.932 139.898 461.419 140.18 461.773C140.461 462.122 140.844 462.297 141.328 462.297C141.818 462.297 142.201 462.115 142.477 461.75C142.753 461.38 142.891 460.875 142.891 460.234C142.891 459.599 142.753 459.109 142.477 458.766C142.206 458.422 141.833 458.25 141.359 458.25Z" fill="black"/>
<path d="M33.0312 491.734C33.0312 491.391 32.9766 491.091 32.8672 490.836C32.763 490.581 32.6172 490.37 32.4297 490.203C32.2474 490.031 32.0312 489.904 31.7812 489.82C31.5312 489.737 31.2604 489.695 30.9688 489.695C30.7188 489.695 30.474 489.729 30.2344 489.797C29.9948 489.865 29.7604 489.958 29.5312 490.078C29.3073 490.198 29.0885 490.341 28.875 490.508C28.6667 490.674 28.4714 490.859 28.2891 491.062V489.688C28.6484 489.339 29.0495 489.073 29.4922 488.891C29.9401 488.703 30.4844 488.609 31.125 488.609C31.5833 488.609 32.0078 488.677 32.3984 488.812C32.7891 488.943 33.1276 489.135 33.4141 489.391C33.7005 489.646 33.9245 489.961 34.0859 490.336C34.2526 490.711 34.3359 491.141 34.3359 491.625C34.3359 492.068 34.2839 492.469 34.1797 492.828C34.0807 493.188 33.9271 493.526 33.7188 493.844C33.5156 494.161 33.2578 494.466 32.9453 494.758C32.6328 495.049 32.2656 495.346 31.8438 495.648C31.3177 496.023 30.8828 496.344 30.5391 496.609C30.2005 496.875 29.9297 497.125 29.7266 497.359C29.5286 497.589 29.388 497.82 29.3047 498.055C29.2266 498.284 29.1875 498.549 29.1875 498.852H34.7656V500H27.8516V499.445C27.8516 498.966 27.9036 498.544 28.0078 498.18C28.112 497.815 28.2839 497.469 28.5234 497.141C28.763 496.812 29.0755 496.484 29.4609 496.156C29.8516 495.828 30.3281 495.458 30.8906 495.047C31.2969 494.755 31.6354 494.477 31.9062 494.211C32.1823 493.945 32.4036 493.68 32.5703 493.414C32.737 493.148 32.8542 492.88 32.9219 492.609C32.9948 492.333 33.0312 492.042 33.0312 491.734ZM45.4062 496.047H41.1406V495.039H45.4062V496.047ZM53.5938 495.766V500H52.2812V488.797H55.3594C56.5573 488.797 57.4844 489.089 58.1406 489.672C58.8021 490.255 59.1328 491.078 59.1328 492.141C59.1328 493.203 58.7656 494.073 58.0312 494.75C57.3021 495.427 56.3151 495.766 55.0703 495.766H53.5938ZM53.5938 489.984V494.578H54.9688C55.875 494.578 56.5651 494.372 57.0391 493.961C57.5182 493.544 57.7578 492.958 57.7578 492.203C57.7578 490.724 56.8828 489.984 55.1328 489.984H53.5938ZM65.25 493.297C65.026 493.125 64.7031 493.039 64.2812 493.039C63.7344 493.039 63.276 493.297 62.9062 493.812C62.5417 494.328 62.3594 495.031 62.3594 495.922V500H61.0781V492H62.3594V493.648H62.3906C62.5729 493.086 62.8516 492.648 63.2266 492.336C63.6016 492.018 64.0208 491.859 64.4844 491.859C64.8177 491.859 65.0729 491.896 65.25 491.969V493.297ZM67.2969 489.969C67.0677 489.969 66.8724 489.891 66.7109 489.734C66.5495 489.578 66.4688 489.38 66.4688 489.141C66.4688 488.901 66.5495 488.703 66.7109 488.547C66.8724 488.385 67.0677 488.305 67.2969 488.305C67.5312 488.305 67.7292 488.385 67.8906 488.547C68.0573 488.703 68.1406 488.901 68.1406 489.141C68.1406 489.37 68.0573 489.565 67.8906 489.727C67.7292 489.888 67.5312 489.969 67.2969 489.969ZM67.9219 500H66.6406V492H67.9219V500ZM76.8047 492L73.6172 500H72.3594L69.3281 492H70.7344L72.7656 497.812C72.9167 498.24 73.0104 498.612 73.0469 498.93H73.0781C73.1302 498.529 73.2135 498.167 73.3281 497.844L75.4531 492H76.8047ZM83.9141 500H82.6328V498.75H82.6016C82.0443 499.708 81.224 500.188 80.1406 500.188C79.3438 500.188 78.7188 499.977 78.2656 499.555C77.8177 499.133 77.5938 498.573 77.5938 497.875C77.5938 496.38 78.474 495.51 80.2344 495.266L82.6328 494.93C82.6328 493.57 82.0833 492.891 80.9844 492.891C80.0208 492.891 79.151 493.219 78.375 493.875V492.562C79.1615 492.062 80.0677 491.812 81.0938 491.812C82.974 491.812 83.9141 492.807 83.9141 494.797V500ZM82.6328 495.953L80.7031 496.219C80.1094 496.302 79.6615 496.451 79.3594 496.664C79.0573 496.872 78.9062 497.245 78.9062 497.781C78.9062 498.172 79.0443 498.492 79.3203 498.742C79.6016 498.987 79.974 499.109 80.4375 499.109C81.0729 499.109 81.5964 498.888 82.0078 498.445C82.4245 497.997 82.6328 497.432 82.6328 496.75V495.953ZM90.0391 499.922C89.737 500.089 89.3385 500.172 88.8438 500.172C87.4427 500.172 86.7422 499.391 86.7422 497.828V493.094H85.3672V492H86.7422V490.047L88.0234 489.633V492H90.0391V493.094H88.0234V497.602C88.0234 498.138 88.1146 498.521 88.2969 498.75C88.4792 498.979 88.7812 499.094 89.2031 499.094C89.526 499.094 89.8047 499.005 90.0391 498.828V499.922ZM98.1797 496.32H92.5312C92.5521 497.211 92.7917 497.898 93.25 498.383C93.7083 498.867 94.3385 499.109 95.1406 499.109C96.0417 499.109 96.8698 498.812 97.625 498.219V499.422C96.9219 499.932 95.9922 500.188 94.8359 500.188C93.7057 500.188 92.8177 499.826 92.1719 499.102C91.526 498.372 91.2031 497.349 91.2031 496.031C91.2031 494.786 91.5547 493.773 92.2578 492.992C92.9661 492.206 93.8438 491.812 94.8906 491.812C95.9375 491.812 96.7474 492.151 97.3203 492.828C97.8932 493.505 98.1797 494.445 98.1797 495.648V496.32ZM96.8672 495.234C96.862 494.495 96.6823 493.919 96.3281 493.508C95.9792 493.096 95.4922 492.891 94.8672 492.891C94.263 492.891 93.75 493.107 93.3281 493.539C92.9062 493.971 92.6458 494.536 92.5469 495.234H96.8672ZM108.688 493.297C108.464 493.125 108.141 493.039 107.719 493.039C107.172 493.039 106.714 493.297 106.344 493.812C105.979 494.328 105.797 495.031 105.797 495.922V500H104.516V492H105.797V493.648H105.828C106.01 493.086 106.289 492.648 106.664 492.336C107.039 492.018 107.458 491.859 107.922 491.859C108.255 491.859 108.51 491.896 108.688 491.969V493.297ZM113.422 500.188C112.24 500.188 111.294 499.815 110.586 499.07C109.883 498.32 109.531 497.328 109.531 496.094C109.531 494.75 109.898 493.701 110.633 492.945C111.367 492.19 112.359 491.812 113.609 491.812C114.802 491.812 115.732 492.18 116.398 492.914C117.07 493.648 117.406 494.667 117.406 495.969C117.406 497.245 117.044 498.268 116.32 499.039C115.602 499.805 114.635 500.188 113.422 500.188ZM113.516 492.891C112.693 492.891 112.042 493.172 111.562 493.734C111.083 494.292 110.844 495.062 110.844 496.047C110.844 496.995 111.086 497.742 111.57 498.289C112.055 498.836 112.703 499.109 113.516 499.109C114.344 499.109 114.979 498.841 115.422 498.305C115.87 497.768 116.094 497.005 116.094 496.016C116.094 495.016 115.87 494.245 115.422 493.703C114.979 493.161 114.344 492.891 113.516 492.891ZM125.922 500H124.641V498.734H124.609C124.078 499.703 123.255 500.188 122.141 500.188C120.234 500.188 119.281 499.052 119.281 496.781V492H120.555V496.578C120.555 498.266 121.201 499.109 122.492 499.109C123.117 499.109 123.63 498.88 124.031 498.422C124.438 497.958 124.641 497.354 124.641 496.609V492H125.922V500ZM135.156 500H133.875V495.438C133.875 493.74 133.255 492.891 132.016 492.891C131.375 492.891 130.844 493.133 130.422 493.617C130.005 494.096 129.797 494.703 129.797 495.438V500H128.516V492H129.797V493.328H129.828C130.432 492.318 131.307 491.812 132.453 491.812C133.328 491.812 133.997 492.096 134.461 492.664C134.924 493.227 135.156 494.042 135.156 495.109V500ZM144.406 500H143.125V498.641H143.094C142.5 499.672 141.583 500.188 140.344 500.188C139.339 500.188 138.534 499.831 137.93 499.117C137.331 498.398 137.031 497.422 137.031 496.188C137.031 494.865 137.365 493.805 138.031 493.008C138.698 492.211 139.586 491.812 140.695 491.812C141.794 491.812 142.594 492.245 143.094 493.109H143.125V488.156H144.406V500ZM143.125 496.383V495.203C143.125 494.557 142.911 494.01 142.484 493.562C142.057 493.115 141.516 492.891 140.859 492.891C140.078 492.891 139.464 493.177 139.016 493.75C138.568 494.323 138.344 495.115 138.344 496.125C138.344 497.047 138.557 497.776 138.984 498.312C139.417 498.844 139.995 499.109 140.719 499.109C141.432 499.109 142.01 498.852 142.453 498.336C142.901 497.82 143.125 497.169 143.125 496.383ZM158.062 494.352C158.062 495.289 157.977 496.12 157.805 496.844C157.638 497.568 157.393 498.18 157.07 498.68C156.753 499.174 156.359 499.552 155.891 499.812C155.427 500.068 154.898 500.195 154.305 500.195C153.742 500.195 153.24 500.073 152.797 499.828C152.359 499.578 151.99 499.216 151.688 498.742C151.385 498.268 151.156 497.688 151 497C150.844 496.307 150.766 495.516 150.766 494.625C150.766 493.646 150.846 492.781 151.008 492.031C151.174 491.281 151.417 490.654 151.734 490.148C152.052 489.638 152.445 489.255 152.914 489C153.388 488.74 153.93 488.609 154.539 488.609C156.888 488.609 158.062 490.523 158.062 494.352ZM156.75 494.477C156.75 491.289 155.992 489.695 154.477 489.695C152.878 489.695 152.078 491.318 152.078 494.562C152.078 497.589 152.862 499.102 154.43 499.102C155.977 499.102 156.75 497.56 156.75 494.477ZM161.188 498.219L159.938 502.062H159.023L159.938 498.219H161.188ZM169.758 496.578C169.758 497.125 169.664 497.62 169.477 498.062C169.289 498.505 169.021 498.885 168.672 499.203C168.328 499.521 167.911 499.766 167.422 499.938C166.932 500.109 166.388 500.195 165.789 500.195C164.747 500.195 163.974 500.039 163.469 499.727V498.367C164.229 498.857 165.008 499.102 165.805 499.102C166.211 499.102 166.576 499.042 166.898 498.922C167.227 498.802 167.505 498.635 167.734 498.422C167.964 498.208 168.138 497.951 168.258 497.648C168.383 497.346 168.445 497.016 168.445 496.656C168.445 495.927 168.201 495.357 167.711 494.945C167.221 494.529 166.51 494.32 165.578 494.32C165.427 494.32 165.268 494.323 165.102 494.328C164.935 494.333 164.768 494.341 164.602 494.352C164.435 494.357 164.271 494.365 164.109 494.375C163.953 494.385 163.81 494.398 163.68 494.414L164.062 488.797H169.242V489.953H165.172L164.945 493.242C165.112 493.232 165.289 493.224 165.477 493.219C165.664 493.208 165.831 493.203 165.977 493.203C166.57 493.203 167.102 493.281 167.57 493.438C168.039 493.594 168.435 493.818 168.758 494.109C169.086 494.396 169.333 494.75 169.5 495.172C169.672 495.589 169.758 496.057 169.758 496.578ZM173.969 494.414C173.198 494.414 172.583 494.161 172.125 493.656C171.667 493.146 171.438 492.466 171.438 491.617C171.438 490.69 171.68 489.961 172.164 489.43C172.648 488.893 173.302 488.625 174.125 488.625C174.922 488.625 175.539 488.872 175.977 489.367C176.419 489.862 176.641 490.557 176.641 491.453C176.641 492.349 176.393 493.068 175.898 493.609C175.409 494.146 174.766 494.414 173.969 494.414ZM174.078 489.484C173.583 489.484 173.193 489.669 172.906 490.039C172.62 490.404 172.477 490.906 172.477 491.547C172.477 492.177 172.617 492.669 172.898 493.023C173.18 493.372 173.562 493.547 174.047 493.547C174.536 493.547 174.919 493.365 175.195 493C175.471 492.635 175.609 492.13 175.609 491.484C175.609 490.854 175.471 490.365 175.195 490.016C174.924 489.661 174.552 489.484 174.078 489.484ZM181.469 488.797L174.281 500.078H173.164L180.344 488.797H181.469ZM180.641 500.172C179.87 500.172 179.255 499.917 178.797 499.406C178.339 498.896 178.109 498.219 178.109 497.375C178.109 496.448 178.354 495.716 178.844 495.18C179.333 494.638 179.984 494.367 180.797 494.367C181.589 494.367 182.206 494.617 182.648 495.117C183.091 495.617 183.312 496.318 183.312 497.219C183.312 498.109 183.065 498.826 182.57 499.367C182.081 499.904 181.438 500.172 180.641 500.172ZM180.75 495.25C180.25 495.25 179.857 495.432 179.57 495.797C179.289 496.161 179.148 496.667 179.148 497.312C179.148 497.932 179.289 498.419 179.57 498.773C179.852 499.122 180.234 499.297 180.719 499.297C181.208 499.297 181.591 499.115 181.867 498.75C182.143 498.38 182.281 497.875 182.281 497.234C182.281 496.599 182.143 496.109 181.867 495.766C181.596 495.422 181.224 495.25 180.75 495.25Z" fill="black"/>
<path d="M34.4453 533.828C34.4453 534.333 34.349 534.794 34.1562 535.211C33.9688 535.622 33.7005 535.977 33.3516 536.273C33.0078 536.565 32.5938 536.792 32.1094 536.953C31.625 537.115 31.0911 537.195 30.5078 537.195C29.4401 537.195 28.5911 536.992 27.9609 536.586V535.211C28.7161 535.805 29.5807 536.102 30.5547 536.102C30.9453 536.102 31.2969 536.052 31.6094 535.953C31.9271 535.854 32.1979 535.711 32.4219 535.523C32.651 535.336 32.8255 535.109 32.9453 534.844C33.0703 534.578 33.1328 534.279 33.1328 533.945C33.1328 532.482 32.0911 531.75 30.0078 531.75H29.0781V530.664H29.9609C31.8047 530.664 32.7266 529.977 32.7266 528.602C32.7266 527.331 32.0234 526.695 30.6172 526.695C29.8255 526.695 29.0833 526.961 28.3906 527.492V526.25C29.1042 525.823 29.9531 525.609 30.9375 525.609C31.4062 525.609 31.8307 525.674 32.2109 525.805C32.5911 525.935 32.9167 526.117 33.1875 526.352C33.4583 526.586 33.6667 526.867 33.8125 527.195C33.9635 527.523 34.0391 527.885 34.0391 528.281C34.0391 529.755 33.2943 530.703 31.8047 531.125V531.156C32.1849 531.198 32.5365 531.292 32.8594 531.438C33.1823 531.578 33.4609 531.763 33.6953 531.992C33.9297 532.221 34.112 532.492 34.2422 532.805C34.3776 533.112 34.4453 533.453 34.4453 533.828ZM45.4062 533.047H41.1406V532.039H45.4062V533.047ZM58.9062 526.984H55.6719V537H54.3594V526.984H51.1328V525.797H58.9062V526.984ZM65.3672 533.32H59.7188C59.7396 534.211 59.9792 534.898 60.4375 535.383C60.8958 535.867 61.526 536.109 62.3281 536.109C63.2292 536.109 64.0573 535.812 64.8125 535.219V536.422C64.1094 536.932 63.1797 537.188 62.0234 537.188C60.8932 537.188 60.0052 536.826 59.3594 536.102C58.7135 535.372 58.3906 534.349 58.3906 533.031C58.3906 531.786 58.7422 530.773 59.4453 529.992C60.1536 529.206 61.0312 528.812 62.0781 528.812C63.125 528.812 63.9349 529.151 64.5078 529.828C65.0807 530.505 65.3672 531.445 65.3672 532.648V533.32ZM64.0547 532.234C64.0495 531.495 63.8698 530.919 63.5156 530.508C63.1667 530.096 62.6797 529.891 62.0547 529.891C61.4505 529.891 60.9375 530.107 60.5156 530.539C60.0938 530.971 59.8333 531.536 59.7344 532.234H64.0547ZM73.0391 537H71.7578V535.75H71.7266C71.1693 536.708 70.349 537.188 69.2656 537.188C68.4688 537.188 67.8438 536.977 67.3906 536.555C66.9427 536.133 66.7188 535.573 66.7188 534.875C66.7188 533.38 67.599 532.51 69.3594 532.266L71.7578 531.93C71.7578 530.57 71.2083 529.891 70.1094 529.891C69.1458 529.891 68.276 530.219 67.5 530.875V529.562C68.2865 529.062 69.1927 528.812 70.2188 528.812C72.099 528.812 73.0391 529.807 73.0391 531.797V537ZM71.7578 532.953L69.8281 533.219C69.2344 533.302 68.7865 533.451 68.4844 533.664C68.1823 533.872 68.0312 534.245 68.0312 534.781C68.0312 535.172 68.1693 535.492 68.4453 535.742C68.7266 535.987 69.099 536.109 69.5625 536.109C70.1979 536.109 70.7214 535.888 71.1328 535.445C71.5495 534.997 71.7578 534.432 71.7578 533.75V532.953ZM86.8125 537H85.5312V532.406C85.5312 531.521 85.3932 530.88 85.1172 530.484C84.8464 530.089 84.388 529.891 83.7422 529.891C83.1953 529.891 82.7292 530.141 82.3438 530.641C81.9635 531.141 81.7734 531.74 81.7734 532.438V537H80.4922V532.25C80.4922 530.677 79.8854 529.891 78.6719 529.891C78.1094 529.891 77.6458 530.128 77.2812 530.602C76.9167 531.07 76.7344 531.682 76.7344 532.438V537H75.4531V529H76.7344V530.266H76.7656C77.3333 529.297 78.1615 528.812 79.25 528.812C79.7969 528.812 80.2734 528.966 80.6797 529.273C81.0859 529.576 81.3646 529.974 81.5156 530.469C82.1094 529.365 82.9948 528.812 84.1719 528.812C85.9323 528.812 86.8125 529.898 86.8125 532.07V537ZM97.3359 536.922C97.0339 537.089 96.6354 537.172 96.1406 537.172C94.7396 537.172 94.0391 536.391 94.0391 534.828V530.094H92.6641V529H94.0391V527.047L95.3203 526.633V529H97.3359V530.094H95.3203V534.602C95.3203 535.138 95.4115 535.521 95.5938 535.75C95.776 535.979 96.0781 536.094 96.5 536.094C96.8229 536.094 97.1016 536.005 97.3359 535.828V536.922ZM102.391 537.188C101.208 537.188 100.263 536.815 99.5547 536.07C98.8516 535.32 98.5 534.328 98.5 533.094C98.5 531.75 98.8672 530.701 99.6016 529.945C100.336 529.19 101.328 528.812 102.578 528.812C103.771 528.812 104.701 529.18 105.367 529.914C106.039 530.648 106.375 531.667 106.375 532.969C106.375 534.245 106.013 535.268 105.289 536.039C104.57 536.805 103.604 537.188 102.391 537.188ZM102.484 529.891C101.661 529.891 101.01 530.172 100.531 530.734C100.052 531.292 99.8125 532.062 99.8125 533.047C99.8125 533.995 100.055 534.742 100.539 535.289C101.023 535.836 101.672 536.109 102.484 536.109C103.312 536.109 103.948 535.841 104.391 535.305C104.839 534.768 105.062 534.005 105.062 533.016C105.062 532.016 104.839 531.245 104.391 530.703C103.948 530.161 103.312 529.891 102.484 529.891ZM115.062 537H113.266L109.734 533.156H109.703V537H108.422V525.156H109.703V532.664H109.734L113.094 529H114.773L111.062 532.859L115.062 537ZM122.805 533.32H117.156C117.177 534.211 117.417 534.898 117.875 535.383C118.333 535.867 118.964 536.109 119.766 536.109C120.667 536.109 121.495 535.812 122.25 535.219V536.422C121.547 536.932 120.617 537.188 119.461 537.188C118.331 537.188 117.443 536.826 116.797 536.102C116.151 535.372 115.828 534.349 115.828 533.031C115.828 531.786 116.18 530.773 116.883 529.992C117.591 529.206 118.469 528.812 119.516 528.812C120.562 528.812 121.372 529.151 121.945 529.828C122.518 530.505 122.805 531.445 122.805 532.648V533.32ZM121.492 532.234C121.487 531.495 121.307 530.919 120.953 530.508C120.604 530.096 120.117 529.891 119.492 529.891C118.888 529.891 118.375 530.107 117.953 530.539C117.531 530.971 117.271 531.536 117.172 532.234H121.492ZM131.391 537H130.109V532.438C130.109 530.74 129.49 529.891 128.25 529.891C127.609 529.891 127.078 530.133 126.656 530.617C126.24 531.096 126.031 531.703 126.031 532.438V537H124.75V529H126.031V530.328H126.062C126.667 529.318 127.542 528.812 128.688 528.812C129.562 528.812 130.232 529.096 130.695 529.664C131.159 530.227 131.391 531.042 131.391 532.109V537ZM133.328 536.711V535.336C134.026 535.852 134.794 536.109 135.633 536.109C136.758 536.109 137.32 535.734 137.32 534.984C137.32 534.771 137.271 534.591 137.172 534.445C137.078 534.294 136.948 534.161 136.781 534.047C136.62 533.932 136.427 533.831 136.203 533.742C135.984 533.648 135.747 533.552 135.492 533.453C135.138 533.312 134.826 533.172 134.555 533.031C134.289 532.885 134.065 532.724 133.883 532.547C133.706 532.365 133.57 532.159 133.477 531.93C133.388 531.701 133.344 531.432 133.344 531.125C133.344 530.75 133.43 530.419 133.602 530.133C133.773 529.841 134.003 529.599 134.289 529.406C134.576 529.208 134.901 529.06 135.266 528.961C135.635 528.862 136.016 528.812 136.406 528.812C137.099 528.812 137.719 528.932 138.266 529.172V530.469C137.677 530.083 137 529.891 136.234 529.891C135.995 529.891 135.779 529.919 135.586 529.977C135.393 530.029 135.227 530.104 135.086 530.203C134.951 530.302 134.844 530.422 134.766 530.562C134.693 530.698 134.656 530.849 134.656 531.016C134.656 531.224 134.693 531.398 134.766 531.539C134.844 531.68 134.956 531.805 135.102 531.914C135.247 532.023 135.424 532.122 135.633 532.211C135.841 532.299 136.078 532.396 136.344 532.5C136.698 532.635 137.016 532.776 137.297 532.922C137.578 533.062 137.818 533.224 138.016 533.406C138.214 533.583 138.365 533.789 138.469 534.023C138.578 534.258 138.633 534.536 138.633 534.859C138.633 535.255 138.544 535.599 138.367 535.891C138.195 536.182 137.964 536.424 137.672 536.617C137.38 536.81 137.044 536.953 136.664 537.047C136.284 537.141 135.885 537.188 135.469 537.188C134.646 537.188 133.932 537.029 133.328 536.711ZM150.344 525.797V533.195H151.781V534.367H150.344V537H149.078V534.367H143.812V533.258C144.302 532.706 144.797 532.117 145.297 531.492C145.797 530.862 146.273 530.224 146.727 529.578C147.185 528.932 147.607 528.289 147.992 527.648C148.383 527.003 148.711 526.385 148.977 525.797H150.344ZM145.258 533.195H149.078V527.711C148.688 528.393 148.318 529.003 147.969 529.539C147.62 530.076 147.286 530.562 146.969 531C146.656 531.438 146.357 531.833 146.07 532.188C145.784 532.542 145.513 532.878 145.258 533.195ZM154.797 535.219L153.547 539.062H152.633L153.547 535.219H154.797ZM163.367 533.578C163.367 534.125 163.273 534.62 163.086 535.062C162.898 535.505 162.63 535.885 162.281 536.203C161.938 536.521 161.521 536.766 161.031 536.938C160.542 537.109 159.997 537.195 159.398 537.195C158.357 537.195 157.583 537.039 157.078 536.727V535.367C157.839 535.857 158.617 536.102 159.414 536.102C159.82 536.102 160.185 536.042 160.508 535.922C160.836 535.802 161.115 535.635 161.344 535.422C161.573 535.208 161.747 534.951 161.867 534.648C161.992 534.346 162.055 534.016 162.055 533.656C162.055 532.927 161.81 532.357 161.32 531.945C160.831 531.529 160.12 531.32 159.188 531.32C159.036 531.32 158.878 531.323 158.711 531.328C158.544 531.333 158.378 531.341 158.211 531.352C158.044 531.357 157.88 531.365 157.719 531.375C157.562 531.385 157.419 531.398 157.289 531.414L157.672 525.797H162.852V526.953H158.781L158.555 530.242C158.721 530.232 158.898 530.224 159.086 530.219C159.273 530.208 159.44 530.203 159.586 530.203C160.18 530.203 160.711 530.281 161.18 530.438C161.648 530.594 162.044 530.818 162.367 531.109C162.695 531.396 162.943 531.75 163.109 532.172C163.281 532.589 163.367 533.057 163.367 533.578ZM167.578 531.414C166.807 531.414 166.193 531.161 165.734 530.656C165.276 530.146 165.047 529.466 165.047 528.617C165.047 527.69 165.289 526.961 165.773 526.43C166.258 525.893 166.911 525.625 167.734 525.625C168.531 525.625 169.148 525.872 169.586 526.367C170.029 526.862 170.25 527.557 170.25 528.453C170.25 529.349 170.003 530.068 169.508 530.609C169.018 531.146 168.375 531.414 167.578 531.414ZM167.688 526.484C167.193 526.484 166.802 526.669 166.516 527.039C166.229 527.404 166.086 527.906 166.086 528.547C166.086 529.177 166.227 529.669 166.508 530.023C166.789 530.372 167.172 530.547 167.656 530.547C168.146 530.547 168.529 530.365 168.805 530C169.081 529.635 169.219 529.13 169.219 528.484C169.219 527.854 169.081 527.365 168.805 527.016C168.534 526.661 168.161 526.484 167.688 526.484ZM175.078 525.797L167.891 537.078H166.773L173.953 525.797H175.078ZM174.25 537.172C173.479 537.172 172.865 536.917 172.406 536.406C171.948 535.896 171.719 535.219 171.719 534.375C171.719 533.448 171.964 532.716 172.453 532.18C172.943 531.638 173.594 531.367 174.406 531.367C175.198 531.367 175.815 531.617 176.258 532.117C176.701 532.617 176.922 533.318 176.922 534.219C176.922 535.109 176.674 535.826 176.18 536.367C175.69 536.904 175.047 537.172 174.25 537.172ZM174.359 532.25C173.859 532.25 173.466 532.432 173.18 532.797C172.898 533.161 172.758 533.667 172.758 534.312C172.758 534.932 172.898 535.419 173.18 535.773C173.461 536.122 173.844 536.297 174.328 536.297C174.818 536.297 175.201 536.115 175.477 535.75C175.753 535.38 175.891 534.875 175.891 534.234C175.891 533.599 175.753 533.109 175.477 532.766C175.206 532.422 174.833 532.25 174.359 532.25Z" fill="black"/>
<path d="M222.641 451.797V459.195H224.078V460.367H222.641V463H221.375V460.367H216.109V459.258C216.599 458.706 217.094 458.117 217.594 457.492C218.094 456.862 218.57 456.224 219.023 455.578C219.482 454.932 219.904 454.289 220.289 453.648C220.68 453.003 221.008 452.385 221.273 451.797H222.641ZM217.555 459.195H221.375V453.711C220.984 454.393 220.615 455.003 220.266 455.539C219.917 456.076 219.583 456.562 219.266 457C218.953 457.438 218.654 457.833 218.367 458.188C218.081 458.542 217.81 458.878 217.555 459.195ZM234.406 459.047H230.141V458.039H234.406V459.047ZM240.758 462.547V461C240.935 461.156 241.146 461.297 241.391 461.422C241.641 461.547 241.901 461.654 242.172 461.742C242.448 461.826 242.724 461.891 243 461.938C243.276 461.984 243.531 462.008 243.766 462.008C244.573 462.008 245.174 461.859 245.57 461.562C245.971 461.26 246.172 460.828 246.172 460.266C246.172 459.964 246.104 459.701 245.969 459.477C245.839 459.253 245.656 459.049 245.422 458.867C245.188 458.68 244.909 458.503 244.586 458.336C244.268 458.164 243.924 457.984 243.555 457.797C243.164 457.599 242.799 457.398 242.461 457.195C242.122 456.992 241.828 456.768 241.578 456.523C241.328 456.279 241.13 456.003 240.984 455.695C240.844 455.383 240.773 455.018 240.773 454.602C240.773 454.091 240.885 453.648 241.109 453.273C241.333 452.893 241.628 452.581 241.992 452.336C242.357 452.091 242.771 451.909 243.234 451.789C243.703 451.669 244.18 451.609 244.664 451.609C245.768 451.609 246.573 451.742 247.078 452.008V453.484C246.417 453.026 245.568 452.797 244.531 452.797C244.245 452.797 243.958 452.828 243.672 452.891C243.385 452.948 243.13 453.044 242.906 453.18C242.682 453.315 242.5 453.49 242.359 453.703C242.219 453.917 242.148 454.177 242.148 454.484C242.148 454.771 242.201 455.018 242.305 455.227C242.414 455.435 242.573 455.625 242.781 455.797C242.99 455.969 243.242 456.135 243.539 456.297C243.841 456.458 244.188 456.635 244.578 456.828C244.979 457.026 245.359 457.234 245.719 457.453C246.078 457.672 246.393 457.914 246.664 458.18C246.935 458.445 247.148 458.74 247.305 459.062C247.466 459.385 247.547 459.755 247.547 460.172C247.547 460.724 247.438 461.193 247.219 461.578C247.005 461.958 246.714 462.268 246.344 462.508C245.979 462.747 245.557 462.919 245.078 463.023C244.599 463.133 244.094 463.188 243.562 463.188C243.385 463.188 243.167 463.172 242.906 463.141C242.646 463.115 242.38 463.073 242.109 463.016C241.839 462.964 241.581 462.898 241.336 462.82C241.096 462.737 240.904 462.646 240.758 462.547ZM252.805 462.922C252.503 463.089 252.104 463.172 251.609 463.172C250.208 463.172 249.508 462.391 249.508 460.828V456.094H248.133V455H249.508V453.047L250.789 452.633V455H252.805V456.094H250.789V460.602C250.789 461.138 250.88 461.521 251.062 461.75C251.245 461.979 251.547 462.094 251.969 462.094C252.292 462.094 252.57 462.005 252.805 461.828V462.922ZM260.242 463H258.961V461.75H258.93C258.372 462.708 257.552 463.188 256.469 463.188C255.672 463.188 255.047 462.977 254.594 462.555C254.146 462.133 253.922 461.573 253.922 460.875C253.922 459.38 254.802 458.51 256.562 458.266L258.961 457.93C258.961 456.57 258.411 455.891 257.312 455.891C256.349 455.891 255.479 456.219 254.703 456.875V455.562C255.49 455.062 256.396 454.812 257.422 454.812C259.302 454.812 260.242 455.807 260.242 457.797V463ZM258.961 458.953L257.031 459.219C256.438 459.302 255.99 459.451 255.688 459.664C255.385 459.872 255.234 460.245 255.234 460.781C255.234 461.172 255.372 461.492 255.648 461.742C255.93 461.987 256.302 462.109 256.766 462.109C257.401 462.109 257.924 461.888 258.336 461.445C258.753 460.997 258.961 460.432 258.961 459.75V458.953ZM269.297 463H267.5L263.969 459.156H263.938V463H262.656V451.156H263.938V458.664H263.969L267.328 455H269.008L265.297 458.859L269.297 463ZM271.266 452.969C271.036 452.969 270.841 452.891 270.68 452.734C270.518 452.578 270.438 452.38 270.438 452.141C270.438 451.901 270.518 451.703 270.68 451.547C270.841 451.385 271.036 451.305 271.266 451.305C271.5 451.305 271.698 451.385 271.859 451.547C272.026 451.703 272.109 451.901 272.109 452.141C272.109 452.37 272.026 452.565 271.859 452.727C271.698 452.888 271.5 452.969 271.266 452.969ZM271.891 463H270.609V455H271.891V463ZM281.125 463H279.844V458.438C279.844 456.74 279.224 455.891 277.984 455.891C277.344 455.891 276.812 456.133 276.391 456.617C275.974 457.096 275.766 457.703 275.766 458.438V463H274.484V455H275.766V456.328H275.797C276.401 455.318 277.276 454.812 278.422 454.812C279.297 454.812 279.966 455.096 280.43 455.664C280.893 456.227 281.125 457.042 281.125 458.109V463ZM290.375 462.359C290.375 465.297 288.969 466.766 286.156 466.766C285.167 466.766 284.302 466.578 283.562 466.203V464.922C284.464 465.422 285.323 465.672 286.141 465.672C288.109 465.672 289.094 464.625 289.094 462.531V461.656H289.062C288.453 462.677 287.536 463.188 286.312 463.188C285.318 463.188 284.516 462.833 283.906 462.125C283.302 461.411 283 460.456 283 459.258C283 457.898 283.326 456.818 283.977 456.016C284.633 455.214 285.529 454.812 286.664 454.812C287.742 454.812 288.542 455.245 289.062 456.109H289.094V455H290.375V462.359ZM289.094 459.383V458.203C289.094 457.568 288.878 457.023 288.445 456.57C288.018 456.117 287.484 455.891 286.844 455.891C286.052 455.891 285.432 456.18 284.984 456.758C284.536 457.331 284.312 458.135 284.312 459.172C284.312 460.062 284.526 460.776 284.953 461.312C285.385 461.844 285.956 462.109 286.664 462.109C287.383 462.109 287.966 461.854 288.414 461.344C288.867 460.833 289.094 460.18 289.094 459.383ZM303.633 459.578C303.633 460.125 303.539 460.62 303.352 461.062C303.164 461.505 302.896 461.885 302.547 462.203C302.203 462.521 301.786 462.766 301.297 462.938C300.807 463.109 300.263 463.195 299.664 463.195C298.622 463.195 297.849 463.039 297.344 462.727V461.367C298.104 461.857 298.883 462.102 299.68 462.102C300.086 462.102 300.451 462.042 300.773 461.922C301.102 461.802 301.38 461.635 301.609 461.422C301.839 461.208 302.013 460.951 302.133 460.648C302.258 460.346 302.32 460.016 302.32 459.656C302.32 458.927 302.076 458.357 301.586 457.945C301.096 457.529 300.385 457.32 299.453 457.32C299.302 457.32 299.143 457.323 298.977 457.328C298.81 457.333 298.643 457.341 298.477 457.352C298.31 457.357 298.146 457.365 297.984 457.375C297.828 457.385 297.685 457.398 297.555 457.414L297.938 451.797H303.117V452.953H299.047L298.82 456.242C298.987 456.232 299.164 456.224 299.352 456.219C299.539 456.208 299.706 456.203 299.852 456.203C300.445 456.203 300.977 456.281 301.445 456.438C301.914 456.594 302.31 456.818 302.633 457.109C302.961 457.396 303.208 457.75 303.375 458.172C303.547 458.589 303.633 459.057 303.633 459.578ZM307.844 457.414C307.073 457.414 306.458 457.161 306 456.656C305.542 456.146 305.312 455.466 305.312 454.617C305.312 453.69 305.555 452.961 306.039 452.43C306.523 451.893 307.177 451.625 308 451.625C308.797 451.625 309.414 451.872 309.852 452.367C310.294 452.862 310.516 453.557 310.516 454.453C310.516 455.349 310.268 456.068 309.773 456.609C309.284 457.146 308.641 457.414 307.844 457.414ZM307.953 452.484C307.458 452.484 307.068 452.669 306.781 453.039C306.495 453.404 306.352 453.906 306.352 454.547C306.352 455.177 306.492 455.669 306.773 456.023C307.055 456.372 307.438 456.547 307.922 456.547C308.411 456.547 308.794 456.365 309.07 456C309.346 455.635 309.484 455.13 309.484 454.484C309.484 453.854 309.346 453.365 309.07 453.016C308.799 452.661 308.427 452.484 307.953 452.484ZM315.344 451.797L308.156 463.078H307.039L314.219 451.797H315.344ZM314.516 463.172C313.745 463.172 313.13 462.917 312.672 462.406C312.214 461.896 311.984 461.219 311.984 460.375C311.984 459.448 312.229 458.716 312.719 458.18C313.208 457.638 313.859 457.367 314.672 457.367C315.464 457.367 316.081 457.617 316.523 458.117C316.966 458.617 317.188 459.318 317.188 460.219C317.188 461.109 316.94 461.826 316.445 462.367C315.956 462.904 315.312 463.172 314.516 463.172ZM314.625 458.25C314.125 458.25 313.732 458.432 313.445 458.797C313.164 459.161 313.023 459.667 313.023 460.312C313.023 460.932 313.164 461.419 313.445 461.773C313.727 462.122 314.109 462.297 314.594 462.297C315.083 462.297 315.466 462.115 315.742 461.75C316.018 461.38 316.156 460.875 316.156 460.234C316.156 459.599 316.018 459.109 315.742 458.766C315.471 458.422 315.099 458.25 314.625 458.25Z" fill="#1D2124"/>
<path d="M223.57 496.578C223.57 497.125 223.477 497.62 223.289 498.062C223.102 498.505 222.833 498.885 222.484 499.203C222.141 499.521 221.724 499.766 221.234 499.938C220.745 500.109 220.201 500.195 219.602 500.195C218.56 500.195 217.786 500.039 217.281 499.727V498.367C218.042 498.857 218.82 499.102 219.617 499.102C220.023 499.102 220.388 499.042 220.711 498.922C221.039 498.802 221.318 498.635 221.547 498.422C221.776 498.208 221.951 497.951 222.07 497.648C222.195 497.346 222.258 497.016 222.258 496.656C222.258 495.927 222.013 495.357 221.523 494.945C221.034 494.529 220.323 494.32 219.391 494.32C219.24 494.32 219.081 494.323 218.914 494.328C218.747 494.333 218.581 494.341 218.414 494.352C218.247 494.357 218.083 494.365 217.922 494.375C217.766 494.385 217.622 494.398 217.492 494.414L217.875 488.797H223.055V489.953H218.984L218.758 493.242C218.924 493.232 219.102 493.224 219.289 493.219C219.477 493.208 219.643 493.203 219.789 493.203C220.383 493.203 220.914 493.281 221.383 493.438C221.852 493.594 222.247 493.818 222.57 494.109C222.898 494.396 223.146 494.75 223.312 495.172C223.484 495.589 223.57 496.057 223.57 496.578ZM234.406 496.047H230.141V495.039H234.406V496.047ZM247.094 500H241.281V488.797H242.594V498.812H247.094V500ZM249.297 489.969C249.068 489.969 248.872 489.891 248.711 489.734C248.549 489.578 248.469 489.38 248.469 489.141C248.469 488.901 248.549 488.703 248.711 488.547C248.872 488.385 249.068 488.305 249.297 488.305C249.531 488.305 249.729 488.385 249.891 488.547C250.057 488.703 250.141 488.901 250.141 489.141C250.141 489.37 250.057 489.565 249.891 489.727C249.729 489.888 249.531 489.969 249.297 489.969ZM249.922 500H248.641V492H249.922V500ZM259.344 503.68H258.062V498.625H258.031C257.474 499.667 256.562 500.188 255.297 500.188C254.292 500.188 253.484 499.831 252.875 499.117C252.271 498.398 251.969 497.422 251.969 496.188C251.969 494.859 252.302 493.799 252.969 493.008C253.635 492.211 254.531 491.812 255.656 491.812C256.75 491.812 257.542 492.245 258.031 493.109H258.062V492H259.344V503.68ZM258.062 496.398V495.234C258.062 494.578 257.846 494.023 257.414 493.57C256.987 493.117 256.443 492.891 255.781 492.891C255.01 492.891 254.401 493.177 253.953 493.75C253.505 494.318 253.281 495.12 253.281 496.156C253.281 497.078 253.497 497.802 253.93 498.328C254.362 498.849 254.919 499.109 255.602 499.109C256.352 499.109 256.948 498.854 257.391 498.344C257.839 497.828 258.062 497.18 258.062 496.398ZM268.406 500H267.125V498.734H267.094C266.562 499.703 265.74 500.188 264.625 500.188C262.719 500.188 261.766 499.052 261.766 496.781V492H263.039V496.578C263.039 498.266 263.685 499.109 264.977 499.109C265.602 499.109 266.115 498.88 266.516 498.422C266.922 497.958 267.125 497.354 267.125 496.609V492H268.406V500ZM271.656 489.969C271.427 489.969 271.232 489.891 271.07 489.734C270.909 489.578 270.828 489.38 270.828 489.141C270.828 488.901 270.909 488.703 271.07 488.547C271.232 488.385 271.427 488.305 271.656 488.305C271.891 488.305 272.089 488.385 272.25 488.547C272.417 488.703 272.5 488.901 272.5 489.141C272.5 489.37 272.417 489.565 272.25 489.727C272.089 489.888 271.891 489.969 271.656 489.969ZM272.281 500H271V492H272.281V500ZM281.703 500H280.422V498.641H280.391C279.797 499.672 278.88 500.188 277.641 500.188C276.635 500.188 275.831 499.831 275.227 499.117C274.628 498.398 274.328 497.422 274.328 496.188C274.328 494.865 274.661 493.805 275.328 493.008C275.995 492.211 276.883 491.812 277.992 491.812C279.091 491.812 279.891 492.245 280.391 493.109H280.422V488.156H281.703V500ZM280.422 496.383V495.203C280.422 494.557 280.208 494.01 279.781 493.562C279.354 493.115 278.812 492.891 278.156 492.891C277.375 492.891 276.76 493.177 276.312 493.75C275.865 494.323 275.641 495.115 275.641 496.125C275.641 497.047 275.854 497.776 276.281 498.312C276.714 498.844 277.292 499.109 278.016 499.109C278.729 499.109 279.307 498.852 279.75 498.336C280.198 497.82 280.422 497.169 280.422 496.383ZM284.953 489.969C284.724 489.969 284.529 489.891 284.367 489.734C284.206 489.578 284.125 489.38 284.125 489.141C284.125 488.901 284.206 488.703 284.367 488.547C284.529 488.385 284.724 488.305 284.953 488.305C285.188 488.305 285.385 488.385 285.547 488.547C285.714 488.703 285.797 488.901 285.797 489.141C285.797 489.37 285.714 489.565 285.547 489.727C285.385 489.888 285.188 489.969 284.953 489.969ZM285.578 500H284.297V492H285.578V500ZM291.883 499.922C291.581 500.089 291.182 500.172 290.688 500.172C289.286 500.172 288.586 499.391 288.586 497.828V493.094H287.211V492H288.586V490.047L289.867 489.633V492H291.883V493.094H289.867V497.602C289.867 498.138 289.958 498.521 290.141 498.75C290.323 498.979 290.625 499.094 291.047 499.094C291.37 499.094 291.648 499.005 291.883 498.828V499.922ZM299.961 492L296.281 501.281C295.625 502.938 294.703 503.766 293.516 503.766C293.182 503.766 292.904 503.732 292.68 503.664V502.516C292.956 502.609 293.208 502.656 293.438 502.656C294.083 502.656 294.568 502.271 294.891 501.5L295.531 499.984L292.406 492H293.828L295.992 498.156C296.018 498.234 296.073 498.438 296.156 498.766H296.203C296.229 498.641 296.281 498.443 296.359 498.172L298.633 492H299.961ZM312.008 496.578C312.008 497.125 311.914 497.62 311.727 498.062C311.539 498.505 311.271 498.885 310.922 499.203C310.578 499.521 310.161 499.766 309.672 499.938C309.182 500.109 308.638 500.195 308.039 500.195C306.997 500.195 306.224 500.039 305.719 499.727V498.367C306.479 498.857 307.258 499.102 308.055 499.102C308.461 499.102 308.826 499.042 309.148 498.922C309.477 498.802 309.755 498.635 309.984 498.422C310.214 498.208 310.388 497.951 310.508 497.648C310.633 497.346 310.695 497.016 310.695 496.656C310.695 495.927 310.451 495.357 309.961 494.945C309.471 494.529 308.76 494.32 307.828 494.32C307.677 494.32 307.518 494.323 307.352 494.328C307.185 494.333 307.018 494.341 306.852 494.352C306.685 494.357 306.521 494.365 306.359 494.375C306.203 494.385 306.06 494.398 305.93 494.414L306.312 488.797H311.492V489.953H307.422L307.195 493.242C307.362 493.232 307.539 493.224 307.727 493.219C307.914 493.208 308.081 493.203 308.227 493.203C308.82 493.203 309.352 493.281 309.82 493.438C310.289 493.594 310.685 493.818 311.008 494.109C311.336 494.396 311.583 494.75 311.75 495.172C311.922 495.589 312.008 496.057 312.008 496.578ZM316.219 494.414C315.448 494.414 314.833 494.161 314.375 493.656C313.917 493.146 313.688 492.466 313.688 491.617C313.688 490.69 313.93 489.961 314.414 489.43C314.898 488.893 315.552 488.625 316.375 488.625C317.172 488.625 317.789 488.872 318.227 489.367C318.669 489.862 318.891 490.557 318.891 491.453C318.891 492.349 318.643 493.068 318.148 493.609C317.659 494.146 317.016 494.414 316.219 494.414ZM316.328 489.484C315.833 489.484 315.443 489.669 315.156 490.039C314.87 490.404 314.727 490.906 314.727 491.547C314.727 492.177 314.867 492.669 315.148 493.023C315.43 493.372 315.812 493.547 316.297 493.547C316.786 493.547 317.169 493.365 317.445 493C317.721 492.635 317.859 492.13 317.859 491.484C317.859 490.854 317.721 490.365 317.445 490.016C317.174 489.661 316.802 489.484 316.328 489.484ZM323.719 488.797L316.531 500.078H315.414L322.594 488.797H323.719ZM322.891 500.172C322.12 500.172 321.505 499.917 321.047 499.406C320.589 498.896 320.359 498.219 320.359 497.375C320.359 496.448 320.604 495.716 321.094 495.18C321.583 494.638 322.234 494.367 323.047 494.367C323.839 494.367 324.456 494.617 324.898 495.117C325.341 495.617 325.562 496.318 325.562 497.219C325.562 498.109 325.315 498.826 324.82 499.367C324.331 499.904 323.688 500.172 322.891 500.172ZM323 495.25C322.5 495.25 322.107 495.432 321.82 495.797C321.539 496.161 321.398 496.667 321.398 497.312C321.398 497.932 321.539 498.419 321.82 498.773C322.102 499.122 322.484 499.297 322.969 499.297C323.458 499.297 323.841 499.115 324.117 498.75C324.393 498.38 324.531 497.875 324.531 497.234C324.531 496.599 324.393 496.109 324.117 495.766C323.846 495.422 323.474 495.25 323 495.25Z" fill="#1D2124"/>
<path d="M223.984 533.445C223.984 533.992 223.896 534.495 223.719 534.953C223.542 535.411 223.297 535.807 222.984 536.141C222.672 536.474 222.299 536.734 221.867 536.922C221.435 537.104 220.966 537.195 220.461 537.195C219.898 537.195 219.393 537.078 218.945 536.844C218.503 536.609 218.125 536.273 217.812 535.836C217.505 535.393 217.271 534.854 217.109 534.219C216.948 533.583 216.867 532.867 216.867 532.07C216.867 531.096 216.974 530.214 217.188 529.422C217.406 528.625 217.714 527.945 218.109 527.383C218.51 526.815 218.992 526.378 219.555 526.07C220.117 525.763 220.745 525.609 221.438 525.609C222.208 525.609 222.828 525.716 223.297 525.93V527.141C222.719 526.844 222.109 526.695 221.469 526.695C220.969 526.695 220.518 526.807 220.117 527.031C219.716 527.255 219.372 527.573 219.086 527.984C218.799 528.391 218.578 528.883 218.422 529.461C218.271 530.039 218.195 530.682 218.195 531.391H218.227C218.742 530.458 219.594 529.992 220.781 529.992C221.271 529.992 221.711 530.076 222.102 530.242C222.497 530.409 222.833 530.646 223.109 530.953C223.391 531.255 223.607 531.617 223.758 532.039C223.909 532.461 223.984 532.93 223.984 533.445ZM222.672 533.609C222.672 533.219 222.622 532.867 222.523 532.555C222.424 532.242 222.281 531.977 222.094 531.758C221.911 531.539 221.685 531.372 221.414 531.258C221.143 531.138 220.836 531.078 220.492 531.078C220.174 531.078 219.88 531.138 219.609 531.258C219.339 531.378 219.104 531.542 218.906 531.75C218.708 531.953 218.552 532.193 218.438 532.469C218.328 532.74 218.273 533.029 218.273 533.336C218.273 533.721 218.328 534.083 218.438 534.422C218.547 534.755 218.701 535.047 218.898 535.297C219.096 535.547 219.331 535.745 219.602 535.891C219.878 536.031 220.182 536.102 220.516 536.102C220.839 536.102 221.133 536.042 221.398 535.922C221.664 535.797 221.891 535.625 222.078 535.406C222.266 535.188 222.411 534.927 222.516 534.625C222.62 534.318 222.672 533.979 222.672 533.609ZM234.406 533.047H230.141V532.039H234.406V533.047ZM252.703 537H251.398V529.484C251.398 528.891 251.435 528.164 251.508 527.305H251.477C251.352 527.81 251.24 528.172 251.141 528.391L247.312 537H246.672L242.852 528.453C242.742 528.203 242.63 527.82 242.516 527.305H242.484C242.526 527.753 242.547 528.484 242.547 529.5V537H241.281V525.797H243.016L246.453 533.609C246.719 534.208 246.891 534.656 246.969 534.953H247.016C247.24 534.339 247.419 533.88 247.555 533.578L251.062 525.797H252.703V537ZM261.211 537H259.93V535.75H259.898C259.341 536.708 258.521 537.188 257.438 537.188C256.641 537.188 256.016 536.977 255.562 536.555C255.115 536.133 254.891 535.573 254.891 534.875C254.891 533.38 255.771 532.51 257.531 532.266L259.93 531.93C259.93 530.57 259.38 529.891 258.281 529.891C257.318 529.891 256.448 530.219 255.672 530.875V529.562C256.458 529.062 257.365 528.812 258.391 528.812C260.271 528.812 261.211 529.807 261.211 531.797V537ZM259.93 532.953L258 533.219C257.406 533.302 256.958 533.451 256.656 533.664C256.354 533.872 256.203 534.245 256.203 534.781C256.203 535.172 256.341 535.492 256.617 535.742C256.898 535.987 257.271 536.109 257.734 536.109C258.37 536.109 258.893 535.888 259.305 535.445C259.721 534.997 259.93 534.432 259.93 533.75V532.953ZM267.797 530.297C267.573 530.125 267.25 530.039 266.828 530.039C266.281 530.039 265.823 530.297 265.453 530.812C265.089 531.328 264.906 532.031 264.906 532.922V537H263.625V529H264.906V530.648H264.938C265.12 530.086 265.398 529.648 265.773 529.336C266.148 529.018 266.568 528.859 267.031 528.859C267.365 528.859 267.62 528.896 267.797 528.969V530.297ZM275.828 537H274.031L270.5 533.156H270.469V537H269.188V525.156H270.469V532.664H270.5L273.859 529H275.539L271.828 532.859L275.828 537ZM283.57 533.32H277.922C277.943 534.211 278.182 534.898 278.641 535.383C279.099 535.867 279.729 536.109 280.531 536.109C281.432 536.109 282.26 535.812 283.016 535.219V536.422C282.312 536.932 281.383 537.188 280.227 537.188C279.096 537.188 278.208 536.826 277.562 536.102C276.917 535.372 276.594 534.349 276.594 533.031C276.594 531.786 276.945 530.773 277.648 529.992C278.357 529.206 279.234 528.812 280.281 528.812C281.328 528.812 282.138 529.151 282.711 529.828C283.284 530.505 283.57 531.445 283.57 532.648V533.32ZM282.258 532.234C282.253 531.495 282.073 530.919 281.719 530.508C281.37 530.096 280.883 529.891 280.258 529.891C279.654 529.891 279.141 530.107 278.719 530.539C278.297 530.971 278.036 531.536 277.938 532.234H282.258ZM289.227 536.922C288.924 537.089 288.526 537.172 288.031 537.172C286.63 537.172 285.93 536.391 285.93 534.828V530.094H284.555V529H285.93V527.047L287.211 526.633V529H289.227V530.094H287.211V534.602C287.211 535.138 287.302 535.521 287.484 535.75C287.667 535.979 287.969 536.094 288.391 536.094C288.714 536.094 288.992 536.005 289.227 535.828V536.922ZM291.594 526.969C291.365 526.969 291.169 526.891 291.008 526.734C290.846 526.578 290.766 526.38 290.766 526.141C290.766 525.901 290.846 525.703 291.008 525.547C291.169 525.385 291.365 525.305 291.594 525.305C291.828 525.305 292.026 525.385 292.188 525.547C292.354 525.703 292.438 525.901 292.438 526.141C292.438 526.37 292.354 526.565 292.188 526.727C292.026 526.888 291.828 526.969 291.594 526.969ZM292.219 537H290.938V529H292.219V537ZM301.453 537H300.172V532.438C300.172 530.74 299.552 529.891 298.312 529.891C297.672 529.891 297.141 530.133 296.719 530.617C296.302 531.096 296.094 531.703 296.094 532.438V537H294.812V529H296.094V530.328H296.125C296.729 529.318 297.604 528.812 298.75 528.812C299.625 528.812 300.294 529.096 300.758 529.664C301.221 530.227 301.453 531.042 301.453 532.109V537ZM310.703 536.359C310.703 539.297 309.297 540.766 306.484 540.766C305.495 540.766 304.63 540.578 303.891 540.203V538.922C304.792 539.422 305.651 539.672 306.469 539.672C308.438 539.672 309.422 538.625 309.422 536.531V535.656H309.391C308.781 536.677 307.865 537.188 306.641 537.188C305.646 537.188 304.844 536.833 304.234 536.125C303.63 535.411 303.328 534.456 303.328 533.258C303.328 531.898 303.654 530.818 304.305 530.016C304.961 529.214 305.857 528.812 306.992 528.812C308.07 528.812 308.87 529.245 309.391 530.109H309.422V529H310.703V536.359ZM309.422 533.383V532.203C309.422 531.568 309.206 531.023 308.773 530.57C308.346 530.117 307.812 529.891 307.172 529.891C306.38 529.891 305.76 530.18 305.312 530.758C304.865 531.331 304.641 532.135 304.641 533.172C304.641 534.062 304.854 534.776 305.281 535.312C305.714 535.844 306.284 536.109 306.992 536.109C307.711 536.109 308.294 535.854 308.742 535.344C309.195 534.833 309.422 534.18 309.422 533.383ZM322.047 537H320.766V527.32C320.667 527.419 320.521 527.534 320.328 527.664C320.141 527.789 319.927 527.914 319.688 528.039C319.453 528.164 319.203 528.281 318.938 528.391C318.677 528.5 318.422 528.586 318.172 528.648V527.352C318.453 527.273 318.75 527.169 319.062 527.039C319.38 526.904 319.69 526.755 319.992 526.594C320.299 526.427 320.589 526.255 320.859 526.078C321.13 525.896 321.365 525.719 321.562 525.547H322.047V537ZM332.984 531.352C332.984 532.289 332.898 533.12 332.727 533.844C332.56 534.568 332.315 535.18 331.992 535.68C331.674 536.174 331.281 536.552 330.812 536.812C330.349 537.068 329.82 537.195 329.227 537.195C328.664 537.195 328.161 537.073 327.719 536.828C327.281 536.578 326.911 536.216 326.609 535.742C326.307 535.268 326.078 534.688 325.922 534C325.766 533.307 325.688 532.516 325.688 531.625C325.688 530.646 325.768 529.781 325.93 529.031C326.096 528.281 326.339 527.654 326.656 527.148C326.974 526.638 327.367 526.255 327.836 526C328.31 525.74 328.852 525.609 329.461 525.609C331.81 525.609 332.984 527.523 332.984 531.352ZM331.672 531.477C331.672 528.289 330.914 526.695 329.398 526.695C327.799 526.695 327 528.318 327 531.562C327 534.589 327.784 536.102 329.352 536.102C330.898 536.102 331.672 534.56 331.672 531.477ZM336.797 531.414C336.026 531.414 335.411 531.161 334.953 530.656C334.495 530.146 334.266 529.466 334.266 528.617C334.266 527.69 334.508 526.961 334.992 526.43C335.477 525.893 336.13 525.625 336.953 525.625C337.75 525.625 338.367 525.872 338.805 526.367C339.247 526.862 339.469 527.557 339.469 528.453C339.469 529.349 339.221 530.068 338.727 530.609C338.237 531.146 337.594 531.414 336.797 531.414ZM336.906 526.484C336.411 526.484 336.021 526.669 335.734 527.039C335.448 527.404 335.305 527.906 335.305 528.547C335.305 529.177 335.445 529.669 335.727 530.023C336.008 530.372 336.391 530.547 336.875 530.547C337.365 530.547 337.747 530.365 338.023 530C338.299 529.635 338.438 529.13 338.438 528.484C338.438 527.854 338.299 527.365 338.023 527.016C337.753 526.661 337.38 526.484 336.906 526.484ZM344.297 525.797L337.109 537.078H335.992L343.172 525.797H344.297ZM343.469 537.172C342.698 537.172 342.083 536.917 341.625 536.406C341.167 535.896 340.938 535.219 340.938 534.375C340.938 533.448 341.182 532.716 341.672 532.18C342.161 531.638 342.812 531.367 343.625 531.367C344.417 531.367 345.034 531.617 345.477 532.117C345.919 532.617 346.141 533.318 346.141 534.219C346.141 535.109 345.893 535.826 345.398 536.367C344.909 536.904 344.266 537.172 343.469 537.172ZM343.578 532.25C343.078 532.25 342.685 532.432 342.398 532.797C342.117 533.161 341.977 533.667 341.977 534.312C341.977 534.932 342.117 535.419 342.398 535.773C342.68 536.122 343.062 536.297 343.547 536.297C344.036 536.297 344.419 536.115 344.695 535.75C344.971 535.38 345.109 534.875 345.109 534.234C345.109 533.599 344.971 533.109 344.695 532.766C344.424 532.422 344.052 532.25 343.578 532.25Z" fill="#1D2124"/>
</svg>
