<svg width="347" height="4" viewBox="0 0 347 4" fill="none" xmlns="http://www.w3.org/2000/svg">
<path d="M0.666667 2C0.666667 2.73638 1.26362 3.33333 2 3.33333C2.73638 3.33333 3.33333 2.73638 3.33333 2C3.33333 1.26362 2.73638 0.666667 2 0.666667C1.26362 0.666667 0.666667 1.26362 0.666667 2ZM343.667 2C343.667 2.73638 344.264 3.33333 345 3.33333C345.736 3.33333 346.333 2.73638 346.333 2C346.333 1.26362 345.736 0.666667 345 0.666667C344.264 0.666667 343.667 1.26362 343.667 2ZM2 2.25H345V1.75H2V2.25Z" fill="#C1D1D6"/>
</svg>
