<svg width="97" height="32" viewBox="0 0 97 32" fill="none" xmlns="http://www.w3.org/2000/svg">
<path d="M10.0919 0.00353307L0.000976562 10.0945L1.39283 11.4863L11.4838 1.39539L10.0919 0.00353307Z" fill="#C1D1D6"/>
<path d="M20.1876 0.00573034L10.0967 10.0967L11.4885 11.4885L21.5795 1.39759L20.1876 0.00573034Z" fill="#C1D1D6"/>
<path d="M30.2736 0.0079276L20.1826 10.0989L21.5745 11.4907L31.6654 1.39978L30.2736 0.0079276Z" fill="#C1D1D6"/>
<path d="M40.3595 0.000115101L30.2686 10.0911L31.6604 11.4829L41.7514 1.39197L40.3595 0.000115101Z" fill="#C1D1D6"/>
<path d="M50.445 0.00206823L40.354 10.093L41.7459 11.4849L51.8368 1.39392L50.445 0.00206823Z" fill="#C1D1D6"/>
<path d="M60.5309 0.00426279L50.4399 10.0952L51.8318 11.4871L61.9227 1.39612L60.5309 0.00426279Z" fill="#C1D1D6"/>
<path d="M70.6266 0.00646006L60.5356 10.0974L61.9275 11.4893L72.0185 1.39832L70.6266 0.00646006Z" fill="#C1D1D6"/>
<path d="M80.7125 0.00866002L70.6216 10.0996L72.0134 11.4915L82.1044 1.40052L80.7125 0.00866002Z" fill="#C1D1D6"/>
<path d="M90.7985 0.000847523L80.7075 10.0918L82.0994 11.4837L92.1903 1.3927L90.7985 0.000847523Z" fill="#C1D1D6"/>
<path d="M100.884 0.00304479L90.793 10.094L92.1848 11.4858L102.276 1.3949L100.884 0.00304479Z" fill="#C1D1D6"/>
<path d="M10.0909 19.9322L0 30.0232L1.39186 31.415L11.4828 21.3241L10.0909 19.9322Z" fill="#C1D1D6"/>
<path d="M20.1769 19.9344L10.0859 30.0254L11.4778 31.4172L21.5687 21.3263L20.1769 19.9344Z" fill="#C1D1D6"/>
<path d="M30.2726 19.9364L20.1816 30.0273L21.5735 31.4192L31.6644 21.3282L30.2726 19.9364Z" fill="#C1D1D6"/>
<path d="M40.3585 19.9288L30.2676 30.0198L31.6594 31.4116L41.7504 21.3207L40.3585 19.9288Z" fill="#C1D1D6"/>
<path d="M50.444 19.931L40.353 30.022L41.7449 31.4138L51.8358 21.3229L50.444 19.931Z" fill="#C1D1D6"/>
<path d="M60.5299 19.9332L50.439 30.0242L51.8308 31.416L61.9218 21.3251L60.5299 19.9332Z" fill="#C1D1D6"/>
<path d="M70.6159 19.9349L60.5249 30.0259L61.9168 31.4177L72.0077 21.3268L70.6159 19.9349Z" fill="#C1D1D6"/>
<path d="M80.7116 19.9274L70.6206 30.0183L72.0125 31.4102L82.1034 21.3192L80.7116 19.9274Z" fill="#C1D1D6"/>
<path d="M90.797 19.9298L80.7061 30.0208L82.0979 31.4126L92.1889 21.3217L90.797 19.9298Z" fill="#C1D1D6"/>
<path d="M100.883 19.9318L90.792 30.0227L92.1838 31.4146L102.275 21.3236L100.883 19.9318Z" fill="#C1D1D6"/>
</svg>
