<svg width="198" height="83" viewBox="0 0 198 83" fill="none" xmlns="http://www.w3.org/2000/svg">
<path d="M7.9375 65.6562V56.4375L29.8125 49.1562V49.0312L7.9375 41.7188V32.5L38.9062 45.25V52.7188L7.9375 65.6562ZM95.7812 67H81.7031V33.2031H79.5312L65.5781 45.4375L58.0938 36.0938L74.4062 21.375H95.7812V67ZM114.064 21.375V67.0625H128.158V35C128.158 34.6146 128.09 34.125 127.955 33.5312C127.663 32.1667 127.518 31.4635 127.518 31.4219C127.518 31.1198 127.643 30.9688 127.893 30.9688C128.07 30.9688 128.262 31.1823 128.471 31.6094C128.689 32.0365 128.924 32.526 129.174 33.0781L146.705 67.0625H158.236L174.486 33.2031C174.653 32.776 174.866 32.3073 175.127 31.7969C175.387 31.3281 175.601 31.0938 175.768 31.0938C176.028 31.0938 176.158 31.2656 176.158 31.6094C176.158 31.776 176.049 32.2656 175.83 33.0781C175.622 33.8906 175.518 34.5729 175.518 35.125V67.0625H189.596V21.375H165.596L153.564 47.0312C153.304 48.6979 153.111 50.0208 152.986 51C152.809 52.0208 152.637 52.5312 152.471 52.5312C152.262 52.5312 152.07 51.6771 151.893 49.9688C151.684 48.3125 151.512 47.3333 151.377 47.0312L139.346 21.375H114.064Z" fill="#30CFD0"/>
</svg>
