<svg width="32" height="32" viewBox="0 0 32 32" fill="none" xmlns="http://www.w3.org/2000/svg">
<path d="M14.3333 3.26676C15.2533 2.48009 16.76 2.48009 17.6933 3.26676L19.8 5.08023C20.2 5.4269 20.9467 5.70686 21.48 5.70686H23.7467C25.16 5.70686 26.32 6.86677 26.32 8.2801V10.5469C26.32 11.0669 26.6 11.8269 26.9467 12.2269L28.76 14.3335C29.5467 15.2535 29.5467 16.7602 28.76 17.6935L26.9467 19.8001C26.6 20.2001 26.32 20.9468 26.32 21.4801V23.7469C26.32 25.1602 25.16 26.3201 23.7467 26.3201H21.48C20.96 26.3201 20.2 26.6001 19.8 26.9468L17.6933 28.7601C16.7733 29.5467 15.2667 29.5467 14.3333 28.7601L12.2267 26.9468C11.8267 26.6001 11.08 26.3201 10.5467 26.3201H8.23999C6.82666 26.3201 5.66667 25.1602 5.66667 23.7469V21.4668C5.66667 20.9468 5.38668 20.2001 5.05335 19.8001L3.25334 17.6802C2.48001 16.7602 2.48001 15.2668 3.25334 14.3468L5.05335 12.2269C5.38668 11.8269 5.66667 11.0802 5.66667 10.5602V8.2801C5.66667 6.86677 6.82666 5.70686 8.23999 5.70686H10.5467C11.0667 5.70686 11.8267 5.4269 12.2267 5.08023L14.3333 3.26676Z" stroke="#819297" stroke-width="1.5" stroke-linecap="round" stroke-linejoin="round"/>
<path d="M13.1867 19.7601L15.12 21.2535C15.3734 21.5068 15.9334 21.6268 16.3067 21.6268H18.6667C19.4134 21.6268 20.2267 21.0669 20.4134 20.3202L21.9067 15.7601C22.2134 14.8935 21.6534 14.1335 20.7201 14.1335H18.2267C17.8534 14.1335 17.5467 13.8269 17.6001 13.3869L17.9067 11.3869C18.0267 10.8269 17.6534 10.2002 17.0934 10.0136C16.6001 9.82689 15.9734 10.0802 15.7201 10.4535L13.16 14.2535" stroke="#819297" stroke-width="1.5" stroke-miterlimit="10"/>
<path d="M10 19.7601V13.6535C10 12.7735 10.3733 12.4668 11.2533 12.4668H11.88C12.7467 12.4668 13.1333 12.7735 13.1333 13.6535V19.7601C13.1333 20.6268 12.76 20.9468 11.88 20.9468H11.2533C10.3733 20.9468 10 20.6401 10 19.7601Z" stroke="#819297" stroke-width="1.5" stroke-linecap="round" stroke-linejoin="round"/>
</svg>
