<svg width="112" height="32" viewBox="0 0 112 32" fill="none" xmlns="http://www.w3.org/2000/svg">
<g style="mix-blend-mode:multiply">
<g style="mix-blend-mode:multiply">
<path d="M103.948 28.5937C103.948 28.0802 104.1 27.5783 104.386 27.1514C104.671 26.7244 105.077 26.3917 105.551 26.1952C106.025 25.9987 106.547 25.9473 107.051 26.0474C107.555 26.1476 108.017 26.3949 108.38 26.7579C108.743 27.121 108.991 27.5836 109.091 28.0873C109.191 28.5909 109.139 29.1129 108.943 29.5873C108.746 30.0617 108.414 30.4671 107.987 30.7524C107.56 31.0377 107.058 31.1899 106.544 31.1899C106.203 31.1899 105.866 31.1228 105.551 30.9923C105.236 30.8618 104.95 30.6706 104.709 30.4295C104.468 30.1884 104.276 29.9023 104.146 29.5873C104.015 29.2723 103.948 28.9347 103.948 28.5937Z" fill="#C1D1D6"/>
</g>
<g style="mix-blend-mode:multiply">
<path d="M103.747 2.63206C103.747 2.11858 103.899 1.61664 104.184 1.1897C104.469 0.762755 104.875 0.430009 105.349 0.233508C105.824 0.0370075 106.346 -0.0144122 106.849 0.0857633C107.353 0.185938 107.815 0.433181 108.179 0.796266C108.542 1.15935 108.789 1.62198 108.889 2.12559C108.989 2.62921 108.938 3.15121 108.741 3.6256C108.545 4.1 108.212 4.50546 107.785 4.79073C107.358 5.07601 106.856 5.22827 106.343 5.22827C106.002 5.22827 105.664 5.16112 105.349 5.03065C105.034 4.90018 104.748 4.70893 104.507 4.46785C104.266 4.22677 104.075 3.94059 103.944 3.6256C103.814 3.31062 103.747 2.973 103.747 2.63206Z" fill="#C1D1D6"/>
</g>
<g style="mix-blend-mode:multiply">
<path d="M78.0552 28.5581C78.0552 28.0446 78.2074 27.5427 78.4927 27.1157C78.778 26.6888 79.1834 26.356 79.6578 26.1595C80.1322 25.963 80.6542 25.9116 81.1578 26.0118C81.6615 26.112 82.124 26.3592 82.4871 26.7223C82.8502 27.0854 83.0975 27.548 83.1977 28.0516C83.2978 28.5552 83.2464 29.0772 83.0499 29.5516C82.8534 30.026 82.5207 30.4315 82.0937 30.7168C81.6668 31.002 81.1648 31.1543 80.6513 31.1543C79.9628 31.1543 79.3024 30.8808 78.8155 30.3939C78.3287 29.907 78.0552 29.2466 78.0552 28.5581Z" fill="#C1D1D6"/>
</g>
<g style="mix-blend-mode:multiply">
<path d="M26.1313 28.5581C26.1313 28.0446 26.2836 27.5427 26.5689 27.1157C26.8541 26.6888 27.2596 26.356 27.734 26.1595C28.2084 25.963 28.7304 25.9116 29.234 26.0118C29.7376 26.112 30.2002 26.3592 30.5633 26.7223C30.9264 27.0854 31.1737 27.548 31.2738 28.0516C31.374 28.5552 31.3226 29.0772 31.1261 29.5516C30.9296 30.026 30.5969 30.4315 30.1699 30.7168C29.743 31.002 29.241 31.1543 28.7275 31.1543C28.039 31.1543 27.3786 30.8808 26.8917 30.3939C26.4048 29.907 26.1313 29.2466 26.1313 28.5581Z" fill="#C1D1D6"/>
</g>
<g style="mix-blend-mode:multiply">
<path d="M77.8535 2.59617C77.8535 2.08269 78.0058 1.58075 78.291 1.15381C78.5763 0.726867 78.9818 0.39412 79.4562 0.197619C79.9306 0.00111886 80.4526 -0.0503008 80.9562 0.0498746C81.4598 0.15005 81.9224 0.397292 82.2855 0.760378C82.6486 1.12346 82.8958 1.58609 82.996 2.0897C83.0962 2.59332 83.0448 3.11532 82.8483 3.58971C82.6518 4.06411 82.319 4.46957 81.8921 4.75485C81.4651 5.04012 80.9632 5.19238 80.4497 5.19238C79.7611 5.19238 79.1008 4.91885 78.6139 4.43196C78.127 3.94508 77.8535 3.28473 77.8535 2.59617Z" fill="#C1D1D6"/>
</g>
<g style="mix-blend-mode:multiply">
<path d="M25.9297 2.59617C25.9297 2.08269 26.0819 1.58075 26.3672 1.15381C26.6525 0.726867 27.058 0.39412 27.5323 0.197619C28.0067 0.00111886 28.5287 -0.0503008 29.0324 0.0498746C29.536 0.15005 29.9986 0.397292 30.3616 0.760378C30.7247 1.12346 30.972 1.58609 31.0722 2.0897C31.1724 2.59332 31.1209 3.11532 30.9244 3.58971C30.7279 4.06411 30.3952 4.46957 29.9682 4.75485C29.5413 5.04012 29.0393 5.19238 28.5259 5.19238C27.8373 5.19238 27.1769 4.91885 26.6901 4.43196C26.2032 3.94508 25.9297 3.28473 25.9297 2.59617Z" fill="#C1D1D6"/>
</g>
<g style="mix-blend-mode:multiply">
<path d="M52.1255 28.5581C52.1255 28.0446 52.2777 27.5427 52.563 27.1157C52.8483 26.6888 53.2538 26.356 53.7282 26.1595C54.2026 25.963 54.7246 25.9116 55.2282 26.0118C55.7318 26.112 56.1944 26.3592 56.5575 26.7223C56.9205 27.0854 57.1678 27.548 57.268 28.0516C57.3682 28.5552 57.3167 29.0772 57.1202 29.5516C56.9237 30.026 56.591 30.4315 56.164 30.7168C55.7371 31.002 55.2351 31.1543 54.7217 31.1543C54.0331 31.1543 53.3728 30.8808 52.8859 30.3939C52.399 29.907 52.1255 29.2466 52.1255 28.5581Z" fill="#C1D1D6"/>
</g>
<g style="mix-blend-mode:multiply">
<path d="M0.20165 28.5581C0.20165 28.0446 0.353912 27.5427 0.639185 27.1157C0.924457 26.6888 1.32995 26.356 1.80435 26.1595C2.27874 25.963 2.80073 25.9116 3.30434 26.0118C3.80795 26.112 4.27054 26.3592 4.63362 26.7223C4.99671 27.0854 5.24398 27.548 5.34416 28.0516C5.44433 28.5552 5.39291 29.0772 5.19641 29.5516C4.99992 30.026 4.66713 30.4315 4.24019 30.7168C3.81325 31.002 3.31132 31.1543 2.79784 31.1543C2.10929 31.1543 1.44894 30.8808 0.962062 30.3939C0.475184 29.907 0.20165 29.2466 0.20165 28.5581Z" fill="#C1D1D6"/>
</g>
<g style="mix-blend-mode:multiply">
<path d="M51.9238 2.59617C51.9238 2.08269 52.0761 1.58075 52.3614 1.15381C52.6466 0.726867 53.0521 0.39412 53.5265 0.197619C54.0009 0.00111886 54.5229 -0.0503008 55.0265 0.0498746C55.5301 0.15005 55.9927 0.397292 56.3558 0.760378C56.7189 1.12346 56.9662 1.58609 57.0663 2.0897C57.1665 2.59332 57.1151 3.11532 56.9186 3.58971C56.7221 4.06411 56.3893 4.46957 55.9624 4.75485C55.5354 5.04012 55.0335 5.19238 54.52 5.19238C53.8315 5.19238 53.1711 4.91885 52.6842 4.43196C52.1974 3.94508 51.9238 3.28473 51.9238 2.59617Z" fill="#C1D1D6"/>
</g>
<g style="mix-blend-mode:multiply">
<path d="M-9.78661e-06 2.59617C-9.74172e-06 2.08269 0.152252 1.58075 0.437525 1.15381C0.722797 0.726867 1.12829 0.39412 1.60269 0.197619C2.07708 0.00111886 2.59907 -0.0503008 3.10268 0.0498746C3.60629 0.15005 4.06888 0.397292 4.43196 0.760378C4.79505 1.12346 5.04232 1.58609 5.1425 2.0897C5.24267 2.59332 5.19125 3.11532 4.99475 3.58971C4.79826 4.06411 4.46547 4.46957 4.03853 4.75485C3.61159 5.04012 3.10966 5.19238 2.59618 5.19238C1.90763 5.19238 1.24728 4.91885 0.760402 4.43196C0.273523 3.94508 -9.84681e-06 3.28473 -9.78661e-06 2.59617Z" fill="#C1D1D6"/>
</g>
</g>
</svg>
