<svg width="55" height="95" viewBox="0 0 55 95" fill="none" xmlns="http://www.w3.org/2000/svg">
<g style="mix-blend-mode:multiply">
<g style="mix-blend-mode:multiply">
<path d="M24.8646 4.52084C24.4175 4.52084 23.9805 4.38827 23.6088 4.13989C23.237 3.89151 22.9473 3.53849 22.7762 3.12545C22.6051 2.71242 22.5604 2.25789 22.6476 1.81942C22.7348 1.38094 22.9501 0.978177 23.2662 0.662051C23.5823 0.345925 23.9851 0.13066 24.4236 0.0434414C24.8621 -0.0437774 25.3166 0.000958777 25.7296 0.172045C26.1426 0.343131 26.4957 0.632875 26.7441 1.0046C26.9924 1.37632 27.125 1.81334 27.125 2.26041C27.125 2.85991 26.8868 3.43486 26.4629 3.85877C26.039 4.28268 25.4641 4.52084 24.8646 4.52084Z" fill="#30CFD0"/>
</g>
<g style="mix-blend-mode:multiply">
<path d="M2.26056 4.69638C1.81349 4.69638 1.37647 4.56381 1.00475 4.31543C0.633023 4.06705 0.343312 3.71403 0.172225 3.30099C0.00113889 2.88795 -0.0436302 2.43343 0.0435889 1.99495C0.130808 1.55647 0.346074 1.15371 0.6622 0.837588C0.978326 0.521463 1.38112 0.306197 1.8196 0.218979C2.25808 0.13176 2.71257 0.176496 3.12561 0.347582C3.53865 0.518668 3.89167 0.808412 4.14005 1.18014C4.38843 1.55186 4.521 1.98888 4.521 2.43595C4.521 3.03545 4.28284 3.6104 3.85893 4.03431C3.43501 4.45822 2.86007 4.69638 2.26056 4.69638Z" fill="#30CFD0"/>
</g>
<g style="mix-blend-mode:multiply">
<path d="M24.8646 27.0964C24.4175 27.0964 23.9805 26.9638 23.6088 26.7155C23.237 26.4671 22.9473 26.1141 22.7762 25.701C22.6051 25.288 22.5604 24.8335 22.6476 24.395C22.7348 23.9565 22.9501 23.5538 23.2662 23.2376C23.5823 22.9215 23.9851 22.7062 24.4236 22.619C24.8621 22.5318 25.3166 22.5765 25.7296 22.7476C26.1426 22.9187 26.4957 23.2084 26.7441 23.5802C26.9924 23.9519 27.125 24.3889 27.125 24.836C27.125 25.4355 26.8868 26.0105 26.4629 26.4344C26.039 26.8583 25.4641 27.0964 24.8646 27.0964Z" fill="#30CFD0"/>
</g>
<g style="mix-blend-mode:multiply">
<path d="M2.26056 27.2718C1.81349 27.2718 1.37647 27.1392 1.00475 26.8909C0.633023 26.6425 0.343312 26.2895 0.172225 25.8764C0.00113889 25.4634 -0.0436302 25.0089 0.0435889 24.5704C0.130808 24.1319 0.346074 23.7292 0.6622 23.4131C0.978326 23.0969 1.38112 22.8816 1.8196 22.7944C2.25808 22.7072 2.71257 22.752 3.12561 22.923C3.53865 23.0941 3.89167 23.3838 4.14005 23.7556C4.38843 24.1273 4.521 24.5643 4.521 25.0114C4.521 25.6109 4.28284 26.1859 3.85893 26.6098C3.43501 27.0337 2.86007 27.2718 2.26056 27.2718Z" fill="#30CFD0"/>
</g>
<g style="mix-blend-mode:multiply">
<path d="M24.8646 49.6729C24.4175 49.6729 23.9805 49.5404 23.6088 49.292C23.237 49.0436 22.9473 48.6906 22.7762 48.2775C22.6051 47.8645 22.5604 47.41 22.6476 46.9715C22.7348 46.5331 22.9501 46.1303 23.2662 45.8142C23.5823 45.498 23.9851 45.2828 24.4236 45.1955C24.8621 45.1083 25.3166 45.1531 25.7296 45.3242C26.1426 45.4953 26.4957 45.785 26.7441 46.1567C26.9924 46.5284 27.125 46.9655 27.125 47.4125C27.125 47.7094 27.0665 48.0033 26.9529 48.2775C26.8393 48.5518 26.6728 48.801 26.4629 49.0109C26.253 49.2208 26.0039 49.3873 25.7296 49.5009C25.4554 49.6145 25.1614 49.6729 24.8646 49.6729V49.6729Z" fill="#30CFD0"/>
</g>
<g style="mix-blend-mode:multiply">
<path d="M2.26056 49.8485C1.81349 49.8485 1.37647 49.7159 1.00475 49.4675C0.633023 49.2192 0.343312 48.8661 0.172225 48.4531C0.00113889 48.04 -0.0436302 47.5855 0.0435889 47.1471C0.130808 46.7086 0.346074 46.3058 0.6622 45.9897C0.978326 45.6736 1.38112 45.4583 1.8196 45.3711C2.25808 45.2839 2.71257 45.3286 3.12561 45.4997C3.53865 45.6708 3.89167 45.9605 4.14005 46.3323C4.38843 46.704 4.521 47.141 4.521 47.5881C4.521 47.8849 4.46253 48.1788 4.34893 48.4531C4.23534 48.7273 4.06883 48.9765 3.85893 49.1864C3.64903 49.3963 3.39985 49.5628 3.12561 49.6764C2.85136 49.79 2.55741 49.8485 2.26056 49.8485V49.8485Z" fill="#30CFD0"/>
</g>
<g style="mix-blend-mode:multiply">
<path d="M24.8646 72.2485C24.4175 72.2485 23.9805 72.1159 23.6088 71.8676C23.237 71.6192 22.9473 71.2662 22.7762 70.8531C22.6051 70.4401 22.5604 69.9856 22.6476 69.5471C22.7348 69.1086 22.9501 68.7059 23.2662 68.3897C23.5823 68.0736 23.9851 67.8583 24.4236 67.7711C24.8621 67.6839 25.3166 67.7286 25.7296 67.8997C26.1426 68.0708 26.4957 68.3605 26.7441 68.7323C26.9924 69.104 27.125 69.541 27.125 69.9881C27.125 70.5876 26.8868 71.1626 26.4629 71.5865C26.039 72.0104 25.4641 72.2485 24.8646 72.2485Z" fill="#30CFD0"/>
</g>
<g style="mix-blend-mode:multiply">
<path d="M2.26056 72.4239C1.81349 72.4239 1.37647 72.2913 1.00475 72.043C0.633023 71.7946 0.343312 71.4416 0.172225 71.0285C0.00113889 70.6155 -0.0436302 70.161 0.0435889 69.7225C0.130808 69.284 0.346074 68.8813 0.6622 68.5652C0.978326 68.249 1.38112 68.0337 1.8196 67.9465C2.25808 67.8593 2.71257 67.9041 3.12561 68.0751C3.53865 68.2462 3.89167 68.5359 4.14005 68.9077C4.38843 69.2794 4.521 69.7164 4.521 70.1635C4.521 70.763 4.28284 71.338 3.85893 71.7619C3.43501 72.1858 2.86007 72.4239 2.26056 72.4239Z" fill="#30CFD0"/>
</g>
<g style="mix-blend-mode:multiply">
<path d="M24.8646 94.8246C24.4175 94.8246 23.9805 94.692 23.6088 94.4436C23.237 94.1952 22.9473 93.8422 22.7762 93.4291C22.6051 93.0161 22.5604 92.5616 22.6476 92.1231C22.7348 91.6847 22.9501 91.2819 23.2662 90.9658C23.5823 90.6497 23.9851 90.4344 24.4236 90.3471C24.8621 90.2599 25.3166 90.3047 25.7296 90.4758C26.1426 90.6469 26.4957 90.9366 26.7441 91.3083C26.9924 91.6801 27.125 92.1171 27.125 92.5641C27.125 93.1636 26.8868 93.7386 26.4629 94.1625C26.039 94.5864 25.4641 94.8246 24.8646 94.8246Z" fill="#30CFD0"/>
</g>
<g style="mix-blend-mode:multiply">
<path d="M2.26056 95C1.81349 95 1.37647 94.8674 1.00475 94.619C0.633023 94.3706 0.343312 94.0176 0.172225 93.6046C0.00113889 93.1915 -0.0436302 92.737 0.0435889 92.2986C0.130808 91.8601 0.346074 91.4573 0.6622 91.1412C0.978326 90.8251 1.38112 90.6098 1.8196 90.5226C2.25808 90.4353 2.71257 90.4801 3.12561 90.6512C3.53865 90.8223 3.89167 91.112 4.14005 91.4837C4.38843 91.8555 4.521 92.2925 4.521 92.7395C4.521 93.339 4.28284 93.914 3.85893 94.3379C3.43501 94.7618 2.86007 95 2.26056 95Z" fill="#30CFD0"/>
</g>
<g style="mix-blend-mode:multiply">
<path d="M47.4686 4.69638C47.0215 4.69638 46.5845 4.56381 46.2128 4.31543C45.841 4.06705 45.5513 3.71403 45.3802 3.30099C45.2091 2.88795 45.1644 2.43343 45.2516 1.99495C45.3388 1.55647 45.5541 1.15371 45.8702 0.837588C46.1863 0.521463 46.5891 0.306197 47.0276 0.218979C47.4661 0.13176 47.9206 0.176496 48.3336 0.347582C48.7467 0.518668 49.0997 0.808412 49.3481 1.18014C49.5964 1.55186 49.729 1.98888 49.729 2.43595C49.729 3.03545 49.4908 3.6104 49.0669 4.03431C48.643 4.45822 48.0681 4.69638 47.4686 4.69638Z" fill="#30CFD0"/>
</g>
<g style="mix-blend-mode:multiply">
<path d="M47.4686 27.2718C47.0215 27.2718 46.5845 27.1392 46.2128 26.8909C45.841 26.6425 45.5513 26.2895 45.3802 25.8764C45.2091 25.4634 45.1644 25.0089 45.2516 24.5704C45.3388 24.1319 45.5541 23.7292 45.8702 23.4131C46.1863 23.0969 46.5891 22.8816 47.0276 22.7944C47.4661 22.7072 47.9206 22.752 48.3336 22.923C48.7467 23.0941 49.0997 23.3838 49.3481 23.7556C49.5964 24.1273 49.729 24.5643 49.729 25.0114C49.729 25.6109 49.4908 26.1859 49.0669 26.6098C48.643 27.0337 48.0681 27.2718 47.4686 27.2718Z" fill="#30CFD0"/>
</g>
<g style="mix-blend-mode:multiply">
<path d="M47.4686 49.8485C47.0215 49.8485 46.5845 49.7159 46.2128 49.4675C45.841 49.2192 45.5513 48.8661 45.3802 48.4531C45.2091 48.04 45.1644 47.5855 45.2516 47.1471C45.3388 46.7086 45.5541 46.3058 45.8702 45.9897C46.1863 45.6736 46.5891 45.4583 47.0276 45.3711C47.4661 45.2839 47.9206 45.3286 48.3336 45.4997C48.7467 45.6708 49.0997 45.9605 49.3481 46.3323C49.5964 46.704 49.729 47.141 49.729 47.5881C49.729 47.8849 49.6705 48.1788 49.5569 48.4531C49.4433 48.7273 49.2768 48.9765 49.0669 49.1864C48.857 49.3963 48.6079 49.5628 48.3336 49.6764C48.0594 49.79 47.7654 49.8485 47.4686 49.8485V49.8485Z" fill="#30CFD0"/>
</g>
<g style="mix-blend-mode:multiply">
<path d="M47.4686 72.4239C47.0215 72.4239 46.5845 72.2913 46.2128 72.043C45.841 71.7946 45.5513 71.4416 45.3802 71.0285C45.2091 70.6155 45.1644 70.161 45.2516 69.7225C45.3388 69.284 45.5541 68.8813 45.8702 68.5652C46.1863 68.249 46.5891 68.0337 47.0276 67.9465C47.4661 67.8593 47.9206 67.9041 48.3336 68.0751C48.7467 68.2462 49.0997 68.5359 49.3481 68.9077C49.5964 69.2794 49.729 69.7164 49.729 70.1635C49.729 70.763 49.4908 71.338 49.0669 71.7619C48.643 72.1858 48.0681 72.4239 47.4686 72.4239Z" fill="#30CFD0"/>
</g>
<g style="mix-blend-mode:multiply">
<path d="M47.4686 95C47.0215 95 46.5845 94.8674 46.2128 94.619C45.841 94.3706 45.5513 94.0176 45.3802 93.6046C45.2091 93.1915 45.1644 92.737 45.2516 92.2986C45.3388 91.8601 45.5541 91.4573 45.8702 91.1412C46.1863 90.8251 46.5891 90.6098 47.0276 90.5226C47.4661 90.4353 47.9206 90.4801 48.3336 90.6512C48.7467 90.8223 49.0997 91.112 49.3481 91.4837C49.5964 91.8555 49.729 92.2925 49.729 92.7395C49.729 93.339 49.4908 93.914 49.0669 94.3379C48.643 94.7618 48.0681 95 47.4686 95Z" fill="#30CFD0"/>
</g>
</g>
</svg>
