<svg width="45" height="44" viewBox="0 0 45 44" fill="none" xmlns="http://www.w3.org/2000/svg">
<circle cx="22.5" cy="22" r="22" fill="white" fill-opacity="0.1"/>
<g clip-path="url(#clip0_329_2604)">
<path d="M16.9408 8.75977H27.9023C27.942 8.77515 27.9833 8.78635 28.0253 8.7932C29.396 8.88707 30.7192 9.32991 31.8674 10.079C33.6159 11.215 34.7886 12.7792 35.3429 14.7806C35.4938 15.3271 35.5554 15.898 35.6583 16.458V27.345C35.6233 27.588 35.5936 27.8316 35.5534 28.0747C35.2244 30.1577 34.2311 31.8717 32.594 33.2012C31.0281 34.4735 29.2085 35.0509 27.1893 35.0464C24.0622 35.0393 20.9344 35.0496 17.8072 35.0399C17.2657 35.0424 16.7247 35.0065 16.1883 34.9326C14.3828 34.669 12.8338 33.8718 11.5633 32.5795C9.94436 30.9337 9.18281 28.9368 9.18605 26.6416C9.19079 23.4772 9.19079 20.3126 9.18605 17.1478C9.18605 15.7842 9.44508 14.4791 10.0868 13.2659C11.211 11.1353 12.9362 9.71706 15.2733 9.07158C15.8153 8.92178 16.3839 8.86327 16.9408 8.75977ZM22.4361 11.2266C20.8243 11.2266 19.2131 11.2176 17.6019 11.2317C17.1541 11.2279 16.7071 11.2699 16.2679 11.3571C13.5267 11.9576 11.6766 14.2451 11.6701 17.0385C11.6617 20.2813 11.6533 23.5235 11.6818 26.7657C11.6828 27.3972 11.7827 28.0246 11.9777 28.6256C12.8092 31.0835 14.9566 32.577 17.5735 32.5795C20.8049 32.5821 24.0361 32.5804 27.267 32.5744C27.7065 32.579 28.1452 32.5372 28.5758 32.4497C31.317 31.8485 33.1664 29.5611 33.1736 26.7676C33.1826 23.5254 33.1911 20.2826 33.1626 17.0411C33.161 16.4091 33.0605 15.7812 32.8647 15.1799C32.0338 12.7227 29.8858 11.2305 27.2696 11.226C25.6584 11.2238 24.0473 11.224 22.4361 11.2266Z" fill="white" fill-opacity="0.3"/>
<path d="M29.0414 21.9311C29.0123 25.5668 26.0127 28.5145 22.3837 28.4727C18.7229 28.4328 15.7752 25.4755 15.8043 21.8752C15.8334 18.2395 18.833 15.2918 22.462 15.3329C26.1208 15.376 29.068 18.3321 29.0414 21.9311ZM22.4225 17.7979C21.6052 17.7977 20.8061 18.0381 20.1263 18.4885C19.4464 18.939 18.9162 19.5794 18.6027 20.3288C18.2893 21.0782 18.2065 21.903 18.3649 22.6991C18.5233 23.4952 18.9157 24.2268 19.4927 24.8016C20.0697 25.3764 20.8052 25.7685 21.6066 25.9285C22.4079 26.0885 23.239 26.0091 23.9949 25.7005C24.7508 25.3918 25.3976 24.8677 25.8537 24.1943C26.3098 23.5209 26.5546 22.7284 26.5573 21.917C26.5571 20.827 26.1219 19.7815 25.3469 19.0095C24.572 18.2375 23.5204 17.8018 22.4225 17.7979Z" fill="white" fill-opacity="0.3"/>
<path d="M29.5355 15.7096C29.305 15.7108 29.0834 15.6211 28.9194 15.4604C28.7554 15.2996 28.6623 15.0808 28.6606 14.8519C28.6594 14.7367 28.6811 14.6223 28.7245 14.5154C28.768 14.4085 28.8322 14.3112 28.9136 14.229C28.995 14.1468 29.092 14.0814 29.1989 14.0365C29.3058 13.9915 29.4206 13.968 29.5367 13.9673C29.7718 13.9703 29.9962 14.0654 30.1611 14.2317C30.326 14.3981 30.4182 14.6224 30.4175 14.8558C30.4119 15.0843 30.3165 15.3015 30.1516 15.4611C29.9868 15.6206 29.7657 15.7098 29.5355 15.7096Z" fill="white" fill-opacity="0.3"/>
</g>
<defs>
<clipPath id="clip0_329_2604">
<rect width="26.4" height="26.4" fill="white" transform="translate(9.30005 8.7998)"/>
</clipPath>
</defs>
</svg>
