<svg width="28" height="20" viewBox="0 0 28 20" fill="none" xmlns="http://www.w3.org/2000/svg">
<g clip-path="url(#clip0_329_2602)">
<path d="M0.800049 17.5595C3.73936 17.7961 6.36108 17.1547 8.75466 15.5317C7.13431 15.447 5.82702 14.8938 4.79064 13.8469C4.28444 13.3357 3.8314 12.6037 3.73158 12.1346C4.50935 12.2187 5.2735 12.2368 6.07007 12.037C3.11326 11.3705 1.73078 9.04418 1.80985 7.21271C2.1942 7.34357 2.56623 7.49838 2.95576 7.59536C3.34605 7.68348 3.74469 7.73825 4.14639 7.75894C2.85983 6.87212 2.07235 5.72883 1.8779 4.2952C1.7243 3.16302 2.0017 2.09977 2.58113 1.25735C5.51526 4.36764 9.22586 6.08695 13.7726 6.36152C13.6415 5.73913 13.6227 5.10176 13.7168 4.47397C13.9871 2.66294 15.6308 0.981023 17.5959 0.530019C19.6097 0.0673307 21.3765 0.48153 22.899 1.75976C22.9452 1.7928 22.9984 1.81699 23.0554 1.83085C23.1123 1.84472 23.1718 1.84796 23.2302 1.84038C24.2782 1.648 25.2866 1.30937 26.2188 0.836725C26.2836 0.803425 26.3542 0.774799 26.4715 0.719884C26.058 1.86258 25.2867 2.70033 24.2406 3.35931C25.255 3.27051 26.2123 3.01405 27.143 2.66645L27.2 2.72487C26.7626 3.18639 26.3471 3.6666 25.8811 4.10241C25.5123 4.44768 25.0754 4.73335 24.6827 5.05934C24.5879 5.13863 24.5294 5.24697 24.5187 5.36312C24.5116 10.4065 22.3079 14.458 17.7528 17.4111C15.8317 18.6566 13.6364 19.3314 11.2902 19.6083C9.07225 19.87 6.88672 19.7438 4.73685 19.1859C3.38628 18.8361 2.09703 18.3167 0.906992 17.6431C0.869342 17.6174 0.833616 17.5894 0.800049 17.5595H0.800049Z" fill="white" fill-opacity="0.3"/>
</g>
<defs>
<clipPath id="clip0_329_2602">
<rect width="26.4" height="19.7419" fill="white" transform="translate(0.800049)"/>
</clipPath>
</defs>
</svg>
