<svg width="45" height="44" viewBox="0 0 45 44" fill="none" xmlns="http://www.w3.org/2000/svg">
<circle opacity="0.1" cx="22" cy="22" r="22" fill="#D9D9D9"/>
<g clip-path="url(#clip0_329_2600)">
<path d="M8.80005 29.5595C11.7394 29.7961 14.3611 29.1547 16.7547 27.5317C15.1343 27.447 13.827 26.8938 12.7906 25.8469C12.2844 25.3357 11.8314 24.6037 11.7316 24.1346C12.5093 24.2187 13.2735 24.2368 14.0701 24.037C11.1133 23.3705 9.73078 21.0442 9.80985 19.2127C10.1942 19.3436 10.5662 19.4984 10.9558 19.5954C11.3461 19.6835 11.7447 19.7382 12.1464 19.7589C10.8598 18.8721 10.0723 17.7288 9.8779 16.2952C9.7243 15.163 10.0017 14.0998 10.5811 13.2574C13.5153 16.3676 17.2259 18.0869 21.7726 18.3615C21.6415 17.7391 21.6227 17.1018 21.7168 16.474C21.9871 14.6629 23.6308 12.981 25.5959 12.53C27.6097 12.0673 29.3765 12.4815 30.899 13.7598C30.9452 13.7928 30.9984 13.817 31.0554 13.8309C31.1123 13.8447 31.1718 13.848 31.2302 13.8404C32.2782 13.648 33.2866 13.3094 34.2188 12.8367C34.2836 12.8034 34.3542 12.7748 34.4715 12.7199C34.058 13.8626 33.2867 14.7003 32.2406 15.3593C33.255 15.2705 34.2123 15.014 35.143 14.6664L35.2 14.7249C34.7626 15.1864 34.3471 15.6666 33.8811 16.1024C33.5123 16.4477 33.0754 16.7334 32.6827 17.0593C32.5879 17.1386 32.5294 17.247 32.5187 17.3631C32.5116 22.4065 30.3079 26.458 25.7528 29.4111C23.8317 30.6566 21.6364 31.3314 19.2902 31.6083C17.0722 31.87 14.8867 31.7438 12.7368 31.1859C11.3863 30.8361 10.097 30.3167 8.90699 29.6431C8.86934 29.6174 8.83362 29.5894 8.80005 29.5595V29.5595Z" fill="white" fill-opacity="0.3"/>
</g>
<defs>
<clipPath id="clip0_329_2600">
<rect width="26.4" height="19.7419" fill="white" transform="translate(8.80005 12)"/>
</clipPath>
</defs>
</svg>
