<svg width="45" height="44" viewBox="0 0 45 44" fill="none" xmlns="http://www.w3.org/2000/svg">
<circle cx="22.5" cy="22" r="22" fill="white" fill-opacity="0.1"/>
<g clip-path="url(#clip0_329_2610)">
<path d="M9.30005 14.6556C9.33862 14.5182 9.36893 14.3759 9.41715 14.2384C9.57067 13.7749 9.8671 13.3717 10.2641 13.0863C10.6611 12.8009 11.1384 12.6481 11.6277 12.6495C13.243 12.6427 14.8583 12.6495 16.473 12.6495H33.2512C34.4264 12.6495 35.3343 13.3052 35.6133 14.3677C35.6701 14.5923 35.6981 14.8232 35.6966 15.0549C35.7012 19.6228 35.7012 24.1909 35.6966 28.7593C35.6966 30.1736 34.6964 31.1646 33.2753 31.1646C26.1113 31.1646 18.9473 31.1646 11.7833 31.1646C10.4924 31.1646 9.65205 30.5062 9.33862 29.2527C9.32791 29.2218 9.31502 29.1917 9.30005 29.1627V14.6556ZM12.0051 14.2068C12.0782 14.2866 12.1264 14.3443 12.1787 14.3945C15.3874 17.6062 18.5965 20.8174 21.806 24.0283C22.2469 24.4695 22.7573 24.4667 23.2051 24.0186C26.4146 20.8078 29.6237 17.5966 32.8324 14.3848C32.8827 14.3347 32.9261 14.2769 32.9867 14.2068H12.0051ZM11.9859 29.6011H33.0142L26.3786 23.0407C26.3283 23.0888 26.2601 23.1513 26.1947 23.2166C25.5513 23.8599 24.9107 24.5066 24.2659 25.1471C23.2526 26.1518 21.7489 26.1505 20.7369 25.1471C20.3471 24.7602 19.9613 24.3691 19.5728 23.9788C19.2525 23.6585 18.9315 23.339 18.6249 23.0338L11.9859 29.6011ZM10.8617 15.3621V28.4562L17.4822 21.9136L10.8617 15.3621ZM34.1336 28.4651V15.3985L27.5207 21.9315L34.1336 28.4651Z" fill="white" fill-opacity="0.3"/>
</g>
<defs>
<clipPath id="clip0_329_2610">
<rect width="26.4" height="18.5625" fill="white" transform="translate(9.30005 12.6499)"/>
</clipPath>
</defs>
</svg>
