<svg width="16" height="72" viewBox="0 0 16 72" fill="none" xmlns="http://www.w3.org/2000/svg">
<path d="M16 58.1387L13.8613 56L8.00451 61.8568L2.13875 56L0 58.1387L5.86576 63.9955L0 69.8613L2.13875 72L8.00451 66.1433L13.8613 72L16 69.8613L10.1433 63.9955L16 58.1387Z" fill="#C1D1D6"/>
<path d="M16 2.13874L13.8613 0L8.00451 5.85675L2.13875 0L0 2.13874L5.86576 7.9955L0 13.8613L2.13875 16L8.00451 10.1433L13.8613 16L16 13.8613L10.1433 7.9955L16 2.13874Z" fill="#C1D1D6"/>
<path d="M16 30.1387L13.8613 28L8.00451 33.8567L2.13875 28L0 30.1387L5.86576 35.9955L0 41.8613L2.13875 44L8.00451 38.1433L13.8613 44L16 41.8613L10.1433 35.9955L16 30.1387Z" fill="#330867"/>
</svg>
