<svg width="142" height="128" viewBox="0 0 142 128" fill="none" xmlns="http://www.w3.org/2000/svg">
<g style="mix-blend-mode:multiply">
<g style="mix-blend-mode:multiply">
<path d="M120.161 44C120.161 43.2088 120.396 42.4355 120.835 41.7777C121.275 41.1199 121.899 40.6072 122.63 40.3045C123.361 40.0017 124.166 39.9225 124.941 40.0769C125.717 40.2312 126.43 40.6121 126.99 41.1715C127.549 41.731 127.93 42.4437 128.084 43.2197C128.239 43.9956 128.159 44.7998 127.857 45.5307C127.554 46.2616 127.041 46.8864 126.383 47.3259C125.726 47.7654 124.952 48 124.161 48C123.1 48 122.083 47.5786 121.333 46.8284C120.583 46.0783 120.161 45.0608 120.161 44Z" fill="#C1D1D6"/>
</g>
<g style="mix-blend-mode:multiply">
<path d="M119.851 3.99998C119.851 3.20885 120.085 2.43551 120.525 1.77771C120.964 1.11991 121.589 0.607242 122.32 0.30449C123.051 0.00173912 123.855 -0.0774835 124.631 0.0768579C125.407 0.231199 126.12 0.61213 126.679 1.17154C127.238 1.73095 127.619 2.44373 127.774 3.21965C127.928 3.99558 127.849 4.79984 127.546 5.53074C127.243 6.26165 126.731 6.88635 126.073 7.32588C125.415 7.76541 124.642 8 123.851 8C122.79 8 121.772 7.57856 121.022 6.82841C120.272 6.07826 119.851 5.06085 119.851 3.99998Z" fill="#C1D1D6"/>
</g>
<g style="mix-blend-mode:multiply">
<path d="M80.21 44C80.21 43.2088 80.4446 42.4355 80.8841 41.7777C81.3236 41.1199 81.9484 40.6072 82.6793 40.3045C83.4102 40.0017 84.2144 39.9225 84.9903 40.0769C85.7663 40.2312 86.479 40.6121 87.0384 41.1715C87.5978 41.731 87.9788 42.4437 88.1331 43.2197C88.2874 43.9956 88.2082 44.7998 87.9055 45.5307C87.6027 46.2616 87.09 46.8864 86.4322 47.3259C85.7744 47.7654 85.0011 48 84.21 48C83.6847 48 83.1646 47.8965 82.6793 47.6955C82.194 47.4945 81.753 47.1998 81.3815 46.8284C81.0101 46.457 80.7155 46.016 80.5144 45.5307C80.3134 45.0454 80.21 44.5253 80.21 44V44Z" fill="#C1D1D6"/>
</g>
<g style="mix-blend-mode:multiply">
<path d="M79.8994 3.99998C79.8994 3.20885 80.134 2.43551 80.5735 1.77771C81.0131 1.11991 81.6378 0.607242 82.3687 0.30449C83.0996 0.00173912 83.9039 -0.0774835 84.6798 0.0768579C85.4557 0.231199 86.1684 0.61213 86.7278 1.17154C87.2872 1.73095 87.6682 2.44373 87.8226 3.21965C87.9769 3.99558 87.8977 4.79984 87.5949 5.53074C87.2922 6.26165 86.7795 6.88635 86.1217 7.32588C85.4639 7.76541 84.6905 8 83.8994 8C83.3741 8 82.854 7.89654 82.3687 7.69552C81.8834 7.4945 81.4424 7.19985 81.071 6.82841C80.6996 6.45698 80.4049 6.01605 80.2039 5.53074C80.0029 5.04544 79.8994 4.52527 79.8994 3.99998V3.99998Z" fill="#C1D1D6"/>
</g>
<g style="mix-blend-mode:multiply">
<path d="M40.2607 44C40.2607 43.2088 40.4953 42.4355 40.9349 41.7777C41.3744 41.1199 41.9991 40.6072 42.73 40.3045C43.4609 40.0017 44.2652 39.9225 45.0411 40.0769C45.817 40.2312 46.5297 40.6121 47.0891 41.1715C47.6486 41.731 48.0295 42.4437 48.1839 43.2197C48.3382 43.9956 48.259 44.7998 47.9563 45.5307C47.6535 46.2616 47.1408 46.8864 46.483 47.3259C45.8252 47.7654 45.0518 48 44.2607 48C43.1998 48 42.1824 47.5786 41.4323 46.8284C40.6821 46.0783 40.2607 45.0608 40.2607 44Z" fill="#C1D1D6"/>
</g>
<g style="mix-blend-mode:multiply">
<path d="M39.9502 3.99998C39.9502 3.20885 40.1848 2.43551 40.6243 1.77771C41.0638 1.11991 41.6885 0.607242 42.4195 0.30449C43.1504 0.00173912 43.9546 -0.0774835 44.7305 0.0768579C45.5065 0.231199 46.2192 0.61213 46.7786 1.17154C47.338 1.73095 47.719 2.44373 47.8733 3.21965C48.0277 3.99558 47.9485 4.79984 47.6457 5.53074C47.343 6.26165 46.8303 6.88635 46.1725 7.32588C45.5147 7.76541 44.7413 8 43.9502 8C42.8893 8 41.8719 7.57856 41.1217 6.82841C40.3716 6.07826 39.9502 5.06085 39.9502 3.99998Z" fill="#C1D1D6"/>
</g>
<g style="mix-blend-mode:multiply">
<path d="M0.310547 44C0.310547 43.2088 0.545139 42.4355 0.984663 41.7777C1.42419 41.1199 2.04894 40.6072 2.77984 40.3045C3.51075 40.0017 4.315 39.9225 5.09092 40.0769C5.86684 40.2312 6.57955 40.6121 7.13896 41.1715C7.69836 41.731 8.07935 42.4437 8.23369 43.2197C8.38803 43.9956 8.30881 44.7998 8.00606 45.5307C7.70331 46.2616 7.19059 46.8864 6.53279 47.3259C5.875 47.7654 5.10166 48 4.31054 48C3.24968 48 2.23227 47.5786 1.48213 46.8284C0.731984 46.0783 0.310547 45.0608 0.310547 44Z" fill="#C1D1D6"/>
</g>
<g style="mix-blend-mode:multiply">
<path d="M3.14651e-07 3.99998C3.83814e-07 3.20885 0.234592 2.43551 0.674116 1.77771C1.11364 1.11991 1.7384 0.607242 2.4693 0.30449C3.2002 0.00173912 4.00445 -0.0774835 4.78037 0.0768579C5.55629 0.231199 6.269 0.61213 6.82841 1.17154C7.38782 1.73095 7.7688 2.44373 7.92314 3.21965C8.07748 3.99558 7.99826 4.79984 7.69551 5.53074C7.39276 6.26165 6.88004 6.88635 6.22225 7.32588C5.56445 7.76541 4.79112 8 3.99999 8C2.93913 8 1.92172 7.57856 1.17158 6.82841C0.421437 6.07826 2.21907e-07 5.06085 3.14651e-07 3.99998Z" fill="#C1D1D6"/>
</g>
<g style="mix-blend-mode:multiply">
<path d="M119.851 124C119.851 123.209 120.085 122.436 120.525 121.778C120.964 121.12 121.589 120.607 122.32 120.304C123.051 120.002 123.855 119.923 124.631 120.077C125.407 120.231 126.12 120.612 126.679 121.172C127.238 121.731 127.619 122.444 127.774 123.22C127.928 123.996 127.849 124.8 127.546 125.531C127.243 126.262 126.731 126.886 126.073 127.326C125.415 127.765 124.642 128 123.851 128C122.79 128 121.772 127.579 121.022 126.828C120.272 126.078 119.851 125.061 119.851 124Z" fill="#C1D1D6"/>
</g>
<g style="mix-blend-mode:multiply">
<path d="M79.9004 124C79.9004 123.209 80.135 122.436 80.5745 121.778C81.014 121.12 81.6388 120.607 82.3697 120.304C83.1006 120.002 83.9048 119.923 84.6808 120.077C85.4567 120.231 86.1694 120.612 86.7288 121.172C87.2882 121.731 87.6692 122.444 87.8235 123.22C87.9779 123.996 87.8987 124.8 87.5959 125.531C87.2932 126.262 86.7804 126.886 86.1226 127.326C85.4648 127.765 84.6915 128 83.9004 128C83.3751 128 82.855 127.897 82.3697 127.696C81.8844 127.495 81.4434 127.2 81.072 126.828C80.7005 126.457 80.4059 126.016 80.2049 125.531C80.0038 125.045 79.9004 124.525 79.9004 124V124Z" fill="#C1D1D6"/>
</g>
<g style="mix-blend-mode:multiply">
<path d="M39.9502 124C39.9502 123.209 40.1848 122.436 40.6243 121.778C41.0638 121.12 41.6885 120.607 42.4195 120.304C43.1504 120.002 43.9546 119.923 44.7305 120.077C45.5065 120.231 46.2192 120.612 46.7786 121.172C47.338 121.731 47.719 122.444 47.8733 123.22C48.0277 123.996 47.9485 124.8 47.6457 125.531C47.343 126.262 46.8303 126.886 46.1725 127.326C45.5147 127.765 44.7413 128 43.9502 128C42.8893 128 41.8719 127.579 41.1217 126.828C40.3716 126.078 39.9502 125.061 39.9502 124Z" fill="#C1D1D6"/>
</g>
<g style="mix-blend-mode:multiply">
<path d="M3.14649e-07 124C3.83811e-07 123.209 0.234592 122.436 0.674116 121.778C1.11364 121.12 1.7384 120.607 2.4693 120.304C3.2002 120.002 4.00445 119.923 4.78037 120.077C5.55629 120.231 6.269 120.612 6.82841 121.172C7.38782 121.731 7.7688 122.444 7.92314 123.22C8.07748 123.996 7.99826 124.8 7.69551 125.531C7.39276 126.262 6.88004 126.886 6.22225 127.326C5.56445 127.765 4.79112 128 3.99999 128C2.93913 128 1.92172 127.579 1.17158 126.828C0.421437 126.078 2.21906e-07 125.061 3.14649e-07 124Z" fill="#C1D1D6"/>
</g>
<g style="mix-blend-mode:multiply">
<path d="M119.851 84C119.851 83.2089 120.085 82.4355 120.525 81.7777C120.964 81.1199 121.589 80.6072 122.32 80.3044C123.051 80.0017 123.855 79.9225 124.631 80.0769C125.407 80.2312 126.12 80.6121 126.679 81.1716C127.238 81.731 127.619 82.4437 127.774 83.2196C127.928 83.9955 127.849 84.7998 127.546 85.5307C127.243 86.2617 126.731 86.8864 126.073 87.3259C125.415 87.7654 124.642 88 123.851 88C122.79 88 121.772 87.5786 121.022 86.8284C120.272 86.0783 119.851 85.0609 119.851 84Z" fill="#C1D1D6"/>
</g>
<g style="mix-blend-mode:multiply">
<path d="M79.8994 84C79.8994 83.2089 80.134 82.4355 80.5735 81.7777C81.0131 81.1199 81.6378 80.6072 82.3687 80.3044C83.0996 80.0017 83.9039 79.9225 84.6798 80.0769C85.4557 80.2312 86.1684 80.6121 86.7278 81.1716C87.2872 81.731 87.6682 82.4437 87.8226 83.2196C87.9769 83.9955 87.8977 84.7998 87.5949 85.5307C87.2922 86.2617 86.7795 86.8864 86.1217 87.3259C85.4639 87.7654 84.6905 88 83.8994 88C83.3741 88 82.854 87.8965 82.3687 87.6955C81.8834 87.4945 81.4424 87.1998 81.071 86.8284C80.6996 86.457 80.4049 86.016 80.2039 85.5307C80.0029 85.0454 79.8994 84.5253 79.8994 84V84Z" fill="#C1D1D6"/>
</g>
<g style="mix-blend-mode:multiply">
<path d="M39.9502 84C39.9502 83.2089 40.1848 82.4355 40.6243 81.7777C41.0638 81.1199 41.6885 80.6072 42.4195 80.3044C43.1504 80.0017 43.9546 79.9225 44.7305 80.0769C45.5065 80.2312 46.2192 80.6121 46.7786 81.1716C47.338 81.731 47.719 82.4437 47.8733 83.2196C48.0277 83.9955 47.9485 84.7998 47.6457 85.5307C47.343 86.2617 46.8303 86.8864 46.1725 87.3259C45.5147 87.7654 44.7413 88 43.9502 88C42.8893 88 41.8719 87.5786 41.1217 86.8284C40.3716 86.0783 39.9502 85.0609 39.9502 84Z" fill="#C1D1D6"/>
</g>
<g style="mix-blend-mode:multiply">
<path d="M3.14651e-07 84C3.83813e-07 83.2089 0.234592 82.4355 0.674116 81.7777C1.11364 81.1199 1.7384 80.6072 2.4693 80.3044C3.2002 80.0017 4.00445 79.9225 4.78037 80.0769C5.55629 80.2312 6.269 80.6121 6.82841 81.1716C7.38782 81.731 7.7688 82.4437 7.92314 83.2196C8.07748 83.9955 7.99826 84.7998 7.69551 85.5307C7.39276 86.2617 6.88004 86.8864 6.22225 87.3259C5.56445 87.7654 4.79112 88 3.99999 88C2.93913 88 1.92172 87.5786 1.17158 86.8284C0.421437 86.0783 2.21907e-07 85.0609 3.14651e-07 84Z" fill="#C1D1D6"/>
</g>
</g>
</svg>
