<svg width="248" height="62" viewBox="0 0 248 62" fill="none" xmlns="http://www.w3.org/2000/svg">
<g style="mix-blend-mode:multiply">
<g style="mix-blend-mode:multiply">
<path d="M10.2254 5.76031C10.2254 6.77151 9.92555 7.75998 9.36376 8.60076C8.80197 9.44154 8.00349 10.0968 7.06927 10.4838C6.13504 10.8708 5.10699 10.972 4.11522 10.7747C3.12345 10.5775 2.21248 10.0906 1.49745 9.37555C0.782427 8.66053 0.295533 7.74947 0.0982577 6.7577C-0.0990172 5.76593 0.00216878 4.73795 0.389137 3.80373C0.776106 2.8695 1.43146 2.07102 2.27224 1.50923C3.11302 0.947435 4.10148 0.647583 5.11268 0.647583C6.46866 0.647583 7.76909 1.18626 8.72791 2.14508C9.68673 3.1039 10.2254 4.40434 10.2254 5.76031Z" fill="#30CFD0"/>
</g>
<g style="mix-blend-mode:multiply">
<path d="M10.6224 56.8873C10.6224 57.8985 10.3225 58.887 9.76073 59.7278C9.19894 60.5686 8.40046 61.2238 7.46624 61.6108C6.53201 61.9978 5.50396 62.099 4.51219 61.9018C3.52043 61.7045 2.60945 61.2176 1.89442 60.5026C1.1794 59.7875 0.692505 58.8765 0.49523 57.8847C0.297955 56.8929 0.399141 55.865 0.78611 54.9307C1.17308 53.9965 1.82843 53.198 2.66921 52.6362C3.50999 52.0744 4.49846 51.7746 5.50965 51.7746C6.86563 51.7746 8.16607 52.3133 9.12488 53.2721C10.0837 54.2309 10.6224 55.5314 10.6224 56.8873Z" fill="#30CFD0"/>
</g>
<g style="mix-blend-mode:multiply">
<path d="M61.2889 5.76031C61.2889 6.77151 60.989 7.75998 60.4272 8.60076C59.8654 9.44154 59.067 10.0968 58.1327 10.4838C57.1985 10.8708 56.1705 10.972 55.1788 10.7747C54.187 10.5775 53.276 10.0906 52.561 9.37555C51.846 8.66053 51.359 7.74947 51.1617 6.7577C50.9644 5.76593 51.0657 4.73795 51.4527 3.80373C51.8396 2.8695 52.4949 2.07102 53.3357 1.50923C54.1765 0.947435 55.165 0.647583 56.1762 0.647583C57.5322 0.647583 58.8326 1.18626 59.7915 2.14508C60.7503 3.1039 61.2889 4.40434 61.2889 5.76031Z" fill="#30CFD0"/>
</g>
<g style="mix-blend-mode:multiply">
<path d="M61.6859 56.8873C61.6859 57.8985 61.386 58.887 60.8242 59.7278C60.2624 60.5686 59.4639 61.2238 58.5297 61.6108C57.5955 61.9978 56.5675 62.099 55.5757 61.9018C54.584 61.7045 53.673 61.2176 52.958 60.5026C52.2429 59.7875 51.756 58.8765 51.5587 57.8847C51.3614 56.8929 51.4627 55.865 51.8496 54.9307C52.2366 53.9965 52.8919 53.198 53.7327 52.6362C54.5735 52.0744 55.562 51.7746 56.5732 51.7746C57.9292 51.7746 59.2296 52.3133 60.1884 53.2721C61.1473 54.2309 61.6859 55.5314 61.6859 56.8873Z" fill="#30CFD0"/>
</g>
<g style="mix-blend-mode:multiply">
<path d="M112.351 5.76031C112.351 6.77151 112.051 7.75998 111.489 8.60076C110.927 9.44154 110.129 10.0968 109.195 10.4838C108.26 10.8708 107.233 10.972 106.241 10.7747C105.249 10.5775 104.338 10.0906 103.623 9.37555C102.908 8.66053 102.421 7.74947 102.224 6.7577C102.026 5.76593 102.128 4.73795 102.515 3.80373C102.902 2.8695 103.557 2.07102 104.398 1.50923C105.239 0.947435 106.227 0.647583 107.238 0.647583C107.91 0.647583 108.574 0.779823 109.195 1.03676C109.815 1.2937 110.379 1.67032 110.853 2.14508C111.328 2.61984 111.705 3.18342 111.962 3.80373C112.219 4.42403 112.351 5.0889 112.351 5.76031V5.76031Z" fill="#30CFD0"/>
</g>
<g style="mix-blend-mode:multiply">
<path d="M112.749 56.8873C112.749 57.8985 112.449 58.887 111.887 59.7278C111.325 60.5686 110.527 61.2238 109.593 61.6108C108.658 61.9978 107.63 62.099 106.639 61.9018C105.647 61.7045 104.736 61.2176 104.021 60.5026C103.306 59.7875 102.819 58.8765 102.622 57.8847C102.424 56.8929 102.526 55.865 102.913 54.9307C103.3 53.9965 103.955 53.198 104.796 52.6362C105.636 52.0744 106.625 51.7746 107.636 51.7746C108.308 51.7746 108.972 51.9068 109.593 52.1638C110.213 52.4207 110.777 52.7973 111.251 53.2721C111.726 53.7469 112.103 54.3104 112.36 54.9307C112.617 55.551 112.749 56.2159 112.749 56.8873V56.8873Z" fill="#30CFD0"/>
</g>
<g style="mix-blend-mode:multiply">
<path d="M163.414 5.76031C163.414 6.77151 163.115 7.75998 162.553 8.60076C161.991 9.44154 161.192 10.0968 160.258 10.4838C159.324 10.8708 158.296 10.972 157.304 10.7747C156.312 10.5775 155.402 10.0906 154.686 9.37555C153.971 8.66053 153.484 7.74947 153.287 6.7577C153.09 5.76593 153.191 4.73795 153.578 3.80373C153.965 2.8695 154.62 2.07102 155.461 1.50923C156.302 0.947435 157.291 0.647583 158.302 0.647583C159.658 0.647583 160.958 1.18626 161.917 2.14508C162.876 3.1039 163.414 4.40434 163.414 5.76031Z" fill="#30CFD0"/>
</g>
<g style="mix-blend-mode:multiply">
<path d="M163.811 56.8873C163.811 57.8985 163.511 58.887 162.95 59.7278C162.388 60.5686 161.589 61.2238 160.655 61.6108C159.721 61.9978 158.693 62.099 157.701 61.9018C156.709 61.7045 155.798 61.2176 155.083 60.5026C154.368 59.7875 153.881 58.8765 153.684 57.8847C153.487 56.8929 153.588 55.865 153.975 54.9307C154.362 53.9965 155.017 53.198 155.858 52.6362C156.699 52.0744 157.687 51.7746 158.699 51.7746C160.055 51.7746 161.355 52.3133 162.314 53.2721C163.273 54.2309 163.811 55.5314 163.811 56.8873Z" fill="#30CFD0"/>
</g>
<g style="mix-blend-mode:multiply">
<path d="M214.477 5.76031C214.477 6.77151 214.178 7.75998 213.616 8.60076C213.054 9.44154 212.255 10.0968 211.321 10.4838C210.387 10.8708 209.359 10.972 208.367 10.7747C207.375 10.5775 206.464 10.0906 205.749 9.37555C205.034 8.66053 204.547 7.74947 204.35 6.7577C204.153 5.76593 204.254 4.73795 204.641 3.80373C205.028 2.8695 205.683 2.07102 206.524 1.50923C207.365 0.947435 208.353 0.647583 209.365 0.647583C210.721 0.647583 212.021 1.18626 212.98 2.14508C213.939 3.1039 214.477 4.40434 214.477 5.76031Z" fill="#30CFD0"/>
</g>
<g style="mix-blend-mode:multiply">
<path d="M214.874 56.8873C214.874 57.8985 214.574 58.887 214.013 59.7278C213.451 60.5686 212.652 61.2238 211.718 61.6108C210.784 61.9978 209.756 62.099 208.764 61.9018C207.772 61.7045 206.861 61.2176 206.146 60.5026C205.431 59.7875 204.944 58.8765 204.747 57.8847C204.55 56.8929 204.651 55.865 205.038 54.9307C205.425 53.9965 206.08 53.198 206.921 52.6362C207.762 52.0744 208.75 51.7746 209.762 51.7746C211.118 51.7746 212.418 52.3133 213.377 53.2721C214.336 54.2309 214.874 55.5314 214.874 56.8873Z" fill="#30CFD0"/>
</g>
</g>
</svg>
